<?xml version="1.0" encoding="utf-8"?>
<!-- Generator: Adobe Illustrator 27.5.0, SVG Export Plug-In . SVG Version: 6.00 Build 0)  -->
<svg version="1.1" xmlns="http://www.w3.org/2000/svg" xmlns:xlink="http://www.w3.org/1999/xlink" x="0px" y="0px"
	 viewBox="0 0 500 500" style="enable-background:new 0 0 500 500;" xml:space="preserve">
<g id="BACKGROUND">
	<rect style="fill:#FFFFFF;" width="500" height="500"/>
</g>
<g id="OBJECTS">
	<path style="fill:#FAF6F3;" d="M42.318,172.031c-2.583-16.577-4.788-34.14-8.846-50.422c-4.546-18.24-8.757-44.242,1.83-61.383
		c3.733-6.044,10.384-9.983,17.19-12.794c21.464-8.866,46.967-8.003,68.066,1.395c10.996,4.898,18.233,11.363,30.674,13.145
		c12.161,1.742,24.935-0.121,35.891-5.404c9.934-4.79,17.358-13.012,26.6-18.755c16.443-10.218,40.08-4.17,57.392,0.006
		c32.051,7.732,63.478,22.943,97.443,19.416c19.156-1.989,37.593-9.902,56.729-12.262c19.136-2.36,41.221,2.998,48.001,19.444
		c6.968,16.901-5.022,36.054-10.613,54.219c-4.601,14.947-4.804,30.806-0.579,45.272c6.835,23.404,31.455,67.079-4.223,84.164
		c-9.255,4.432-19.813,4.791-29.841,4.273c-17.746-0.917-35.168-4.289-51.545-9.977c-23.517-8.167-39.452-15.594-65.484-6.165
		c-35.691,12.927-59.444,44.127-98.572,47.031c-35.684,2.649-72.857-15.125-107.518-3.466c-16.029,5.392-30.428,17.157-47.101,17.92
		c-16.245,0.744-25.15-7.544-30.496-20.763c-7.218-17.851,3.773-30.855,11.185-48.376C46.245,210.246,45.344,191.137,42.318,172.031
		z"/>
	<g>
		<g>
			<g>
				<rect x="237.034" y="56.9" style="fill:#CFBCB7;" width="90.172" height="6.192"/>
			</g>
			<g>
				<rect x="237.034" y="73.064" style="fill:#CFBCB7;" width="90.172" height="6.192"/>
			</g>
			<g>
				<rect x="237.034" y="89.229" style="fill:#CFBCB7;" width="90.172" height="6.192"/>
			</g>
			<g>
				<rect x="237.034" y="105.393" style="fill:#CFBCB7;" width="90.172" height="6.192"/>
			</g>
			<g>
				<rect x="237.034" y="121.558" style="fill:#CFBCB7;" width="90.172" height="6.192"/>
			</g>
			<g>
				<rect x="237.034" y="137.722" style="fill:#CFBCB7;" width="90.172" height="6.192"/>
			</g>
			<g>
				<rect x="237.034" y="153.887" style="fill:#CFBCB7;" width="90.172" height="6.192"/>
			</g>
			<g>
				<rect x="237.034" y="170.051" style="fill:#CFBCB7;" width="90.172" height="6.192"/>
			</g>
			<g>
				<rect x="237.034" y="186.215" style="fill:#CFBCB7;" width="90.172" height="6.192"/>
			</g>
		</g>
	</g>
	<g>
		<path style="fill:#964437;" d="M244.868,93.53c0,11.01,8.926,19.936,19.936,19.936c11.01,0,19.936-8.926,19.936-19.936H244.868z"
			/>
		<rect x="243.053" y="89.768" style="fill:#964437;" width="43.501" height="3.763"/>
		
			<line style="fill:none;stroke:#61403F;stroke-width:0.75;stroke-linecap:round;stroke-linejoin:round;stroke-miterlimit:10;" x1="244.868" y1="93.53" x2="284.739" y2="93.53"/>
		<path style="fill:#95A17F;" d="M245.949,89.768c0,0-2.474-3.364-1.903-4.626c0.571-1.261,2.664,0.841,2.664,0.841
			s-1.427-9.252,0.476-10.373c1.903-1.121,5.804,6.448,5.804,6.448s0.476-6.254,1.713-6.561c1.237-0.307,3.185,5.16,3.185,5.16
			s4.712-12.756,7.947-12.475c3.235,0.28,1.998,13.176,1.998,13.176s4.281-4.906,5.804-4.906c1.522,0,0,6.728,0,6.728
			s3.235-7.429,5.043-7.85c1.808-0.421,3.615,9.672,3.615,9.672s1.998-3.084,3.045-2.523c1.047,0.561-0.904,7.289-0.904,7.289
			H245.949z"/>
	</g>
	<g>
		<path style="fill:#964437;" d="M282.054,148.008c0,11.01,8.926,19.936,19.936,19.936c11.01,0,19.936-8.926,19.936-19.936H282.054z
			"/>
		<rect x="280.24" y="144.245" style="fill:#964437;" width="43.502" height="3.763"/>
		
			<line style="fill:none;stroke:#61403F;stroke-width:0.75;stroke-linecap:round;stroke-linejoin:round;stroke-miterlimit:10;" x1="282.054" y1="148.008" x2="321.926" y2="148.008"/>
		<path style="fill:#95A17F;" d="M283.135,144.245c0,0-2.474-3.364-1.903-4.626c0.571-1.262,2.664,0.841,2.664,0.841
			s-1.427-9.251,0.476-10.373c1.903-1.121,5.804,6.448,5.804,6.448s0.476-6.254,1.713-6.561c1.237-0.307,3.185,5.16,3.185,5.16
			s4.712-12.756,7.947-12.475c3.235,0.28,1.998,13.176,1.998,13.176s4.281-4.906,5.804-4.906c1.522,0,0,6.728,0,6.728
			s3.235-7.429,5.043-7.85c1.808-0.421,3.615,9.672,3.615,9.672s1.998-3.084,3.045-2.523s-0.904,7.289-0.904,7.289H283.135z"/>
	</g>
	<g>
		<path style="fill:#FAE0CB;" d="M487.613,422.379c-1.4,1.62-11.25,3.49-26.41,5.46c-9.49,1.24-21.07,2.51-33.96,3.8
			c-12.06,1.21-25.28,2.43-39.01,3.63c-9.3,0.81-18.83,1.61-28.4,2.4c-17.15,1.42-34.42,2.78-50.69,4.04
			c-13.17,1.02-25.69,1.97-36.94,2.84c-7.87,0.6-15.13,1.16-21.57,1.67c-7.62,0.6-15.52,1.41-23.55,2.37
			c-10.68,1.28-21.59,2.81-32.36,4.44c-13.29,2.02-26.36,4.2-38.54,6.25c-12.32,2.06-23.71,4-33.47,5.5
			c-19.99,3.08-33.12,4.34-33.27,1.21c-0.4-8.32-50.06-64.14-54.87-79.12c-4.81-14.99-27.45-35.38-21.63-42.08
			c2.36-2.72,10.5-4.89,22.19-6.7c8.43-1.31,18.71-2.43,29.99-3.42c14.87-1.32,31.49-2.43,47.95-3.48
			c12.7-0.81,25.3-1.59,36.92-2.41c10.65-0.75,20.48-1.53,28.8-2.39c4.74-0.49,10.7-1.17,17.62-1.98
			c10.17-1.19,22.42-2.67,35.89-4.3c17.23-2.08,36.46-4.39,55.9-6.61c10.41-1.19,20.88-2.35,31.15-3.44
			c14.86-1.58,29.27-3.01,42.4-4.13c11.96-1.03,22.86-1.8,32.06-2.21c17.37-0.78,28.71-0.26,29.78,2.3
			C428.143,316.889,493.663,415.409,487.613,422.379z"/>
		<path style="fill:#FAE9DC;" d="M156.183,459.279c-12.32,2.06-23.71,4-33.47,5.5c-2.41-4.87-4.81-9.73-7.22-14.6
			c-1.17-2.36-2.37-4.77-4.17-6.69c-1.5-1.6-3.39-2.84-4.63-4.64c-1.88-2.72-2.06-6.41-4.22-8.9c-1.77-2.04-4.54-2.89-6.64-4.59
			c-1.62-1.3-2.79-3.07-3.93-4.8c-1.94-2.95-3.7-6.34-6.04-8.98c-1.58-1.77-3.57-1.61-4.5-4.41c-0.71-2.14-0.88-4.53-2.17-6.38
			c-0.83-1.2-2.05-2.06-3.04-3.13c-2.58-2.82-3.3-6.82-4.7-10.38c-2.5-6.4-9.13-13.4-13.76-18.49c-3.08-3.4-6.29-4.81-7.39-9.89
			c-0.31-1.42-0.53-3.07-1.75-3.86c-0.54-0.34-1.2-0.45-1.78-0.72c-3.49-1.61-3.91-8.14-6.43-11.05c-1.24-1.44-3.24-1.97-4.37-3.57
			c-0.36-0.51-0.63-1.05-0.84-1.61c8.43-1.31,18.71-2.43,29.99-3.42c0.83,1.04,1.79,1.93,2.99,2.46c1.51,0.65,3.34,0.69,4.53,1.82
			c1.23,1.16,1.35,3.03,1.99,4.59c1.06,2.56,3.51,4.2,5.68,5.91c6.51,5.12,11.43,11.94,16.26,18.67c3.16,4.41,6.33,8.83,9.5,13.24
			c4.27,5.96,8.56,11.93,12.22,18.29c2.79,4.83,5.22,9.87,8.21,14.58c3.49,5.49,12.56,13.21,13.38,19.76
			c0.18,1.37,0.07,2.84,0.79,4.02c1.5,2.48,5.81,2.37,6.78,5.11c0.35,1,0.11,2.11,0.14,3.18c0.1,3.53,3.41,5.08,5.29,7.54
			C154.123,455.469,155.193,457.339,156.183,459.279z"/>
		<path style="fill:none;stroke:#61403F;stroke-width:0.75;stroke-linecap:round;stroke-linejoin:round;stroke-miterlimit:10;" d="
			M36.857,375.712c-2.177-4.077-15.716-21.463-16.714-24.139c-2.833-7.597,56.863-10.701,68.568-12.726"/>
		<path style="fill:#FAE9DC;" d="M388.233,435.269c-9.3,0.81-18.83,1.61-28.4,2.4c-0.24-0.48-0.48-0.95-0.71-1.43
			c-0.99-2.03-2.11-4.18-4.07-5.3c-1.42-0.82-3.23-1.07-4.3-2.32c-1.09-1.28-1-3.16-1.46-4.78c-0.77-2.66-3.02-4.56-4.99-6.5
			c-5.9-5.81-10.03-13.14-14.08-20.37c-2.66-4.74-5.32-9.47-7.97-14.21c-3.59-6.4-7.18-12.81-10.12-19.53
			c-2.23-5.12-4.08-10.4-6.54-15.41c-2.85-5.84-11.01-14.52-11.1-21.13c-0.02-1.37,0.25-2.82-0.33-4.07
			c-1.22-2.64-5.51-3.01-6.17-5.83c-0.24-1.04,0.12-2.12,0.21-3.18v-0.11c10.41-1.19,20.88-2.35,31.15-3.44
			c0.39,1.08,0.79,2.17,1.18,3.25c0.9,2.49,1.82,5.01,3.4,7.12c1.32,1.76,3.06,3.2,4.09,5.13c1.56,2.91,1.33,6.59,3.2,9.31
			c1.54,2.22,4.19,3.37,6.09,5.29c1.46,1.48,2.43,3.37,3.37,5.22c1.61,3.14,2.98,6.71,5.01,9.59c1.37,1.94,3.36,2,3.98,4.89
			c0.47,2.21,0.37,4.59,1.45,6.58c0.69,1.28,1.81,2.27,2.67,3.45c2.25,3.09,2.52,7.14,3.51,10.84c1.78,6.64,7.6,14.32,11.62,19.9
			c2.69,3.72,5.73,5.48,6.26,10.65c0.14,1.44,0.18,3.11,1.31,4.03c0.5,0.4,1.14,0.58,1.68,0.91c3.29,1.99,2.98,8.52,5.16,11.7
			c1.08,1.57,3.01,2.32,3.95,4.03C387.863,433.009,388.093,434.129,388.233,435.269z"/>
		<path style="fill:#FAE9DC;" d="M227.083,448.589c-10.68,1.28-21.59,2.81-32.36,4.44c-2.24-3.14-4.48-6.27-6.72-9.41
			c-7.27-10.18-14.63-20.52-20.11-32.32c-1.62-3.49-3.14-7.21-5.49-9.91c-1.62-1.86-3.52-3.08-5.22-4.78
			c-3.91-3.93-6.35-9.94-9.27-15.24c-6.41-11.67-15.01-22.69-23.45-29.46c-2.34-1.89-2.57-6.12-3.73-9.41
			c-1.5-4.21-4.88-7.8-7.66-11.31c12.7-0.81,25.3-1.59,36.92-2.41c1.35,1.9,2.63,3.85,3.81,5.84c4.75,8.04,4.26,11.53,11.06,15.44
			c2.51,1.44,3.44,5.74,4.99,8.94c2.05,4.19,5.28,5.92,7.86,9.2c7.88,10.03,16.36,25.48,22.08,37.57c1.19,2.52,2.35,5.18,4.06,7.1
			c0.93,1.04,1.97,1.81,2.89,2.83c3.93,4.34,4.79,11.89,8.38,16.79C216.003,433.689,222.153,441.659,227.083,448.589z"/>
		<path style="fill:#FAE9DC;" d="M461.203,427.839c-9.49,1.24-21.07,2.51-33.96,3.8c-2.84-4.27-5.55-8.69-7.72-13.29
			c-3.99-8.45-3.18-11.87-9.59-16.4c-2.36-1.66-2.89-6.03-4.14-9.36c-1.65-4.36-4.71-6.38-6.98-9.88
			c-6.92-10.71-13.94-26.89-18.52-39.45c-0.95-2.62-1.86-5.37-3.39-7.45c-0.82-1.11-1.79-1.98-2.61-3.08
			c-3.52-4.69-3.68-12.28-6.8-17.49c-0.49-0.83-2.93-4.69-5.74-9.31c11.96-1.03,22.86-1.8,32.06-2.21c0.57,0.98,1.14,1.96,1.71,2.94
			c6.3,10.8,12.68,21.78,17.04,34.03c1.29,3.63,2.46,7.48,4.56,10.38c1.44,2,3.22,3.39,4.76,5.24c3.53,4.27,5.41,10.49,7.82,16.03
			c5.31,12.22,12.85,23.98,20.63,31.5c2.16,2.09,1.99,6.33,2.85,9.71C454.503,418.779,458.683,423.359,461.203,427.839z"/>
		<path style="fill:none;stroke:#61403F;stroke-width:0.75;stroke-linecap:round;stroke-linejoin:round;stroke-miterlimit:10;" d="
			M291.38,435.678c10.986-0.83,166.056-13.421,177.478-14.654c2.236-0.241,4.851-0.743,5.806-2.779
			c0.583-1.242,0.341-2.698,0.053-4.039c-0.776-3.617-14.837-35.993-16.79-39.464"/>
		<path style="fill:none;stroke:#61403F;stroke-width:0.75;stroke-linecap:round;stroke-linejoin:round;stroke-miterlimit:10;" d="
			M206.51,442.625c2.554,0.29,60.027-6.707,63.377-6.947"/>
		<path style="fill:#FAE9DC;" d="M309.143,441.709c-13.17,1.02-25.69,1.97-36.94,2.84c-4.73-8.11-9.16-15.84-10.9-17.65
			c-1.32-1.37-2.74-2.53-4.01-3.99c-1.06-1.21-2-2.61-2.94-4c-2.4-3.59-4.81-7.18-7.21-10.77c-1.55-2.31-3.13-4.68-4.13-7.36
			c-1.55-4.16-1.77-9.13-4.52-12.27c-2.18-2.48-5.3-2.93-7.09-5.89c-0.85-1.41-1.2-3.1-1.65-4.7c-2.79-9.8-9.52-15.79-15.01-23.27
			c-5.64-7.7-10.96-16.74-16.1-25.02c-0.59-0.96-1.19-1.93-1.6-3c-0.27-0.72-0.45-1.47-0.63-2.22c10.17-1.19,22.42-2.67,35.89-4.3
			c3.32,7.26,6.03,14.63,7.84,19.57c0.75,2.02,1.47,4.09,2.61,5.87c2.9,4.57,8,6.55,10.01,11.7c0.77,1.98,0.92,4.11,1.77,6.06
			c2.52,5.77,9.3,6.47,11.85,12.22c0.9,2.02,1.06,4.27,1.94,6.3c2.12,4.87,7.17,6.21,10.01,10.58c1.04,1.61,1.7,3.5,2.43,5.32
			c4.31,10.64,11.7,16.01,17.43,25.13C301.883,428.739,305.513,435.229,309.143,441.709z"/>
	</g>
	<g>
		<path style="fill:#915F5D;" d="M316.163,307.301c0,1.047,1.795,97.894,1.795,97.894l100.503-50.286V307.18h-4.605l-0.464,44.831
			l-89,43.634l-2.374-88.586L316.163,307.301z"/>
		<path style="fill:#915F5D;" d="M448.631,290.642c0,1.047-3.14,95.668-3.14,95.668l-151.848-19.469l0.419-61.976h4.726
			l0.204,58.415l142.356,18.214l2.678-90.644L448.631,290.642z"/>
		<ellipse style="fill:#FAF6F3;" cx="365.67" cy="290.642" rx="98.502" ry="24.365"/>
		<path style="fill:none;stroke:#61403F;stroke-width:0.75;stroke-linecap:round;stroke-linejoin:round;stroke-miterlimit:10;" d="
			M304.688,302.828c0,0,20.572,6.449,73.319,4.231c52.747-2.218,79.875-10.155,85.564-19.11"/>
	</g>
	<g>
		<path style="fill:#C1797F;" d="M298.35,282.667c-0.321-6.586,19.706-10.095,42.952-10.982c23.246-0.887,43.554,1.462,43.817,9.387
			c0.264,7.924-35.364,10.134-43.264,10.48C333.955,291.898,298.878,293.481,298.35,282.667z"/>
		<path style="fill:none;stroke:#DB8990;stroke-linecap:round;stroke-linejoin:round;stroke-miterlimit:10;" d="M305.735,281.672
			c-0.32-2.691,23.713-6.653,36.516-6.917c12.803-0.264,33.18,1.055,33.673,5.011c0.492,3.956-21.374,7.648-36.155,8.176
			C324.988,288.47,306.526,288.325,305.735,281.672z"/>
	</g>
	<g>
		<g>
			<path style="fill:none;stroke:#95A17F;stroke-linecap:round;stroke-linejoin:round;stroke-miterlimit:10;" d="M325.613,194.182
				c0,0,11.528,13.134,13.446,31.77c1.735,16.858-0.175,33.178-0.175,33.178"/>
			<path style="fill:none;stroke:#95A17F;stroke-linecap:round;stroke-linejoin:round;stroke-miterlimit:10;" d="M364.653,205.594
				c0,0-20.007,6.292-23.033,54.776"/>
			<path style="fill:#95A17F;" d="M373.513,206.522c1.327,0.675,7.359,15.216,7.359,15.216s1.768-3.104,1.533-5.556
				c-0.234-2.452-3.561-22.157-6.35-23.213c-2.788-1.056-9.021,2.646-9.021,2.646s-4.761-7.496-8.342-6.496
				c-3.582,1-11.438,11.707-11.419,16.193c0.02,4.486,4.934,16.173,4.934,16.173s1.565-4.688,3.482-7.653
				c1.917-2.965,7.341-5.045,7.383-3.889c0.042,1.156-9.907,10.059-9.538,12.217c0.368,2.157,8.855,8.648,8.131,12.583
				c0,0,9.951-0.944,11.226-1.714c0,0-2.153-11.354-2.821-13.79c-0.668-2.436,3.563,6.382,3.776,8.256l1.135-0.62
				c0,0-3.335-12.035-4.55-13.582c-1.215-1.548,1.253-1.348,2.483,0.633c1.23,1.981,4.511,16.478,4.511,16.478l2.394-1.824
				c0,0-3.99-14.105-6.562-17.161C370.685,208.362,372.185,205.847,373.513,206.522z M373.981,200.535
				c3.594-2.628,4.91,9.589,4.91,9.589C378.434,206.559,372.806,201.394,373.981,200.535z M351.463,209.066
				c0,0,2.014-4.271,4.863-5.533c2.848-1.262,5.61-0.929,5.513,0.377C361.742,205.217,357.353,203.93,351.463,209.066z
				 M357.905,223.918c-0.749,0.903,3.677-9.252,5.451-8.232C365.13,216.706,360.503,220.783,357.905,223.918z"/>
			<path style="fill:#95A17F;" d="M332.068,185.789c-1.88-0.578-5.35,0.578-5.35,0.578s2.603-4.482-0.578-5.928
				c-3.181-1.446-17.351-8.531-17.351-8.531s-6.651,4.482-9.688,5.495c0,0,22.267,7.085,20.966,8.965
				c-1.301,1.88-19.52,4.193-22.412,7.519c0,0,2.024,12.58,7.23,15.616c0,0,4.473-9.832,7.803-11.857
				c3.33-2.024,5.21-0.867,3.62,0.578c-1.591,1.446-9.977,12.435-9.977,12.435s5.205,6.217,8.965,7.23c0,0,5.566-0.52,10.956-2.409
				c0,0,1.423-11.724,2.346-14.074c1.59-4.049,2.465,11.955,2.465,11.955c6.073-4.338,14.453-17.594,14.453-17.594
				S333.948,186.367,332.068,185.789z M318.766,192.657c-0.759,1.301-4.013-0.759-5.965,0.108c-1.952,0.868-7.483,3.037-9.326,5.097
				c0,0,4.555-5.097,8.242-6.724C315.404,189.512,319.525,191.356,318.766,192.657z M336.84,202.996
				c-1.157,0.578-3.712-8.194-2.747-8.097C335.539,195.043,337.997,202.417,336.84,202.996z"/>
		</g>
		<path style="fill:#95A17F;" d="M367.552,171.908c0,0,1.38-2.516,1.182-4.099c-0.198-1.583-7.319-11.275-9.494-11.868
			c-2.176-0.593-7.777,2.176-7.777,2.176s-6.069-0.593-8.245,0c-2.176,0.593-6.42,9.297-6.078,11.473
			c0.342,2.176,2.646,5.934,2.646,5.934s1.191-3.956,2.41-5.143c1.219-1.187,10.84-3.072,10.741-2.28
			c-0.099,0.791-8.335,1.687-9.126,2.676s-2.635,5.934-1.614,7.121c1.021,1.187,2.846,3.165,3.318,3.758c0,0,2.45-2.769,3.043-1.78
			c0.593,0.989-2.176,2.571-2.176,3.363s2.769,5.25,3.956,5.79c1.187,0.54,10.148-3.416,11.502-5.79
			c1.355-2.374-1.056-11.33-1.056-11.33s3.74,4.209,4.065,6.187c0,0,2.5-0.989,2.698-2.374c0.198-1.385-6.468-9.297-5.706-9.89
			C362.603,165.238,366.37,170.468,367.552,171.908z M339.884,166.995c-0.95-0.842,5.357-6.415,5.665-5.498
			C346.011,162.871,340.834,167.838,339.884,166.995z M349.152,175.974c-0.659,0.252-2.374,1.067-2.769,0s0.867-2.988,1.978-2.494
			C349.548,174.007,349.812,175.721,349.152,175.974z M356.652,171.908c2.753-0.648,3.181,8.165,3.181,8.165
			C359.306,177.436,355.125,172.268,356.652,171.908z"/>
		<path style="fill:none;stroke:#95A17F;stroke-linecap:round;stroke-linejoin:round;stroke-miterlimit:10;" d="M345.165,171.205
			c-3.529,9.523-3.977,19.906-3.561,30.053c0.415,10.147,1.654,20.275,1.343,30.426c-0.166,5.423-0.774,10.821-1.381,16.213
			c-0.455,4.042-0.91,8.084-1.366,12.126"/>
		<path style="fill:#CFBCB7;" d="M350.513,281.672c0,0,14.725-10.052,14.725-17.86c0-7.808-10.628-23.75-10.628-23.75h-12.99h-12.99
			c0,0-10.628,15.942-10.628,23.75c0,7.808,14.725,17.86,14.725,17.86S341.453,284.842,350.513,281.672z"/>
		
			<line style="fill:none;stroke:#DFCBC6;stroke-linecap:round;stroke-linejoin:round;stroke-miterlimit:10;" x1="325.391" y1="245.307" x2="358.076" y2="245.307"/>
	</g>
	<g>
		<path style="fill:#CFBCB7;" d="M88.176,286.584c0,0-24.868-117.146-25.409-124.827c-0.541-7.682,149.211-27.834,154.099-26.438
			c4.888,1.397,27.234,150.139,30.726,157.122c3.492,6.983-137.569,30.028-138.966,28.631c-1.397-1.397,0-18.855,0-18.855
			L88.176,286.584z"/>
		<path style="fill:none;stroke:#61403F;stroke-width:0.75;stroke-linecap:round;stroke-linejoin:round;stroke-miterlimit:10;" d="
			M62.767,161.757c0,0,11.714,1.565,14.056,5.881c2.343,4.316,28.068,135.006,28.068,135.006"/>
		<path style="fill:#B3A29D;" d="M103.891,309.55c0,0,14.312-7.981,15.721-6.784s6.039,17.845,3.986,19.298
			c-2.053,1.453-16.109,4.767-18.03,4.767C103.648,326.831,101.349,310.938,103.891,309.55z"/>
		<path style="fill:#915F5D;" d="M102.389,423.276c0,0-37.377-46.034-36.503-52.856c1.074-8.38,158.661-23.963,166.343-24.208
			s49.339,54.247,49.339,54.247l-12.741,3.267c0,0-35.9-47.737-40.788-49.134c-4.888-1.397-150.022,16.924-149.564,19.851
			c1.164,7.449,36.655,45.567,36.655,45.567L102.389,423.276z"/>
		<path style="fill:#A47271;" d="M73.457,273.306l11.412-2.272c0,0,2.841,14.618,3.307,15.549c0.465,0.931,24.393,9.125,25.79,9.823
			c1.397,0.698,1.164,123.603,1.164,123.603l-12.741,3.267c0,0,0.171-118.49-1.691-121.516c-1.862-3.026-22.579-7.216-23.277-9.311
			C76.722,290.355,73.457,273.306,73.457,273.306z"/>
		<path style="fill:#A47271;" d="M239.896,253.755l11.412-2.272c0,0,2.841,14.618,3.307,15.549
			c0.466,0.931,24.393,9.125,25.79,9.823c1.397,0.698,1.164,123.603,1.164,123.603l-12.741,3.267c0,0,0.171-118.49-1.691-121.516
			c-1.862-3.026-22.579-7.216-23.277-9.311S239.896,253.755,239.896,253.755z"/>
		<polygon style="fill:#A47271;" points="108.627,337.832 274.128,314.787 274.128,327.604 108.627,351.798 		"/>
		<path style="fill:#DFCBC6;" d="M118.708,302.643c2.03-0.547,60.425-5.392,77.912-7.931c17.487-2.54,64.026-11.987,66.178-12.158
			c2.152-0.171,5.572,11.052,5.515,14.888c-0.056,3.836-46.742,15.977-67.846,18.421c-21.104,2.444-73.746,7.778-76.767,6.103
			C120.678,320.29,116.173,303.326,118.708,302.643z"/>
		<path style="fill:#DFCBC6;" d="M95.032,184.802c-3.612,0.387-3.016,6.002,0.602,5.614
			C99.247,190.028,98.651,184.414,95.032,184.802z"/>
		<path style="fill:#DFCBC6;" d="M133.772,174.97c-3.612,0.387-3.017,6.002,0.602,5.614
			C137.986,180.197,137.39,174.582,133.772,174.97z"/>
		<path style="fill:#DFCBC6;" d="M172.511,165.139c-3.612,0.387-3.016,6.002,0.602,5.614
			C176.725,170.365,176.129,164.751,172.511,165.139z"/>
		<path style="fill:#DFCBC6;" d="M120.99,202.029c-3.612,0.387-3.017,6.002,0.602,5.614
			C125.204,207.256,124.608,201.641,120.99,202.029z"/>
		<path style="fill:#DFCBC6;" d="M159.729,192.198c-3.612,0.387-3.016,6.002,0.602,5.614
			C163.943,197.424,163.348,191.81,159.729,192.198z"/>
		<path style="fill:#DFCBC6;" d="M198.469,182.366c-3.612,0.387-3.016,6.002,0.602,5.614
			C202.683,187.593,202.087,181.978,198.469,182.366z"/>
		<path style="fill:#DFCBC6;" d="M134.947,251.743c-3.612,0.387-3.017,6.002,0.602,5.614
			C139.161,256.97,138.565,251.355,134.947,251.743z"/>
		<path style="fill:#DFCBC6;" d="M173.686,241.912c-3.612,0.387-3.017,6.002,0.602,5.614
			C177.9,247.138,177.305,241.524,173.686,241.912z"/>
		<path style="fill:#DFCBC6;" d="M212.426,232.08c-3.612,0.387-3.016,6.002,0.602,5.614
			C216.64,237.307,216.044,231.692,212.426,232.08z"/>
		<path style="fill:#DFCBC6;" d="M211.251,155.307c-3.612,0.387-3.017,6.002,0.602,5.614
			C215.465,160.534,214.869,154.919,211.251,155.307z"/>
		<path style="fill:#DFCBC6;" d="M106.175,233.832c-3.612,0.387-3.017,6.002,0.602,5.614
			C110.389,239.059,109.793,233.445,106.175,233.832z"/>
		<path style="fill:#DFCBC6;" d="M144.914,224.001c-3.612,0.387-3.016,6.002,0.602,5.614
			C149.129,229.228,148.533,223.613,144.914,224.001z"/>
		<path style="fill:#DFCBC6;" d="M183.654,214.169c-3.612,0.387-3.016,6.002,0.602,5.614
			C187.868,219.396,187.272,213.782,183.654,214.169z"/>
		<path style="fill:#DFCBC6;" d="M222.393,204.338c-3.612,0.387-3.017,6.002,0.602,5.614
			C226.607,209.565,226.012,203.95,222.393,204.338z"/>
		<path style="fill:#DFCBC6;" d="M117.318,282.863c-3.612,0.387-3.017,6.002,0.602,5.614
			C121.532,288.09,120.936,282.475,117.318,282.863z"/>
		<path style="fill:#DFCBC6;" d="M156.057,273.032c-3.612,0.387-3.016,6.002,0.602,5.614
			C160.271,278.258,159.675,272.644,156.057,273.032z"/>
		<path style="fill:#DFCBC6;" d="M194.796,263.2c-3.612,0.387-3.016,6.002,0.602,5.614
			C199.011,268.427,198.415,262.812,194.796,263.2z"/>
		<path style="fill:#DFCBC6;" d="M233.536,253.369c-3.612,0.387-3.016,6.002,0.602,5.614
			C237.75,258.595,237.154,252.981,233.536,253.369z"/>
	</g>
	<g>
		<path style="fill:#E7F1EE;" d="M258.823,239.645c-1.6,1.99-4.62,1.8-7.15,1.45c-3.89-0.53-7.78-1.01-11.68-1.44
			c-2.13-0.23-4.26-0.45-6.39-0.65c-8.92-0.85-17.86-1.42-26.81-1.72c-1.03-0.03-2.07-0.06-3.1-0.09c-1.04-0.03-2.07-0.05-3.1-0.07
			c-5.66-0.11-11.32-0.11-16.98,0c-0.28,0-0.57,0.02-0.89,0.05c-0.91,0.08-1.96,0.24-3.1,0.42c-4.62,0.75-10.53,1.88-12.68-0.64
			c-2.05-2.41-0.92-8.42-0.64-11.19c0.29-2.82,0.85-5.62,1.48-8.42c0.26-1.19,0.54-2.37,0.81-3.56c0.98-4.19,1.91-8.39,2.14-12.64
			c0.29-5.63,0.4-11.46-0.4-17.06c-0.63-4.39-2.67-12.56-2.92-16.89c-0.12-2.01,0.16-3.41,0.78-4.36c0.56-0.89,1.42-1.4,2.5-1.65
			c3.08-0.77,8.01,0.44,13.48,0.5c1.94,0.02,3.88,0.1,5.81,0.21c1.05,0.05,2.09,0.12,3.14,0.2c7.91,0.57,15.78,1.58,23.72,1.95
			c1.25,0.06,2.5,0.1,3.76,0.12h0.04c6.09,0.11,12.17,0.06,18.26-0.16c1.81-0.07,3.52-0.18,5.12-0.27c1.18-0.06,2.31-0.12,3.36-0.13
			c6.21-0.06,10.08,1.36,10.25,10.32c0.02,1,0.03,1.99,0.04,2.98c0.02,3.29-0.01,6.59-0.09,9.89c-0.19,7.71-0.65,15.43-1.26,23.1
			c-0.47,5.95-1.02,12.13,0.48,17.83c0.25,0.99,0.58,1.96,0.97,2.92c0.64,1.55,1.45,3.27,1.78,4.91
			C259.863,237.046,259.773,238.465,258.823,239.645z"/>
		<path style="fill:#F4FFFC;" d="M182.723,237.176c-0.91,0.08-1.96,0.24-3.1,0.42c-0.06-0.16-0.12-0.32-0.17-0.48
			c-1.54-4.69-1.03-9.72-4.4-13.71c-2.04-2.42-4.75-4.16-7.27-6.06c0.26-1.19,0.54-2.37,0.81-3.56c1.95,1.71,4.11,3.37,6.24,5.23
			c2.02,1.76,3.76,3.71,4.87,6.17c1.66,3.68,1.42,7.83,2.85,11.57C182.603,236.895,182.663,237.035,182.723,237.176z"/>
		<path style="fill:#F4FFFC;" d="M203.693,237.195c-1.04-0.03-2.07-0.05-3.1-0.07c-0.22-1.73-0.28-3.52-0.26-5.35
			c0.11-8.13-1.21-14.04-7.49-19.63c-3.86-3.44-9.99-6.17-11.97-11.3c-0.9-2.33-0.69-4.79-0.73-7.24
			c-0.06-3.84-0.46-7.59-1.47-11.31c-1.93-7.11-5.86-13.49-10.48-19.46c0.56-0.89,1.42-1.4,2.5-1.65c3.73,4.8,6.99,9.85,9.19,15.32
			c2.32,5.78,3.23,11.76,3.25,17.95c0.02,5.9,2.17,8.12,6.57,11.4c2.22,1.66,4.43,3.31,6.42,5.24c3.96,3.82,6.69,8.4,7.18,13.94
			C203.673,229.165,203.183,233.266,203.693,237.195z"/>
		<path style="fill:#F4FFFC;" d="M239.993,239.655c-2.13-0.23-4.26-0.45-6.39-0.65c-2.95-1.35-6.09-2.42-8.42-4.75
			c-6.67-6.65-3.55-16.93-4.28-25.24c-0.6-6.84-4.77-11.05-9.71-15.32c-4.46-3.87-8.64-7.97-12.2-12.69
			c-4.35-5.75-7.64-12.21-9.01-19.11c1.05,0.05,2.09,0.12,3.14,0.2c1.93,8.67,7.06,16.48,13.3,23.04
			c6.73,7.06,16.02,12.01,17.34,22.53c0.63,5.03-0.22,10.08,0.09,15.12c0.46,7.36,4.25,10.49,10.59,13.41
			C236.613,237.195,238.443,238.285,239.993,239.655z"/>
		<path style="fill:#F4FFFC;" d="M259.553,235.555c-2.04-2.76-4.27-5.38-6.69-7.84c-3.67-3.73-8.16-6.56-11.78-10.29
			c-6.34-6.51-4.02-15.21-4.44-23.37c-0.34-6.38-3.19-11.73-7.28-16.51c-3.33-3.9-7.79-6.82-10.91-10.88
			c-0.64-0.82-1.16-1.7-1.61-2.62c1.25,0.06,2.5,0.1,3.76,0.12h0.04c0.74,1.2,1.64,2.32,2.75,3.37
			c6.54,6.14,13.53,12.41,15.62,21.55c1.02,4.43,0.54,8.97,0.45,13.46c-0.13,6.69,1.56,11.15,6.79,15.39
			c3.8,3.07,7.31,6.31,10.55,9.79c0.25,0.99,0.58,1.96,0.97,2.92C258.413,232.195,259.223,233.915,259.553,235.555z"/>
		<path style="fill:#F4FFFC;" d="M257.673,176.905c0.02,3.29-0.01,6.59-0.09,9.89c-0.81-2.03-1.46-4.02-1.94-5.88
			c-0.82-3.16-1.63-4.96-3.92-7.32c-1.42-1.47-2.89-2.79-4.17-4.41c-1.34-1.71-2.51-3.54-3.53-5.45c1.18-0.06,2.31-0.12,3.36-0.13
			c0.94,1.63,2.02,3.19,3.25,4.63c1.72,2.01,4.01,3.56,5.56,5.71C256.873,174.905,257.333,175.885,257.673,176.905z"/>
		<path style="fill:none;stroke:#BFC6C2;stroke-width:0.75;stroke-linecap:round;stroke-linejoin:round;stroke-miterlimit:10;" d="
			M201.35,166.851c0,0,25.319,1.582,29.275,1.319c3.956-0.264,19.517-0.996,21.363,0.03c1.846,1.025,0.264,7.619,0,16.586
			c-0.264,8.967-1.137,10.813-1.137,10.813"/>
		<path style="fill:none;stroke:#BFC6C2;stroke-width:0.75;stroke-linecap:round;stroke-linejoin:round;stroke-miterlimit:10;" d="
			M250.381,201.935c0.127,5.272,0.253,10.543,0.38,15.815"/>
		<path style="fill:none;stroke:#BFC6C2;stroke-width:0.75;stroke-linecap:round;stroke-linejoin:round;stroke-miterlimit:10;" d="
			M171.073,224.565c-0.007,1.882-0.014,3.764-0.021,5.646c-0.003,0.736,0.002,1.504,0.338,2.159
			c0.572,1.116,1.964,1.582,3.217,1.516c1.252-0.066,2.44-0.545,3.657-0.848c5.276-1.31,10.729,0.743,16.131,1.352"/>
		<path style="fill:none;stroke:#BFC6C2;stroke-width:0.75;stroke-linecap:round;stroke-linejoin:round;stroke-miterlimit:10;" d="
			M235.059,235.834c-9.44-1.317-18.968-2.006-28.5-2.06"/>
	</g>
	<g>
		<path style="fill:#F79B74;" d="M166.027,173.764l26.24,38.297c0,0-8.359,10.552-10.068,10.826
			c-1.71,0.274-23.345-28.872-23.345-28.872L166.027,173.764z"/>
		<path style="fill:#F79B74;" d="M79.907,209.444c0,0,6.592,54.297,9.213,57.05c2.621,2.752,18.779-18.169,18.779-18.169
			l-3.154-37.971L79.907,209.444z"/>
		<path style="fill:#F29076;" d="M284.144,340.066l-17.22,15.151l28.982,40.391c0,0,2.394,8.674,9.496,6.656
			c0,0,4.239,1.362,9.103-7.778c1.464-2.752,11.092-5.318,16.7-12.923c5.954-8.075-1.932-7.579-4.4-3.603
			c-1.249,2.013-13.602-0.918-16.698-1.72C307.249,375.499,284.144,340.066,284.144,340.066z"/>
		<polygon style="fill:#61403F;" points="280.656,344.768 272.844,363.467 266.924,355.217 		"/>
		<path style="fill:#964437;" d="M149.408,158.413c-4.84,1.629-9.828,2.877-14.878,3.765c-1.443-3.481-3.955-6.303-3.955-6.303
			c0.427,1.828-0.258,4.603-1.12,7.073c-7.039,0.906-15.744,1.064-22.757,0.727c0.562-3.947-0.418-7.564-0.418-7.564
			c-0.548,2.017-2.777,4.832-4.932,7.186c-3.728-0.333-5.826-0.757-9.427-1.405c5.329-10.225,2.814-20.106,2.951-30.558
			c0.162-12.434,10.866-28.951,32.041-17.414c0,0,9.685-5.682,11.274,3.223C143.48,146.807,149.408,158.413,149.408,158.413z"/>
		<path style="fill:#61403F;" d="M141.223,259.619c-14.944,7.394-27.553,7.063-28.117,2.976c-1.376-9.975,21.74-21.908,21.74-21.908
			c7.733-4.095,42.725-18.728,45.643-17.525C181.508,223.581,183.479,238.711,141.223,259.619z"/>
		<path style="fill:#777794;" d="M176.242,222.855l13.778,13.821c0,0,86.47-17.229,102.188-1.122
			c15.718,16.107-23.685,47.149-23.685,47.149l-24.858-26.391l-29.371,13.687c0,0,33.679,1.27,41.582,7.866
			c7.902,6.597,34.055,56.692,34.055,56.692l-32.297,35.555c0,0-40.316-73.277-44.175-74.117c0,0-58.782,9.164-77.557,3.181
			c-17.853-5.689-14.504-48.246-14.504-48.246S143.584,233.135,176.242,222.855z"/>
		
			<line style="fill:none;stroke:#8383A3;stroke-linecap:round;stroke-linejoin:round;stroke-miterlimit:10;" x1="221.954" y1="266.387" x2="178.967" y2="260.145"/>
		<path style="fill:#A6726F;" d="M167.152,202.25c0,0,1.464-22.59,1.073-29.919c0,0-17.139-9.835-20.687-10.191
			c-3.241-0.325-19.645,0.194-19.645,0.194l-17.249,1.004c0,0-27.099,15.817-29.145,19.43c-2.045,3.612-10.337,25.471-10.337,25.471
			s22.044,13.113,34.387,13.083l7.555,41.272c0,0-0.165-14.486,67.383-39.434L167.152,202.25z"/>
		<path style="fill:none;stroke:#61403F;stroke-width:0.75;stroke-linecap:round;stroke-linejoin:round;stroke-miterlimit:10;" d="
			M150.601,170.126c0,0,9.422,10.218,12.642,14.124c3.221,3.906,1.662,10.386,1.662,10.386"/>
		<polygon style="fill:#F79B74;" points="107.048,142.892 110.645,163.339 127.479,185.434 127.894,162.335 123.043,140.078 		"/>
		<path style="fill:#61403F;" d="M114.108,150.56c0,0,2.816,10.45,13.785,11.775l-3.064-14.06L114.108,150.56"/>
		<path style="fill:#F79B74;" d="M112.529,148.814c0,0,6.216,8.537,16.556,6.484c7.675-1.524,7.003-26.42,2.481-29.921
			c-5.487-4.248-14.54-4.924-17.054-3.668c-2.038,1.018-1.355,10.075-1.547,15.69C112.834,141.23,108.935,145.145,112.529,148.814z"
			/>
		<path style="fill:#964437;" d="M103.144,136.337c0,0,5.97,3.212,12.983,0.113c7.013-3.1,11.315-11.915,12.088-20.667
			c0,0-11.192-4.223-18.186,1.604C103.036,123.214,103.144,136.337,103.144,136.337z"/>
		<path style="fill:none;stroke:#61403F;stroke-width:0.75;stroke-linecap:round;stroke-linejoin:round;stroke-miterlimit:10;" d="
			M128.023,140.853l0.451,2.382c0,0,3.329-0.558,3.294,0.939c-0.035,1.497-1.41,2.222-3.651,2.124"/>
		<path style="fill:#F79B74;" d="M114.367,140c0.232,3.599-2.497,6.705-6.095,6.937c-3.599,0.232-6.704-2.497-6.937-6.096
			c-0.232-3.599,2.497-6.704,6.095-6.937C111.029,133.672,114.134,136.401,114.367,140z"/>
		<path style="fill:none;stroke:#61403F;stroke-width:0.75;stroke-linecap:round;stroke-linejoin:round;stroke-miterlimit:10;" d="
			M109.337,144.259c0,0-3.983,0.328-4.184-2.469c-0.2-2.796,1.83-4.199,3.584-4.178"/>
		<path style="fill:#61403F;" d="M123.413,139.184c0.057,0.495-0.297,0.943-0.792,1.001c-0.495,0.057-0.943-0.297-1.001-0.792
			c-0.058-0.495,0.297-0.943,0.792-1.001S123.355,138.688,123.413,139.184z"/>
		<path style="fill:#61403F;" d="M133.066,138.062c0.057,0.495-0.297,0.943-0.792,1.001c-0.495,0.058-0.943-0.297-1.001-0.792
			c-0.057-0.495,0.297-0.943,0.792-1.001C132.56,137.212,133.008,137.567,133.066,138.062z"/>
		<g>
			<g>
				<path style="fill:#964437;" d="M119.205,135.887c-0.06-0.283,1.205-1.756,2.634-1.919c1.434-0.181,2.055,1.066,1.853,1.38
					c-0.198,0.362-0.993-0.145-2.185,0.021C120.327,135.489,119.237,136.222,119.205,135.887z"/>
			</g>
		</g>
		<g>
			<g>
				<g>
					<path style="fill:#964437;" d="M134.325,134.778c0.02-0.288-1.44-1.568-2.878-1.528c-1.446,0.023-1.884,1.345-1.64,1.627
						c0.247,0.331,0.963-0.283,2.166-0.287C133.158,134.542,134.34,135.114,134.325,134.778z"/>
				</g>
			</g>
		</g>
		<path style="fill:none;stroke:#61403F;stroke-width:0.75;stroke-linecap:round;stroke-linejoin:round;stroke-miterlimit:10;" d="
			M123.291,149.671c0.731,1.06,2.016,1.714,3.304,1.681"/>
		<g>
			<path style="fill:#FFFFF6;" d="M149.985,163.403c0,0,2.471,9.323,3.503,11.171c1.032,1.848,5.077,2.651,7.418,2.163
				c2.341-0.488,5.607-2.338,6.467-3.843c0.859-1.505,0.276-12.019,0.276-12.019L149.985,163.403z"/>
			<path style="fill:#F0F7F5;" d="M167.651,160.88c0.073,0.512-0.288,1.048-0.979,1.567c-1.407,1.05-4.186,2.025-7.457,2.494
				c-3.271,0.468-6.203,0.31-7.847-0.303c-0.808-0.304-1.305-0.718-1.379-1.229c-0.222-1.553,3.546-3.37,8.425-4.068
				C163.293,158.641,167.428,159.326,167.651,160.88z"/>
			<path style="fill:#61403F;" d="M166.672,162.446c-1.407,1.05-4.186,2.025-7.457,2.494c-3.271,0.468-6.203,0.31-7.847-0.303
				c1.407-1.05,4.176-2.024,7.447-2.492C162.086,161.676,165.027,161.833,166.672,162.446z"/>
			<path style="fill:#FFFFF6;" d="M167.758,163.374c0,0,5.602-0.203,5.608,4.137c0.006,4.34-5.771,4.641-5.771,4.641l0.028-1.384
				c0,0,4.215-0.617,3.875-2.99c-0.34-2.373-3.694-2.879-3.694-2.879L167.758,163.374z"/>
		</g>
		<path style="fill:#F29076;" d="M259.391,273.009l-15.726-16.696l-29.371,13.687c0,0-8.588,2.686-6.33,9.716
			c0,0-1.218,4.283,8.082,8.834c2.8,1.37,5.691,10.906,13.483,16.252c8.272,5.677,7.509-2.188,3.451-4.52
			c-2.054-1.18,0.456-13.625,1.153-16.746C234.776,280.653,259.391,273.009,259.391,273.009z"/>
		<polygon style="fill:#61403F;" points="237.937,259.014 255.927,269.331 243.665,256.312 		"/>
		<path style="fill:none;stroke:#8383A3;stroke-linecap:round;stroke-linejoin:round;stroke-miterlimit:10;" d="M243.665,256.312
			c0,0,12.763-7.825,21.66-13.807"/>
		
			<line style="fill:none;stroke:#8383A3;stroke-linecap:round;stroke-linejoin:round;stroke-miterlimit:10;" x1="190.02" y1="236.676" x2="178.937" y2="238.45"/>
		<path style="fill:none;stroke:#61403F;stroke-width:0.75;stroke-linecap:round;stroke-linejoin:round;stroke-miterlimit:10;" d="
			M99.672,180.925c0,0,3.119,25.33,5.878,40.398"/>
		<path style="fill:#F79B74;" d="M180.474,166.631c0,0-4.138-3.184-5.403-3.449s-6.702-0.826-6.889,0.986s2.796,2.451,2.796,2.451
			s-3.874-0.758-2.866,1.077c1.007,1.835,3.874,2.852,3.874,2.852s-1.873,1.094-2.573,1.344c0,0,2.055,5.307,5.795,5.999l6.38-3.479
			C181.588,174.412,181.557,168.346,180.474,166.631z"/>
		<path style="fill:#F79B74;" d="M89.12,266.494c2.605,5.954,87.179-18.325,87.179-18.325l-7.15-8.437c0,0-38.73,3.921-62.361,8.146
			C96.238,249.764,85.761,258.818,89.12,266.494z"/>
		
			<line style="fill:none;stroke:#8383A3;stroke-linecap:round;stroke-linejoin:round;stroke-miterlimit:10;" x1="254.136" y1="249.773" x2="280.861" y2="271.295"/>
		
			<line style="fill:none;stroke:#8383A3;stroke-linecap:round;stroke-linejoin:round;stroke-miterlimit:10;" x1="248.914" y1="351.573" x2="281.982" y2="319.717"/>
		<path style="fill:none;stroke:#61403F;stroke-width:0.75;stroke-linecap:round;stroke-linejoin:round;stroke-miterlimit:10;" d="
			M127.114,217.861c4.143-0.016,8.258-1.674,11.254-4.536c2.996-2.862,4.84-6.897,5.045-11.035"/>
		<path style="fill:none;stroke:#61403F;stroke-width:0.75;stroke-linecap:round;stroke-linejoin:round;stroke-miterlimit:10;" d="
			M107.799,247.699c0,0-5.659,0.059-8.946,2.936"/>
		<path style="fill:#F79B74;" d="M175.208,177.891c0,0,1.131,38.043,1.353,43.165c0.221,5.122,4.578,11.518,8.51,10.587
			c3.931-0.931,6.954-4.965,6.769-10.298c-0.185-5.333-10.252-46.933-10.252-46.933L175.208,177.891z"/>
		
			<line style="fill:none;stroke:#61403F;stroke-width:0.75;stroke-linecap:round;stroke-linejoin:round;stroke-miterlimit:10;" x1="175.78" y1="187.999" x2="176.043" y2="205.368"/>
		<g>
			<path style="fill:#DBCEC5;" d="M164.916,196.311l-4.107,34.719c0,0,13.664,3.051,17.12,7.251l4.918-31.003
				C182.847,207.278,176.585,198.15,164.916,196.311z"/>
			<path style="fill:#DBCEC5;" d="M182.878,207.267c0,0,2.482-9.583,10.385-13.283l-4.483,41.059c0,0-4.11-1.075-9.999,2.67
				L182.878,207.267z"/>
			<path style="fill:#F0E8E2;" d="M182.847,207.278c0,0,5.789-10.337,12.139-10.389l-4.335,41.075c0,0-5.602-2.775-12.705,0.163
				L182.847,207.278z"/>
			<path style="fill:#F0E8E2;" d="M161.105,198.802l-5.208,34.255c0,0,17.773,1.094,22.033,5.224l4.918-31.003
				C182.847,207.278,171.705,198.059,161.105,198.802z"/>
			<path style="fill:#C1797F;" d="M158.267,202.958l-5.274,34.378c0,0,18.123,1.137,22.578,4.906l5.619-34.851
				C181.189,207.39,168.242,201.293,158.267,202.958z"/>
			<path style="fill:#C1797F;" d="M185.298,207.074c0,0,6.289-6.773,13.169-7.6l-3.434,40.887c0,0-7.573-0.204-15.354,1.564
				L185.298,207.074z"/>
			<polygon style="fill:#AF686C;" points="181.187,207.417 185.298,207.074 179.679,241.925 175.567,242.268 			"/>
			
				<line style="fill:none;stroke:#C1797F;stroke-width:0.75;stroke-linecap:round;stroke-linejoin:round;stroke-miterlimit:10;" x1="180.451" y1="211.969" x2="184.495" y2="212.057"/>
			
				<line style="fill:none;stroke:#C1797F;stroke-width:0.75;stroke-linecap:round;stroke-linejoin:round;stroke-miterlimit:10;" x1="179.941" y1="215.141" x2="184.125" y2="215.264"/>
		</g>
		<path style="fill:#F79B74;" d="M169.149,239.732c0,0,0.901-5.638,1.219-6.651c0.318-1.013,3.861-4.867,5.262-5.157
			s2.594,0.932,2.134,2.117c-0.46,1.185-3.167,3.469-3.167,3.469s4.012-1.549,5.344-2.245s4.354-6.722,5.752-6.027
			c1.398,0.694,0.846,1.92,0.846,1.92s0.723-3.812,2.325-3.645c1.602,0.168,0.979,4.7,1.258,6.325s-1.461,9.416-2.082,10.235
			c-0.622,0.82-11.739,8.095-11.739,8.095L169.149,239.732z"/>
	</g>
	<g>
		<g>
			<path style="fill:#964437;" d="M401.035,282.001h24.707c4.379-3.193,7.176-8.047,7.176-13.485
				c0-9.617-8.744-17.413-19.529-17.413s-19.53,7.796-19.53,17.413C393.859,273.954,396.655,278.808,401.035,282.001z"/>
			<g>
				<path style="fill:#FAE9DC;" d="M439.23,254.594l-10.48-48.529h-30.723l-10.48,48.529
					C387.546,254.594,412.415,260.904,439.23,254.594z"/>
			</g>
			<path style="fill:#964437;" d="M426.789,285.492l-1.048-3.491h-24.707l-1.048,3.491
				C399.987,285.492,411.373,290.293,426.789,285.492z"/>
			
				<line style="fill:none;stroke:#61403F;stroke-width:0.75;stroke-linecap:round;stroke-linejoin:round;stroke-miterlimit:10;" x1="401.035" y1="282.001" x2="425.741" y2="282.001"/>
		</g>
	</g>
</g>
</svg>
