<?xml version="1.0" encoding="utf-8"?>
<!-- Generator: Adobe Illustrator 24.3.0, SVG Export Plug-In . SVG Version: 6.00 Build 0)  -->
<svg version="1.1" id="Layer_1" xmlns="http://www.w3.org/2000/svg" xmlns:xlink="http://www.w3.org/1999/xlink" x="0px" y="0px"
	 viewBox="0 0 500 500" style="enable-background:new 0 0 500 500;" xml:space="preserve">
<style type="text/css">
	.st0{fill:#FFFFFF;}
	.st1{fill:#EBF3FF;}
	.st2{fill:none;stroke:#EAA149;stroke-width:1.5;stroke-miterlimit:10;}
	.st3{fill:none;stroke:#9D88D3;stroke-width:1.5;stroke-miterlimit:10;}
	.st4{clip-path:url(#SVGID_2_);}
	.st5{fill:#1D1C23;}
	.st6{fill:none;stroke:#585668;stroke-width:1.5;stroke-miterlimit:10;}
	.st7{fill:#303556;}
	.st8{fill:#F4AB92;}
	.st9{fill:none;stroke:#000000;stroke-width:1.5;stroke-miterlimit:10;}
	.st10{fill:none;stroke:#D46A4E;stroke-width:2;stroke-miterlimit:10;}
	.st11{fill:#E577AE;}
	.st12{clip-path:url(#SVGID_4_);}
	.st13{fill:none;stroke:#DFE1ED;stroke-width:3;stroke-miterlimit:10;}
</style>
<g id="BACKGROUND">
	<rect class="st0" width="500" height="500"/>
</g>
<g id="OBJECTS">
	<g>
		<path class="st1" d="M220.2,100.1c-25.1,11.8-52.1,17.7-79.3,22.3c-44.3,7.4-98.2,11.2-105.9,67.4c-3.2,23.5,3.3,51.2,13.4,72.2
			c12.2,25.4,15.9,52.7,17.1,80.6c0.6,14.3,1,29.4,8.8,41.4c10,15.3,29.3,21.4,47.4,24c38.4,5.6,78.2,0.6,115.8,10.4
			c28.1,7.3,53.3,22.6,80.3,33.3c39.6,15.8,83,16.4,115.1-15.3c52.4-51.8,11.6-153.3,5.3-215c-3.3-31.5-2.3-63.7-9.9-94.4
			S402.4,65.9,373,54.3C321.5,34.1,273.4,73,230.3,95.2C227,96.9,223.6,98.5,220.2,100.1z"/>
		<path class="st2" d="M425.1,317.5H417c-2.5,0-4.6-2.1-4.6-4.6v-8.1c0-2.5,2.1-4.6,4.6-4.6h8.1c2.5,0,4.6,2.1,4.6,4.6v8.1
			C429.8,315.5,427.7,317.5,425.1,317.5z"/>
		<path class="st2" d="M401.2,255.5H396c-1.6,0-3,1.3-3,3v5.2c0,1.6,1.3,3,3,3h5.2c1.6,0,3-1.3,3-3v-5.2
			C404.2,256.8,402.8,255.5,401.2,255.5z"/>
		<path class="st2" d="M59.1,186.4h-7.6c-2.4,0-4.3,1.9-4.3,4.3v7.6c0,2.4,1.9,4.3,4.3,4.3h7.6c2.4,0,4.3-1.9,4.3-4.3v-7.6
			C63.4,188.3,61.5,186.4,59.1,186.4z"/>
		<path class="st2" d="M98,120.5H85.8c-3.8,0-6.9,3.1-6.9,6.9v12.2c0,3.8,3.1,6.9,6.9,6.9H98c3.8,0,6.9-3.1,6.9-6.9v-12.2
			C104.9,123.6,101.8,120.5,98,120.5z"/>
		<path class="st2" d="M358.4,125.3h-6.1c-1.9,0-3.5,1.5-3.5,3.5v6.1c0,1.9,1.5,3.5,3.5,3.5h6.1c1.9,0,3.5-1.5,3.5-3.5v-6.1
			C361.9,126.8,360.3,125.3,358.4,125.3z"/>
		<path class="st2" d="M100.1,423.8h-5.2c-1.6,0-3,1.3-3,3v5.2c0,1.6,1.3,3,3,3h5.2c1.6,0,3-1.3,3-3v-5.2
			C103,425.1,101.7,423.8,100.1,423.8z"/>
		<path class="st2" d="M432.4,312h-5.2c-1.6,0-3,1.3-3,3v5.2c0,1.6,1.3,3,3,3h5.2c1.6,0,3-1.3,3-3v-5.2
			C435.3,313.3,434,312,432.4,312z"/>
		<g>
			<line class="st3" x1="398.6" y1="145.6" x2="398.6" y2="136.2"/>
			<line class="st3" x1="398.6" y1="161.6" x2="398.6" y2="152.2"/>
			<line class="st3" x1="401.9" y1="148.9" x2="411.3" y2="148.9"/>
			<line class="st3" x1="385.9" y1="148.9" x2="395.3" y2="148.9"/>
		</g>
		<g>
			<line class="st3" x1="435.3" y1="370.2" x2="435.3" y2="365.3"/>
			<line class="st3" x1="435.3" y1="378.5" x2="435.3" y2="373.6"/>
			<line class="st3" x1="437" y1="371.9" x2="442" y2="371.9"/>
			<line class="st3" x1="428.7" y1="371.9" x2="433.6" y2="371.9"/>
		</g>
		<g>
			<line class="st3" x1="42.3" y1="356.9" x2="42.3" y2="352"/>
			<line class="st3" x1="42.3" y1="365.3" x2="42.3" y2="360.4"/>
			<line class="st3" x1="44" y1="358.6" x2="48.9" y2="358.6"/>
			<line class="st3" x1="35.6" y1="358.6" x2="40.5" y2="358.6"/>
		</g>
		<g>
			<line class="st3" x1="74.8" y1="227.4" x2="74.8" y2="222.5"/>
			<line class="st3" x1="74.8" y1="235.8" x2="74.8" y2="230.9"/>
			<line class="st3" x1="76.6" y1="229.1" x2="81.5" y2="229.1"/>
			<line class="st3" x1="68.2" y1="229.1" x2="73.1" y2="229.1"/>
		</g>
		<g>
			<line class="st3" x1="170.6" y1="131.8" x2="170.6" y2="126.9"/>
			<line class="st3" x1="170.6" y1="140.2" x2="170.6" y2="135.2"/>
			<line class="st3" x1="172.4" y1="133.5" x2="177.3" y2="133.5"/>
			<line class="st3" x1="164" y1="133.5" x2="168.9" y2="133.5"/>
		</g>
		<g>
			<line class="st3" x1="371.1" y1="421.4" x2="371.1" y2="414.6"/>
			<line class="st3" x1="371.1" y1="433" x2="371.1" y2="426.2"/>
			<line class="st3" x1="373.5" y1="423.8" x2="380.3" y2="423.8"/>
			<line class="st3" x1="361.9" y1="423.8" x2="368.7" y2="423.8"/>
		</g>
		<g>
			<line class="st3" x1="150.4" y1="144.1" x2="150.4" y2="137.3"/>
			<line class="st3" x1="150.4" y1="155.7" x2="150.4" y2="148.9"/>
			<line class="st3" x1="152.8" y1="146.5" x2="159.6" y2="146.5"/>
			<line class="st3" x1="141.2" y1="146.5" x2="148" y2="146.5"/>
		</g>
	</g>
	<g>
		<g>
			<defs>
				<rect id="SVGID_1_" width="500" height="500"/>
			</defs>
			<clipPath id="SVGID_2_">
				<use xlink:href="#SVGID_1_"  style="overflow:visible;"/>
			</clipPath>
			<g class="st4">
				<g>
					<path class="st5" d="M321.1,394.7c0,0,21,45.2,28.7,80.9c4.1,19.3,14.5,169.4,14.5,169.4H138.7c0,0,2.1-70.3,4.1-98.8
						c2.8-41.3,13.6-85,22.7-123.8c0.9-3.4,12.9-48.7,12.9-48.7l140.3,4.8L321.1,394.7z"/>
					<path class="st6" d="M304,398.9c0,0,20.3,44.1,23.7,74c7.8,67.8,7.5,126.4,10,169.8"/>
					<path class="st6" d="M177.7,467.8c22.3,6.4,45.3,10.5,68.5,12.2"/>
					<path class="st6" d="M194.1,458.2c32,1.7,64,1.6,96-0.2"/>
				</g>
				<g>
					<path class="st7" d="M353.3,178.6c-5.7-3.7-12.8-5-20.3-5.7c-2.1-0.2-21-0.9-21.2,0.7c0.4-10.9-7-22.2-25.9-25.6l-79.7,2.2
						c-13.3-1.5-26.8,9.1-28.3,22.2c-7.8-1.7-15.2-1.1-22.3,1.9c-20.5,8.7-32.9,31.9-23.5,53.4c3.3,7.6,10.4,13,18.1,16.1
						c7.7,3,16.1,3.9,24.4,4.4c1.3,0.1,2.7,0.2,3.7,0.9c0.9,0.6,1.4,1.5,1.9,2.4c6.8,11.8,16,22.6,27.7,29.7
						c11.7,7.2,26.1,10.5,39.6,7.5c13.7-3,25.2-12.1,34.6-22.3c-1.9,2,19.3,15.1,21.7,16.1c9.5,3.7,19.7,5.6,29.9,4.9
						c12.8-0.9,25.4-6.3,34.3-15.6c8.8-9.3,13.9-22.8,11.3-35.4c-3.1-14.6-15.5-19.1-15.5-19.1s2.6-5.7,3.3-12.4
						c0.6-6.3-0.7-11-3.8-16.7C360.9,184.1,356.7,180.8,353.3,178.6z"/>
					<path class="st8" d="M211.9,174.5c0,0,3.1,25.6,2.2,27.3c-1,1.7-8.9,3.2-8.9,3.2s28.3,16.5,28.6,15.4
						c0.3-1.2,54.9-21.6,54.9-21.6s-13.1-8.9-16-17.6c-2.9-8.7-10.8-47.3-10.8-47.3l-45.2,14.6L211.9,174.5z"/>
					<path class="st8" d="M248.3,83c-10.2-4.9-15.2-2.2-25.2,2.9c-21.6,11-27.4,34.3-30.8,55.3c-1.3,8-2.6,20.3,1.5,27.3
						c5.3,9,14.4,11.9,24.8,11.2c31.7-2.2,55.7-31.9,52.9-62.3c-1.2-13-8.1-25.5-19.4-32.4C250.9,84.3,249.6,83.7,248.3,83z"/>
					<path class="st7" d="M299.4,121c-0.2,14.3-6.3,27.6-19.1,35.6c-2,1.3-11.6,5.1-11.6,5.1s-2-6.1-2.1-8c-0.2-2.8-0.1-5.5,0-8.3
						c0-0.7,0.1-1.4-0.3-2c-0.3-0.5-0.7-0.8-1.1-1.1c-8.8-6.5-11.7-9.8-16.9-19.4c-2.3-4.3-7.4-20.6-8.5-31.2
						c-8.2-3-30.7-10.1-43,28.8c-1.9-2.4-3.7-6.4-4.3-9c-2-9.3-0.4-15.3,4.7-23.1c9.8-15,29-20.7,46.1-16.2c2.2,0.6,4.5,1.4,6.8,1.4
						c1.2,0,2.4-0.1,3.5-0.2c8.6-0.6,17.4,1.5,24.8,5.9c7.4,4.5,13.3,11.3,16.8,19.2c2.1,4.9,3.3,10.2,3.9,15.5
						C299.4,116.4,299.5,118.7,299.4,121z"/>
					<g>
						<path class="st8" d="M256.1,143.7c3.6-4.4,9.9-5.7,13.6-3.8c5.4,2.8,6.3,9.5,4.8,14.7c-1.3,4.7-3.7,8.4-7.8,11.5
							c-3.8,2.9-10.6,5.1-14.9,2.8c-2.9-1.6-3.4-6-2.7-8.8"/>
						<line class="st9" x1="253.2" y1="157" x2="269.3" y2="150.2"/>
						<path class="st9" d="M248.5,161.2c0.1,1.7,0.2,7.4,5.4,8.6c2.4,0.6,7.3,1.1,14.6-5.2"/>
						<path class="st9" d="M255.8,143.3c1.6-1.4,7.9-7.1,15.7-2.1"/>
					</g>
					<path class="st9" d="M216.8,123.7c-0.7,3.5-2,6.8-3.7,9.9c-1.3,2.3-3.3,4-4.7,6.2c-0.5,0.8-0.8,1.8-0.6,2.7
						c0.6,2.5,3.9,4,5.8,5.3"/>
					<ellipse transform="matrix(0.1586 -0.9873 0.9873 0.1586 65.9414 341.7842)" cx="233.5" cy="132.2" rx="4" ry="2.5"/>
					<path d="M207.8,128.1c-0.3,2.2-1.8,3.7-3.1,3.5c-1.4-0.2-2.2-2.2-1.9-4.3c0.3-2.2,1.8-3.7,3.1-3.5
						C207.3,124,208.1,125.9,207.8,128.1z"/>
					<path class="st9" d="M209.5,153c3.6,2.3,8.6,2.2,12.2-0.1"/>
					<path class="st9" d="M233.5,114.4c6,3.7,10.9,9.3,14.8,15.6"/>
					<path class="st9" d="M199.1,114.9c1.6-2,4.3-2.6,6.8-3.2c1.9-0.4,3.8-0.8,5.7-1.2"/>
					<path class="st10" d="M302.7,145.1c2.9,0,5.9,0.5,8.1,2.4c1.4,1.1,2.4,2.9,1.9,4.6c-0.6,2.1-3.2,3-5.4,3.3
						c-3.9,0.6-8.1,0.8-11.9-0.7c-2-0.8-7-3.3-5.5-6.2C291.6,145.5,299.8,145.1,302.7,145.1z"/>
					<path class="st10" d="M289.7,148.5c15.5,0.8,30.7,10.7,41.4,27"/>
					<path class="st9" d="M212.2,180.3c10.9,0.6,22.5-2.7,31.7-8.6"/>
				</g>
				<g>
					<polyline class="st0" points="95.6,340.1 85.6,324.7 127.9,309.7 141.2,321.9 					"/>
					<path class="st11" d="M176.4,345.3l-42.2-33.9c-4.3,1.7-46.4,18.2-46.4,18.2s22.8,37.3,36.8,51.8c12.6,13.1,34,22,48.4,18.1
						c37.4-10,35.3-101.4,35.3-128L194,205.2c0,0-12.1,4.7-24.8,11c-12.5,6.1-18.8,14.9-20.3,26.5c-1.6,11.7-6,89.4-6,89.4"/>
					<polygon class="st0" points="320,212.9 295.1,194.1 284.4,189.8 230.2,213.6 207.5,200.1 194,205.2 177,300.3 233.7,351.5 
											"/>
					<line class="st9" x1="230.2" y1="213.6" x2="222.1" y2="325.7"/>
					<g>
						<polygon class="st0" points="276.1,180.3 230.2,213.6 250,242.6 290.8,191.9 						"/>
						<polygon class="st0" points="230.2,213.6 210.9,190.9 197.6,203.7 211.9,239.1 						"/>
						<g>
							<polyline class="st9" points="197.6,203.7 211.9,239.1 230.2,213.6 250,242.6 290.8,191.9 							"/>
						</g>
					</g>
					<path class="st11" d="M295.1,194.1c-23.8,41.3-68.4,106.2-68.4,106.2L194,205.2l-16.8,9.4l1.2,44.6c0,0-12.9,24.6-12.9,44
						c0,14,3.6,22.8,4.4,32.2c1.7,19.3,0.7,37.5-0.3,49.3c-1,12.3-12.2,55-12.2,55l46.7,9.3c3.2,0.6,6.3-1.3,7.1-4.4l13.1-49.8
						l14,51.7c0.8,3,3.8,4.9,6.9,4.4l94.8-15.1c0,0-22.2-58.6-22.7-65.9s8.8-114.6,8.8-114.6l9.5-46.2L295.1,194.1z"/>
					<path class="st9" d="M178.3,259.1c0,0-12.9,24.6-12.9,44c0,14,3.6,22.8,4.4,32.2c1.7,19.3-2.1,53.5-3.1,65.3"/>
					<polyline class="st9" points="315.5,201.7 288.4,256.5 271.2,259.2 286.9,269.2 226.8,300.3 191.4,272.8 197.8,259.1 
						185.3,259.7 169.2,216.2 					"/>
					<circle cx="233.6" cy="305.2" r="4"/>
					<circle cx="233.6" cy="342.5" r="4"/>
					<path d="M236.3,388.3c0,2.2-1.8,4-4,4s-4-1.8-4-4c0-2.2,1.8-4,4-4C234.5,384.3,236.3,386.1,236.3,388.3z"/>
					<line class="st9" x1="224.2" y1="394.7" x2="226.8" y2="300.3"/>
					<line class="st9" x1="143.6" y1="319.7" x2="170.1" y2="339.7"/>
					<line class="st9" x1="98.8" y1="325.7" x2="118.9" y2="351.5"/>
					<line class="st9" x1="98.1" y1="331.6" x2="93.8" y2="333.4"/>
					<line class="st9" x1="104" y1="339.3" x2="99.6" y2="341"/>
					<line class="st9" x1="109.8" y1="346.9" x2="105.4" y2="348.6"/>
				</g>
				<g>
					<polygon class="st0" points="225.4,339.7 124,325.6 81.6,170.9 182.9,185 					"/>
					<g>
						<g>
							<defs>
								<polygon id="SVGID_3_" points="211.3,327.6 129.6,316.2 95.2,190.9 176.9,202.3 								"/>
							</defs>
							<clipPath id="SVGID_4_">
								<use xlink:href="#SVGID_3_"  style="overflow:visible;"/>
							</clipPath>
							<g class="st12">
								<line class="st13" x1="210.1" y1="221" x2="99.5" y2="205.6"/>
								<line class="st13" x1="213" y1="232.3" x2="102.4" y2="216.8"/>
								<line class="st13" x1="215.9" y1="243.6" x2="105.3" y2="228.1"/>
								<line class="st13" x1="218.8" y1="254.9" x2="108.2" y2="239.4"/>
								<line class="st13" x1="221.7" y1="266.2" x2="111.1" y2="250.7"/>
								<line class="st13" x1="224.6" y1="277.5" x2="114" y2="262"/>
								<line class="st13" x1="227.5" y1="288.8" x2="116.9" y2="273.3"/>
								<line class="st13" x1="230.4" y1="300" x2="119.8" y2="284.6"/>
								<line class="st13" x1="233.3" y1="311.3" x2="122.7" y2="295.8"/>
								<line class="st13" x1="236.2" y1="322.6" x2="125.6" y2="307.1"/>
								<line class="st13" x1="239.1" y1="333.9" x2="128.5" y2="318.4"/>
							</g>
						</g>
					</g>
				</g>
				<g>
					<path class="st8" d="M129.3,230.4c-1.5-1-5.2,2-5.2,2s2.2-3.7,1.8-7.8c-0.2-1.4-1-3.4-2.4-2.8c-1.4,0.6-5.5,5.5-5.5,5.5
						s2.6-5.9,1.8-9c-0.7-2.8-2.4-3.3-3.3-2.5c-2.7,2.4-6.1,7.2-6.1,7.2s1.2-2.1,1.1-4.3c-0.1-2.2,0.2-3.3-1.8-3.3
						c-1.8,0-13.2,10.2-18.1,16.8c-1.4,1.9-6.4,10.3-7.4,12.4c-1.1,2.2-1.7,4.5-2.3,6.8c-2.4,9.3-2.1,17.4-3,27
						c-0.8,8.7,1.4,22.7,4.2,31.1c2.6,7.8,5.6,13.8,5.6,13.8l32.7-11.7l-3.2-10.6c4-4.9,4.7-12.6,5.6-19.2c0.8-6.1-2.2-10.9-1.7-17
						c0.2-1.9,0.5-3.8,0.9-5.7c1.2-5.4,3.5-11.1,5.2-16.2C129.5,239.2,131.5,231.8,129.3,230.4z"/>
					<path class="st9" d="M110.6,309.7c2.4-2.2,6.4-5.6,8.3-8.2"/>
					<path class="st9" d="M124.5,231.3c-2.4,4.9-5.3,9.8-8.1,14.5c-3.1,5.2-5.9,12.7-7.2,18.6"/>
					<path class="st9" d="M118.5,226c0,0-7.8,10.3-11.5,15.4c-3,4.3-5.1,11.7-6.9,16.6"/>
					<path class="st9" d="M110.6,221.9c0,0-7.9,9.2-11.5,13.7c-3.6,4.5-6.1,9.9-7.3,15.6"/>
				</g>
				<g>
					<g>
						<path class="st8" d="M285,321.6c-1.9-0.2-16.4-5.2-17.9-6.2c-10.8-7.4-20-17-32.1-22.2c-4-1.7-8.3-3-12.3-4.9
							c-4.6-2.3-11.3-7.6-12.9-6.9c-1.6,0.7-2.2,4.7,0.9,8.7c1.9,2.4,3.7,3.3,5.1,5c-8.1-0.7-11.3-1.2-18.4-5
							c-2.7-1.4-10.2-5.4-13.1-6.3s-6.5-0.6-6.9,1.1c-0.4,1.7,3.8,5.4,3.8,5.4s-6.3-2.7-8.1-0.5c-1.5,1.7,6.4,9.8,6.4,9.8
							s-2.9-0.6-4.1,0.1c-1.2,0.7-0.7,2.5,0,3.6c2.3,3.7,8.6,9.3,8.6,9.3s-4.5-1.1-4.4,1.3c0.1,1.3,1.8,3.2,2.7,4.1
							c9.7,9.9,21,18.8,33.4,25.5c13.1,7.2,26.9,10.4,41.1,14.6"/>
						<path class="st9" d="M215.2,294.8c3.9,0.1,9.9,0,13.8-0.1"/>
						<path class="st9" d="M180.7,290.4c1.9,1.4,3.8,2.8,5.6,4.3c8,6.1,16.4,12.3,26.3,14.1"/>
						<path class="st9" d="M179.4,300c7.8,7.6,15.9,15.4,25.9,19.7"/>
						<path class="st9" d="M183.4,312.9c6.7,6.2,13.8,12,21.7,16.7"/>
					</g>
					<polyline class="st0" points="286.1,321.5 265.9,314.2 247.9,364 273.8,371.3 					"/>
					<path class="st11" d="M382.3,327c-10.1-41.2-24.4-99.7-32.2-108.2c-10.7-11.6-30.5-15.3-30.5-15.3l-15.9,63.5l10.7,58.8
						l-43.7-9.4l-20,56.7c0,0,61.1,18.4,94.6,24.9C387,405.9,392,366.8,382.3,327z"/>
					<polyline class="st9" points="303.7,266.9 314.4,325.7 270.7,316.3 					"/>
					<path class="st9" d="M314.4,325.7c0,0,42.8,10.4,46.8,12.5s8.9,6.5,12.1,10"/>
					<line class="st9" x1="255.4" y1="359.5" x2="286.9" y2="369"/>
					<line class="st9" x1="260.6" y1="364.9" x2="258.9" y2="369.8"/>
					<line class="st9" x1="269.8" y1="368.1" x2="268.1" y2="373"/>
					<line class="st9" x1="279" y1="371.3" x2="277.3" y2="376.2"/>
					<line class="st9" x1="250.7" y1="373" x2="324.3" y2="393.2"/>
				</g>
			</g>
		</g>
	</g>
</g>
</svg>
