<?xml version="1.0" encoding="utf-8"?>
<!-- Generator: Adobe Illustrator 24.3.0, SVG Export Plug-In . SVG Version: 6.00 Build 0)  -->
<svg version="1.1" id="Capa_1" xmlns="http://www.w3.org/2000/svg" xmlns:xlink="http://www.w3.org/1999/xlink" x="0px" y="0px"
	 viewBox="0 0 2122 2122" style="enable-background:new 0 0 2122 2122;" xml:space="preserve">
<style type="text/css">
	.st0{fill:#F8AB2C;}
	.st1{fill:#FFDB71;}
	.st2{fill:#3CAED5;}
	.st3{fill:#F7EFEC;}
	.st4{fill:#49398E;}
	.st5{fill:#6E56A0;}
	.st6{fill:#261D37;}
</style>
<g>
	<path class="st0" d="M1701.94,797.37c-36.05-3.99-71.36-14.75-102.12-31.13c-2.4-1.3-4.97-2.8-7.83-4.58
		c-0.1-0.06-0.22-0.05-0.31,0.03c-0.08,0.08-0.1,0.21-0.04,0.31c13.87,22.67,33.12,42.08,55.69,56.12l11.95,32.88
		c2.05,5.65,4.53,10.73,7.36,15.1c9.04,13.96,22.24,21.77,41.54,24.55c0.01,0,0.02,0,0.04,0c0.06,0,0.12-0.02,0.17-0.07
		c0.05-0.05,0.08-0.12,0.08-0.2l-6.31-92.79C1702.16,797.49,1702.07,797.39,1701.94,797.37z"/>
	<path class="st0" d="M1767.72,797.08c-0.05-0.06-0.14-0.07-0.2-0.07c-19.76,2.49-40.19,2.78-60.69,0.86
		c-0.09,0.01-0.15,0.02-0.2,0.07c-0.05,0.05-0.08,0.12-0.08,0.2l6.31,92.88c0.01,0.12,0.1,0.22,0.22,0.23
		c8.19,0.83,16.89,0.89,24.4,0.89c9.02,0,16.5-0.14,23.7-0.83c0.12-0.01,0.22-0.11,0.22-0.23l6.38-93.81
		C1767.81,797.2,1767.78,797.13,1767.72,797.08z"/>
	<path class="st0" d="M1895.88,736.62c-0.1-0.06-0.23-0.05-0.31,0.03c-31.14,31.87-73.72,52.51-123.15,59.69
		c-0.11,0.02-0.2,0.11-0.21,0.23l-6.39,93.91c-0.01,0.08,0.02,0.15,0.08,0.2c0.05,0.04,0.11,0.07,0.17,0.07c0.01,0,0.02,0,0.03,0
		c20.1-2.76,33.2-10.46,42.46-24.97c2.74-4.29,5.14-9.26,7.15-14.78l11.96-32.88c30.59-19.05,54.85-47.88,68.31-81.2
		C1896.02,736.82,1895.98,736.69,1895.88,736.62z"/>
	<g>
		<path class="st1" d="M1782.93,508.5c-58.75,29.25-118.72,55.44-172.94,98.05c-13.83,11.02-27.12,22.23-39.94,33.67
			c-2.06,10.61-3.16,21.56-3.16,32.77c0,32.57,9.13,63,24.97,88.89c2.56,1.59,5.16,3.13,7.85,4.59
			c31.05,16.54,66.29,27.19,102.21,31.16l-3.02-44.39c-18.69-2.36-40.98-6.46-60.06-13.59c-4.05-1.52-7.23-2.96-9.69-4.37
			c-2.46-1.43-4.23-2.8-5.41-4.41c-0.78-1.07-1.29-2.33-1.29-3.66c-0.01-1.39,0.57-2.66,1.36-3.64c0.8-0.99,1.81-1.77,2.98-2.48
			c2.34-1.41,5.37-2.53,8.94-3.55c7.13-2.01,16.42-3.51,25.69-4.64c18.54-2.26,37-3.02,37.03-3.02l2.36-0.1l2.66,39.13
			c15.42,1.8,27.89,2.4,33,2.58c1.41,0.05,2.26,0.07,2.47,0.07c0.18,0,0.97-0.02,2.32-0.07c1.55-0.06,3.81-0.16,6.65-0.33
			c5.67-0.34,13.66-0.95,22.93-2.04l2.67-39.33l2.36,0.1c0.05,0.01,27.96,1.15,49.66,4.83c7.25,1.24,13.79,2.73,18.56,4.68
			c2.73,1.14,4.92,2.35,6.43,4.18c0.79,0.97,1.36,2.25,1.36,3.64c0,1.33-0.51,2.59-1.29,3.66c-0.79,1.08-1.84,2.04-3.18,2.99
			c-2.68,1.89-6.53,3.77-11.93,5.79c-19.63,7.33-41.89,11.47-60.08,13.79l-2.93,43.16c46.6-6.77,90.38-26.08,123.29-59.76
			c7.97-19.72,12.37-41.27,12.37-63.85C1908.11,594.49,1855.1,528.39,1782.93,508.5z M1784.45,540.58c0,0,93.32,22.16,94.49,142.9
			L1784.45,540.58z"/>
		<path class="st1" d="M1696.29,714.58h-0.01l-0.39,0.02c-0.56,0.03-1.2,0.06-1.91,0.1c-2.68,0.15-6.93,0.41-11.89,0.79
			c-8.77,0.68-21.54,1.87-32.53,3.74c-7.65,1.3-13.73,2.82-17.59,4.4c-2.16,0.86-3.96,1.97-4.61,2.85l-0.3,0.61
			c-0.02,0.04-0.03,0.08-0.02,0.12c0,0.16,0.05,0.44,0.42,0.95c0.42,0.58,1.17,1.27,2.12,1.94c2.26,1.61,6.02,3.42,10.88,5.24
			c15.46,5.8,35.01,10.24,58.08,13.21h0.03c0.06,0,0.12-0.02,0.17-0.07c0.06-0.05,0.08-0.12,0.08-0.2l-2.28-33.48
			C1696.53,714.68,1696.42,714.58,1696.29,714.58z"/>
		<path class="st1" d="M1775.75,748.76c22.68-2.95,42.22-7.47,58.1-13.41c3.74-1.4,6.77-2.76,9.01-4.05
			c1.9-1.08,3.35-2.22,3.99-3.13c0.37-0.52,0.41-0.8,0.41-0.94c0.02-0.21-0.09-0.67-1.02-1.45c-0.91-0.76-2.47-1.59-4.39-2.33
			c-3.68-1.44-9.24-2.83-16.1-4.03c-12.75-2.24-28.04-3.57-38.63-4.29c-3.89-0.27-7.09-0.44-9.1-0.55h-0.01
			c-0.13,0-0.24,0.1-0.25,0.23l-2.29,33.68c0,0.08,0.02,0.15,0.08,0.2c0.05,0.04,0.11,0.07,0.17,0.07H1775.75z"/>
		<path class="st1" d="M1770.46,753.78c-15.77,1.82-27.81,2.27-31.24,2.36l-0.04-2.17c0-0.14-0.11-0.24-0.25-0.24
			c-0.14,0-0.25,0.11-0.25,0.24l-0.04,2.17c-3.81-0.1-17.49-0.59-34.82-2.57c-0.08-0.01-0.15,0.02-0.2,0.07
			c-0.05,0.05-0.08,0.12-0.08,0.2l3.01,44.3c0.01,0.12,0.1,0.22,0.22,0.23c8.93,0.84,17.84,1.25,26.7,1.25
			c11.51,0,22.91-0.71,34.11-2.11c0.12-0.02,0.21-0.11,0.22-0.23l2.94-43.23c0.01-0.07-0.02-0.15-0.08-0.2
			C1770.61,753.8,1770.52,753.78,1770.46,753.78z"/>
		<path class="st2" d="M869.15,1460.54c0.05,0.06,0.12,0.09,0.19,0.09c0.03,0,0.07-0.01,0.1-0.02l182.31-82.5
			c0.03-0.01,0.07-0.04,0.09-0.07c8.83-10.71,18.81-19.73,29.37-29.27c5.67-5.13,11.53-10.42,17.16-15.97
			c17.89-17.66,35.92-35.78,53.37-53.3c8.87-8.91,17.74-17.82,26.62-26.71c5.14-5.14,10.23-10.05,15.95-13.58
			c3.99-2.46,7.85-3.99,11.8-4.67c16.64-2.88,31.89,10.46,37.02,25.03c1.6,4.53,2.54,9.45,2.82,14.63c0,0.12,0.1,0.22,0.22,0.24
			c0.13,0.01,0.23-0.06,0.27-0.17l28.01-89.75c0.02-0.07,0.01-0.14-0.02-0.2c-11.57-20.47-23.35-37.43-35.01-50.39
			c-0.09-0.1-0.25-0.11-0.35-0.02c-26.02,22.84-55.79,41.73-91.01,57.78c-0.05,0.02-0.08,0.07-0.1,0.12
			c-105.59,59.23-217.83,82.03-353.88,98.04c-22.92,2.63-45.83,4.17-68.1,4.57c-0.1,0-0.18,0.06-0.22,0.15
			c-0.04,0.09-0.02,0.19,0.04,0.27L869.15,1460.54z"/>
		<path class="st2" d="M1487.49,1736.41c-28.47-57.38-58.07-113.8-88.01-167.68c-10.05-46.82-20.99-92.19-32.5-134.84
			c-11.49-42.56-23.46-81.95-35.57-117.09c-10.1-29.29-20.45-56.05-30.77-79.53c-0.04-0.09-0.13-0.15-0.23-0.15
			c-0.1-0.03-0.2,0.07-0.24,0.17l-37.36,111.57c-0.03,0.08-0.01,0.16,0.03,0.23c0.05,0.06,0.12,0.1,0.2,0.1
			c17.99,0.13,33.97,3.53,47.51,10.1c8.27,4.03,14.03,8.19,18.15,13.09c12.81,15.26,9.57,37.56,1.14,51.83
			c-3.96,6.69-11.65,12.46-19.08,18.04c-9.46,7.09-19.24,14.43-21.16,23.68c-1.31,6.3,0.19,12.16,1.77,18.36
			c1.77,6.91,3.59,14.06,1.33,22.06c-11.64,41.14-47.16,80.39-88.39,97.66c-9.34,3.91-19.31,6.75-29.62,8.43
			c-0.09,0.01-0.17,0.08-0.2,0.17l-11.41,34.09l-31.37,39.28v-39.21c0-3.3,0.5-6.58,1.49-9.73l7.17-22.99
			c0.02-0.07,0.01-0.15-0.03-0.21c-0.04-0.06-0.11-0.1-0.19-0.11c-8.98-0.78-17.87-2.43-26.42-4.9c-0.1-0.03-0.2,0-0.26,0.08
			c-66.58,80.73-201.17,221.99-354.56,261.05c-0.12,0.03-0.2,0.15-0.19,0.27c0.02,0.12,0.12,0.22,0.25,0.22h791.36
			c0.09,0,0.16-0.04,0.21-0.11c0.05-0.07,0.05-0.16,0.02-0.24C1550.35,1869.56,1526.9,1815.87,1487.49,1736.41z"/>
		<path class="st2" d="M649.94,1869.95c-70.48-20.44-118.81-80.13-146.95-126.6c-29.45-48.64-43.51-93.32-44.57-96.75l380.5-172.19
			c0.07-0.03,0.12-0.09,0.14-0.16c0.02-0.07,0.01-0.15-0.03-0.21c-36.84-56.12-91.11-138.34-140.43-211.34
			c-0.07-0.1-0.2-0.13-0.31-0.09c-107.09,47.19-209.14,100.08-329.42,164.99c-0.1,0.05-0.15,0.17-0.12,0.28
			c15.77,67.26,40.39,133.26,69.32,185.85c-0.05,3.85-0.09,7.77-0.11,11.66c-0.48,76.58,4.83,158.95,15.78,244.83
			c0.02,0.12,0.12,0.22,0.25,0.22h195.88c0.12,0,0.23-0.09,0.25-0.21C650.13,1870.1,650.05,1869.99,649.94,1869.95z"/>
		<path class="st2" d="M1762.4,951.47h-49.8c-0.09,0-0.16,0.04-0.21,0.11c-0.05,0.07-0.05,0.16-0.02,0.24
			c4.52,9.75,14.39,16.04,25.12,16.04c10.74,0,20.6-6.29,25.12-16.04c0.04-0.08,0.03-0.17-0.02-0.24
			C1762.56,951.51,1762.48,951.47,1762.4,951.47z"/>
		<path class="st3" d="M788.09,682.44c-0.01-0.07-0.05-0.14-0.11-0.18c-0.06-0.04-0.14-0.05-0.21-0.03l-43.5,14.1
			c-0.1,0.03-0.17,0.12-0.17,0.23c-0.21,7.22,0.49,12.12,0.5,12.17c0.01,0.09,0.07,0.16,0.15,0.2c0.03,0.01,0.06,0.02,0.1,0.02
			c0.05,0,0.11-0.02,0.15-0.05c0.52-0.4,8.86-3.02,45.6-13.22c0.11-0.03,0.18-0.13,0.18-0.24c0-0.04-0.01-0.08-0.03-0.12
			C789.53,691.17,788.63,686.84,788.09,682.44z"/>
		<path class="st3" d="M796.11,632.1c-2.52,0.47-5.03,1.05-7.46,1.72c-15.27,4.25-26.86,12.75-34.46,25.26
			c-5.48,9.03-8.78,19.89-9.81,32.28c-0.01,0.09,0.03,0.17,0.09,0.22c0.05,0.04,0.1,0.05,0.16,0.05c0.03,0,0.05,0,0.08-0.01
			l42.75-13.86c0.11-0.03,0.18-0.14,0.17-0.25c-0.96-15.09,2.06-30.67,8.75-45.06c0.04-0.09,0.03-0.18-0.03-0.26
			C796.3,632.13,796.21,632.09,796.11,632.1z"/>
		<path class="st3" d="M953.07,626.47c-0.02-0.06-0.07-0.12-0.13-0.15c-0.06-0.03-0.13-0.03-0.2-0.01l-22.11,7.77
			c-0.08,0.03-0.14,0.09-0.16,0.17c-0.02,0.08,0,0.17,0.05,0.23c2.42,2.75,4.76,5.32,6.97,7.65c0.05,0.05,0.11,0.08,0.18,0.08
			c0.02,0,0.05,0,0.08-0.01c4.97-1.56,11.27-3.58,18.71-6.02c0.07-0.02,0.12-0.07,0.15-0.14c0.03-0.07,0.03-0.14,0-0.2
			C955.24,632.85,954.05,629.7,953.07,626.47z"/>
		<path class="st3" d="M925.4,635.43c-0.1,0.03-0.16,0.11-0.17,0.21c-0.59,6.04-0.69,10.07-0.69,10.11c0,0.08,0.03,0.15,0.09,0.2
			c0.04,0.04,0.1,0.05,0.16,0.05c0.02,0,0.04,0,0.06-0.01c1.61-0.39,4.16-1.12,7.77-2.22c0.08-0.02,0.15-0.09,0.17-0.17
			c0.02-0.08,0-0.17-0.06-0.24c-2.25-2.42-4.56-4.99-7.06-7.87C925.6,635.43,925.49,635.4,925.4,635.43z"/>
		<path class="st3" d="M956.41,573.89c-0.06-0.08-0.15-0.11-0.25-0.09c-0.57,0.12-1.13,0.26-1.71,0.4
			c-19.6,5.11-26.39,37.66-28.7,56.61c-0.01,0.09,0.02,0.17,0.09,0.22c0.04,0.04,0.1,0.05,0.16,0.05c0.03,0,0.06,0,0.08-0.01
			l25.59-8.99c0.12-0.04,0.19-0.17,0.16-0.29c-3.72-16.16-2.08-33.08,4.6-47.64C956.48,574.07,956.46,573.96,956.41,573.89z"/>
		<path class="st3" d="M932.58,771.21l-115.79-5.65c-0.07,0.02-0.18,0.04-0.22,0.12c-0.05,0.08-0.05,0.18,0,0.25
			c0.16,0.29,16.67,29.22,48.41,36.67c4,0.94,8.15,1.4,12.38,1.4c11.99,0,24.56-3.72,35.9-10.79c10.36-6.47,18.04-14.98,19.57-21.7
			c0.02-0.07,0-0.15-0.04-0.21C932.72,771.25,932.65,771.22,932.58,771.21z"/>
		<path class="st3" d="M1831.42,566.57c-23.25-20.44-46.68-26.17-46.91-26.23c-0.09-0.02-0.21,0.02-0.26,0.1
			c-0.06,0.09-0.06,0.19,0,0.28l94.49,142.9c0.05,0.07,0.12,0.11,0.21,0.11c0.02,0,0.05,0,0.07-0.01c0.1-0.03,0.18-0.13,0.18-0.24
			c-0.27-27.58-5.41-52.26-15.28-73.37C1856.01,593.22,1845.08,578.57,1831.42,566.57z"/>
		<path class="st3" d="M1301.36,1159.13c-10.2-3.28-18.36-2.93-18.44-2.92c-0.1,0.01-0.19,0.07-0.23,0.17l-36.74,117.71
			c-0.01,0.03-0.01,0.06-0.01,0.09c0.52,9.86-1.28,20.7-5.5,33.15c-2.11,6.23-4.64,12.43-7.08,18.43
			c-3.62,8.88-7.35,18.06-9.82,27.49c-0.02,0.09,0,0.17,0.06,0.24c0.05,0.05,0.11,0.08,0.18,0.08c0.02,0,0.04,0,0.05-0.01
			c13.2-2.9,26.03-4.37,38.15-4.37c0.35,0,0.71,0,1.06,0c0,0,0,0,0,0c0.11,0,0.2-0.07,0.24-0.17l59.4-177.39
			c0.03-0.09,0.01-0.2-0.07-0.26C1316.61,1165.85,1309.46,1161.73,1301.36,1159.13z"/>
		<path class="st3" d="M1174.7,1612.43c-11.37,1.85-22.99,2.29-34.54,1.28c-0.13-0.01-0.22,0.06-0.26,0.17l-7.17,22.98
			c-1,3.21-1.51,6.53-1.51,9.89v39.92c0,0.11,0.07,0.2,0.17,0.24c0.03,0.01,0.06,0.01,0.08,0.01c0.08,0,0.15-0.03,0.19-0.09
			l31.84-39.87c0.02-0.02,0.03-0.05,0.04-0.08l11.43-34.13c0.03-0.08,0.01-0.18-0.05-0.24
			C1174.87,1612.46,1174.78,1612.42,1174.7,1612.43z"/>
		<path class="st4" d="M1933.69,1013.93c-0.01,0-0.03,0-0.04,0c-2.04-0.03-204.57-2.76-316.38,0.05
			c35.06-22.15,58.71-46.93,70.31-73.68c0.04-0.09,0.02-0.2-0.05-0.28c-5.6-5.7-10.14-13.28-13.11-21.9l-4.56-32.53
			c-0.01-0.07-0.05-0.13-0.1-0.17c-0.06-0.04-0.11-0.06-0.2-0.04c-28.85,6.24-80,38.89-124.38,79.39
			c-49.1,44.8-75.77,85.49-71.38,108.88l-142.83,243.1c-0.04,0.06-0.05,0.14-0.02,0.21c12.11,35.12,24.07,74.51,35.56,117.06
			c0.01,0.05,0.04,0.09,0.08,0.12c58.88,51.06,117.28,103.69,173.74,154.58c0.05,0.04,0.11,0.06,0.17,0.06c0.02,0,0.04,0,0.06-0.01
			c0.08-0.02,0.15-0.08,0.18-0.16l137.07-387.66c29.62-10.42,105.62-37.93,174.2-69.14c86.85-39.53,130.03-70.32,128.35-91.52
			C1979.39,1028.26,1963.69,1019.39,1933.69,1013.93z"/>
		<path class="st4" d="M832.33,741.11c-7.16,1.41-14.51,2.13-21.85,2.13c-28.03,0-55.26-10.13-76.68-28.52
			c-0.08-0.07-0.2-0.07-0.29-0.02c-2.93,1.83-5.37,3.82-7.27,5.94c-0.08,0.08-0.09,0.2-0.02,0.3c5.07,7.95,12.56,20.18,19.4,33.26
			c0.03,0.06,0.08,0.1,0.14,0.12c9.72,3.33,21.19,5.08,33.15,5.08c23.73,0,45.3-7.19,53.68-17.89c0.06-0.08,0.07-0.2,0.02-0.28
			C832.53,741.14,832.44,741.08,832.33,741.11z"/>
		<path class="st4" d="M778.89,703.95c-15.47,0-29.97,2.92-40.83,8.23c-0.08,0.04-0.13,0.11-0.14,0.19
			c-0.01,0.08,0.02,0.17,0.09,0.22c20.41,16.96,46.14,26.3,72.44,26.3h0.02c8.43,0,16.84-0.98,24.99-2.91
			c0.09-0.02,0.15-0.08,0.18-0.17c0.42-1.37,0.63-2.76,0.63-4.14C836.28,716.38,810.54,703.95,778.89,703.95z"/>
		<path class="st4" d="M1016.81,674.27c-7.49,1.77-14.35,2.63-20.97,2.63h-0.06c-9.25,0-17.8-1.71-26.15-5.24
			c-0.1-0.05-0.19-0.02-0.26,0.04c-0.07,0.06-0.1,0.16-0.08,0.25c0.51,1.87,1.33,3.6,2.43,5.13c3.59,4.99,9.79,7.45,17.15,7.45
			c8.54,0,18.66-3.31,28.13-9.81c0.1-0.07,0.14-0.2,0.09-0.3C1017.05,674.3,1016.94,674.25,1016.81,674.27z"/>
		<path class="st4" d="M1016.36,623.48c-8.76,0.62-18.3,4.36-26.86,10.52c-12.34,8.89-20.52,21.56-20.83,32.29
			c0,0.1,0.05,0.19,0.14,0.23c8.54,4.04,17.38,6.01,27.03,6.02c7.86,0,16.17-1.29,25.42-3.94c1.63-0.47,3.24-0.95,4.78-1.45
			c0.04-0.01,0.07-0.03,0.1-0.06c12.25-12.39,16.3-27.32,9.83-36.3C1032.13,625.46,1025.16,622.84,1016.36,623.48z"/>
		<path class="st4" d="M902.19,640.57c0.03,0,0.05,0,0.08-0.01l1.17-0.38c0.08-0.03,0.14-0.1,0.17-0.18
			c0.02-0.09-0.01-0.18-0.07-0.24l-0.93-0.93c-0.06-0.06-0.16-0.09-0.25-0.06c-0.09,0.03-0.15,0.1-0.17,0.19l-0.24,1.31
			c-0.01,0.09,0.01,0.17,0.08,0.23C902.07,640.55,902.13,640.57,902.19,640.57z"/>
		<path class="st4" d="M890.01,706.3c0.03,0.02,0.07,0.03,0.11,0.03c0.07,0,0.13-0.03,0.18-0.08c2.38-2.52,4.6-5.21,6.6-7.97
			c10.77-14.86,14.23-30.6,15.23-41.19c0.26-2.78,0.39-5.56,0.39-8.28c0-0.07-0.02-0.13-0.07-0.18l-5.06-5.03
			c-0.07-0.07-0.16-0.1-0.25-0.06l-6.03,1.95c-0.09,0.03-0.15,0.1-0.17,0.19l-11.07,60.34C889.86,706.14,889.91,706.25,890.01,706.3
			z"/>
		<path class="st4" d="M918.99,655.12c-0.06-0.06-0.15-0.09-0.24-0.06l-1.95,0.53c-0.1,0.03-0.18,0.12-0.18,0.22
			c-0.04,0.55-0.09,1.12-0.14,1.69c-1.06,11.13-4.7,27.68-16.04,43.33c-3.46,4.77-7.49,9.26-11.99,13.33
			c-0.04,0.04-0.07,0.09-0.08,0.14l-0.16,0.85c-0.01,0.09,0.01,0.17,0.08,0.23c0.05,0.05,0.11,0.07,0.17,0.07
			c0.02,0,0.04,0,0.06-0.01l72.67-17.84c0.09-0.02,0.16-0.09,0.18-0.18c0.02-0.09,0-0.18-0.07-0.24L918.99,655.12z"/>
		<path class="st5" d="M835.22,735.91c0.05,0.05,0.11,0.08,0.18,0.08c0.02,0,0.04,0,0.06-0.01c1.6-0.38,3.2-0.8,4.76-1.24
			c21.13-6.05,37.98-15.64,50.08-28.5c0.03-0.03,0.05-0.08,0.06-0.13l11.07-60.34c0.01-0.09-0.01-0.17-0.08-0.23
			c-0.07-0.06-0.16-0.09-0.24-0.05l-32.33,10.48c-0.08,0.03-0.15,0.09-0.17,0.18c-0.02,0.09,0.01,0.18,0.07,0.24
			c2.19,2.1,4.31,4.32,6.3,6.58c3.29,3.75,5.31,6.59,5.91,7.48c-4.51,1.22-52.89,14.33-90.44,24.74c-0.01,0.01-0.02,0.01-0.03,0.01
			c-37.54,10.42-44.08,12.56-45.39,13.11c-0.15-1.24-0.62-5.66-0.45-11.73c0-0.08-0.03-0.16-0.1-0.21
			c-0.07-0.05-0.15-0.07-0.23-0.04l-17.02,5.52c-0.08,0.02-0.14,0.09-0.16,0.17c-0.02,0.08,0,0.17,0.06,0.23
			c3.38,3.67,7.04,7.15,10.87,10.34c0.07,0.06,0.18,0.07,0.27,0.03c10.79-5.28,25.22-8.18,40.61-8.18
			c31.37,0,56.88,12.22,56.88,27.23c0,1.33-0.21,2.68-0.61,4C835.14,735.75,835.16,735.85,835.22,735.91z"/>
		<path class="st5" d="M912.15,642.02c-0.06-0.04-0.14-0.06-0.22-0.03l-4.79,1.55c-0.08,0.03-0.14,0.09-0.17,0.18
			c-0.02,0.09,0.01,0.17,0.07,0.24l5.06,5.03c0.05,0.05,0.11,0.07,0.18,0.07c0.03,0,0.07-0.01,0.09-0.02
			c0.09-0.04,0.15-0.13,0.15-0.23v-0.02c0-2.88-0.15-5.17-0.27-6.59C912.26,642.13,912.22,642.06,912.15,642.02z"/>
		<path class="st5" d="M744.63,691.39c1.58-18.91,9.8-47.77,44.09-57.32c2.52-0.7,5-1.27,7.44-1.72
			c-6.58,14.14-9.76,29.82-8.77,45.18h0c-0.98-15.36,2.2-31.04,8.77-45.18c7.17-1.33,13.94-1.63,20.29-1.15
			c20.86,1.62,37.22,11.7,48.29,21.25l37.45-12.14l0.24-1.31l0.93,0.93l12.63-4.09l0.47,2.76c0.02,0.11,0.67,3.96,0.67,10.19
			c0,0.63-0.01,1.28-0.02,1.95l17.71-4.78c-0.76-0.79-1.52-1.6-2.28-2.42c-3.38,1.03-6.06,1.8-7.76,2.21c0,0,0.1-3.99,0.69-10.1
			c-0.25-0.29-0.5-0.58-0.76-0.87l-2.31-2.69l3.6-1.26c2.35-19.38,9.15-51.35,28.51-56.39c0.57-0.15,1.14-0.28,1.7-0.4
			c24.56-5.34,41.12,14.22,49.76,28.69l26.57-9.34c-9.84-20.78-17.35-34.41-17.35-34.41c-15.35-29.69-34.5-54.05-55.76-73.25
			c-10.53,3.84-21.72,5.82-32.87,5.62c-16.39-0.3-34.29-2.7-50.35-5.9c-7.69-1.53-55.44-10.17-57.45-17.33
			c8.74,31.2-0.73,65.34-18.74,96.19c21.47-6.73,40.79-2.44,40.79-2.44l-96.51,83.89c0.79-6.8,1.91-13.07,3.29-18.84
			c-8.25,7.16-16.62,13.48-24.76,18.73c-2.1,1.35,0.25,41.04,0.28,52.72L744.63,691.39z M957.36,509.82c0,0-61.62,55.91-61.6,54.46
			C896.72,484.73,957.36,509.82,957.36,509.82z"/>
		<path class="st5" d="M1025.76,667.06c0.05,0.08,0.13,0.12,0.21,0.12c0.02,0,0.05,0,0.08-0.01c12.42-3.99,22.95-9.18,31.31-15.43
			c0.09-0.07,0.12-0.18,0.09-0.29c-6.31-17.04-13.91-35.12-22.6-53.75c-0.05-0.11-0.19-0.17-0.31-0.13l-26.22,9.22
			c-0.07,0.02-0.12,0.08-0.15,0.15c-0.03,0.07-0.02,0.14,0.01,0.21c2.64,4.94,4.16,8.75,4.53,9.71
			c-2.97,1.01-32.21,10.94-56.38,18.85c-7.44,2.43-13.73,4.46-18.71,6.01c-0.08,0.03-0.14,0.09-0.17,0.18
			c-0.02,0.09,0,0.17,0.06,0.24c8.21,8.64,15.72,15.1,22.97,19.75c2.76,1.77,5.56,3.33,8.33,4.65c0.08,0.04,0.17,0.03,0.24-0.01
			c0.07-0.04,0.12-0.12,0.12-0.2c0.31-10.58,8.4-23.1,20.63-31.9c8.49-6.11,17.94-9.82,26.61-10.43c8.61-0.62,15.43,1.92,19.18,7.12
			c6.32,8.78,2.3,23.44-9.78,35.66C1025.71,666.83,1025.7,666.96,1025.76,667.06z"/>
		<path class="st5" d="M698.07,1262.38l27.91,32.27c22.52-0.41,45.18-1.94,68.12-4.57c123.48-14.53,243.47-36.05,354.09-98.13
			c-0.01-0.02-0.03-0.03-0.04-0.04c32.65-14.87,63.36-33.5,91.07-57.82c-11.14-12.39-22.84-23.2-35.08-31.96
			c-62.81-44.95-116.61-29.56-155.36-1.79c-36.49-28.22-72.02-53.34-101.22-82.27c-51.51-48.53-104.58-95.35-157.01-142.86
			c57.74,28.21,210.33,62.74,222.46,54.85c22.29-14.5,40.09-54.71,50.91-99.41c11.85-48.98,15.34-103.34,7.2-135.19
			c-3.32-13.01-7.56-26.27-12.2-39.17c-9.12,6.58-21.02,12.36-36.4,16.76c-1.92,0.55-3.81,1.04-5.66,1.48
			c-17.36,11.92-37.27,13.07-44.94,2.42c-1.1-1.53-1.9-3.23-2.39-5.04c-3.97-1.68-7.81-3.73-11.55-6.14
			c-6.6-4.24-12.93-9.56-19.27-15.81l-19.91,5.37l42.3,42.05l-72.67,17.84l0.16-0.85c-11.08,10.03-26.32,18.87-47.12,24.82
			c-3.02,0.86-6.06,1.59-9.11,2.19c-8.14,10.4-29.01,17.8-53.48,17.8c-12.33,0-23.74-1.88-33.07-5.07
			c-6.69-12.8-13.97-24.76-19.41-33.28c1.9-2.12,4.33-4.09,7.22-5.89c-3.82-3.28-7.44-6.82-10.85-10.61
			c-0.21,3.03-0.39,6.39-0.66,9.9c-2.58-3.91-4.17-6.18-4.17-6.18s-113.54-70.15-134.76-18.08
			c-18.77,46.08,95.98,124.11,150.69,134.32L710,957.52c0,0-43.45,129.9-83.77,200.47c-8.8-12.42-16.76-23.45-23.63-32.68
			c-70.87-95.21-200.68-29.42-238.29,70.87c-20.76,55.38-16.07,143.2,4.68,231.66c107.99-58.27,216.14-115.07,329.4-164.98
			C698.29,1262.7,698.18,1262.54,698.07,1262.38z M932.57,771.46c-3.32,14.56-35.89,38.34-67.54,30.9
			c-31.99-7.51-48.25-36.55-48.25-36.55L932.57,771.46z M607.31,704.18c59.79-0.22,110.65,61.63,110.65,61.63L607.31,704.18z
			 M743.13,825.34c2.91,5.24,5.89,10.12,8.92,14.63c-5.56-5.13-11.1-10.28-16.63-15.44C738.16,824.98,740.73,825.26,743.13,825.34z"
			/>
		<path class="st5" d="M1310.78,1358.85c-13.61-6.61-29.67-10.03-47.72-10.15c-12.33-0.09-25.44,1.35-38.92,4.29
			c2.46-9.26,6.13-18.29,9.69-27.03c2.45-6,4.97-12.21,7.09-18.45c4.24-12.51,6.05-23.41,5.52-33.33
			c-0.28-5.23-1.23-10.2-2.84-14.77c-5.2-14.75-20.68-28.28-37.57-25.35c-4.02,0.69-7.94,2.24-11.98,4.74
			c-5.77,3.56-10.88,8.49-16.04,13.66c-8.89,8.89-17.76,17.8-26.62,26.7c-17.44,17.52-35.48,35.64-53.36,53.3
			c-5.61,5.54-11.47,10.84-17.14,15.96c-10.56,9.54-20.54,18.56-29.38,29.28l-593.48,268.57c-0.11,0.05-0.17,0.18-0.14,0.3
			c0.14,0.46,14.15,46.64,44.68,97.06c17.93,29.62,37.97,54.88,59.55,75.1c26.99,25.28,56.49,42.68,87.68,51.73
			c17.1,4.96,34.85,7.44,53.1,7.44c17.09,0,34.64-2.18,52.51-6.53c1.22-0.29,2.43-0.6,3.64-0.91
			c67.98-17.31,139.43-56.71,212.36-117.1c61.49-50.92,111.34-106.38,142.36-143.99c8.53,2.46,17.4,4.09,26.35,4.87
			c11.59,1.01,23.25,0.57,34.66-1.29c10.35-1.69,20.36-4.53,29.74-8.46c41.35-17.32,76.99-56.7,88.67-97.98
			c2.3-8.13,0.46-15.34-1.33-22.32c-1.57-6.15-3.05-11.95-1.77-18.13c1.89-9.06,11.59-16.34,20.97-23.38
			c7.48-5.61,15.21-11.4,19.21-18.18c8.52-14.41,11.78-36.96-1.19-52.4C1324.93,1367.11,1319.11,1362.91,1310.78,1358.85z"/>
		<path class="st6" d="M734.14,824.3c0.02-0.13-0.07-0.26-0.2-0.29c-44.19-8.25-122.83-58.52-145.81-100.61
			c-6.95-12.74-8.53-23.96-4.7-33.37c3.43-8.42,9.56-14.12,18.22-16.95c37.97-12.39,113.91,33.76,116.13,35.12
			c0.23,0.33,1.78,2.56,4.14,6.13c0.06,0.09,0.16,0.13,0.27,0.1c0.1-0.03,0.18-0.12,0.19-0.22c0.16-2.12,0.29-4.18,0.41-6.15
			c0.08-1.3,0.16-2.55,0.24-3.75c0-0.07-0.02-0.13-0.06-0.18c-0.53-0.59-1.05-1.18-1.57-1.78l-2.13-2.48l3.92-1.27
			c0.1-0.03,0.17-0.13,0.17-0.24c-0.01-3.51-0.22-9.43-0.47-16.29c-0.51-14.08-1.28-35.34,0.07-36.22
			c8.03-5.18,16.18-11.31,24.21-18.24c-1.33,5.69-2.38,11.78-3.12,18.12c-0.01,0.1,0.04,0.2,0.13,0.25c0.09,0.05,0.2,0.03,0.28-0.03
			l96.51-83.89c0.07-0.06,0.1-0.16,0.08-0.25c-0.02-0.09-0.09-0.16-0.19-0.18c-0.19-0.05-19.26-4.16-40.31,2.25
			c13.81-23.82,28.01-59.2,18.85-94.31c6.31,6.39,41.94,13.26,54.2,15.63c1.07,0.21,1.94,0.37,2.55,0.49
			c12.55,2.5,31.48,5.56,50.39,5.91c11.08,0.23,22.16-1.69,32.96-5.63c20.89-7.63,38.54-22.49,48.43-40.78
			c8.43-15.58,12.25-34.29,11.04-54.1c-1.11-18.22-6.35-37.03-15.17-54.41c-18.93-37.32-52.21-67.28-91.31-82.19
			c-39.09-14.91-83.88-14.73-122.85,0.5c-50.83,19.86-94.1,64.28-132.31,135.79c-9.47,17.73-18.21,37.16-26.66,55.95
			c-17.92,39.86-36.44,81.07-64.44,112.92c-6.87-29.8-20.74-53.68-43.63-75.12c-11.45-10.73-25.8-18.65-40.39-22.33
			c-15.99-4.02-31.32-2.79-44.34,3.56c-14.49,7.07-26.65,20.27-38.25,41.55c-13.26,24.34-22.22,50.83-26.6,78.74
			c-4.39,27.91-3.99,55.87,1.16,83.11c3.4,17.95,8.09,30.55,15.21,40.84c9.09,13.16,22.58,21.6,36.07,22.59
			c12.51,0.93,24.72-4.27,35.19-9.2c33.23-15.67,64.53-35.44,93.03-58.78c0.94,19.62,6.16,41.4,15.93,66.54
			c1.3,3.36,2.64,6.73,3.98,10.12c3.27,8.28,6.66,16.85,9.71,25.39c8.39,23.53,16.09,51.34,9.62,79.23
			c-7.8,33.65-36.92,63.59-77.89,80.09c-28.13,11.32-58.74,16.08-88.34,20.69c-8.24,1.28-16.76,2.61-25.1,4.05
			c-52.78,9.16-104.58,24.35-153.95,45.12c-28.68,12.07-67.75,32.38-75.92,69.3c-4.01,18.14,0.62,37.08,5.1,51.56
			c5.17,16.7,14.17,33.24,22.86,49.23c12.83,23.58,26.09,47.97,27.76,73.79c2.22,34.38-19.47,63.35-40.46,91.37
			c-9.53,12.73-19.39,25.89-27,39.48c-38.75,69.19-16.53,165.96,48.52,211.32c42.62,29.72,96.43,37.1,148.23,40.65
			c26.88,1.84,54.28,2.87,81.46,3.07h0c0.07,0,0.13-0.02,0.18-0.07s0.07-0.11,0.07-0.18c0.02-3.91,0.06-7.86,0.12-11.73
			c0-0.04-0.01-0.09-0.03-0.12c-28.93-52.56-53.54-118.54-69.31-185.78c-22.38-95.4-24.09-179.79-4.69-231.52
			c22.56-60.16,77.88-107.78,134.52-115.79c40.76-5.77,77.45,10.21,103.34,44.98c6.66,8.94,14.61,19.94,23.63,32.68
			c0.05,0.07,0.12,0.1,0.2,0.1c0.11,0.03,0.18-0.05,0.22-0.12c39.87-69.78,83.35-199.21,83.79-200.55L734.14,824.3z"/>
		<path class="st6" d="M1189.2,995.83c-29.47-11.66-59.95-23.72-80.79-47.5c-21.36-24.38-29.22-57.09-36.82-88.73
			c-1.88-7.83-3.82-15.93-5.94-23.73c-0.48-1.78-0.98-3.56-1.49-5.31c-0.03-0.11-0.13-0.18-0.24-0.18c0,0,0,0-0.01,0
			c-0.11,0-0.21,0.08-0.24,0.19c-12.09,49.94-30.61,86.12-50.8,99.26c-5.61,3.65-44.24-2.08-93.94-13.92
			c-41.98-10-97.72-26.01-128.28-40.94c-0.11-0.06-0.25-0.02-0.32,0.09c-0.07,0.1-0.05,0.24,0.04,0.32
			c15.28,13.85,30.88,27.88,45.96,41.44c36.65,32.96,74.55,67.04,111.04,101.42c22.92,22.71,49.6,42.97,77.85,64.42
			c7.64,5.8,15.53,11.8,23.4,17.88c0.09,0.07,0.21,0.07,0.3,0.01c50.58-36.25,102.75-35.64,155.07,1.79
			c11.79,8.44,23.58,19.18,35.04,31.93c11.64,12.94,23.4,29.86,34.95,50.3c0.04,0.08,0.13,0.13,0.22,0.13h0.03
			c0.1-0.01,0.18-0.08,0.21-0.18l8.67-27.79c1.25-0.02,8.8-0.08,18.09,2.9c0.07,0.03,0.15,0.02,0.21-0.03
			c0.06-0.04,0.1-0.11,0.11-0.19c0.71-7.26,1.06-14.42,1.06-21.28c0-39.99-12.65-74.93-35.61-98.39
			C1246.03,1018.32,1217.14,1006.89,1189.2,995.83z"/>
		<path class="st6" d="M1366.9,1433.77c-0.08-0.07-0.2-0.08-0.29-0.02c-0.09,0.06-0.14,0.17-0.11,0.28
			c11.51,42.65,22.45,88.02,32.5,134.85c0.01,0.02,0.01,0.05,0.02,0.07c29.94,53.89,59.55,110.31,88.02,167.7
			c0.04,0.07,0.1,0.12,0.18,0.13l0.85,0.15c0.01,0,0.03,0,0.04,0c0.1,0,0.2-0.06,0.24-0.17l52.38-148.13
			c0.03-0.1,0.01-0.2-0.07-0.27C1484.18,1537.46,1425.79,1484.83,1366.9,1433.77z"/>
		<path class="st6" d="M698.26,1262.21c-0.09-0.1-0.24-0.12-0.34-0.03c-0.1,0.08-0.13,0.23-0.06,0.34l0.32,0.48
			c49.32,73,103.58,155.21,140.42,211.33c0.05,0.07,0.13,0.11,0.21,0.11c0.03,0,0.07-0.01,0.1-0.02l30.52-13.81
			c0.07-0.03,0.12-0.09,0.14-0.17c0.02-0.08,0-0.16-0.06-0.22L698.26,1262.21z"/>
		<path class="st6" d="M743.14,825.1c-2.36-0.09-4.95-0.36-7.68-0.82c-0.12-0.02-0.22,0.03-0.27,0.14c-0.05,0.1-0.03,0.22,0.05,0.29
			c5.43,5.07,11.02,10.27,16.63,15.44c0.05,0.04,0.11,0.07,0.17,0.07c0.06,0,0.11-0.02,0.16-0.06c0.1-0.08,0.11-0.22,0.04-0.33
			c-3.01-4.48-6-9.39-8.9-14.61C743.3,825.15,743.22,825.1,743.14,825.1z"/>
		<path class="st6" d="M957.6,509.77c-0.02-0.08-0.07-0.15-0.15-0.19c-0.24-0.09-23.84-9.64-41.71,2.16
			c-13.11,8.65-19.92,26.32-20.23,52.54c0,0.1,0.07,0.21,0.16,0.25c0.02,0.01,0.05,0.02,0.09,0.02c0.47,0,2.97-1.7,31.36-27.13
			c15.1-13.52,30.26-27.28,30.41-27.42C957.59,509.94,957.62,509.86,957.6,509.77z"/>
		<path class="st6" d="M864.98,652.51c0.02-0.09-0.01-0.18-0.08-0.24c-10.19-8.8-26.87-19.64-48.44-21.31
			c-6.68-0.5-13.52-0.12-20.36,1.15c-0.08,0.01-0.15,0.07-0.18,0.14c-6.72,14.46-9.76,30.12-8.8,45.3c0,0.08,0.04,0.15,0.11,0.19
			c0.04,0.03,0.09,0.04,0.14,0.04c0.03,0,0.05,0,0.08-0.01l77.36-25.07C864.9,652.67,864.97,652.6,864.98,652.51z"/>
		<path class="st6" d="M790.52,695.68c0.03,0,0.06-0.01,0.09-0.01c39.22-10.88,90.25-24.69,90.76-24.83
			c0.08-0.02,0.14-0.08,0.17-0.15c0.03-0.07,0.02-0.16-0.02-0.22c-0.02-0.03-2.15-3.27-6.15-7.82c-2-2.27-4.13-4.5-6.33-6.61
			c-0.06-0.06-0.16-0.09-0.25-0.06l-81.02,26.26c-0.11,0.04-0.19,0.15-0.17,0.27c0.55,4.44,1.45,8.81,2.69,13
			C790.32,695.61,790.41,695.68,790.52,695.68z"/>
		<path class="st6" d="M951.47,622.07c0.04,0.02,0.08,0.03,0.12,0.03c0.03,0,0.06,0,0.08-0.01l54.38-19.11
			c0.07-0.03,0.13-0.08,0.15-0.15c0.03-0.07,0.02-0.15-0.02-0.21c-5.63-9.43-12.01-16.78-18.97-21.85c-9.62-7-20.07-9.36-31.05-6.96
			c-0.08,0.02-0.14,0.07-0.17,0.14c-6.74,14.66-8.38,31.69-4.64,47.96C951.36,621.97,951.41,622.03,951.47,622.07z"/>
		<path class="st6" d="M956.17,636.05c0.04,0.09,0.13,0.14,0.23,0.14c0.03,0,0.05,0,0.08-0.01c25.37-8.3,56.32-18.83,56.63-18.93
			c0.06-0.02,0.12-0.07,0.14-0.13c0.03-0.06,0.03-0.13,0.01-0.19c-0.01-0.04-1.59-4.28-4.65-10.02c-0.06-0.11-0.19-0.16-0.3-0.12
			l-55.55,19.52c-0.13,0.05-0.2,0.18-0.16,0.31C953.57,629.87,954.78,633.04,956.17,636.05z"/>
		<path class="st6" d="M685.2,734.71c-18.39-14.06-46.75-30.79-77.58-30.79c-0.22,0-0.5-0.02-0.55,0.19
			c-0.03,0.11,0.02,0.23,0.12,0.28l110.65,61.63c0.04,0.02,0.08,0.03,0.12,0.03c0.07,0,0.14-0.03,0.19-0.09
			c0.08-0.09,0.08-0.23,0-0.32C718.02,765.5,705.18,749.99,685.2,734.71z"/>
		<path class="st6" d="M1844.07,719.39c-4.77-1.94-11.31-3.44-18.56-4.68c-21.7-3.68-49.61-4.83-49.66-4.83l-2.36-0.1l-2.67,39.33
			c-9.27,1.09-17.26,1.7-22.93,2.04c-2.84,0.17-5.1,0.27-6.65,0.33c-1.36,0.05-2.15,0.07-2.32,0.07c-0.21,0-1.05-0.02-2.47-0.07
			c-5.11-0.18-17.58-0.78-33-2.58l-2.66-39.13l-2.36,0.1c-0.04,0-18.49,0.76-37.03,3.02c-9.28,1.13-18.56,2.63-25.69,4.64
			c-3.57,1.02-6.6,2.14-8.94,3.55c-1.17,0.71-2.18,1.49-2.98,2.48c-0.79,0.97-1.36,2.25-1.36,3.64c0,1.33,0.51,2.59,1.29,3.66
			c1.18,1.61,2.95,2.98,5.41,4.41c2.46,1.42,5.65,2.86,9.69,4.37c19.09,7.13,41.37,11.23,60.06,13.59l3.02,44.39l6.31,92.79
			c-16.6-2.39-31.11-8.58-41.37-24.44l2.75,19.66l4.56,32.53c3.07,8.9,7.64,16.4,13.18,22.04c7.18,7.3,15.98,11.48,25.25,11.52
			c0.05,0,0.1,0,0.15,0h49.5c0.05,0,0.1,0,0.15,0c16.44-0.08,31.39-13.13,38.43-33.56l7.52-52.51
			c-10.42,16.33-25.28,22.53-42.28,24.86l6.38-93.91l2.93-43.16c18.19-2.33,40.45-6.46,60.08-13.79c5.4-2.02,9.25-3.9,11.93-5.79
			c1.34-0.95,2.39-1.91,3.18-2.99c0.78-1.07,1.29-2.33,1.29-3.66c0.01-1.39-0.57-2.66-1.36-3.64
			C1848.99,721.73,1846.8,720.52,1844.07,719.39z M1640.53,735.11c-5.17-1.93-8.73-3.71-10.82-5.21c-1.05-0.74-1.72-1.4-2.06-1.88
			c-0.35-0.49-0.37-0.72-0.37-0.82l0.3-0.61c0.52-0.69,2.12-1.78,4.48-2.72c4.14-1.7,10.48-3.19,17.54-4.39
			c10.6-1.8,22.89-3,32.5-3.74c4.81-0.37,8.95-0.63,11.88-0.79c0.88-0.05,1.65-0.09,2.3-0.12l2.28,33.48
			C1680.29,745.96,1658.75,741.94,1640.53,735.11z M1767.55,797.26l-6.38,93.81c-7.59,0.72-15.54,0.83-23.68,0.83
			c-8.38,0-16.58-0.11-24.38-0.89l-6.32-92.88l-3.01-44.3c20.15,2.3,35.03,2.56,35.09,2.58l0.04-2.42l0.05,2.42
			c0.06-0.01,13.19-0.26,31.51-2.37L1767.55,797.26z M1847.02,727.2c0,0.1-0.02,0.33-0.37,0.81c-0.51,0.72-1.78,1.84-3.91,3.05
			c-2.13,1.23-5.1,2.58-8.97,4.04c-18.74,7.02-40.26,11.08-58.04,13.4l2.29-33.68c2,0.1,5.17,0.28,9.09,0.55
			c10.31,0.7,25.81,2.04,38.6,4.28c6.39,1.12,12.12,2.48,16.05,4.02c1.96,0.76,3.47,1.58,4.32,2.29
			C1846.96,726.71,1847.02,727.1,1847.02,727.2z"/>
		<path class="st0" d="M1081.54,576.18l-49,17.22l-26.57,9.34l-54.38,19.11L926,630.84l-3.6,1.26l2.31,2.69
			c0.25,0.29,0.5,0.58,0.76,0.87c2.38,2.74,4.73,5.37,7.06,7.88c0.76,0.82,1.52,1.62,2.28,2.42l-17.71,4.78
			c0.01-0.67,0.02-1.32,0.02-1.95c0-6.22-0.65-10.08-0.67-10.19l-0.47-2.76l-12.63,4.09l-1.17,0.38l-37.45,12.14l-77.36,25.07h0
			l-42.75,13.86l-21.52,6.98l-4.28,1.39l2.38,2.76c0.52,0.6,1.04,1.2,1.57,1.79c3.4,3.79,7.03,7.33,10.85,10.61
			c21.41,18.38,48.91,28.58,76.84,28.58c7.3,0,14.64-0.7,21.9-2.13c3.05-0.6,6.09-1.33,9.11-2.19c20.8-5.94,36.04-14.79,47.12-24.82
			c4.73-4.28,8.7-8.79,12.02-13.37c11.11-15.32,14.95-31.46,16.09-43.45c0.05-0.58,0.1-1.14,0.14-1.7l1.95-0.53l19.91-5.37
			c6.34,6.25,12.67,11.57,19.27,15.81c3.74,2.41,7.58,4.46,11.55,6.14c8.12,3.43,16.78,5.27,26.3,5.26c6.57,0,13.54-0.86,21.03-2.63
			c1.85-0.44,3.74-0.93,5.66-1.48c15.38-4.4,27.28-10.18,36.4-16.76c6.6-4.76,11.75-9.93,15.72-15.29
			c9.46-12.76,12.12-26.45,12.11-37.66c-0.01-14.38-4.29-24.82-4.36-25L1081.54,576.18z M912.29,648.81c0,2.4-0.1,5.19-0.39,8.25
			c-1.08,11.38-4.73,26.64-15.19,41.06c-1.95,2.68-4.13,5.34-6.59,7.95c-10.71,11.38-26.52,21.71-49.97,28.43
			c-1.58,0.45-3.16,0.86-4.75,1.24c-8.24,1.95-16.6,2.9-24.93,2.9c-26.16,0-51.98-9.36-72.3-26.24c-3.82-3.17-7.45-6.62-10.85-10.31
			l17.02-5.52l43.5-14.1l81.02-26.26l32.33-10.48l6.03-1.95l4.79-1.55c0.14,1.6,0.27,3.84,0.27,6.57V648.81z M1070.77,638.09
			c-3.44,4.64-7.87,9.18-13.56,13.44c-7.81,5.84-17.99,11.14-31.23,15.39c-1.55,0.5-3.14,0.98-4.77,1.45
			c-9.34,2.67-17.7,3.93-25.36,3.93c-9.89-0.01-18.64-2.07-26.93-6c-2.81-1.33-5.57-2.88-8.31-4.63
			c-7.72-4.96-15.21-11.6-22.92-19.71c-2.3-2.42-4.62-4.97-6.96-7.64l22.11-7.77l55.55-19.52l26.22-9.22l44.08-15.49
			c1.16,3.61,3.24,11.42,3.23,21C1081.92,613.8,1079.48,626.33,1070.77,638.09z"/>
		<path class="st0" d="M1754.79,522.61c9.27-4.52,18.86-9.2,28.26-13.88c0.09-0.05,0.15-0.15,0.14-0.25
			c-0.01-0.1-0.08-0.19-0.18-0.22c-14.77-4.07-30.08-6.13-45.5-6.13c-81.6,0-152.13,58.05-167.69,138.04
			c-0.02,0.11,0.03,0.21,0.12,0.27c0.04,0.02,0.08,0.03,0.12,0.03c0.06,0,0.12-0.02,0.17-0.06c12.81-11.43,26.25-22.76,39.92-33.65
			C1655.67,570.97,1706.06,546.38,1754.79,522.61z"/>
	</g>
</g>
</svg>
