<?xml version="1.0" encoding="utf-8"?>
<!-- Generator: Adobe Illustrator 24.3.0, SVG Export Plug-In . SVG Version: 6.00 Build 0)  -->
<svg version="1.1" id="Ñëîé_1" xmlns="http://www.w3.org/2000/svg" xmlns:xlink="http://www.w3.org/1999/xlink" x="0px" y="0px"
	 viewBox="0 0 2600 2000" style="enable-background:new 0 0 2600 2000;" xml:space="preserve">
<style type="text/css">
	.st0{fill:#FFFFFF;}
	.st1{fill:#9A4157;}
	.st2{fill:#5A2D62;}
	.st3{fill:#F99370;}
	.st4{fill:#492050;}
	.st5{fill:#E57D61;}
	.st6{fill:#C16256;}
	.st7{fill:#CE4ABF;}
	.st8{fill:#F9B233;}
	.st9{fill:#7640CC;}
	.st10{fill:#9358E0;}
	.st11{fill:#FCB5A7;}
	.st12{fill:#3A72AA;}
	.st13{fill:#23659B;}
	.st14{fill:#7D44D8;}
	.st15{fill:#5E31B5;}
	.st16{fill:#EB5648;}
	.st17{fill:#CE3932;}
	.st18{fill:#E8C0A6;}
	.st19{fill:#163260;}
	.st20{fill:#163356;}
	.st21{fill:#D1A68F;}
	.st22{fill:#1D3F70;}
</style>
<rect id="_x38_" class="st0" width="2600" height="2000"/>
<g>
	<g id="_x37_">
		<path class="st1" d="M1776.8,1089.7c-17.5-92.7-41.8-257-64.5-340.7c-33.4-123.3-77.5-244.8-160.7-327.3
			c-91.7-85.7-187.8-52.1-187.8-52.1s-155.3-103.3-330.7,43.3C854.4,562.4,876.1,734.5,802.2,840.1
			c-170.2,259.7-171,420.7-36.3,616.3c66.6,96.7,448.3,317.3,678.2,206.1C1549.5,1611.6,1865.6,1559.9,1776.8,1089.7z"/>
		<path class="st2" d="M1971.9,2000h-340.6c-40.7-104.9-87.8-233.8-127.6-361.8c-58.1-187.2-100.4-372.6-83.4-478.9v0
			c4.3-27,12.4-48.8,25-64.4c4.8-5.9,10.3-10.9,16.5-14.9c0,0,182.2,84.1,320.9,266.3c10.3,13.5,20.3,27.5,29.9,42
			c140.7,211.3,45.1,402.5,151.8,597.6C1967,1990.7,1969.5,1995.4,1971.9,2000z"/>
		<polygon class="st3" points="1241,918.5 1241,1116.4 1335.3,1278.9 1410.7,1116.4 1410.7,918.5 		"/>
		<path class="st4" d="M1790.8,2000h-126.4c1.3-81.3-0.6-153.8-11.2-158.5l-4-279.2l-3.2-220.7c0,0,58.3,50.4,99.5,109.9
			c20.8,30,37.3,62.3,39.7,91.6c7.3,87.2-22,183.1-26.7,239.9C1752.6,1855.4,1769.6,1931.2,1790.8,2000z"/>
		<path class="st5" d="M1241,918.5v76.8c99.4,48,169.7,22.2,169.7,22.2v-98.9H1241z"/>
		<path class="st3" d="M1119.6,722c9.1,103.8,48.2,229.8,159.5,261.2c4.2,1.4,8.6,2.5,12.9,3.7c179.7,60,404.8-138.9,272.2-298.2
			c-15.5-16.9-30.9-41.2-38.5-59.7c0,0,0,0,0,0C1446.7,297.8,1098.6,423.9,1119.6,722z"/>
		<path class="st5" d="M1394.4,442.9l-1.5,23.8c83,36.7,131.9,160.3,131.9,160.3C1507.6,551,1471.6,472,1394.4,442.9z"/>
		<path class="st5" d="M1130.5,791.2c14.9,69.5,48.3,143.8,112.5,176.8c-77.6-50.7-81.1-166.3-81.1-166.3L1130.5,791.2z"/>
		<path class="st5" d="M1119.6,722l54.8,27.7c71.6-28.3,145.6-137.7,145.6-137.7l-161.1-70.7C1129.7,591.3,1114.9,654.7,1119.6,722z
			"/>
		<path class="st1" d="M1120.3,731.1c0,0,303-115.2,276-287.5c0,0-64.5-50.6-142.3-27C1169.9,442.1,1073.6,548.5,1120.3,731.1z"/>
		<path class="st3" d="M1067.7,758.4c13.9,88.8,123.4,71.7,110.5-17.1C1164.3,652.5,1054.7,669.6,1067.7,758.4z"/>
		<path class="st6" d="M1095.2,778c2.8-0.1,4.8-2.8,4.2-5.5c-14-47.4,7.9-66.1,39-51.5c5.2,2.5,9.1-5.8,3.8-8
			c-36.5-17-68.2,4.8-51.5,61.6C1091.1,776.7,1093.1,778.1,1095.2,778z"/>
		<path class="st6" d="M1137.2,774c12.5-2.1-9.9-43.4-44.1-48.1c-2.4-0.3-4.7,1.4-5,3.9c-0.3,2.4,1.4,4.6,3.9,4.9
			C1126.8,740,1128.2,772.9,1137.2,774z"/>
		<path class="st6" d="M1420.1,690c8-13-12.8-25-20.4-11.7C1391.7,691.3,1412.5,703.2,1420.1,690z"/>
		<path class="st6" d="M1520.3,678.6c8-13-12.8-25-20.4-11.7C1492,680,1512.7,691.9,1520.3,678.6z"/>
		<path class="st6" d="M1482.7,778.3c20.4-1.5,48.1-13.5,23.9-32.2c-21.6-13.1-35.2-59.7-35.3-60.2c-1.5-5.5-10.3-3-8.6,2.5
			c0.6,2,14.7,50.4,39.2,65.3c2.8,1.7,5.9,4.2,4.7,6.5c-13.4,17.3-42.3,2.9-45.4,9.9C1459.9,779.6,1475.6,777.8,1482.7,778.3z"/>
		<path class="st6" d="M1373.4,670.4c1.5,0.3,3.2-0.3,4.1-1.7c18.9-28.8,55.4-31.7,55.8-31.8c2.2-0.2,3.8-2,3.7-4.2
			c-0.2-2.2-2-3.8-4.2-3.7c-1.7,0.1-40.8,3.1-61.9,35.3c-1.2,1.8-0.7,4.3,1.1,5.5C1372.5,670.1,1372.9,670.3,1373.4,670.4z"/>
		<path class="st6" d="M1483.4,820.6c-0.7-1.4-2.2-2.3-3.9-2.2c-34.3,3.2-59.3-23.6-59.6-23.9c-1.5-1.6-4-1.7-5.6-0.2
			c-1.6,1.5-1.7,4-0.3,5.6c1.1,1.2,27.8,30,66.2,26.4c2.2-0.2,3.8-2.1,3.6-4.3C1483.8,821.5,1483.6,821.1,1483.4,820.6z"/>
		<path class="st6" d="M1523.1,643.2c1.3,0.3,2.6-0.1,3.6-1.1c1.5-1.5,1.6-4,0-5.6c-0.9-0.9-23.3-23.1-55.6-12.4
			c-2.1,0.7-3.2,2.9-2.5,5c0.7,2.1,2.9,3.2,5,2.5c27.5-9.1,46.6,9.6,47.4,10.4C1521.6,642.7,1522.3,643,1523.1,643.2z"/>
		<path class="st2" d="M1729,1870.8c0.3,39.7,8.2,81.6,22.5,129.2H834c3.6-11.3,7.2-22.3,10.8-32.9c14.5-42.8,27.6-79.4,27.3-101.2
			c-0.6-23.5-1-47.1-1-70.7c-0.1-81.2,3.8-162.3,12.9-239.5v0c28.6-241.9,109.3-445.1,285.2-489.6c22.3-5.6,46.2-8.7,71.7-9
			c0.1,0.1,0.1,0.1,0.2,0.2c13.8,10.9,32.9,24.4,53.5,35.5c0.7,0.4,1.3,0.7,2,1.1c29.8,15.8,62.2,26.2,85.4,16.5c0,0,0,0,0.1,0
			c13.4-5.6,23.7-18,28.6-40c0,0,0,0,0,0c0.1,0,0.1,0.1,0.2,0.1c11.9,7.3,23.3,15.6,34.5,24.5c4.9,4,9.7,8.1,14.5,12.3
			c80.7,71.8,141,179.9,186.2,234.4c0,0,0,0,0,0c40.5,45.8,69.3,87.7,87.8,129.7c12.7,28.9,20.7,57.8,24.3,88
			C1770.7,1661.7,1726.3,1762.5,1729,1870.8z"/>
		<path class="st4" d="M1031.6,1678.8c-74.2,154.8-55.8,239.9,0,315c1.5,2,3.1,4.1,4.7,6.1H859.2l-14.4-32.9l-37.3-84.8l63.5-87.2
			l128.7-176.7l150.4-206.6c-1,2.6-38,95.6-100.1,228C1044.1,1652.5,1038,1665.5,1031.6,1678.8z"/>
		<path class="st2" d="M1241.1,1116.5c-0.1,2.6-0.3,5.1-0.4,7.7c-6.9,106.1-44.6,199.8-90.5,287.8
			c-35.6,68.3-76.2,133.2-111.3,197.7c-3.8,7-7.6,14.1-11.3,21.1c-24.7,47.1-45.7,94.3-59.1,142.7c-20.3,73.4-18.7,156.7,30,226.6
			h-433c-90.7-241.4,6.9-532.3,82.7-638.7c13.5-18.9,27-36.7,40.6-53.4c14.5-17.8,29-34.5,43.6-50
			c162.4-173.2,325.5-206.9,421.7-208.8c53.9-1.1,86.8,7.9,86.8,7.9c0.1,1.4,0.2,2.8,0.2,4.2C1242,1080,1242,1098.4,1241.1,1116.5z"
			/>
		<path class="st2" d="M1154,1049.2c5.6,6.8,11.7,13.5,18.2,20.1c19.7,20,43.3,38.9,68.4,54.9c40.9,25.9,85.8,43.9,124.7,45.9
			c11.3,0.6,22.1-0.2,32.2-2.5c42.2-9.9,57-37.7,62.1-59.4c3.7-15.7,2.2-28.1,2.2-28.1c-20.6-10.2-38.9-13.3-50.9-9.6
			c-0.1,0-0.1-0.1-0.2-0.1c0,0,0,0.1,0,0.1c-4.5,24.8-17,37.2-33.6,41.4c-39.3,9.9-101.7-26-136-54.6c-0.1-0.1-0.1-0.1-0.2-0.2
			C1240.8,1057,1207.9,1048.1,1154,1049.2z"/>
	</g>
	<g id="_x36_">
		<path class="st3" d="M2600,837.9v211.6c-13.3-0.6-26.5-1.2-39.7-1.8c-0.1,0-0.1,0-0.1,0c0,0,0,0,0,0c-26.5-1.2-54.7-2.5-83.5-3.9
			c-7.8-0.4-15.6-0.7-23.4-1.1c-7.9-0.4-15.7-0.7-23.6-1.1c-7.4-0.4-14.8-0.7-22.2-1.1c-49.4-2.4-97.8-4.9-139.6-7.2
			c-102.4,76.8-325.2,106-290.3,19.6c-28.8-3.7-36.8-41.2-16.9-58.2c-32.9-7.9-33.1-58.9,2.9-65.7c-29.1-1.6-37.7-48-7.1-58
			c38.8-14.3,78.9-24.6,119.6-31.8c0.3,0,0.5-0.1,0.8-0.1c1.1-14.5,1.4-28.5,1.2-40.9c-0.1-7.6-0.4-14.6-0.7-20.7v0c0,0,0,0,0,0
			c-29.5-22.3-18.9-81.3-1.4-85c2.4-0.5,4.9,0,7.4,1.8c3.8,2.7,7.8,8.2,11.5,17.4c2.2,7.7,4.8,15.1,7.7,22.1
			c22,52.8,61.5,84.1,84.4,101.1c51-3.6,115.2-12.8,180.3-23.7c8-1.3,16-2.7,24-4.1c7.9-1.4,15.8-2.7,23.6-4.1
			c8.3-1.5,16.5-2.9,24.6-4.4c31-5.6,61-11.3,88.9-16.6c3.3-0.6,6.6-1.2,9.8-1.9c2.3-0.5,4.7-0.9,7.1-1.3L2600,837.9z"/>
		<path class="st7" d="M2600,723.1v355.6c-4-1.4-7.9-2.9-11.9-4.5c0,0,0,0,0,0c-11.9-6-23.4-15-28.2-25c0.1-0.5,0.3-1,0.4-1.5
			c11.5-44.8,2.2-193.6-32-266C2540.6,738.7,2600,723.1,2600,723.1z"/>
		<path class="st5" d="M2087.5,844.4c0,0-11.2-5.2-11.5-5.2c2.4-26.8,2.3-50.3,1.2-61.9C2077.3,777.2,2085.7,805.2,2087.5,844.4z"/>
		<path class="st8" d="M2407.4,1040.4c0,0,10.6-125.5-40.3-229.5c0,0,8.4-12.9,24.1-4c0,0,47.6,63.9,38.4,234.7
			C2429.6,1041.5,2419.3,1053.2,2407.4,1040.4z"/>
		<path class="st8" d="M2453.2,1042.6c0,0,18.4-146.7-38.4-239.9c0,0,9.3-10.1,24.6-4.4c0,0,49.3,66.4,37.1,245.5
			C2476.7,1043.7,2464.5,1051.4,2453.2,1042.6z"/>
		<path class="st9" d="M2103.4,738c-0.3,0.1-0.6,0.1-0.9,0.2c-0.8,0.2-1.7,0.4-2.5,0.5c-9.2,1.3-18.1-4.4-20.3-13.6
			c-3.5-14.2-5.7-31.5-2.4-39.4c0,0,0,0,0,0c0.7-1.7,1.8-3,3.1-3.7C2099.2,708.6,2103.4,738,2103.4,738z"/>
		<path class="st10" d="M2103.4,738c-0.3,0.1-0.6,0.1-0.9,0.2c-0.8,0.2-1.7,0.4-2.5,0.5c-6.3-34.4-22.4-52.6-22.7-53c0,0,0,0,0,0
			s0,0,0,0c0.7-1.7,1.8-3,3.1-3.7C2099.2,708.6,2103.4,738,2103.4,738z"/>
	</g>
	<g id="_x35_">
		<path class="st3" d="M536.4,1053.7c0,0-59.9-72.3-30.7-206.2c0,0-68.3-13.4-154.7,15.3c-7.2-15.6-14.2-31.9-16.7-36.7
			c4-25.7-4.6-53.6-17.1-69.8c-16-20.8-37.4-23.8-38.9,6c0.2,38.2,5.4,73.7-1.1,102c-1,3.3-21.7,69.6-94.3,87.9
			c-59.6,15.2-129.5,30.5-182.7,40.7v233.5c69.5-22.3,133.5-44.5,181.1-61.6c55-20.4,88.7-32.8,152.3-33.7c0,0,0,0,0,0
			C424.1,1142.7,538.9,1127,536.4,1053.7z"/>
		<path class="st5" d="M389.5,880.7c-34.2,18.2-23,46.4-0.9,56.4c-18.5,9.8-12.1,40.7,8.2,43.3c-20.4,8.8-18.1,37.2,1.4,44.5
			c-23.5,6.9-23.4,44.1,5.4,47.2c27.7,2.3,55.2,8,82,15.7c35.9,13.6,54.1-25.2,40.8-48.6c25.7-9,28.9-54-2.1-64
			c35.4-5.5,29.2-66-7-66.2c15.9-12.2,6.7-49.7-11.5-61.5C493.1,841.7,421.9,862.5,389.5,880.7z"/>
		<path class="st3" d="M396.4,884c-2.4,1.1-8,4.1-10.4,5.2c-18.8,8.6-13.7,40.1,5.9,43.9c6.3,1.5,13.2,0.3,19.5-2.6
			c32.5-10.3,66.4-16.5,100.4-19.3c8.5-0.4,14.9-3.2,19.5-7.6c19.4-18.3,5.4-62.8-29.6-55.5C465.5,856.2,430,868.2,396.4,884z"/>
		<path class="st11" d="M416.7,919c0,0-29.3,10.8-35-2.3s10-20.1,25.3-26.7C406.9,890,414.5,900.3,416.7,919z"/>
		<path class="st5" d="M415.8,923.8c-2.5,0.7-8.5,2.9-11,3.7c-4.5,1.5-14.2,7.6-16.8,11.3c6.6,3.4,21.7,1.1,32.1-2.2
			c30.8-9.7,58.5-12.6,90-19.5c10.8-2.4,17.9-7.3,21.4-13.5c-1.9-0.2-4.2-0.4-6.2-0.3c-25.6,1.8-51.1,6-76.1,11.5
			C438.1,917.4,426.5,920.5,415.8,923.8z"/>
		<path class="st3" d="M411.4,931.5c-2.5,0.7-8.5,2.9-11,3.7c-19.9,5.9-19.2,37.8-0.4,44.3c6,2.3,13,2.2,19.7,0.2
			c33.6-5.6,68-6.9,102.2-4.8c8.4,0.8,15.2-1.1,20.4-4.7c21.8-15.3,15.5-62.2-20.2-60.1C485,913,446.9,920.6,411.4,931.5z"/>
		<path class="st11" d="M426.6,969c0,0-30.6,6.5-34.4-7.3c-3.8-13.8,12.7-18.5,28.8-22.8C421,938.9,427.1,950.2,426.6,969z"/>
		<path class="st5" d="M400,979.4c10.2,4.3,22.4-1,33.2-1.9c29.2-3.6,59.1-4.6,88.6-2.7c8.4,0.8,15.2-1.1,20.4-4.7
			C526,959.1,412.2,969.3,400,979.4z"/>
		<path class="st3" d="M400.6,1021.2c5,3.3,11.8,4.9,20.2,3.6c30.2-0.4,60.6,3.9,90,11.1c43.4,16.1,62.1-57.9,11.1-62.9
			c-35.6-2.8-71.7-1.6-106.9,5.2C386.6,980.6,383.8,1010.2,400.6,1021.2z"/>
		<path class="st5" d="M400.6,1021.2c5,3.3,11.8,4.9,20.2,3.6c30.2-0.4,60.6,3.9,90,11.1c10.8,3.4,19.7,2.1,26.6-1.9
			c-4.5-8.1-13.6-14.4-27.8-15.4C482,1017.5,424.5,1013.8,400.6,1021.2z"/>
		<path class="st3" d="M505.3,1026.2c-30.1-2.2-60.6-7.8-90.7-3.7c-31.9-0.8-35.9,43.5-4.1,46.5c27.4,2,54.6,7.3,81.1,14.5
			C540,1101,556.5,1030.1,505.3,1026.2z"/>
		<path class="st11" d="M426.6,1059.7c0,0-30.8-0.4-31.4-14.4s16.2-15,32.6-15.7C427.8,1029.5,431.1,1041.7,426.6,1059.7z"/>
		<path class="st11" d="M430.1,1013.5c0,0-30.8,5.2-34-8.8s13.5-17.9,29.8-21.6C425.9,983.2,431.4,994.7,430.1,1013.5z"/>
		<path class="st5" d="M467,1112.2c0,0,23.3-16.5,40.4-22.5l-21.8-1.9C485.6,1087.9,478.5,1095.9,467,1112.2z"/>
		<path class="st11" d="M280.2,750.2c15.6,0.7,23.7,36.4,20.1,45c0,0-11.1-2.9-21-1.1C279.3,794.1,276,762.3,280.2,750.2z"/>
		<path class="st12" d="M231.3,1146.7L231.3,1146.7c0,0-16.5,9.5-46,24.8c-34.5,17.9-113.1,55-185.3,86.1V965.3
			c42-3.8,96.9-8.6,132.5-10.6c16.7-0.9,33.6-1.8,50.6-2.5h0C183.1,952.2,175.9,1050,231.3,1146.7z"/>
		<path class="st13" d="M231.3,1146.7c0,0-16.5,9.5-46,24.8c-66.6-112.9-52.8-216.9-52.8-216.9c16.6-0.9,33.6-1.8,50.6-2.5
			C183.1,952.2,175.9,1050,231.3,1146.7z"/>
		<path class="st12" d="M206.8,1136.2c0.6,5.9-3.6,11.1-9.5,11.8c-5.9,0.6-11.1-3.6-11.8-9.5s3.6-11.1,9.5-11.8
			S206.2,1130.4,206.8,1136.2z"/>
		<path class="st5" d="M356,932.7c0,0,4.4,53.2-25.2,81.6c0,0,22.7,4.1,38.3,19.4c0,0-8.3-17.8-25-21.9
			C344,1011.8,365.2,982.2,356,932.7z"/>
	</g>
	<g id="_x34_">
		<path class="st3" d="M2154.1,166.5c-38.3,11.7-79.7,23.6-120.3,34.3c-70.6,26.1-127.4-2.4-150.1-25.5
			c-19.2-21.7-31.6-55.4-49.7-89c-15.5-25.6-33-12.7-37,13.3c-3.2,20.2,2.6,48.9,18.4,69.5c0.2,5.4,1.8,23.1,2.9,40.2
			c-89.6,16-143.2,60.5-143.2,60.5c89.7,103.6,71.7,195.7,71.7,195.7c32.9,65.6,141.1,24.5,215-28.9v0
			c83.3-45,163.4-41.3,254.2-60.4V146.9C2196.9,153.1,2176.3,159.7,2154.1,166.5z"/>
		<path class="st5" d="M1793,243.3c38.7-0.3,42.4,29.8,27.8,49.1c20.9-0.2,30.2,30,13.5,41.9c22.1-2,33.7,24,20.1,39.8
			c23.9-5.1,41.7,27.5,17.8,44c-23.2,15.3-44.6,33.5-64.5,53c-25.1,29.1-59.6,3.7-59.1-23.2c-26.9,4.4-51.2-33.6-28.7-57.2
			c-33.7,12.1-57.2-44-25.5-61.5c-19.8-3.1-29.6-40.4-19.3-59.5C1683.4,258.6,1755.9,242.8,1793,243.3z"/>
		<path class="st3" d="M1788.6,249.5c2.6-0.2,8.9-0.3,11.6-0.4c20.7-1.4,31.2,28.7,15.8,41.4c-4.8,4.3-11.4,6.6-18.4,7.1
			c-33.4,6.5-66.2,17.3-97.4,31.1c-7.6,3.7-14.6,4.3-20.7,2.7c-25.8-6.8-34.8-52.5-0.5-63C1714.6,258.1,1751.5,251.6,1788.6,249.5z"
			/>
		<path class="st11" d="M1787.5,290c0,0,30.9-4.6,29.7-18.8c-1.3-14.3-18.4-12.9-35-11.3C1782.2,259.8,1780.4,272.5,1787.5,290z"/>
		<path class="st5" d="M1790.6,293.7c2.5-0.6,8.8-1.5,11.4-2.1c4.7-0.8,16.1-0.2,20.2,1.9c-4.2,6.2-18.5,11.4-29.3,13.5
			c-31.6,6.2-57.4,16.9-88.3,25.9c-10.6,3.1-19.2,2.2-25.2-1.6c1.5-1,3.4-2.4,5.3-3.2c23.3-10.6,47.7-19.2,72.3-26.3
			C1767.8,298.8,1779.6,296,1790.6,293.7z"/>
		<path class="st3" d="M1798,298.4c2.5-0.6,8.8-1.5,11.4-2.1c20.3-4.4,35,24,21.6,38.7c-4.1,4.9-10.4,8.1-17.2,9.6
			c-32.2,11.2-63,26.5-92,44.7c-7,4.8-13.9,6.3-20.1,5.6c-26.5-3-43.4-47.2-11-62.4C1724.6,317.3,1761.6,305.8,1798,298.4z"/>
		<path class="st11" d="M1802.7,338.6c0,0,30-8.9,26.7-22.9c-3.3-13.9-20-10.2-36.2-6.2C1793.2,309.5,1793.3,322.3,1802.7,338.6z"/>
		<path class="st5" d="M1831,335c-6.9,8.7-20.2,9.8-30.1,14.3c-27.4,10.8-54.1,24.2-79.1,40c-7,4.8-13.9,6.3-20.1,5.6
			C1710.6,377.4,1815.4,332,1831,335z"/>
		<path class="st3" d="M1850.5,372c-2.9,5.3-8.1,10-16,12.9c-26.7,14-51.3,32.4-73.7,52.8c-30.5,34.9-82.2-21.1-39.9-49.9
			c30-19.5,62.3-35.7,96.3-46.6C1843.3,329.7,1860,354.3,1850.5,372z"/>
		<path class="st5" d="M1850.5,372c-2.9,5.3-8.1,10-16,12.9c-26.7,14-51.3,32.4-73.7,52.8c-7.8,8.2-16.3,11.3-24.3,11
			c0.1-9.3,5-19.1,17-26.9C1777.2,407.7,1825.9,376.9,1850.5,372z"/>
		<path class="st3" d="M1760.9,426.4c25.4-16.4,49.5-35.8,77.9-46.6c27.6-15.9,52.3,21,25.8,38.9c-23.1,14.9-44.4,32.5-64.3,51.5
			C1766.2,508.7,1717.8,454.4,1760.9,426.4z"/>
		<path class="st11" d="M1846,418.2c0,0,26.9-15,20.7-27.7s-21.4-5.5-36.2,1.8C1830.6,392.3,1833.4,404.6,1846,418.2z"/>
		<path class="st11" d="M1820.9,379.4c0,0,29.6-10.2,25.7-24c-3.9-13.8-20.4-9.3-36.5-4.7C1810.1,350.7,1810.8,363.5,1820.9,379.4z"
			/>
		<path class="st5" d="M1835.7,483.6c0,0-28.4-3.3-46.2-0.4l18.2-12.1C1807.7,471.2,1817.7,474.9,1835.7,483.6z"/>
		<path class="st11" d="M1826.6,76.4c-13.4,8.1-3.4,43.3,3.9,49.2c0,0,8.3-7.8,17.9-11C1848.4,114.6,1836.1,85,1826.6,76.4z"/>
		<path class="st14" d="M2600,0v346.6c-14.5,1.1-44.8,4.1-84.2,8.2c-28.4,2.9-61.4,6.5-96.6,10.2c-37.4,4-77.2,8.3-116.4,12.5
			c-28,3-55.6,6-81.8,8.8c-41.1,4.4-78.6,8.4-108.1,11.3c-30,3.1-51.8,5.1-60.6,5.7c0,0,0,0,0,0c-1,0.1-1.8,0.1-2.5,0.1
			c-35.9-57.7-53.7-125.5-61.9-192.4c0.1-0.1,0.3-0.1,0.4-0.2l0,0c11.6-5.8,30-14.4,53-24.8c0,0,0,0,0,0
			c27.9-12.6,62.5-28,100.2-44.4c23.9-10.4,49-21.3,74.3-32.2c37.3-16.1,75-32.2,110.1-47c31.4-13.3,60.7-25.5,85.7-35.8
			c14-5.7,39.3-16.4,63.5-26.6L2600,0L2600,0z"/>
		<path class="st5" d="M1846.9,261.3c0,0,24.2,47.5,64.3,56.1c0,0-17.2,15.5-22.3,36.6c0,0-2.3-19.5,9.7-31.8
			C1898.7,322.2,1865.1,308.2,1846.9,261.3z"/>
		<path class="st15" d="M2113,397.6c-33.5,3.4-56.7,5.6-63.1,5.8c-35.9-57.7-53.7-125.5-61.9-192.4c11.6-5.8,30.1-14.4,53.4-25
			C2041.6,187.4,2057.1,294.1,2113,397.6z"/>
		<path class="st15" d="M2302.9,377.5c-28,3-55.6,6-81.8,8.8c-76.7-172.6-79.5-244.7-79.5-244.7l74.3-32.2
			C2244.3,241.4,2302.9,377.5,2302.9,377.5z"/>
		<path class="st15" d="M2419.3,365L2419.3,365C2331.6,195.6,2326,62.4,2326,62.4c31.4-13.3,60.7-25.5,85.7-35.8
			c9.9,133.9,104.2,328.2,104.2,328.2C2487.5,357.7,2454.4,361.2,2419.3,365z"/>
		<path class="st15" d="M2600,0v286.5c-51.4-99.9-85.7-219.5-102.1-286.5H2600z"/>
	</g>
	<g id="_x33_">
		<path class="st3" d="M2503.5,1616.3c-40-2.5-82.9-5.9-124.7-10.1c-75.3-0.3-118.4-47-131.6-76.7c-10.4-27-10.2-63-15.3-100.8
			c-5.6-29.4-26.4-23.4-39.3-0.6c-10,17.8-14.7,46.7-7.2,71.5c-1.8,5.1-6.4,22.2-11.4,38.7c-89.5-16.5-155.3,6.4-155.3,6.4
			c47.5,128.5-1.7,208.4-1.7,208.4c7.8,73,123.5,72.5,211.4,48.5v0c93.8-12.8,167.5,18.7,259.2,32.8l80.6-214.7
			C2548.3,1618.9,2526.7,1617.8,2503.5,1616.3z"/>
		<path class="st5" d="M2138.5,1561.4c36.4,13.3,29.2,42.8,8.7,55.8c19.6,7.2,17.7,38.7-2.1,44c21.4,5.9,23.1,34.3,4.8,44.3
			c24.2,3.6,29.4,40.4,1.2,47.5c-27.1,6.2-53.6,15.6-79,27c-33.7,18.5-57.1-17.4-47.2-42.5c-26.7-5.3-36.1-49.4-6.8-63.7
			c-35.8-0.5-38.1-61.2-2.3-66.6c-17.4-9.9-13.5-48.2,2.9-62.5C2030.5,1537.1,2103.9,1547.9,2138.5,1561.4z"/>
		<path class="st3" d="M2132.2,1565.6c2.5,0.7,8.5,2.9,11,3.7c19.9,5.9,19.1,37.8,0.2,44.3c-6,2.3-13,2.2-19.7,0.1
			c-33.6-5.7-68-7.1-102.1-5.1c-8.4,0.8-15.2-1.1-20.3-4.8c-21.8-15.4-14.1-61.4,21.6-59.1
			C2059.9,1547.7,2096.7,1554.6,2132.2,1565.6z"/>
		<path class="st11" d="M2116.9,1603.1c0,0,30.6,6.6,34.4-7.2c3.8-13.8-12.7-18.5-28.7-22.9
			C2122.5,1573,2116.5,1584.3,2116.9,1603.1z"/>
		<path class="st5" d="M2118.5,1607.8c2.6,0.4,8.8,1.7,11.4,2.1c4.7,0.9,15.2,5.5,18.2,8.9c-6.1,4.3-21.3,4.1-32.1,2.3
			c-31.8-5.3-59.7-4.3-91.8-6.8c-11-0.9-18.8-4.7-23-10.4c1.8-0.4,4.1-1,6.1-1.2c25.6-1.8,51.4-1.2,76.9,0.8
			C2095.4,1604.5,2107.4,1606,2118.5,1607.8z"/>
		<path class="st3" d="M2123.8,1614.7c2.6,0.4,8.8,1.7,11.4,2.1c20.5,3,24.3,34.7,6.6,43.8c-5.6,3.2-12.6,4-19.5,3
			c-34.1-0.9-68.3,2.7-101.8,9.5c-8.2,2-15.2,1-20.8-1.8c-23.8-12.2-24.1-59.5,11.6-62.3C2048.4,1606.6,2087.1,1608.9,2123.8,1614.7
			z"/>
		<path class="st11" d="M2114.1,1654c0,0,31.2,2.2,33-12s-15.2-16.6-31.7-18.6C2115.4,1623.4,2111,1635.4,2114.1,1654z"/>
		<path class="st5" d="M2141.8,1660.6c-9.5,5.7-22.3,2.1-33.2,2.8c-29.5,0.5-59.1,3.7-88.2,9.7c-8.2,2-15.2,1-20.8-1.8
			C2014.2,1658,2128.3,1652.3,2141.8,1660.6z"/>
		<path class="st3" d="M2147,1702c-4.5,4-11,6.5-19.5,6.4c-29.9,3.8-59.4,12.3-87.5,23.5c-40.8,21.9-69.5-48.7-19.8-60.7
			c34.9-7.7,70.8-11.5,106.6-9.8C2155.2,1659.9,2162.2,1688.8,2147,1702z"/>
		<path class="st5" d="M2147,1702c-4.5,4-11,6.5-19.5,6.4c-29.9,3.8-59.4,12.3-87.5,23.5c-10.2,4.9-19.2,4.9-26.6,1.8
			c3.4-8.6,11.4-16.1,25.4-19.2C2065.9,1709.7,2122.4,1698,2147,1702z"/>
		<path class="st3" d="M2044.1,1721.6c29.5-6.4,58.9-16.1,89.3-16.3c31.5-5.2,41.6,38.1,10.5,45.5c-26.8,5.8-53,14.8-78.3,25.6
			C2020.1,1800.5,1993.9,1732.6,2044.1,1721.6z"/>
		<path class="st11" d="M2126.7,1743.8c0,0,30.4-4.6,29.1-18.7s-18.1-12.6-34.5-11C2121.3,1714.1,2119.7,1726.6,2126.7,1743.8z"/>
		<path class="st11" d="M2116.8,1698.6c0,0,31.3,0.8,32.5-13.4c1.2-14.3-15.9-15.9-32.5-17.2
			C2116.8,1667.9,2112.9,1680.1,2116.8,1698.6z"/>
		<path class="st5" d="M2094,1801.4c0,0-25.4-13.1-43.1-16.6l21.3-4.9C2072.2,1779.9,2080.3,1786.9,2094,1801.4z"/>
		<path class="st11" d="M2228.6,1416.9c-15.4,2.9-18.4,39.3-13.7,47.4c0,0,10.5-4.4,20.6-4
			C2235.5,1460.3,2234.4,1428.3,2228.6,1416.9z"/>
		<path class="st16" d="M2600,1587.3v313.2c-11.6-4.1-23.8-8.4-36.2-12.8c-28.9-10.2-59.3-21.1-88.6-31.6
			c-33.3-11.9-65.1-23.4-91.4-32.8c-26.9-9.6-47.9-17.2-58.9-21c0,0,0,0,0,0c-0.8-0.3-1.5-0.5-2.1-0.7c-2.8-13.2-4.6-26.5-5.7-39.9
			c-1.6-20.4-1.5-40.9-0.3-61.3c0.8-12.1,1.9-24.2,3.5-36.2c2.8-21.8,6.8-43.4,12.2-64.5c0.1,0,0.3,0,0.4-0.1h0
			c7.9-0.8,16-1.6,24.3-2.3c28.7-2.6,60-4.7,91.5-6.3c26.8-1.4,53.8-2.4,79.6-3C2553.8,1587.4,2578.1,1587.2,2600,1587.3z"/>
		<path class="st5" d="M2182.6,1597.2c0,0,6,53,40.5,75.1c0,0-21.5,8.4-33.8,26.5c0,0,4.7-19.1,20.3-26.4
			C2209.6,1672.4,2183.1,1647.5,2182.6,1597.2z"/>
		<path class="st17" d="M2448.7,1591c-2.3,7.8-6.6,14.8-12.2,20.4c-8.9,9-21.2,14.5-34.8,14.5c-16.5,0-31.1-8.2-40-20.7
			c-1.8-2.5-3.3-5.2-4.6-8C2386,1594.7,2417.2,1592.6,2448.7,1591z"/>
		<path class="st17" d="M2372.2,1713.1c0,27-21.9,49-49,49c-2.1,0-4.2-0.1-6.2-0.4c-1.6-20.4-1.5-40.9-0.3-61.3
			c0.8-12.1,1.9-24.2,3.5-36.2c1-0.1,2-0.1,3-0.1C2350.3,1664.1,2372.2,1686,2372.2,1713.1z"/>
		<path class="st17" d="M2476.3,1845.7c0,3.6-0.4,7-1.1,10.4c-33.3-11.9-65.1-23.4-91.4-32.8c1.6-3.2,3.6-6.2,5.9-8.9
			c9-10.8,22.5-17.6,37.6-17.6c22.3,0,41.2,15,47.1,35.4C2475.6,1836.5,2476.3,1841,2476.3,1845.7z"/>
		<circle class="st17" cx="2487.5" cy="1718.6" r="49"/>
		<path class="st17" d="M2600,1587.3v44.9c-6.8,3.6-14.5,5.6-22.7,5.6c-5.2,0-10.2-0.8-14.9-2.3c-9.8-3.1-18.2-9.2-24.2-17.2
			c-6.2-8.2-9.8-18.4-9.8-29.4c0-0.3,0-0.5,0-0.8C2553.8,1587.4,2578.1,1587.2,2600,1587.3z"/>
		<path class="st17" d="M2600,1818v82.5c-11.6-4.1-23.8-8.4-36.2-12.8c-3.1-6.5-4.9-13.7-4.9-21.4
			C2558.9,1842,2576.7,1821.8,2600,1818z"/>
	</g>
	<g id="_x32_">
		<path class="st3" d="M424.9,1899c-1.8,0-3.6,0-5.3,0c-9.5,7.6-19.7,15.8-30.5,24.4c-33.3,26.5-65.7,28.2-99.2,36h0
			c-21.2,5-125.6-161.5-101.6-173.1h0c31-14.9,61.6-30.1,91.6-45.7c30.8-16.1,61-32.8,90.1-50.1c8.7-27.2,22.6-75.6,9.9-131.3
			c-1.7-7.4-3.8-14.9-6.5-22.5c-2.3-9.6-2.3-16.4-0.7-20.8c0,0,0,0,0,0c1-2.9,2.7-4.8,5-5.8c16.3-7.3,59.4,34.6,48.2,70v0
			c3.2,5.1,7,10.9,11.3,17c0.2,0.3,0.4,0.5,0.6,0.8c7,10.1,15.2,21.2,24.4,32.1c0.2-0.1,0.5-0.2,0.7-0.3
			c37.3-17.8,75.9-32.8,115.8-43.6c30.8-9.7,50.7,33.1,28,51.3c33.3-15.4,62.7,26.2,40.5,51.8c26.1,2.2,41.3,37.5,20,57.2
			C744.8,1795.6,553,1899,424.9,1899z"/>
		<path class="st18" d="M389.1,1923.3c0,0-8,36.8-36.1,66.1c-3.5,3.7-7.3,7.2-11.5,10.5H0v-265.9c54.1-7.6,116.9-12.8,181.4-10.8
			c11.4,0.3,22.8,0.9,34.2,1.8c39.9,2.9,64.3,15.4,64.3,15.4v0C295.7,1867.4,388.1,1922.7,389.1,1923.3z"/>
		<path class="st5" d="M456.7,1640.6c0,0,6.1-10.7,6.3-10.9c-17.5-20.4-31.1-39.6-37-49.7C426,1579.9,435.3,1607.6,456.7,1640.6z"/>
		<path class="st19" d="M381.9,1563.2c0.3-0.1,0.6-0.2,0.9-0.3c0.8-0.3,1.6-0.6,2.3-1c8.2-4.3,12.1-14.1,8.6-22.9
			c-5.4-13.5-13.6-29-21-33.4c0,0,0,0,0,0c-1.6-1-3.2-1.4-4.7-1.2C368.2,1536.8,381.9,1563.2,381.9,1563.2z"/>
		<path class="st20" d="M381.9,1563.2c0.3-0.1,0.6-0.2,0.9-0.3c0.8-0.3,1.6-0.6,2.3-1c-14.9-31.7-12.4-55.8-12.3-56.3c0,0,0,0,0,0
			s0,0,0,0c-1.6-1-3.2-1.4-4.7-1.2C368.2,1536.8,381.9,1563.2,381.9,1563.2z"/>
		<path class="st21" d="M389.1,1923.3c0,0-8,36.8-36.1,66.1c-8.1-3.2-15.7-6.8-23.1-10.7c-6.4,7.1-14.1,14.6-22.5,21.3h-17.2
			c11.5-7.2,22.1-17.1,30.7-26.3c-6.3-3.8-12.4-7.8-18.1-12.1c-16.1,14-35.2,27.6-51.7,38.5h-18.6c18.7-11.7,39.7-26.1,57.4-40.6h0
			c1.6-1.4,3.2-2.7,4.8-4.1c-9.4-7.6-18-15.8-25.9-24.4c-3.2,3.2-6.6,6.6-10.3,10c-13.9,12.8-33.4,28.2-57,39.8
			c-11.5,5.7-24.1,10.5-37.5,13.6c-7.6,1.8-15.1,3.7-22.3,5.7H107c16.7-5.4,35.2-10.8,54.8-15.4c9.3-2.2,18.2-5.2,26.7-8.8h0
			c31.3-13.4,56.7-35,73.7-52.4c-6.3-7.5-12.2-15.3-17.7-23.2c-11.9,7-26.4,15.1-42.8,23.5c-19.5,9.9-43.6,21-69.7,30.7
			c-29,10.7-60.7,19.7-91.6,23.3c-13.3,1.5-26.8,3.4-40.3,5.6v-10.1c13.1-2.1,26.3-4,39.2-5.4c26-3,52.8-10,78.4-18.8
			c24.2-8.4,47.4-18.5,68.1-28.5c20.7-10.1,39-20.1,53.3-28.5c-2-3.1-3.8-6.1-5.6-9.2c-42.5,3.7-121.7,13.5-191.2,37.6
			c-0.5,0.2-1,0.3-1.5,0.5c-13.3,4.7-27,8.7-40.7,12.2v-10.3c9.2-2.4,18.4-5,27.4-8h0c3.3-1.1,6.6-2.1,9.9-3.3
			c68.4-24,146.3-34.2,190.6-38.3c-4.3-7.8-8.1-15.6-11.6-23.4c-40,12.7-117.8,33.4-192,30.8c-4.9-0.2-21.1-0.4-24.3-0.4v-10
			c5.3,0,21.7,0.3,24.6,0.4c72.2,2.6,148.1-17.5,187.6-30c-3.5-8.2-6.6-16.3-9.4-24.2c-30.8,9.2-69.1,13.5-112.5,15.9h0
			c-14.8,0.8-30.2,1.4-46.1,1.9c-14.4,0.4-29.2,0.8-44.4,1.1v-10c41.7-1,80.8-1.9,115.7-4.7h0c32-2.6,60.4-6.6,84.1-13.7
			c-2.2-6.8-4.2-13.4-5.9-19.7c-1.8-0.3-3.6-0.6-5.5-0.9h0c-27.7-4.4-73.2-7.9-123.8,3c-21.6,4.7-43,8.7-64.5,12v-10.1
			c20.8-3.3,41.5-7.2,62.4-11.7c53.3-11.5,100.2-7.7,128.6-3.1c-2.9-11.9-5-22.4-6.5-30.8c-30.5-0.7-77.9,0-124,8.6
			c-16.8,3.1-37.8,6.5-60.6,9.9v-10.1c22-3.3,42.4-6.7,58.7-9.7c46-8.5,93.2-9.4,124.2-8.8c-1.1-7.8-1.5-12.3-1.5-12.3
			c11.4,0.3,22.8,0.9,34.2,1.8c39.9,2.9,64.3,15.4,64.3,15.4v0C295.7,1867.4,388.1,1922.7,389.1,1923.3z"/>
	</g>
	<g id="_x31_">
		<path class="st3" d="M737.8,450.9c-30.9-27.8-64.6-52.3-100.1-74.1c7-22.4,15.6-42.9,22.4-57.5c47.8-13.1,53-114.3,8-67.6
			c-42.1,54.6-99.9,72.1-131.1,80.5c-113.3-56.2-225.6-129.9-336.8-200.3h-44.4v275.6c69.8,24,129.8,44.6,195.7,66.9c0,0,0,0,0,0
			c13.1,4.4,25.5,8.6,37,12.4l0,0c66.8,109.2,263,218.6,262.5,125.4c28.1,7.2,49.5-24.7,37.2-47.8c33.5,4.8,52.5-42.5,21.6-62.1
			C737.4,511.5,762.6,471.5,737.8,450.9z"/>
		<path class="st22" d="M351.5,474.3c-8.1,5.4-26.6,8.7-50.1,10.2c-35.1,2.2-81.4,0.5-120.1-4.1c-7.2-0.8-14.2-1.8-21.1-3
			c-63.8-10.3-114.7-30.7-140.8-42.7c-12.2-5.6-19-9.4-19-9.4L0,418.3V0h301.1c17.2,23.6,42.6,65.8,67.4,111.2
			c16.7,30.6,33.1,62.6,46.6,91.4c15.9,34.1,27.7,63.6,31,80.8C347.9,365.5,351.5,473.1,351.5,474.3z"/>
		<path class="st5" d="M625.8,377.9c0,0,12.3-0.7,12.6-0.6c7.7-25.8,16.4-47.6,21.7-58C660.1,319.3,641.9,342.1,625.8,377.9z"/>
		<path class="st16" d="M650.3,273.2c0.2,0.2,0.5,0.4,0.7,0.5c0.7,0.5,1.4,1,2.1,1.4c8.1,4.5,18.4,2.6,23.9-5.1
			c8.5-11.9,17-27.2,16.7-35.7c0,0,0,0,0,0c-0.1-1.9-0.5-3.5-1.5-4.6C665.1,247.4,650.3,273.2,650.3,273.2z"/>
		<path class="st17" d="M650.3,273.2c0.2,0.2,0.5,0.4,0.7,0.5c0.7,0.5,1.4,1,2.1,1.4c18.6-29.7,40.2-40.6,40.7-40.9c0,0,0,0,0,0
			s0,0,0,0c-0.1-1.9-0.5-3.5-1.5-4.6C665.1,247.4,650.3,273.2,650.3,273.2z"/>
		<path class="st20" d="M351.5,474.3c-8.1,5.4-26.6,8.7-50.1,10.2c7.2-44.5-41.3-52.8-25.4-102.1c19.4-60.2,78.6-38.8,71.4-94.9
			c-6.9-54.3,3.4-85.6,67.7-84.9c15.9,34.1,27.7,63.6,31,80.8C347.9,365.5,351.5,473.1,351.5,474.3z"/>
		<path class="st20" d="M368.5,111.2c-6.1,19.4-17.4,30.1-46.6,36.5c-51,11.2-81.6,0-90.8,64.3s26.5,79.6-49,117.3
			c-62.7,31.4-65.6,79-22,148c-63.8-10.3-114.7-30.7-140.8-42.7c0.7-0.6,37.2-29.5,23-100.2C28.1,263,27.1,230.4,76.1,220.2
			c49-10.2,62.2-41.8,65.3-125.5c1.7-47.2,22.9-80,60.7-94.7h99C318.3,23.6,343.7,65.8,368.5,111.2z"/>
	</g>
</g>
</svg>
