<?xml version="1.0" encoding="utf-8"?>
<!-- Generator: Adobe Illustrator 27.5.0, SVG Export Plug-In . SVG Version: 6.00 Build 0)  -->
<svg version="1.1" id="Layer_1" xmlns="http://www.w3.org/2000/svg" xmlns:xlink="http://www.w3.org/1999/xlink" x="0px" y="0px"
	 viewBox="0 0 4000 4000" style="enable-background:new 0 0 4000 4000;" xml:space="preserve">
<g>
	<g>
		<rect style="fill:#FFFFFF;" width="4000" height="4000"/>
	</g>
	<g>
		<g>
			<circle style="fill:#A89FFF;" cx="2102.845" cy="2065.69" r="1254.499"/>
		</g>
		<g>
			<g>
				<g>
					<path style="fill:#F476CA;" d="M2759.529,1285.005c19.786,75.973,33.786,159.072,42.515,248.237
						c66.106,418.758-169.278,594.358-490.03,693.76c-130.806,80.945-292.84,121.05-481.575,126.257
						c-367.765,57.752-658.793-0.028-747.64-361.818c-13.817-56.225-34.146-110.611-60.927-161.919
						c-36.909-70.56-61.466-141.323-75.173-210.972c-3.334-16.744-6.048-33.386-8.095-50.005
						c-67.038-535.569,495.908-984.179,987.585-731.63c304.243-97.185,519.895-47.291,662.304,106.793l0.078,0.046
						c0.016,0.061,0.016,0.061,0.016,0.061l0.25,0.199c34.94,37.886,65.526,82.061,91.856,131.904
						c8.354,15.757,16.266,32.092,23.719,48.944C2726.212,1173.781,2744.472,1227.323,2759.529,1285.005z"/>
				</g>
				<g style="opacity:0.6;">
					<g>
						<path style="fill:#FFFFFF;" d="M2647.413,1019.45c-141.593-178.91-365.344-242.583-689.794-138.913
							c-200.016-102.756-411.896-89.436-588.291-1.422c-27.744,87.972-90.316,132.948-187.672,134.85
							c-206.676,204.563-298.433,533.862-128.354,859.178c26.781,51.309,47.11,105.695,60.927,161.92
							c16.74,68.128,40.633,125.538,70.981,173.338c-45.45-55.322-80.263-126.696-102.411-216.962
							c-13.817-56.225-34.146-110.611-60.927-161.919C689.786,1194.324,1355.963,543.99,1926.19,836.914
							C2275.782,725.201,2508.449,807.782,2647.413,1019.45z"/>
					</g>
				</g>
				<g style="opacity:0.3;">
					<path style="fill:#380076;" d="M2759.529,1285.005c19.786,75.973,33.786,159.072,42.515,248.237
						c66.106,418.758-169.278,594.358-490.03,693.76c-130.806,80.945-292.84,121.05-481.575,126.257
						c-367.765,57.752-658.793-0.028-747.64-361.818c-13.817-56.225-34.146-110.611-60.927-161.919
						c-36.909-70.56-61.466-141.323-75.173-210.972c0,0,64.889,191.63,207.388,281.883
						c142.483,90.192,1569.839-410.45,1569.839-410.45S2770.228,1400.312,2759.529,1285.005z"/>
				</g>
				<g>
					<g>
						<path style="fill:#380076;" d="M1607.341,2394.859c-102.998,0.003-190.21-14.788-263.682-44.468
							c-144.17-58.24-239.233-177.217-282.554-353.623c-13.501-54.934-33.364-107.729-59.038-156.912
							c-81.455-155.808-109.087-323.809-79.897-485.825c26.743-148.438,98.511-284.944,207.539-394.761
							c220.044-221.633,532.471-278.596,798.433-146.399c238.057-74.277,434.038-62.397,582.593,35.354
							c174.873,115.081,280.347,344.614,313.477,682.185c31.87,202.688-2.466,360.952-104.956,483.782
							c-84.058,100.732-210.537,174.902-397.925,233.306c-129.502,79.409-293.945,122.485-488.838,128.049
							C1750.202,2388.412,1675.329,2394.857,1607.341,2394.859z M1631.491,787.33c-169.263,0-337.451,69.844-470.073,203.42
							c-220,221.585-267.002,546.758-119.751,828.42c27.334,52.363,48.472,108.528,62.827,166.939
							c74.98,305.339,297.768,411.767,722.48,345.08c0.942-0.149,1.895-0.237,2.852-0.264
							c188.76-5.205,347.036-46.563,470.435-122.922c1.606-0.996,3.335-1.782,5.142-2.341
							c382.529-118.545,528.896-324.851,474.575-668.935c-0.068-0.435-0.127-0.872-0.166-1.309
							c-31.68-323.85-130.474-542.495-293.638-649.868c-138.545-91.167-324.658-100.366-553.188-27.356
							c-5.635,1.797-11.743,1.292-17.007-1.409C1825.109,810.106,1728.117,787.33,1631.491,787.33z"/>
					</g>
				</g>
			</g>
			<g>
				<path style="fill:#FFC8A9;" d="M3215.064,1606.922l-553.188,967.744c57.444,131.931,100.017,344.666,100.017,344.666H1632.156
					c-61.72-16.978-93.251-64.848-93.251-64.848c-121.207-354.941,207.757-591.548,207.757-591.548
					c259.265-87.06,469.83-126.569,587.399-143.675c67.274-9.83,128.101-45.509,169.716-99.251l387.877-500.594
					c-53.168-237.245,41.487-324.241,122.356-188.29c9.766-64.402,24.893-121.143,51.125-161.738
					c30.126-46.593,87.124-65.423,138.441-50.934c10.468,2.937,20.744,7.277,30.445,13.085
					C3359.122,1206.088,3427.736,1324.104,3215.064,1606.922z"/>
			</g>
			<g>
				<g>
					<path style="fill:#EC92FF;" d="M2667.301,2565.156l86.932,354.176h-241.266c48.955-74.422-4.276-178.715-80.997-221.224
						c-3.446-1.914-7.787-3.893-12.829-5.872c11.489-27.126,6.064-71.805-43.913-78.188c-50.04-6.383-99.187,44.168-99.187,44.168
						c-166.844-29.998-399.237-55.849-399.237-55.849c-163.78-151.078-330.241-79.4-330.241-79.4
						c46.338-93.57,103.017-180.503,174.758-257.605c85.273,10.914,170.418,8.68,255.308-5.425c0,0,67.338,127.526,199.715,110.484
						c132.377-16.978,124.016-148.908,123.952-216.948l174.694-101.995l158.865-199.331c0,0,51.253,291.179,240.692,350.474
						L2667.301,2565.156z"/>
				</g>
			</g>
			<g style="opacity:0.6;">
				<path style="fill:#FFFFFF;" d="M2974.181,1282.234c-38.424,20.297-58.593,107.995-27.19,248.095l-387.877,500.531
					c-41.615,53.806-102.442,89.485-169.716,99.25c-117.57,17.17-328.135,56.679-587.4,143.675c0,0-328.964,236.607-207.757,591.549
					c0,0,21.765,33.063,64.593,53.997h-26.68c-61.72-16.978-93.251-64.848-93.251-64.848
					c-121.207-354.941,207.757-591.548,207.757-591.548c259.265-87.06,469.83-126.569,587.399-143.675
					c67.274-9.83,128.101-45.509,169.716-99.251l387.877-500.594C2847.102,1320.722,2906.27,1227.407,2974.181,1282.234z"/>
			</g>
			<g style="opacity:0.6;">
				<path style="fill:#FFFFFF;" d="M3220.617,1124.645c-39.381,1.086-77.422,20.489-100.145,55.594
					c-26.233,40.594-41.36,97.336-51.125,161.801c-15.765-26.424-31.978-44.423-47.551-54.508
					c9.638-46.339,23.233-86.995,43.339-118.144C3098.644,1117.561,3165.471,1100.073,3220.617,1124.645z"/>
			</g>
			<g>
				<path style="fill:#380076;" d="M2761.892,2941.693H1632.155c-2.007,0-4.004-0.271-5.942-0.803
					c-68.994-19.036-104.487-71.894-105.967-74.136c-1.04-1.579-1.875-3.286-2.49-5.076
					c-51.846-151.836-30.811-306.833,60.83-448.235c68.589-105.833,151.533-166.145,155.029-168.66
					c1.816-1.306,3.818-2.332,5.938-3.042c254.243-85.354,461.86-125.742,591.255-144.597l0,0
					c61.753-8.994,116.914-41.252,155.337-90.833l381.489-492.341c-29.131-138.628-11.04-242.214,46.895-265.268
					c14.648-5.833,48.071-11.948,86.709,27.996c11.06-50.796,25.728-89.434,45.132-119.451
					c42.08-65.107,131.396-85.237,199.126-44.878c72.993,43.511,112.681,92.693,124.893,154.778
					c17.837,90.654-26.855,205.832-136.621,352.08l-546.968,956.911c55.449,132.764,95.288,330.278,96.997,338.836
					c1.313,6.563-0.386,13.367-4.629,18.542C2774.924,2938.692,2768.586,2941.693,2761.892,2941.693z M1635.295,2897.015h1099.014
					c-13.35-60.903-48.945-212.488-92.896-313.408c-2.813-6.465-2.412-13.882,1.089-20.005l553.169-967.761
					c0.464-0.811,0.977-1.594,1.538-2.341c100.903-134.177,144.419-241.077,129.341-317.727
					c-9.59-48.748-42.617-88.474-103.931-125.024c-47.295-28.193-109.536-14.404-138.73,30.754
					c-21.592,33.401-37.222,83.44-47.793,152.981c-1.416,9.326-8.54,16.758-17.803,18.567c-9.263,1.819-18.657-2.392-23.481-10.5
					c-25.82-43.393-50.62-57.556-63.765-52.334c-25.874,10.295-48.433,86.694-17.573,224.312c1.46,6.497-0.059,13.306-4.141,18.569
					l-387.876,500.583c-45.532,58.762-110.962,97.004-184.204,107.678l0,0c-127.012,18.504-330.537,58.083-580.083,141.599
					c-14.126,10.783-84.385,66.809-141.885,156.018c-83.814,130.017-102.744,266.318-56.294,405.166
					C1565.202,2852.352,1591.354,2883.89,1635.295,2897.015z"/>
			</g>
			<g>
				<g>
					<path style="fill:#FFC8A9;" d="M2588.843,1672.146c141.553,539.919-1086.03,861.761-1227.583,321.841
						c-147.589,78.087-239.054-58.869-197.538-151.442c18.159-40.722,62.114-72.899,138.327-74.405
						c0,0,84.312-47.376,48.167-185.242c270.763-73.627,481.819-218.698,601.982-472.37
						c97.207,166.661,245.774,251.364,470.013,215.471c0,0,23.946,85.044,107.422,120.301
						c55.47-29.785,102.044-30.58,136.762-14.938C2769.3,1477.558,2768.527,1667.399,2588.843,1672.146z"/>
				</g>
				<g style="opacity:0.3;">
					<path style="fill:#380076;" d="M2455.543,1388.457l-11.552,20.118c-0.528-1.511-0.739-2.314-0.739-2.314
						c-224.239,35.893-372.806-48.81-470.013-215.471c-118.545,250.278-325.582,394.824-591.102,469.32
						c-6.428-4.385-14.471-9.139-22.946-13.779c-0.119-18.576-2.744-39.663-8.976-63.433
						c270.763-73.627,481.819-218.698,601.982-472.37c97.207,166.661,245.774,251.364,470.013,215.471
						C2422.21,1325.999,2430.779,1356.415,2455.543,1388.457z"/>
				</g>
				<g style="opacity:0.3;">
					<path style="fill:#380076;" d="M2588.843,1672.146c141.553,539.919-1086.03,861.761-1227.583,321.841
						c-129.907,68.766-216.36-29.187-206.864-116.796c33.392,47.332,99.402,72.849,183.652,28.261
						c141.553,539.919,1369.136,218.078,1227.583-321.841c95.352-2.498,140.29-57.104,146.226-114.746
						C2763.098,1540.484,2735.825,1668.253,2588.843,1672.146z"/>
				</g>
				<g>
					<path style="fill:#FFC8A9;" d="M1210.521,1791.015c-6.578,5.618-14.006,11.26-22.363,16.882
						C1194.635,1801.647,1202.063,1796.004,1210.521,1791.015z"/>
				</g>
				<g>
					<g>
						<g style="opacity:0.6;">
							
								<ellipse transform="matrix(0.9673 -0.2536 0.2536 0.9673 -397.4551 473.085)" style="fill:#FFFFFF;" cx="1636.22" cy="1778.145" rx="117.548" ry="140.951"/>
						</g>
						<g style="opacity:0.6;">
							
								<ellipse transform="matrix(0.9673 -0.2536 0.2536 0.9673 -337.749 620.5818)" style="fill:#FFFFFF;" cx="2238.188" cy="1620.324" rx="117.548" ry="140.951"/>
						</g>
						<g>
							
								<ellipse transform="matrix(0.9673 -0.2536 0.2536 0.9673 -392.3485 471.015)" style="fill:#380076;" cx="1630.759" cy="1757.315" rx="117.548" ry="140.951"/>
						</g>
						<g>
							
								<ellipse transform="matrix(0.9673 -0.2536 0.2536 0.9673 -383.7712 479.1251)" style="fill:#F1F2F2;" cx="1666.548" cy="1728.137" rx="32.977" ry="37.764"/>
						</g>
						<g>
							
								<ellipse transform="matrix(0.9673 -0.2536 0.2536 0.9673 -332.6451 618.516)" style="fill:#380076;" cx="2232.727" cy="1599.495" rx="117.548" ry="140.951"/>
						</g>
						<g>
							
								<ellipse transform="matrix(0.9673 -0.2536 0.2536 0.9673 -324.0755 626.6389)" style="fill:#F1F2F2;" cx="2268.517" cy="1570.316" rx="32.977" ry="37.764"/>
						</g>
						<g>
							<path style="fill:#380076;" d="M1541.848,1707.948c-2.852,0-5.747-0.64-8.477-1.99l-58.125-28.75
								c-9.477-4.688-13.359-16.174-8.672-25.652c4.697-9.478,16.177-13.357,25.654-8.674l58.125,28.75
								c9.478,4.688,13.359,16.174,8.672,25.652C1555.686,1704.034,1548.898,1707.948,1541.848,1707.948z"/>
						</g>
						<g>
							<path style="fill:#380076;" d="M1468.049,1753.682c-9.194,0-17.31-6.646-18.867-16.018
								c-1.729-10.432,5.327-20.293,15.757-22.021l68.506-11.36c10.503-1.721,20.293,5.325,22.026,15.757
								c1.729,10.432-5.327,20.293-15.757,22.021l-68.506,11.36C1470.144,1753.597,1469.089,1753.682,1468.049,1753.682z"/>
						</g>
						<g>
							<path style="fill:#380076;" d="M2263.708,1508.792c-3.716,0-7.471-1.079-10.771-3.333
								c-8.735-5.96-10.986-17.871-5.029-26.609l36.543-53.569c5.962-8.735,17.876-10.989,26.611-5.027
								c8.735,5.959,10.986,17.871,5.029,26.609l-36.543,53.569C2275.837,1505.868,2269.826,1508.792,2263.708,1508.792z"/>
						</g>
						<g>
							<path style="fill:#380076;" d="M2285.197,1536.158c-7.827,0-15.171-4.834-17.998-12.615
								c-3.608-9.939,1.519-20.925,11.46-24.536l65.269-23.711c9.937-3.603,20.928,1.519,24.536,11.46
								c3.608,9.939-1.519,20.925-11.46,24.536l-65.269,23.711C2289.577,1535.787,2287.37,1536.158,2285.197,1536.158z"/>
						</g>
					</g>
					<g>
						<path style="fill:#380076;" d="M1933.312,1889.151c-3.53,0-7.085-1.167-10.044-3.567c-6.846-5.552-7.891-15.601-2.339-22.444
							l24.224-29.856c12.295-15.151,32.759-20.518,50.889-13.34l35.757,14.131c8.198,3.237,12.217,12.507,8.975,20.703
							c-3.237,8.198-12.524,12.219-20.703,8.975l-35.757-14.131c-5.127-2.026-10.903-0.508-14.38,3.772l-24.219,29.854
							C1942.561,1887.135,1937.956,1889.151,1933.312,1889.151z"/>
					</g>
					<g>
						<path style="fill:#380076;" d="M1893.235,1955.187c78.66,5.769,152.85-6.823,213.833-73.657
							C2165.879,2105.853,1956.625,2153.1,1893.235,1955.187z"/>
					</g>
					<g>
						<path style="fill:#380076;" d="M1476.034,1582.684c10.908-61.761,78.83-104.257,139.468-95.34
							c15.235,1.812,30.005,6.816,42.866,15.034c4.317,2.658,8.45,5.665,12.336,8.987c1.486,1.27,1.661,3.503,0.391,4.99
							c-0.527,0.635-1.227,0.978-1.974,1.193c-18.307,5.497-35.059,7.233-52.383,11.935c-49.863,10.683-90.04,31.42-135.286,56.577
							C1479.059,1587.713,1475.55,1585.582,1476.034,1582.684L1476.034,1582.684z"/>
					</g>
					<g>
						<path style="fill:#F73C69;" d="M2104.958,2021.509c-35.869-34.77-118.091-23.786-138.293,40.635
							C2021.56,2090.289,2070.243,2088.996,2104.958,2021.509z"/>
					</g>
					<g>
						<path style="fill:#380076;" d="M2275.26,1377.942c-51.758,0.278-96.962,1.923-145.642,17.078
							c-17.408,4.403-32.837,11.103-51.5,15.3c-2.011,0.579-4.18-0.623-4.565-2.725c20.78-66.771,109.046-92.543,168.823-63.008
							c13.794,6.815,26.362,15.159,35.949,27.757C2280.147,1374.657,2278.166,1378.206,2275.26,1377.942L2275.26,1377.942z"/>
					</g>
					<g>
						<path style="fill:#380076;" d="M2023.244,2098.975c-55.43,0-117.94-43.323-148.247-137.949
							c-1.938-6.06-0.742-12.686,3.193-17.686c3.935-4.995,10.102-7.72,16.445-7.251c88.652,6.504,149.78-14.309,198.286-67.466
							c4.731-5.186,11.914-7.371,18.726-5.686c6.812,1.677,12.163,6.948,13.94,13.735c33.115,126.311-13.242,200.652-73.877,218.298
							C2042.59,2097.625,2033.02,2098.975,2023.244,2098.975z M1921.433,1975.589c30.454,68.337,81.079,93.816,119.58,82.61
							c37.974-11.05,66.89-57.883,54.4-139.075C2038.024,1966.783,1973.683,1976.082,1921.433,1975.589z"/>
					</g>
				</g>
				<g>
					<path style="fill:#380076;" d="M1930.927,1103.7c17.579-30.686,34.793-61.877,51.109-93.372
						c-2.043,35.764-5.015,71.32-8.572,107.068c-1.273,12.554-12.481,21.7-25.036,20.428
						C1932.235,1136.56,1922.611,1117.502,1930.927,1103.7L1930.927,1103.7z"/>
				</g>
				<g>
					<path style="fill:#380076;" d="M1356.216,1604.417c-44.867,4.406-89.899,8.431-134.918,7.86
						c42.156-14.053,82.701-32.335,122.918-50.897c11.317-5.348,24.827-0.508,30.174,10.81
						C1381.214,1585.94,1371.435,1603.124,1356.216,1604.417L1356.216,1604.417z"/>
				</g>
				<g>
					<path style="fill:#380076;" d="M1826.364,2294.564c-71.245,0-138.794-8.53-199.712-25.652
						c-142.92-40.168-238.975-124.182-279.39-243.833c-61.787,24.668-120.61,17.698-164.297-20.327
						c-45.752-39.824-63.574-106.575-43.34-162.324c21.108-58.147,77.529-93.054,155.337-96.414
						c14.209-10.698,60.591-54.673,33.643-157.451c-3.105-11.855,3.921-24.004,15.752-27.222
						c285.454-77.622,477.676-228.213,587.651-460.376c3.55-7.49,10.952-12.402,19.233-12.756
						c8.232-0.303,16.079,3.901,20.254,11.065c99.165,170.01,245.435,236.96,447.183,204.668
						c11.177-1.792,21.953,5.088,25.034,16.004c0.186,0.647,20.605,68.921,85.41,101.523c67.93-33.052,132.505-29.627,178.486,9.875
						c44.985,38.65,62.202,105.559,41.875,162.71c-19.409,54.566-67.246,89.497-133.188,98.318
						c23.486,124.089-18.989,244.421-123.818,349.543c-96.968,97.236-241.011,174.551-405.596,217.7
						C1998.141,2282.882,1909.724,2294.561,1826.364,2294.564z M1361.262,1971.649c3.057,0,6.118,0.625,8.984,1.887
						c6.245,2.742,10.894,8.188,12.627,14.785c38.75,147.817,160.532,210.784,255.864,237.578
						c124.668,35.034,279.795,31.662,436.817-9.502c157.012-41.165,293.843-114.333,385.288-206.033
						c69.927-70.122,145.146-184.736,106.392-332.554c-1.729-6.597-0.347-13.623,3.745-19.077c4.097-5.454,10.459-8.74,17.28-8.918
						c61.172-1.609,103.477-26.731,119.131-70.737c14.277-40.144,2.397-86.958-28.896-113.845
						c-33.97-29.182-83.081-28.909-138.291,0.747c-5.957,3.201-13.042,3.53-19.263,0.898
						c-68.115-28.767-100.576-86.367-113.354-116.152c-28.086,3.752-55.308,5.627-81.577,5.63
						c-157.236,0.007-281.812-67.09-371.611-200.283c-115.381,218.843-304.883,363.965-577.69,442.605
						c26.23,136.563-59.854,186.77-63.716,188.938c-3.208,1.804-6.816,2.786-10.498,2.859
						c-62.666,1.245-105.591,25.11-120.869,67.197c-14.077,38.784-1.46,85.405,30.674,113.381
						c35.234,30.669,84.429,31.802,138.521,3.186C1354.079,1972.516,1357.668,1971.649,1361.262,1971.649z"/>
				</g>
				<g style="opacity:0.3;">
					<path style="fill:#380076;" d="M1976.646,1029.622l-23.045,83.243c-0.458-0.738-0.931-1.537-1.405-2.337
						c-120.163,253.672-331.219,398.744-601.982,472.37c36.145,137.866-48.167,185.242-48.167,185.242
						c-38.4,0.764-68.693,9.3-91.527,22.875c107.402-91.437-12.867-177.687-12.867-177.687
						c-69.778-39.64-25.721-98.105-25.721-98.105C1632.395,1455.669,1971.823,1035.637,1976.646,1029.622z"/>
				</g>
				<g style="opacity:0.3;">
					<path style="fill:#380076;" d="M2627.548,1421.619c-28.138-2.125-61.08,4.862-97.916,24.681
						c-83.476-35.257-107.422-120.301-107.422-120.301c-223.157,35.742-371.403-47.99-468.609-213.134l25.307-91.226
						c0,0,170.394,312.169,481.194,230.685C2460.103,1252.324,2486.384,1398.121,2627.548,1421.619z"/>
				</g>
				<g>
					<path style="fill:#380076;" d="M1286.818,1966.966c-1.021,0-2.056-0.098-3.096-0.303c-8.648-1.699-14.282-10.085-12.583-18.733
						c5.83-29.678,24.58-46.794,39.726-56.055c-18.833-17.117-40.068-12.722-42.866-12.041c-8.501,2.051-17.163-3.093-19.307-11.582
						c-2.144-8.484,2.866-17.09,11.328-19.319c19.312-5.068,62.866-3.167,89.604,40.454c2.627,4.282,3.081,9.548,1.231,14.216
						c-1.851,4.67-5.786,8.196-10.635,9.517c-1.182,0.344-31.572,9.443-37.764,40.962
						C1300.964,1961.69,1294.289,1966.966,1286.818,1966.966z"/>
				</g>
				<g>
					<path style="fill:#380076;" d="M2630.842,1614.593c-4.507,0-8.989-1.899-12.144-5.593
						c-20.869-24.436-51.816-17.446-53.11-17.136c-4.868,1.143-10.015-0.022-13.862-3.186c-3.848-3.162-6.06-7.927-5.874-12.905
						c1.899-51.123,38.921-74.172,58.232-79.216c8.545-2.217,17.246,2.881,19.473,11.406c2.217,8.484-2.832,17.158-11.279,19.439
						c-2.866,0.813-23.438,7.432-31.426,31.519c17.734,0.637,42.471,6.355,62.114,29.353c5.723,6.702,4.932,16.775-1.772,22.498
						C2638.19,1613.336,2634.504,1614.593,2630.842,1614.593z"/>
				</g>
			</g>
			<g>
				<path style="fill:#380076;" d="M2512.946,2941.695c-4.214,0-8.467-1.187-12.251-3.672c-10.308-6.775-13.174-20.627-6.396-30.938
					c18.916-28.784,16.709-59.89,11.533-80.913c-10.674-43.333-43.916-85.942-84.683-108.55
					c-59.727-33.12-414.956-78.415-546.792-93.073c-4.732-0.525-9.17-2.552-12.671-5.779
					c-150.532-138.796-300.068-77.922-306.362-75.266c-11.338,4.795-24.448-0.476-29.277-11.797s0.371-24.402,11.68-29.268
					c7.261-3.13,178.066-74.065,348.77,78.511c74.58,8.411,480.894,55.771,556.323,97.6
					c51.909,28.789,92.676,81.257,106.392,136.936c10.479,42.534,4.399,82.693-17.578,116.135
					C2527.346,2938.153,2520.217,2941.695,2512.946,2941.695z"/>
			</g>
			<g>
				<path style="fill:#380076;" d="M1873.425,2621.619c-2.383,0-4.805-0.383-7.188-1.194c-11.68-3.967-17.934-16.653-13.965-28.335
					c1.162-3.416,28.755-84.302,58.979-142.576c5.679-10.95,19.165-15.225,30.112-9.548c10.952,5.679,15.229,19.163,9.546,30.115
					c-28.643,55.239-56.06,135.576-56.333,136.382C1891.418,2615.762,1882.731,2621.619,1873.425,2621.619z"/>
			</g>
			<g>
				<path style="fill:#380076;" d="M2419.133,2714.586c-2.905,0-5.859-0.571-8.706-1.777c-11.357-4.812-16.665-17.922-11.855-29.282
					c3.882-9.165,5.176-22.979-0.688-33.181c-4.478-7.793-13.057-12.549-25.503-14.136c-31.597-4.075-68.755,25.801-80.376,37.646
					c-8.623,8.789-22.764,8.962-31.572,0.352c-8.813-8.608-9.014-22.705-0.425-31.536c2.329-2.393,57.617-58.469,118.032-50.784
					c33.701,4.302,50.459,22.058,58.584,36.194c14.414,25.083,11.045,54.089,3.091,72.871
					C2436.105,2709.469,2427.834,2714.586,2419.133,2714.586z"/>
			</g>
			<g>
				<path style="fill:#380076;" d="M2419.078,2692.236l-142.653-33.957C2337.89,2669.449,2390.42,2681.066,2419.078,2692.236z"/>
			</g>
			<g>
				<path style="fill:#380076;" d="M2661.896,2597.034c-9.189,0-17.798-5.713-21.05-14.866
					c-0.454-1.272-45.688-128.144-83.862-201.401c-5.703-10.942-1.455-24.434,9.487-30.134c10.947-5.706,24.429-1.455,30.132,9.485
					c39.624,76.033,84.453,201.775,86.343,207.09c4.131,11.626-1.943,24.4-13.569,28.53
					C2666.906,2596.617,2664.382,2597.034,2661.896,2597.034z"/>
			</g>
			<g>
				<path style="fill:#380076;" d="M2874.572,2224.967c-2.212,0-4.458-0.332-6.68-1.028
					c-200.103-62.656-253.857-355.466-256.05-367.903c-2.139-12.149,5.977-23.735,18.125-25.874
					c12.173-2.161,23.73,5.969,25.874,18.11l0,0c0.493,2.781,51.294,278.511,225.4,333.03c11.772,3.687,18.33,16.221,14.644,27.993
					C2892.897,2218.848,2884.079,2224.967,2874.572,2224.967z"/>
			</g>
			<g>
				<path style="fill:#380076;" d="M2151.711,2394.388c-127.769,0-191.973-118.643-194.819-124.036
					c-5.762-10.911-1.582-24.424,9.326-30.186c10.889-5.754,24.385-1.597,30.161,9.277l0,0
					c2.485,4.644,62.061,113.665,177.124,98.84c97.598-12.549,105.117-93.853,104.487-183.271
					c-0.029-4.016-0.054-7.876-0.059-11.553c-0.01-12.339,9.98-22.348,22.319-22.358c0.005,0,0.015,0,0.02,0
					c12.329,0,22.329,9.988,22.339,22.319c0.005,3.589,0.029,7.356,0.059,11.277c0.479,67.925,1.47,209.265-143.472,227.9
					C2169.733,2393.817,2160.568,2394.388,2151.711,2394.388z"/>
			</g>
			<g>
				<path style="fill:#380076;" d="M2813.22,2941.693H1408.762c-12.339,0-22.339-10-22.339-22.339s10-22.339,22.339-22.339H2813.22
					c12.339,0,22.339,10,22.339,22.339S2825.559,2941.693,2813.22,2941.693z"/>
			</g>
			<g style="opacity:0.3;">
				<path style="fill:#380076;" d="M3215.064,1606.922l-553.188,967.744c57.444,131.931,100.017,344.666,100.017,344.666H1632.156
					c-36.19-87.188,163.844-80.805,539.338-97.846c349.9-15.893,280.647-105.314,269.541-117.442l63.827,64.209
					c186.63-107.484-17.425-448.895-17.425-448.895c100.017,51.062,140.1-78.698,140.1-78.698l508.828-747.351
					c166.78-191.417,89.805-339.815,67.21-374.856c10.468,2.937,20.744,7.277,30.445,13.085
					C3359.122,1206.088,3427.736,1324.104,3215.064,1606.922z"/>
			</g>
			<g style="opacity:0.3;">
				<path style="fill:#380076;" d="M1966.664,2613.491l-73.429-14.216l-102.962-57.954c0,0,39.279-90.031,154.401-161.837
					c0,0,52.891,221.246,226.819,273.382"/>
			</g>
		</g>
	</g>
</g>
</svg>
