<?xml version="1.0" encoding="utf-8"?>
<!-- Generator: Adobe Illustrator 24.3.0, SVG Export Plug-In . SVG Version: 6.00 Build 0)  -->
<svg version="1.1" id="Layer_1" xmlns="http://www.w3.org/2000/svg" xmlns:xlink="http://www.w3.org/1999/xlink" x="0px" y="0px"
	 viewBox="0 0 841.9 595.3" style="enable-background:new 0 0 841.9 595.3;" xml:space="preserve">
<style type="text/css">
	.st0{fill:#E681B4;}
	.st1{fill:#D870AB;}
	.st2{fill:#F391B9;}
	.st3{fill:#BA4C99;}
	.st4{fill:#D069A9;}
	.st5{fill:#F2A4C8;}
	.st6{fill:#F39FC5;}
	.st7{fill:#F7BAD5;}
	.st8{fill:#DC7EB3;}
	.st9{fill:#F6AACB;}
	.st10{fill:#C95DA3;}
	.st11{fill:#802369;}
	.st12{fill:none;}
	.st13{fill:#6B4874;}
	.st14{font-family:'Rockwell-ExtraBold';}
	.st15{font-size:116.6696px;}
	.st16{font-family:'ArialMT';}
	.st17{font-size:50.0012px;}
</style>
<text transform="matrix(1 0 0 1 960 540)" class="st16" style="font-size:12px;">•</text>
<g>
	<g>
		<g>
			<path class="st0" d="M197.9,370.9c-0.4,0.2-0.8,0.5-1.2,0.7C197.1,371.4,197.5,371.2,197.9,370.9z"/>
			<path class="st0" d="M179.6,378.9c-0.5,0.1-1.1,0.3-1.6,0.4C178.5,379.2,179,379,179.6,378.9z"/>
			<path class="st0" d="M181.6,378.4c-0.6,0.2-1.2,0.3-1.8,0.5C180.4,378.7,181,378.5,181.6,378.4z"/>
			<path class="st0" d="M193.7,373.4c-0.4,0.2-0.7,0.4-1.1,0.6C192.9,373.8,193.3,373.6,193.7,373.4z"/>
			<path class="st0" d="M192.2,374.2c-0.5,0.2-0.9,0.5-1.4,0.7C191.3,374.7,191.7,374.4,192.2,374.2z"/>
			<path class="st0" d="M183.5,377.8c-0.5,0.2-1,0.3-1.5,0.5C182.5,378.1,183,377.9,183.5,377.8z"/>
			<path class="st0" d="M188.9,375.7c-0.5,0.2-1,0.4-1.5,0.6C187.9,376.1,188.4,375.9,188.9,375.7z"/>
			<path class="st0" d="M190.6,375c-0.4,0.2-0.8,0.4-1.3,0.6C189.7,375.4,190.2,375.2,190.6,375z"/>
			<path class="st0" d="M185.4,377.1c-0.5,0.2-1.1,0.4-1.6,0.6C184.3,377.5,184.9,377.3,185.4,377.1z"/>
			<path class="st0" d="M187.2,376.4c-0.5,0.2-0.9,0.3-1.4,0.5C186.3,376.8,186.7,376.6,187.2,376.4z"/>
			<path class="st0" d="M195.2,372.6c-0.4,0.2-0.8,0.5-1.3,0.7C194.3,373.1,194.8,372.8,195.2,372.6z"/>
			<path class="st0" d="M137.7,375.6c-0.3-0.1-0.5-0.3-0.8-0.4C137.2,375.4,137.5,375.5,137.7,375.6z"/>
			<path class="st0" d="M131,371.1c-0.6-0.5-1.3-1.1-1.9-1.6C129.8,370.1,130.4,370.6,131,371.1z"/>
			<path class="st0" d="M196.5,371.8c-0.3,0.2-0.7,0.4-1,0.6C195.9,372.2,196.2,372,196.5,371.8z"/>
			<path class="st0" d="M128.9,369.3c-0.2-0.2-0.5-0.4-0.7-0.6C128.5,368.9,128.7,369.1,128.9,369.3z"/>
			<path class="st0" d="M127.1,367.6c-0.2-0.2-0.5-0.5-0.7-0.7C126.7,367.2,126.9,367.4,127.1,367.6z"/>
			<path class="st0" d="M128,368.5c-0.2-0.2-0.4-0.4-0.6-0.6C127.6,368.1,127.8,368.3,128,368.5z"/>
			<path class="st0" d="M123.1,363.2c-0.7-0.9-1.4-1.8-2-2.6C121.7,361.4,122.4,362.3,123.1,363.2z"/>
			<path class="st0" d="M124.6,364.9c-0.2-0.2-0.4-0.5-0.6-0.7C124.1,364.5,124.4,364.7,124.6,364.9z"/>
			<path class="st0" d="M126.3,366.8c-0.6-0.6-1.1-1.2-1.6-1.7C125.2,365.7,125.7,366.2,126.3,366.8z"/>
			<path class="st0" d="M123.8,364c-0.2-0.2-0.4-0.5-0.6-0.7C123.4,363.6,123.6,363.8,123.8,364z"/>
			<path class="st0" d="M121,360.6c-0.2-0.3-0.4-0.6-0.6-0.8C120.6,360,120.8,360.3,121,360.6z"/>
			<path class="st0" d="M135.5,374.3c-0.4-0.2-0.7-0.5-1.1-0.7C134.8,373.9,135.1,374.1,135.5,374.3z"/>
			<path class="st0" d="M199.1,370.1c-0.3,0.2-0.6,0.4-1,0.7C198.5,370.5,198.8,370.3,199.1,370.1z"/>
			<path class="st0" d="M136.6,375c-0.3-0.2-0.6-0.4-0.9-0.5C136,374.6,136.3,374.8,136.6,375z"/>
			<path class="st0" d="M134.2,373.4c-0.3-0.2-0.5-0.4-0.8-0.5C133.6,373.1,133.9,373.3,134.2,373.4z"/>
			<path class="st0" d="M132,371.9c-0.2-0.2-0.5-0.4-0.7-0.5C131.5,371.5,131.8,371.7,132,371.9z"/>
			<path class="st0" d="M133,372.6c-0.2-0.2-0.5-0.3-0.7-0.5C132.6,372.3,132.8,372.5,133,372.6z"/>
			<path class="st0" d="M176.9,341.4c-2.2,1.5-4.5,2.9-6.8,4.1c-8.2,4.3-17.2,7-26.2,6.8c-0.1,0-0.1,0-0.2-0.1
				c-4.6,0.3-8.9,0.1-12.6-0.3c-0.1,0.1-0.2,0.2-0.3,0.2c-2-0.1-3.9-0.4-5.9-0.8c-3.7-0.6-7.4-1.5-10.8-3.2l0,0h0h-0.1
				c0.3,0.8,2.4,5.7,6.5,11.5c-0.2-0.3-0.4-0.6-0.6-0.8c4.6,0,9.2,1.2,13.6,2.6c8.9,2.8,17.5,9.7,27,7.6c8.4-1.9,14.9-9.5,23.8-9.4
				c7.4,0.1,16.6,4.1,24.1,2.4c-0.2,0.2-0.4,0.4-0.6,0.7c2.6-2.8,3.8-4.8,3.8-4.8s-11.5-4.3-34.5-16.8
				C177,341.3,177,341.3,176.9,341.4z"/>
			<path class="st0" d="M166,381c-0.7,0-1.4,0.1-2.1,0.1C164.6,381,165.3,381,166,381z"/>
			<path class="st0" d="M163.3,381.1c-0.8,0-1.5,0-2.3,0C161.8,381.1,162.6,381.1,163.3,381.1z"/>
			<path class="st0" d="M202.6,367.5c-0.3,0.2-0.6,0.5-1,0.8C201.9,368,202.3,367.8,202.6,367.5z"/>
			<path class="st0" d="M207,363.5c-0.2,0.2-0.5,0.5-0.7,0.7C206.5,364,206.8,363.8,207,363.5z"/>
			<path class="st0" d="M160.9,381.1c-0.8,0-1.5,0-2.3-0.1C159.4,381.1,160.2,381.1,160.9,381.1z"/>
			<path class="st0" d="M205.4,365.1c-0.2,0.2-0.5,0.5-0.7,0.7C204.9,365.5,205.1,365.3,205.4,365.1z"/>
			<path class="st0" d="M206.2,364.3c-0.2,0.2-0.5,0.5-0.8,0.7C205.7,364.8,206,364.5,206.2,364.3z"/>
			<path class="st0" d="M158,381c-0.8,0-1.6-0.1-2.5-0.1C156.4,380.9,157.2,381,158,381z"/>
			<path class="st0" d="M204.5,365.9c-0.3,0.2-0.6,0.5-0.9,0.8C204,366.4,204.3,366.1,204.5,365.9z"/>
			<path class="st0" d="M203.6,366.7c-0.3,0.2-0.5,0.5-0.8,0.7C203,367.2,203.3,366.9,203.6,366.7z"/>
			<path class="st0" d="M155.6,380.9c-0.5,0-1-0.1-1.5-0.1C154.5,380.8,155,380.8,155.6,380.9z"/>
			<path class="st0" d="M144.4,378.6c-0.3-0.1-0.6-0.2-0.9-0.3C143.8,378.4,144.1,378.5,144.4,378.6z"/>
			<path class="st0" d="M145.8,379.1c-0.3-0.1-0.6-0.2-0.9-0.3C145.2,378.9,145.5,379,145.8,379.1z"/>
			<path class="st0" d="M200.4,369.2c-0.3,0.2-0.7,0.5-1.1,0.8C199.7,369.7,200,369.5,200.4,369.2z"/>
			<path class="st0" d="M150.4,380.2c-0.3-0.1-0.7-0.1-1-0.2C149.7,380.1,150.1,380.2,150.4,380.2z"/>
			<path class="st0" d="M153.5,380.7c-0.3,0-0.7-0.1-1-0.1C152.8,380.6,153.2,380.6,153.5,380.7z"/>
			<path class="st0" d="M151.9,380.5c-0.3-0.1-0.6-0.1-1-0.2C151.3,380.4,151.6,380.4,151.9,380.5z"/>
			<path class="st0" d="M149,379.9c-0.5-0.1-0.9-0.2-1.4-0.3C148.1,379.7,148.5,379.8,149,379.9z"/>
			<path class="st0" d="M141.8,377.6c-0.4-0.2-0.8-0.4-1.2-0.5C141,377.3,141.4,377.4,141.8,377.6z"/>
			<path class="st0" d="M201.5,368.4c-0.3,0.2-0.6,0.4-0.9,0.7C200.9,368.8,201.2,368.6,201.5,368.4z"/>
			<path class="st0" d="M177.5,379.4c-0.6,0.1-1.3,0.3-1.9,0.4C176.2,379.7,176.8,379.5,177.5,379.4z"/>
			<path class="st0" d="M143.1,378.1c-0.3-0.1-0.6-0.2-0.9-0.4C142.4,377.9,142.7,378,143.1,378.1z"/>
			<path class="st0" d="M138.9,376.3c-0.3-0.1-0.5-0.3-0.8-0.4C138.4,376,138.7,376.1,138.9,376.3z"/>
			<path class="st0" d="M207.7,362.8c-0.2,0.2-0.4,0.5-0.7,0.7C207.2,363.3,207.5,363,207.7,362.8z"/>
			<path class="st0" d="M175.3,379.8c-0.6,0.1-1.2,0.2-1.8,0.3C174.2,380,174.8,379.9,175.3,379.8z"/>
			<path class="st0" d="M140.3,376.9c-0.3-0.1-0.6-0.3-0.9-0.4C139.7,376.6,140,376.8,140.3,376.9z"/>
			<path class="st0" d="M147.4,379.5c-0.4-0.1-0.8-0.2-1.1-0.3C146.6,379.3,147,379.4,147.4,379.5z"/>
			<path class="st0" d="M170.8,380.5c-0.6,0.1-1.3,0.2-2,0.2C169.5,380.7,170.2,380.6,170.8,380.5z"/>
			<path class="st0" d="M173,380.2c-0.7,0.1-1.3,0.2-2,0.3C171.7,380.4,172.4,380.3,173,380.2z"/>
			<path class="st0" d="M168.3,380.8c-0.7,0.1-1.4,0.1-2.2,0.2C166.9,380.9,167.6,380.9,168.3,380.8z"/>
			<path class="st1" d="M208.9,302.8c-0.3,0.6-0.6,1.1-0.9,1.6C208.3,303.9,208.6,303.3,208.9,302.8z"/>
			<path class="st1" d="M204.1,311.3c-0.2,0.4-0.4,0.7-0.7,1.1C203.6,312,203.8,311.7,204.1,311.3z"/>
			<path class="st1" d="M209.8,301c-0.3,0.6-0.6,1.2-0.9,1.7C209.2,302.1,209.5,301.6,209.8,301z"/>
			<path class="st1" d="M216,287.3c-1.7,4.2-3.4,8.1-5.2,11.8C212.5,295.4,214.3,291.5,216,287.3z"/>
			<path class="st1" d="M210.7,299.1c-0.3,0.6-0.6,1.2-0.9,1.8C210.1,300.3,210.4,299.7,210.7,299.1z"/>
			<path class="st1" d="M205.1,309.7c-0.2,0.4-0.5,0.8-0.7,1.2C204.6,310.5,204.8,310.1,205.1,309.7z"/>
			<path class="st1" d="M207,306.3c-0.3,0.5-0.5,1-0.8,1.4C206.4,307.3,206.7,306.8,207,306.3z"/>
			<path class="st1" d="M206,308c-0.3,0.4-0.5,0.9-0.8,1.3C205.5,308.9,205.8,308.4,206,308z"/>
			<path class="st1" d="M207.9,304.6c-0.3,0.5-0.6,1-0.9,1.6C207.4,305.6,207.7,305.1,207.9,304.6z"/>
			<path class="st1" d="M170.2,287.9c0.8-0.2,1.6-0.4,2.4-0.6C171.7,287.5,170.9,287.7,170.2,287.9z"/>
			<path class="st1" d="M172.6,287.3c3.3-0.7,6.6-1.3,9.8-1.7C179.3,286,176,286.6,172.6,287.3z"/>
			<path class="st1" d="M167.6,288.6c0.8-0.2,1.6-0.4,2.4-0.6C169.2,288.1,168.4,288.4,167.6,288.6z"/>
			<path class="st1" d="M167.4,288.6c-1,0.3-1.9,0.6-2.9,0.9v0C165.5,289.2,166.5,288.9,167.4,288.6z"/>
			<path class="st1" d="M187.5,285.1c0.7-0.1,1.3-0.1,1.9-0.1C188.8,285,188.1,285.1,187.5,285.1z"/>
			<path class="st1" d="M182.8,285.6c0.7-0.1,1.4-0.2,2-0.2C184.1,285.4,183.4,285.5,182.8,285.6z"/>
			<path class="st1" d="M185.2,285.3c0.6-0.1,1.3-0.1,1.9-0.2C186.4,285.2,185.8,285.3,185.2,285.3z"/>
			<path class="st1" d="M199.9,317.6c-0.1,0.1-0.2,0.2-0.3,0.4C199.8,317.9,199.8,317.7,199.9,317.6z"/>
			<path class="st1" d="M201,316.1c-0.1,0.2-0.3,0.4-0.4,0.6C200.7,316.5,200.8,316.3,201,316.1z"/>
			<path class="st1" d="M203,312.9c-0.2,0.3-0.4,0.6-0.6,0.9C202.7,313.5,202.8,313.2,203,312.9z"/>
			<path class="st1" d="M202,314.5c-0.2,0.2-0.3,0.5-0.5,0.8C201.7,315,201.9,314.8,202,314.5z"/>
			<path class="st1" d="M198.8,319.1l-0.1,0.2L198.8,319.1z"/>
			<path class="st1" d="M191.7,286.9c-3.4,3.4-6.3,6.8-11.1,6.1c-4.4-0.6-8.7-1.6-12.8,1c-1.9,1.2-3.7,2.9-5.3,4.8
				c-0.3,1.1-0.6,2.2-1,3.2c-3.1,9.2-7.9,18.5-14.7,24.4c-0.9,0.8-1.9,1.6-2.8,2.3l0,0c-0.6,0.5-1.3,0.9-1.9,1.3l0,0
				c-0.3,0.2-0.6,0.4-1,0.6l0,0c-0.6,0.4-1.3,0.7-1.9,1l-0.1,0c-0.2,0.1-0.3,0.2-0.5,0.2c-1.4,2.2-3,4.2-4.8,5.9
				c-4.9,4.8-10.9,7.6-16.9,9.5c4.1,1.2,8.3,1.4,12.6,0.3c4.9-1.3,8.9-4.4,13.5-6.5c4.3-2,8.5-1.9,13-2.2c4.6-0.3,8.3-2,11.4-6.1
				c2.8-3.7,4.3-8.7,7.4-12.1c6.3-6.6,15.6-6.3,21.8-13.3c3.7-4.2,6-9.7,10.2-13.4c2.1-1.8,4.2-3.7,6.4-5.3c0.9-0.7,1.8-1.1,2.8-1.5
				c0.2-0.4,0.3-0.7,0.5-1.1c0,0-11.4-2.2-26.7-1.2c1.5-0.1,3-0.2,4.4-0.2C193.3,285.4,192.5,286.1,191.7,286.9z"/>
			<path class="st2" d="M164.5,289.7c-0.5,3.1-1.2,6.1-2,9.1c1.6-1.9,3.4-3.5,5.3-4.8c4.2-2.6,8.4-1.6,12.8-1
				c4.8,0.6,7.6-2.8,11.1-6.1c0.8-0.8,1.5-1.5,2.3-2.1c-1.4,0-2.9,0.1-4.4,0.2c-0.1,0-0.2,0-0.3,0c-0.6,0-1.3,0.1-1.9,0.1
				c-0.1,0-0.3,0-0.4,0c-0.6,0.1-1.3,0.1-1.9,0.2c-0.1,0-0.3,0-0.4,0c-0.7,0.1-1.3,0.1-2,0.2c-0.1,0-0.2,0-0.3,0
				c-3.2,0.4-6.5,0.9-9.8,1.7l-0.1,0c-0.8,0.2-1.6,0.4-2.4,0.6c-0.1,0-0.1,0-0.2,0.1c-0.8,0.2-1.6,0.4-2.4,0.6l-0.1,0
				c-1,0.3-1.9,0.6-2.9,0.9C164.5,289.5,164.5,289.6,164.5,289.7z"/>
			<path class="st3" d="M198.7,319.3l0.1-0.2c0.3-0.4,0.5-0.8,0.8-1.1c0.1-0.1,0.2-0.2,0.3-0.4c0.2-0.3,0.5-0.6,0.7-1
				c0.1-0.2,0.3-0.4,0.4-0.6c0.2-0.3,0.4-0.5,0.5-0.8c0.2-0.2,0.3-0.5,0.5-0.8c0.1-0.2,0.3-0.4,0.4-0.7c0.2-0.3,0.4-0.6,0.6-0.9
				c0.1-0.2,0.2-0.4,0.3-0.6c0.2-0.3,0.4-0.7,0.7-1.1c0.1-0.1,0.2-0.3,0.3-0.4c0.2-0.4,0.5-0.8,0.7-1.2c0.1-0.1,0.1-0.2,0.2-0.3
				c0.3-0.4,0.5-0.9,0.8-1.3c0.1-0.1,0.1-0.2,0.1-0.2c0.3-0.5,0.5-1,0.8-1.4l0.1-0.2c0.3-0.5,0.6-1,0.9-1.6l0.1-0.1
				c0.3-0.5,0.6-1.1,0.9-1.6l0-0.1c0.3-0.6,0.6-1.2,0.9-1.7l0,0c0.3-0.6,0.6-1.2,0.9-1.8l0,0c1.8-3.7,3.5-7.6,5.2-11.8l0,0
				c-0.9,0.4-1.9,0.8-2.8,1.5c-2.2,1.6-4.3,3.5-6.4,5.3c-4.2,3.7-6.4,9.2-10.2,13.4c-6.2,7-15.5,6.7-21.8,13.3
				c-3.2,3.3-4.7,8.3-7.4,12.1c-3.1,4.1-6.8,5.8-11.4,6.1c-4.5,0.3-8.7,0.2-13,2.2c-4.6,2.1-8.6,5.2-13.5,6.5
				c-4.3,1.1-8.5,0.9-12.6-0.3c-0.5,0.2-1,0.3-1.6,0.5c3.1,1.3,6.3,2.1,9.5,2.6c1.9,0.3,3.9,0.6,5.9,0.8c0.3,0,0.4,0.4,0.3,0.7
				c3.8,0.4,8,0.6,12.6,0.3c-0.3-0.2-0.2-0.9,0.2-0.8c2.5,0.1,5-0.1,7.4-0.5c8.9-1.3,17.5-5.1,25.2-10.3c0.2-0.1,0.4,0,0.5,0.2
				C184.4,335.8,191.8,328.8,198.7,319.3z"/>
			<path class="st0" d="M165.5,226.7c2.4,26.9,1.5,47.1-1.3,62.4l0,0C167,273.9,167.9,253.6,165.5,226.7L165.5,226.7z"/>
			<path class="st0" d="M161.2,234.8c0.4-4.1,2.4-7.3,4-10.7c0,0,0-0.1,0-0.1c-0.1-0.5-0.1-1-0.2-1.6c0,0-9.3,5.1-19.8,15.1
				c-0.8,2.3-1.3,4.7-1.7,7.2c-0.8,4.7-1.1,9.6-2.5,14.2c-0.9,3-2.2,5.3-3.8,7.3c0.5,2.4,1,4.7,1.4,7.1c0.4-1.7,0.8-3.5,1.1-5.4
				c0-0.1-0.1-0.2-0.1-0.3c-0.2-0.5,0.4-1,0.6-0.5c4,8.9,6.2,18.9,6.4,29c0,0.2-0.1,0.3-0.1,0.3c0.2,3.1,0.3,6.4,0.1,9.7
				c0.2,0,0.4,0.2,0.3,0.6l0,0.1c1.9-2.1,3.5-4.4,4.6-7.3c1.8-4.9,1.7-10.1,1.6-15.3c-0.1-7,4.7-10,7.2-15.7c2.1-4.6,2-10,1.6-15.1
				C161.7,247.3,160.6,240.9,161.2,234.8z"/>
			<path class="st0" d="M133.3,250.9L133.3,250.9c1-1.3,2-2.5,3-3.7C135.2,248.3,134.2,249.6,133.3,250.9z"/>
			<path class="st0" d="M143.8,279.9c0-0.1-0.1-0.2-0.1-0.3C143.7,279.7,143.7,279.8,143.8,279.9z"/>
			<path class="st0" d="M142.1,330.1c-0.3,0.2-0.6,0.4-1,0.6C141.5,330.5,141.8,330.3,142.1,330.1z"/>
			<path class="st0" d="M141.1,330.7c-0.6,0.4-1.3,0.7-1.9,1C139.9,331.4,140.5,331.1,141.1,330.7z"/>
			<path class="st0" d="M146.9,326.4c-0.1,0.1-0.2,0.2-0.2,0.2c-0.8,0.8-1.7,1.5-2.5,2.1C145,328,145.9,327.2,146.9,326.4z"/>
			<path class="st0" d="M144,328.8c-0.6,0.5-1.3,0.9-1.9,1.3C142.8,329.7,143.4,329.2,144,328.8z"/>
			<path class="st0" d="M138.7,332L138.7,332c0.1-0.1,0.3-0.1,0.5-0.2C139,331.9,138.9,331.9,138.7,332z"/>
			<path class="st2" d="M143.6,244.7c0.4-2.5,1-4.9,1.7-7.2c-4,3.8-8.1,8.2-12,13.4c0.1,0.1,0.1,0.1,0.2,0.2
				c1.5,4.9,2.8,10,3.9,15.1c1.6-2.1,2.9-4.3,3.8-7.3C142.5,254.4,142.8,249.5,143.6,244.7z"/>
			<path class="st4" d="M139.2,331.7c0.6-0.3,1.3-0.7,1.9-1l0,0c0.3-0.2,0.6-0.4,1-0.6l0,0c0.6-0.4,1.3-0.8,1.9-1.3l0,0
				c0.9-0.6,1.7-1.3,2.5-2.1c-2.2,1.9-4.7,3.5-7.4,4.6c-0.2,0.3-0.3,0.5-0.5,0.8C138.9,331.9,139,331.9,139.2,331.7L139.2,331.7z"/>
			<path class="st4" d="M165.3,224c-1.7,3.4-3.7,6.6-4.1,10.7c-0.6,6.2,0.5,12.5,0.9,18.7c0.3,5.1,0.4,10.5-1.6,15.1
				c-2.5,5.7-7.3,8.7-7.2,15.7c0.1,5.2,0.2,10.4-1.6,15.3c-1.1,2.9-2.7,5.2-4.6,7.3c-0.6,4.4-1.4,8.7-2.6,12.9
				c-1.1,3.6-2.5,7-4.3,10.2c2.5-1.2,4.9-2.8,7.1-4.8c4.4-4.1,7.8-9.6,10.5-15.4c3-6.3,5.1-13.2,6.2-20.3c0.1-0.3,0.2-0.4,0.4-0.3
				C167.1,273.4,168,252.2,165.3,224z"/>
			<path class="st0" d="M22.3,365c-0.3-0.2-0.5-0.5-0.8-0.7C21.7,364.5,22,364.8,22.3,365z"/>
			<path class="st0" d="M28.4,370c-0.4-0.2-0.7-0.5-1.1-0.8C27.7,369.5,28,369.7,28.4,370z"/>
			<path class="st0" d="M25,367.4c-0.3-0.2-0.6-0.5-0.8-0.7C24.4,366.9,24.7,367.2,25,367.4z"/>
			<path class="st0" d="M26.1,368.3c-0.3-0.2-0.6-0.5-1-0.8C25.5,367.8,25.8,368,26.1,368.3z"/>
			<path class="st0" d="M24.1,366.6c-0.3-0.2-0.6-0.5-0.9-0.8C23.5,366.1,23.8,366.4,24.1,366.6z"/>
			<path class="st0" d="M23.1,365.8c-0.3-0.2-0.5-0.5-0.7-0.7C22.6,365.3,22.8,365.5,23.1,365.8z"/>
			<path class="st0" d="M27.1,369.1c-0.3-0.2-0.6-0.4-0.9-0.7C26.5,368.6,26.8,368.8,27.1,369.1z"/>
			<path class="st0" d="M21.4,364.2c-0.2-0.2-0.5-0.5-0.7-0.7C21,363.8,21.2,364,21.4,364.2z"/>
			<path class="st0" d="M96.4,371.3c-0.2,0.2-0.5,0.4-0.7,0.6C96,371.7,96.2,371.5,96.4,371.3z"/>
			<path class="st0" d="M99.5,368.7c-0.2,0.2-0.5,0.4-0.7,0.6C99,369.1,99.3,368.9,99.5,368.7z"/>
			<path class="st0" d="M98.6,369.5c-0.6,0.5-1.2,1.1-1.9,1.6C97.3,370.6,98,370.1,98.6,369.5z"/>
			<path class="st0" d="M95.4,372.1c-0.2,0.2-0.5,0.3-0.7,0.5C94.9,372.5,95.2,372.3,95.4,372.1z"/>
			<path class="st0" d="M93.3,373.6c-0.3,0.2-0.7,0.5-1.1,0.7C92.6,374.1,92.9,373.9,93.3,373.6z"/>
			<path class="st0" d="M94.4,372.9c-0.3,0.2-0.5,0.4-0.8,0.5C93.8,373.3,94.1,373.1,94.4,372.9z"/>
			<path class="st0" d="M76.8,380.3c-0.3,0.1-0.6,0.1-1,0.2C76.1,380.4,76.4,380.4,76.8,380.3z"/>
			<path class="st0" d="M104.6,363.3c-0.2,0.2-0.4,0.5-0.6,0.7C104.1,363.8,104.3,363.6,104.6,363.3z"/>
			<path class="st0" d="M103.8,364.2c-0.2,0.2-0.4,0.5-0.6,0.7C103.4,364.7,103.6,364.5,103.8,364.2z"/>
			<path class="st0" d="M100.4,367.9c-0.2,0.2-0.4,0.4-0.6,0.6C99.9,368.3,100.2,368.1,100.4,367.9z"/>
			<path class="st0" d="M106.7,360.6c-0.6,0.9-1.3,1.7-2,2.6C105.4,362.3,106.1,361.4,106.7,360.6z"/>
			<path class="st0" d="M103,365.1c-0.5,0.6-1.1,1.2-1.6,1.7C102,366.2,102.5,365.7,103,365.1z"/>
			<path class="st0" d="M101.3,366.9c-0.2,0.2-0.5,0.5-0.7,0.7C100.8,367.4,101.1,367.2,101.3,366.9z"/>
			<path class="st0" d="M89.6,375.9c-0.3,0.1-0.5,0.3-0.8,0.4C89,376.1,89.3,376,89.6,375.9z"/>
			<path class="st0" d="M84.2,378.3c-0.3,0.1-0.6,0.2-0.9,0.3C83.6,378.5,83.9,378.4,84.2,378.3z"/>
			<path class="st0" d="M87.2,377.1c-0.4,0.2-0.8,0.4-1.2,0.5C86.3,377.4,86.8,377.3,87.2,377.1z"/>
			<path class="st0" d="M80.1,379.6c-0.5,0.1-0.9,0.2-1.4,0.3C79.2,379.8,79.7,379.7,80.1,379.6z"/>
			<path class="st0" d="M85.6,377.8c-0.3,0.1-0.6,0.2-0.9,0.4C85,378,85.3,377.9,85.6,377.8z"/>
			<path class="st0" d="M81.5,379.2c-0.4,0.1-0.8,0.2-1.1,0.3C80.7,379.4,81.1,379.3,81.5,379.2z"/>
			<path class="st0" d="M82.9,378.8c-0.3,0.1-0.6,0.2-0.9,0.3C82.3,379,82.6,378.9,82.9,378.8z"/>
			<path class="st0" d="M92,374.4c-0.3,0.2-0.6,0.4-0.9,0.6C91.4,374.8,91.7,374.6,92,374.4z"/>
			<path class="st0" d="M88.4,376.5c-0.3,0.2-0.6,0.3-0.9,0.4C87.8,376.8,88.1,376.6,88.4,376.5z"/>
			<path class="st0" d="M78.3,380c-0.3,0.1-0.7,0.1-1,0.2C77.6,380.2,78,380.1,78.3,380z"/>
			<path class="st0" d="M90.7,375.2c-0.3,0.1-0.5,0.3-0.8,0.4C90.2,375.5,90.5,375.4,90.7,375.2z"/>
			<path class="st0" d="M29.6,370.7c-0.3-0.2-0.6-0.4-1-0.7C28.9,370.3,29.2,370.5,29.6,370.7z"/>
			<path class="st0" d="M107.3,359.7c-0.2,0.3-0.4,0.6-0.6,0.8C106.9,360.3,107.1,360,107.3,359.7z"/>
			<path class="st0" d="M20.7,363.5c-0.2-0.2-0.5-0.5-0.7-0.7C20.3,363,20.5,363.3,20.7,363.5z"/>
			<path class="st0" d="M47.9,378.8c-0.6-0.2-1.2-0.3-1.8-0.5C46.7,378.5,47.3,378.7,47.9,378.8z"/>
			<path class="st0" d="M75.2,380.6c-0.3,0-0.7,0.1-1,0.1C74.6,380.6,74.9,380.6,75.2,380.6z"/>
			<path class="st0" d="M44,377.7c-0.6-0.2-1.1-0.4-1.6-0.6C42.9,377.3,43.4,377.5,44,377.7z"/>
			<path class="st0" d="M45.7,378.2c-0.5-0.2-1-0.3-1.5-0.5C44.7,377.9,45.2,378.1,45.7,378.2z"/>
			<path class="st0" d="M33.8,373.3c-0.4-0.2-0.9-0.5-1.3-0.7C33,372.8,33.4,373.1,33.8,373.3z"/>
			<path class="st0" d="M49.8,379.3c-0.6-0.1-1.1-0.2-1.6-0.4C48.7,379,49.2,379.2,49.8,379.3z"/>
			<path class="st0" d="M38.4,375.6c-0.4-0.2-0.8-0.4-1.3-0.6C37.6,375.2,38,375.4,38.4,375.6z"/>
			<path class="st0" d="M52.2,379.8c-0.6-0.1-1.3-0.2-1.9-0.4C50.9,379.5,51.5,379.7,52.2,379.8z"/>
			<path class="st0" d="M40.3,376.4c-0.5-0.2-1-0.4-1.5-0.6C39.3,375.9,39.8,376.1,40.3,376.4z"/>
			<path class="st0" d="M41.9,377c-0.5-0.2-0.9-0.3-1.4-0.5C41,376.6,41.5,376.8,41.9,377z"/>
			<path class="st0" d="M35.2,374c-0.4-0.2-0.8-0.4-1.1-0.6C34.4,373.6,34.8,373.8,35.2,374z"/>
			<path class="st0" d="M103.8,351.3c-1.9,0.4-3.9,0.7-5.9,0.8c-0.2,0-0.3-0.1-0.3-0.3c-4,0.5-8.6,0.7-13.5,0.4
				c-0.1,0-0.1,0.1-0.2,0.1c-2.5,0.1-5.1-0.1-7.6-0.5c-9-1.4-17.6-5.1-25.5-10.4c-0.1,0-0.1-0.1-0.1-0.2
				c-23,12.6-34.5,16.8-34.5,16.8s1.2,2,3.8,4.8c-0.2-0.2-0.4-0.5-0.6-0.7c7.5,1.7,16.7-2.3,24.1-2.4c8.9-0.1,15.4,7.5,23.8,9.4
				c9.5,2.1,18.1-4.8,27-7.6c4.4-1.4,9-2.7,13.6-2.6c-0.2,0.3-0.4,0.6-0.6,0.8c4.1-5.8,6.2-10.7,6.5-11.5h-0.1
				C110.6,349.9,107.2,350.7,103.8,351.3z"/>
			<path class="st0" d="M73.7,380.7c-0.5,0.1-1,0.1-1.5,0.1C72.7,380.8,73.2,380.8,73.7,380.7z"/>
			<path class="st0" d="M66.7,381.1c-0.8,0-1.5,0-2.3,0C65.2,381.1,65.9,381.1,66.7,381.1z"/>
			<path class="st0" d="M72.2,380.9c-0.8,0.1-1.7,0.1-2.5,0.1C70.5,381,71.3,380.9,72.2,380.9z"/>
			<path class="st0" d="M69.1,381c-0.8,0-1.6,0-2.3,0.1C67.5,381.1,68.3,381.1,69.1,381z"/>
			<path class="st0" d="M54.2,380.1c-0.6-0.1-1.2-0.2-1.8-0.3C53,379.9,53.6,380,54.2,380.1z"/>
			<path class="st0" d="M36.9,374.9c-0.5-0.2-0.9-0.4-1.4-0.7C36,374.4,36.4,374.7,36.9,374.9z"/>
			<path class="st0" d="M31,371.7c-0.4-0.2-0.8-0.5-1.2-0.7C30.2,371.2,30.6,371.4,31,371.7z"/>
			<path class="st0" d="M32.2,372.4c-0.4-0.2-0.7-0.4-1-0.6C31.5,372,31.9,372.2,32.2,372.4z"/>
			<path class="st0" d="M56.7,380.5c-0.7-0.1-1.4-0.2-2-0.3C55.3,380.3,56,380.4,56.7,380.5z"/>
			<path class="st0" d="M58.8,380.7c-0.7-0.1-1.3-0.1-2-0.2C57.5,380.6,58.2,380.7,58.8,380.7z"/>
			<path class="st0" d="M61.6,381c-0.7,0-1.5-0.1-2.2-0.2C60.1,380.9,60.8,380.9,61.6,381z"/>
			<path class="st0" d="M63.8,381c-0.7,0-1.4-0.1-2.1-0.1C62.4,381,63.1,381,63.8,381z"/>
			<path class="st1" d="M94.3,361.5c-8.9,2.8-17.5,9.7-27,7.6c-8.4-1.9-14.9-9.5-23.8-9.4c-7.4,0.1-16.6,4.1-24.1,2.4
				c0.2,0.2,0.4,0.4,0.6,0.7l0,0c0.2,0.2,0.4,0.5,0.7,0.7l0,0c0.2,0.2,0.5,0.5,0.7,0.7l0.1,0.1c0.2,0.2,0.5,0.5,0.8,0.7l0.1,0.1
				c0.2,0.2,0.5,0.5,0.7,0.7l0.1,0.1c0.3,0.2,0.6,0.5,0.9,0.8l0.1,0.1c0.3,0.2,0.5,0.5,0.8,0.7c0.1,0,0.1,0.1,0.2,0.1
				c0.3,0.2,0.6,0.5,1,0.8l0.1,0.1c0.3,0.2,0.6,0.4,0.9,0.7c0.1,0.1,0.1,0.1,0.2,0.2c0.3,0.2,0.7,0.5,1.1,0.8c0.1,0,0.1,0.1,0.2,0.1
				c0.3,0.2,0.6,0.4,1,0.7c0.1,0.1,0.2,0.1,0.3,0.2c0.4,0.2,0.8,0.5,1.2,0.7c0.1,0,0.1,0.1,0.2,0.1c0.3,0.2,0.7,0.4,1,0.6
				c0.1,0.1,0.2,0.1,0.3,0.2c0.4,0.2,0.8,0.5,1.3,0.7c0.1,0,0.2,0.1,0.2,0.1c0.4,0.2,0.7,0.4,1.1,0.6c0.1,0.1,0.2,0.1,0.3,0.2
				c0.5,0.2,0.9,0.5,1.4,0.7c0.1,0,0.2,0.1,0.2,0.1c0.4,0.2,0.8,0.4,1.3,0.6c0.1,0.1,0.3,0.1,0.4,0.2c0.5,0.2,1,0.4,1.5,0.6
				c0.1,0,0.2,0.1,0.3,0.1c0.5,0.2,0.9,0.3,1.4,0.5c0.1,0.1,0.3,0.1,0.4,0.2c0.5,0.2,1.1,0.4,1.6,0.6c0.1,0,0.2,0.1,0.2,0.1
				c0.5,0.2,1,0.3,1.5,0.5c0.2,0,0.3,0.1,0.5,0.1c0.6,0.2,1.2,0.3,1.8,0.5c0.1,0,0.2,0,0.2,0.1c0.5,0.1,1.1,0.3,1.6,0.4
				c0.2,0,0.3,0.1,0.5,0.1c0.6,0.1,1.3,0.3,1.9,0.4c0.1,0,0.1,0,0.2,0c0.6,0.1,1.2,0.2,1.8,0.3c0.2,0,0.3,0.1,0.5,0.1
				c0.7,0.1,1.3,0.2,2,0.3c0.1,0,0.1,0,0.2,0c0.6,0.1,1.3,0.2,2,0.2c0.2,0,0.4,0,0.6,0.1c0.7,0.1,1.4,0.1,2.2,0.2h0.1
				c0.7,0,1.4,0.1,2.1,0.1c0.2,0,0.4,0,0.6,0c0.8,0,1.5,0,2.3,0h0.1c0.8,0,1.5,0,2.3-0.1c0.2,0,0.4,0,0.6,0c0.8,0,1.6-0.1,2.5-0.1
				c0.5,0,1-0.1,1.5-0.1c0.2,0,0.3,0,0.5-0.1c0.3,0,0.7-0.1,1-0.1c0.2,0,0.4-0.1,0.6-0.1c0.3-0.1,0.6-0.1,1-0.2
				c0.2,0,0.3-0.1,0.5-0.1c0.3-0.1,0.7-0.1,1-0.2c0.1,0,0.3-0.1,0.4-0.1c0.5-0.1,0.9-0.2,1.4-0.3c0.1,0,0.1,0,0.2-0.1
				c0.4-0.1,0.8-0.2,1.1-0.3c0.2,0,0.3-0.1,0.5-0.1c0.3-0.1,0.6-0.2,0.9-0.3c0.2-0.1,0.3-0.1,0.5-0.2c0.3-0.1,0.6-0.2,0.9-0.3
				c0.2-0.1,0.3-0.1,0.5-0.2c0.3-0.1,0.6-0.2,0.9-0.4c0.1,0,0.2-0.1,0.3-0.1c0.4-0.2,0.8-0.4,1.2-0.5c0.1,0,0.2-0.1,0.3-0.1
				c0.3-0.2,0.6-0.3,0.9-0.4c0.1-0.1,0.3-0.1,0.4-0.2c0.3-0.1,0.5-0.3,0.8-0.4c0.1-0.1,0.3-0.2,0.4-0.2c0.3-0.1,0.5-0.3,0.8-0.4
				c0.1-0.1,0.3-0.1,0.4-0.2c0.3-0.2,0.6-0.4,0.9-0.6c0.1,0,0.1-0.1,0.2-0.1c0.4-0.2,0.7-0.5,1.1-0.7c0.1-0.1,0.2-0.1,0.3-0.2
				c0.3-0.2,0.5-0.4,0.8-0.5c0.1-0.1,0.2-0.2,0.3-0.2c0.2-0.2,0.5-0.3,0.7-0.5c0.1-0.1,0.2-0.2,0.3-0.2c0.2-0.2,0.5-0.4,0.7-0.6
				c0.1-0.1,0.2-0.1,0.3-0.2c0.6-0.5,1.3-1.1,1.9-1.6c0.1-0.1,0.1-0.1,0.2-0.2c0.2-0.2,0.5-0.4,0.7-0.6c0.1-0.1,0.2-0.2,0.2-0.2
				c0.2-0.2,0.4-0.4,0.6-0.6c0.1-0.1,0.2-0.2,0.2-0.2c0.2-0.2,0.5-0.5,0.7-0.7l0.1-0.1c0.6-0.6,1.1-1.2,1.6-1.7l0.1-0.1
				c0.2-0.2,0.4-0.5,0.6-0.7l0.1-0.2c0.2-0.2,0.4-0.5,0.6-0.7l0.1-0.1c0.7-0.9,1.4-1.8,2-2.6l0,0c0.2-0.3,0.4-0.6,0.6-0.8l0,0
				c0.2-0.3,0.4-0.6,0.6-0.8C103.3,358.8,98.7,360.1,94.3,361.5z"/>
			<path class="st1" d="M40.9,285.2c0.6,0.1,1.3,0.1,1.9,0.2C42.2,285.3,41.5,285.2,40.9,285.2z"/>
			<path class="st1" d="M38.6,285c0.6,0,1.3,0.1,1.9,0.1C39.8,285.1,39.2,285,38.6,285z"/>
			<path class="st1" d="M20,304.5c-0.3-0.6-0.6-1.1-0.9-1.7C19.4,303.3,19.7,303.9,20,304.5z"/>
			<path class="st1" d="M20.9,306.2c-0.3-0.5-0.6-1.1-0.9-1.6C20.3,305.1,20.6,305.6,20.9,306.2z"/>
			<path class="st1" d="M19.1,302.7c-2.5-4.7-4.8-9.8-7.1-15.4C14.3,292.9,16.6,298,19.1,302.7z"/>
			<path class="st1" d="M58,287.9c0.8,0.2,1.6,0.4,2.4,0.6C59.6,288.4,58.8,288.1,58,287.9z"/>
			<path class="st1" d="M55.5,287.3c0.8,0.2,1.6,0.4,2.4,0.6C57,287.7,56.3,287.5,55.5,287.3z"/>
			<path class="st1" d="M21.8,307.8c-0.3-0.5-0.6-1-0.9-1.6C21.2,306.8,21.5,307.3,21.8,307.8z"/>
			<path class="st1" d="M63.6,289.5c-1-0.3-2.1-0.6-3.1-0.9C61.6,288.9,62.6,289.2,63.6,289.5L63.6,289.5z"/>
			<path class="st1" d="M21.2,294.1c4.2,3.7,6.4,9.2,10.2,13.4c6.2,7,15.5,6.7,21.8,13.3c3.2,3.3,4.7,8.3,7.4,12.1
				c3.1,4.1,6.8,5.8,11.4,6.1c4.5,0.3,8.7,0.2,13,2.2c4.6,2.1,8.6,5.2,13.5,6.5c4.2,1.1,8.4,0.9,12.4-0.2c-2.9-0.9-5.8-2-8.6-3.5
				c-5.2-2.7-10-6.8-13.5-12.2l-0.1,0c-0.6-0.3-1.3-0.7-1.9-1l0,0c-0.3-0.2-0.6-0.4-1-0.6l0,0c-0.4-0.3-0.8-0.5-1.2-0.8
				c-1.5-0.9-2.9-2-4.3-3.3c-7.3-6.7-11.9-16.6-14.7-27c-1.7-2-3.5-3.7-5.5-5c-4.2-2.6-8.4-1.6-12.8-1c-4.8,0.6-7.6-2.8-11.1-6.1
				c-0.8-0.8-1.5-1.5-2.3-2.1c1.4,0,2.9,0.1,4.4,0.2c-15.3-0.9-26.7,1.2-26.7,1.2c0.1,0.4,0.3,0.7,0.5,1.1c0.9,0.4,1.9,0.8,2.8,1.5
				C17,290.4,19.1,292.3,21.2,294.1z"/>
			<path class="st1" d="M45.5,285.6c3.2,0.4,6.5,0.9,9.8,1.7C52,286.6,48.7,286,45.5,285.6z"/>
			<path class="st1" d="M43.2,285.4c0.7,0.1,1.3,0.1,2,0.2C44.6,285.5,43.9,285.4,43.2,285.4z"/>
			<path class="st1" d="M27.5,316.8c-0.2-0.3-0.4-0.5-0.5-0.8C27.1,316.2,27.3,316.5,27.5,316.8z"/>
			<path class="st1" d="M28.4,318.1c-0.1-0.2-0.3-0.4-0.4-0.6C28.1,317.7,28.2,317.9,28.4,318.1z"/>
			<path class="st1" d="M31.2,321.9L31.2,321.9L31.2,321.9z"/>
			<path class="st1" d="M22.8,309.4c-0.3-0.5-0.6-1-0.8-1.4C22.2,308.4,22.5,308.9,22.8,309.4z"/>
			<path class="st1" d="M30.3,320.7c-0.1-0.1-0.1-0.2-0.2-0.2C30.2,320.5,30.2,320.6,30.3,320.7z"/>
			<path class="st1" d="M29.3,319.4c-0.1-0.1-0.2-0.3-0.3-0.4C29.1,319.1,29.2,319.3,29.3,319.4z"/>
			<path class="st1" d="M24.6,312.5c-0.3-0.4-0.5-0.8-0.8-1.2C24.1,311.7,24.4,312.1,24.6,312.5z"/>
			<path class="st1" d="M23.7,310.9c-0.3-0.4-0.5-0.9-0.8-1.3C23.2,310.1,23.4,310.5,23.7,310.9z"/>
			<path class="st1" d="M26.5,315.4c-0.2-0.3-0.4-0.6-0.6-0.9C26.1,314.7,26.3,315,26.5,315.4z"/>
			<path class="st1" d="M25.6,313.9c-0.2-0.4-0.5-0.7-0.7-1.1C25.1,313.2,25.3,313.6,25.6,313.9z"/>
			<path class="st1" d="M98.4,340.5c-1.1-0.8-2.1-1.6-3-2.4l-0.1-0.1c-0.9-0.8-1.8-1.7-2.7-2.6l-0.1-0.1c-0.6-0.7-1.2-1.3-1.7-2
				c1.4,1.8,2.9,3.4,4.5,4.9c1.6,1.4,3.3,2.7,5.1,3.8c-0.6-0.4-1.2-0.8-1.8-1.2C98.5,340.6,98.5,340.6,98.4,340.5z"/>
			<path class="st2" d="M36.3,286.9c3.4,3.4,6.3,6.8,11.1,6.1c4.4-0.6,8.7-1.6,12.8,1c2,1.3,3.8,3,5.5,5c-0.8-3.1-1.5-6.3-2-9.4
				c-1-0.3-2.1-0.7-3.1-0.9l-0.1,0c-0.8-0.2-1.6-0.4-2.4-0.6c-0.1,0-0.1,0-0.2-0.1c-0.8-0.2-1.6-0.4-2.4-0.6l-0.1,0
				c-3.3-0.7-6.6-1.3-9.8-1.7c-0.1,0-0.2,0-0.3,0c-0.7-0.1-1.4-0.2-2-0.2c-0.1,0-0.3,0-0.4,0c-0.6-0.1-1.3-0.1-1.9-0.2
				c-0.1,0-0.3,0-0.4,0c-0.7-0.1-1.3-0.1-1.9-0.1c-0.1,0-0.2,0-0.3,0c-1.5-0.1-3-0.2-4.4-0.2C34.7,285.4,35.5,286.1,36.3,286.9z"/>
			<path class="st3" d="M51.2,340.6c2.2,1.5,4.4,2.8,6.7,4c8.1,4.3,17.1,7,26,6.8c0.4,0,0.5,0.6,0.2,0.8c5,0.3,9.6,0.1,13.5-0.4
				c-0.1-0.2,0.1-0.6,0.3-0.6c1.9-0.2,3.8-0.5,5.7-0.8c3-0.6,6-1.2,8.8-2.6c-0.5-0.1-1-0.3-1.5-0.4c-4.1,1.2-8.2,1.3-12.4,0.2
				c-4.9-1.3-8.9-4.4-13.5-6.5c-4.3-2-8.5-1.9-13-2.2c-4.6-0.3-8.3-2-11.4-6.1c-2.8-3.7-4.3-8.7-7.4-12.1
				c-6.3-6.6-15.6-6.3-21.8-13.3c-3.7-4.2-6-9.7-10.2-13.4c-2.1-1.8-4.2-3.7-6.4-5.3c-0.9-0.7-1.8-1.1-2.8-1.5l0,0
				c2.2,5.6,4.6,10.7,7.1,15.4v0c0.3,0.6,0.6,1.2,0.9,1.7l0,0c0.3,0.6,0.6,1.1,0.9,1.6l0.1,0.1c0.3,0.5,0.6,1,0.9,1.6l0.1,0.2
				c0.3,0.5,0.6,1,0.8,1.4c0,0.1,0.1,0.1,0.1,0.2c0.3,0.5,0.5,0.9,0.8,1.3c0.1,0.1,0.1,0.2,0.2,0.3c0.3,0.4,0.5,0.8,0.8,1.2
				c0.1,0.1,0.2,0.2,0.2,0.4c0.2,0.4,0.5,0.7,0.7,1.1c0.1,0.2,0.2,0.3,0.3,0.5c0.2,0.3,0.4,0.6,0.6,0.9c0.1,0.2,0.3,0.4,0.4,0.6
				c0.2,0.3,0.4,0.5,0.5,0.8c0.2,0.2,0.3,0.5,0.5,0.7c0.1,0.2,0.3,0.4,0.4,0.6c0.2,0.3,0.4,0.6,0.6,0.9c0.1,0.1,0.2,0.3,0.3,0.4
				c0.3,0.3,0.5,0.7,0.8,1c0.1,0.1,0.1,0.2,0.2,0.2c0.3,0.4,0.6,0.8,0.9,1.2l0,0c6.3,8.1,12.9,14.2,19.6,18.7
				C50.9,340.5,51,340.5,51.2,340.6z"/>
			<path class="st0" d="M65.9,253.4c-0.3,5.1-0.4,10.5,1.6,15.1c2.5,5.7,7.3,8.7,7.2,15.7c-0.1,5.2-0.2,10.4,1.6,15.3
				c1.1,3,2.9,5.4,4.9,7.6l0-0.1c0-0.2-0.1-0.3-0.1-0.5c0-0.1,0-0.2,0-0.3c0-0.1,0-0.2,0-0.3c0-0.2,0-0.3,0-0.5c0-0.3,0-0.6,0-0.9
				c0-0.2,0-0.4,0-0.6c0-0.5,0-0.9,0-1.4c0-0.2,0-0.4,0-0.6c0-0.3,0-0.6,0-0.8c0-0.2,0-0.4,0-0.6c0-0.4,0-0.8,0-1.2
				c0-0.2,0-0.5,0-0.8c0-0.3,0-0.5,0-0.8c0-0.2,0-0.5,0-0.7c0-0.1,0-0.3,0-0.4c-0.1-0.1-0.2-0.2-0.2-0.4c0.2-10.1,2.5-20.1,6.4-29
				c0.2-0.5,0.9-0.1,0.6,0.5c-0.1,0.2-0.1,0.3-0.2,0.5c0.4,2.2,0.8,4.2,1.3,6.1v0c0.9,3.6,2,6.9,3.3,9.8c-0.2-5.1-0.1-10.2,0.5-15.3
				c-2.6-2.8-4.8-5.6-6-9.9c-1.4-4.6-1.7-9.5-2.5-14.2c-0.4-2.5-1-4.9-1.7-7.2c4.3,4.1,8.9,9,13.1,14.8
				c-14.5-19.8-32.9-29.9-32.9-29.9c-0.1,0.5-0.1,1.1-0.2,1.6c1.7,3.4,3.7,6.6,4.1,10.7C67.4,240.9,66.3,247.3,65.9,253.4z"/>
			<path class="st0" d="M62.7,224c-2.6,27.8-1.9,48.7,0.9,64.4l0,0C60.8,272.7,60,251.8,62.7,224z"/>
			<path class="st0" d="M96,252.6c-0.1-0.1-0.1-0.2-0.2-0.3C95.9,252.4,95.9,252.5,96,252.6L96,252.6z"/>
			<path class="st0" d="M84.7,329.3L84.7,329.3c0.4,0.3,0.8,0.5,1.2,0.8C85.5,329.8,85.1,329.5,84.7,329.3z"/>
			<path class="st0" d="M88.7,331.7c-0.6-0.3-1.3-0.7-1.9-1C87.5,331.1,88.1,331.4,88.7,331.7z"/>
			<path class="st0" d="M86.8,330.7c-0.3-0.2-0.6-0.4-1-0.6C86.2,330.3,86.5,330.5,86.8,330.7z"/>
			<path class="st2" d="M82.7,237.5c0.8,2.3,1.3,4.7,1.7,7.2c0.8,4.7,1.1,9.6,2.5,14.2c1.3,4.3,3.4,7,6,9.9
				c0.6-5.5,1.6-10.9,3.1-16.2c-0.1-0.1-0.1-0.2-0.2-0.3l0,0C91.6,246.5,87,241.6,82.7,237.5z"/>
			<path class="st4" d="M85.9,330.1c0.3,0.2,0.6,0.4,1,0.6l0,0c0.6,0.4,1.3,0.7,1.9,1l0.1,0c-0.1-0.2-0.2-0.4-0.4-0.6
				c-1.3-0.5-2.6-1.2-3.8-1.9C85.1,329.5,85.5,329.8,85.9,330.1L85.9,330.1z"/>
			<path class="st4" d="M63.6,288.4c0.2-0.2,0.6-0.2,0.6,0.2c0.7,4.1,1.5,8.1,2.7,12.1c3.5,12.2,10.4,24.5,20.8,29.2
				c-0.1-0.1-0.2-0.3-0.2-0.4c-1.3-2.4-2.2-4.9-3-7.5c0-0.1-0.1-0.2-0.1-0.3v0c-0.3-0.7-0.5-1.4-0.7-2.1c0-0.1-0.1-0.2-0.1-0.2
				c-0.1-0.3-0.2-0.7-0.3-1l-0.1-0.2c-0.2-0.7-0.3-1.3-0.5-2c0-0.1-0.1-0.2-0.1-0.3c-0.1-0.3-0.2-0.7-0.2-1c0-0.1,0-0.2-0.1-0.3
				c-0.1-0.6-0.2-1.2-0.3-1.8c0-0.1,0-0.2-0.1-0.3c-0.1-0.3-0.1-0.7-0.2-1c0-0.1,0-0.3-0.1-0.4c-0.1-0.6-0.2-1.1-0.2-1.7
				c0-0.1,0-0.3-0.1-0.4c0-0.3-0.1-0.6-0.1-0.9c0-0.2,0-0.3,0-0.5c0-0.1,0-0.2,0-0.4c-2-2.1-3.7-4.5-4.9-7.6
				c-1.8-4.9-1.7-10.1-1.6-15.3c0.1-7-4.7-10-7.2-15.7c-2.1-4.6-2-10-1.6-15.1c0.4-6.2,1.5-12.5,0.9-18.7c-0.4-4.1-2.4-7.3-4.1-10.7
				l0,0v0C60,251.8,60.8,272.7,63.6,288.4z"/>
			<path class="st5" d="M132.8,251c-3.7-11.5-9.1-24.6-16.6-39.3C123.7,226.4,129,239.4,132.8,251L132.8,251z"/>
			<path class="st5" d="M102.7,233.9c0.1,2.5,0.5,5,1,7.4c1,4.7,2.4,9.3,2.7,14.1c0.4,5.2-1,9.3-2.7,13.9c-1.6,4.2-2.5,8.4-1.9,13.1
				c0.6,4.8,2.6,9,4.6,13.2c2.3,4.9,4,9.2,4,14.9c0,5.3,0.8,9.3,3.5,13.5l0.8,1.1c1.6-7.4,4.2-14.5,8.2-20.6
				c0.2-0.3,0.6-0.1,0.6,0.3c1.5-2.6,3-4.9,4.4-7.3c1.3-3.3,2.2-6.7,2.2-10.4c-0.1-5.3-2-10-3.9-14.7c-2.5-6.4,0.8-11.5,1.1-17.9
				c0.3-5.3-1.7-10.1-3.8-14.6c-2.5-5.4-5.7-10.6-7.3-16.5c-1.1-4-0.4-7.8-0.1-11.8c-0.2-0.5-0.5-0.9-0.7-1.4c0,0-12.6,17.5-19,41.8
				l0,0C98.2,245.4,100.5,239.3,102.7,233.9z"/>
			<path class="st4" d="M104,304.6c0.1-0.2,0.4-0.4,0.6-0.1c2.2,3.4,4,7.1,5.5,11c1.8,4.8,3,9.8,3.7,15c0.2-1.8,0.6-3.6,0.9-5.4
				l-0.8-1.1c-2.7-4.3-3.6-8.3-3.5-13.5c0-5.7-1.7-10.1-4-14.9c-2-4.2-3.9-8.4-4.6-13.2c-0.6-4.7,0.3-8.9,1.9-13.1
				c1.8-4.7,3.1-8.7,2.7-13.9c-0.4-4.8-1.8-9.4-2.7-14.1c-0.5-2.5-0.9-4.9-1-7.4c-2.3,5.4-4.5,11.6-6.3,18.2c0.2,0,0.4,0.2,0.3,0.5
				C93.9,263,92.7,274,93.3,285c0,0.2-0.1,0.4-0.2,0.4C96,292,99.8,297.7,104,304.6z"/>
			<path class="st2" d="M116.2,223.4c1.6,5.9,4.8,11.1,7.3,16.5c2.1,4.5,4,9.3,3.8,14.6c-0.3,6.4-3.6,11.5-1.1,17.9
				c1.9,4.7,3.8,9.4,3.9,14.7c0,3.7-0.9,7.1-2.2,10.4c4.3-7.1,8-13.6,10.4-22.8c-0.1,0-0.2-0.1-0.2-0.3c-1.3-7.8-3.1-15.5-5.4-23
				c-0.1-0.2,0-0.3,0.1-0.4c-3.7-11.5-9.1-24.6-16.6-39.4l0,0l0,0C115.9,215.6,115.2,219.4,116.2,223.4z"/>
			<path class="st6" d="M144.4,282.9C144.4,282.9,144.4,282.9,144.4,282.9C144.4,282.9,144.4,282.9,144.4,282.9
				c-0.2-1-0.4-2.1-0.7-3.1c0-0.1-0.1-0.2-0.1-0.3c-1-4-2.3-7.9-4-11.6c-0.3,1.9-0.7,3.7-1.1,5.4c0,0.3,0.1,0.5,0.1,0.8
				c0.1,0.3-0.2,0.6-0.4,0.6c-0.1,1.2-0.3,2.4-0.5,3.6c-1,4.6-3.3,8.3-4.7,12.6c-2.6,7.6,0.1,16.5-4.5,23.3c-1.9,2.9-4.6,5-6.3,8
				c-1.7,2.9-2.6,6.2-4,9.2c-1,2-2.4,3.5-4.1,4.7c0.2,3.1,0.3,6.2,0.2,9.2c0,0.3-0.2,0.4-0.4,0.4c0,0.7-0.1,1.2-0.1,1.6
				c0.6-0.2,1.3-0.3,1.9-0.5c0.9-1.9,2.2-3.5,4-4.8c3.1-2.2,6-3.8,7.7-7.8c1.8-4.3,1.9-8.6,5.1-11.8c2.7-2.7,5.2-4.9,6.5-9
				c1.3-4.3,1-8.8,0.6-13.2c-0.4-5.8,1.5-9.3,3.6-14.3C143.8,284.9,144.1,283.9,144.4,282.9z"/>
			<path class="st7" d="M123.4,305.1c-5.4,8.3-8.3,18.3-9.3,28.6c0.1,0.8,0.1,1.6,0.2,2.3c1.7-1.1,3.1-2.6,4.1-4.7
				c1.5-3,2.3-6.3,4-9.2c1.8-3,4.4-5.2,6.3-8c4.5-6.8,1.9-15.7,4.5-23.3c1.5-4.3,3.7-8,4.7-12.6c0.3-1.2,0.4-2.4,0.5-3.6l-0.1,0
				c-2.4,9.3-6.1,15.8-10.4,22.8c-1.4,2.3-2.9,4.7-4.4,7.3C123.5,304.9,123.5,305,123.4,305.1z"/>
			<path class="st8" d="M146.5,296.6c-0.2,0.2-0.6,0.1-0.6-0.3c-0.1-4.3-0.6-8.5-1.4-12.6c-0.1-0.2-0.1-0.4-0.2-0.7
				c-0.3,1-0.6,2-1,3c-2,5-4,8.5-3.6,14.3c0.3,4.5,0.7,8.9-0.6,13.2c-1.3,4.1-3.8,6.3-6.5,9c-3.3,3.3-3.3,7.6-5.1,11.8
				c-1.7,4-4.6,5.6-7.7,7.8c-1.8,1.3-3.1,2.9-4,4.8c3.4-1,6.8-2.3,10-4.1c3.1-1.7,6-3.9,8.6-6.6c2.5-2.6,4.5-5.7,6.1-9.1
				c3.1-6.3,4.6-13.3,5.6-20.5c0-0.3,0.2-0.4,0.4-0.3C146.8,302.9,146.8,299.7,146.5,296.6z"/>
			<path class="st2" d="M92.6,335.3c0.8,0.9,1.7,1.8,2.7,2.6C94.3,337.1,93.4,336.2,92.6,335.3z"/>
			<path class="st2" d="M90.6,333c0.1,0.1,0.1,0.2,0.2,0.2c0.5,0.7,1.1,1.3,1.7,2C91.8,334.5,91.2,333.7,90.6,333z"/>
			<path class="st2" d="M95.4,338.1c0.9,0.8,1.9,1.7,3,2.4C97.3,339.7,96.3,338.9,95.4,338.1z"/>
			<path class="st2" d="M100.3,341.9l0.1,0.1c-0.6-0.4-1.3-0.8-1.9-1.3C99.1,341.1,99.7,341.5,100.3,341.9z"/>
			<path class="st2" d="M81.2,296.6c0,0.1,0,0.3,0,0.4C81.2,296.9,81.2,296.8,81.2,296.6L81.2,296.6z"/>
			<path class="st2" d="M81.2,306.3L81.2,306.3c0-0.1,0-0.2,0-0.3C81.2,306,81.2,306.1,81.2,306.3z"/>
			<path class="st2" d="M81.1,301.9c0-0.3,0-0.6,0-0.8C81.1,301.4,81.1,301.6,81.1,301.9z"/>
			<path class="st2" d="M81.1,300.5c0-0.4,0-0.8,0-1.2C81.1,299.6,81.1,300,81.1,300.5z"/>
			<path class="st2" d="M81.1,298.5c0-0.3,0-0.5,0-0.8C81.2,298,81.1,298.2,81.1,298.5z"/>
			<path class="st2" d="M81.2,305.4c0-0.3,0-0.6,0-0.9C81.1,304.8,81.1,305.1,81.2,305.4z"/>
			<path class="st2" d="M81.1,303.9c0-0.5,0-0.9,0-1.4C81.1,303,81.1,303.5,81.1,303.9z"/>
			<path class="st2" d="M83.2,318.1c-0.2-0.7-0.3-1.3-0.5-2C82.8,316.8,83,317.5,83.2,318.1z"/>
			<path class="st2" d="M83.5,319.3c-0.1-0.3-0.2-0.7-0.3-1C83.3,318.6,83.4,319,83.5,319.3z"/>
			<path class="st2" d="M84.4,322l0-0.1c0-0.1-0.1-0.2-0.1-0.2C84.4,321.8,84.4,321.9,84.4,322z"/>
			<path class="st2" d="M84.3,321.7c-0.3-0.7-0.5-1.4-0.7-2.1C83.8,320.3,84.1,321,84.3,321.7z"/>
			<path class="st2" d="M82.6,315.9c-0.1-0.3-0.2-0.7-0.2-1C82.4,315.2,82.5,315.5,82.6,315.9z"/>
			<path class="st2" d="M82.3,314.6c-0.1-0.6-0.2-1.2-0.3-1.8C82.1,313.4,82.2,314,82.3,314.6z"/>
			<path class="st2" d="M81.3,307.5c0-0.2,0-0.3,0-0.5v0l0,0.1C81.3,307.2,81.3,307.4,81.3,307.5z"/>
			<path class="st2" d="M81.4,308.9c0-0.3-0.1-0.6-0.1-0.9C81.4,308.3,81.4,308.6,81.4,308.9z"/>
			<path class="st2" d="M81.7,311c-0.1-0.6-0.2-1.1-0.2-1.7C81.5,309.9,81.6,310.5,81.7,311z"/>
			<path class="st2" d="M81.9,312.4c-0.1-0.3-0.1-0.7-0.2-1C81.8,311.8,81.9,312.1,81.9,312.4z"/>
			<path class="st2" d="M113.7,345.3c0.1-1.6,0.1-3.1,0-4.7c0-1.5-0.1-2.9-0.2-4.4c-1.8-1.2-3.3-2.7-4.3-4.8c-1.5-3-2.3-6.3-4-9.2
				c-1.8-3-4.4-5.2-6.3-8c-4.5-6.8-1.9-15.7-4.5-23.3c-1.5-4.3-3.7-8-4.7-12.6c-0.3-1.3-0.5-2.6-0.6-4c-0.5-1.9-0.9-3.9-1.3-6.1
				c-2.1,4.8-3.6,9.8-4.7,15c0.3,1,0.6,1.9,1,2.8c2,5,4,8.5,3.6,14.3c-0.3,4.5-0.7,8.9,0.6,13.2c1.3,4.1,3.8,6.3,6.5,9
				c3.3,3.3,3.3,7.6,5.1,11.8c1.7,4,4.6,5.6,7.7,7.8c1.8,1.3,3.1,2.9,4,4.8c0.7,0.2,1.4,0.4,2.1,0.6l0.1,0c0-0.4,0.1-0.9,0.1-1.6
				C113.8,345.7,113.7,345.6,113.7,345.3z"/>
			<path class="st9" d="M94.4,290.8c2.6,7.6-0.1,16.5,4.5,23.3c1.9,2.9,4.6,5,6.3,8c1.7,2.9,2.6,6.2,4,9.2c1,2.1,2.5,3.7,4.3,4.8
				c-0.1-0.8-0.1-1.5-0.2-2.2l0-0.1c-1-10.3-3.9-20.4-9.3-28.7c-0.1-0.2-0.1-0.4,0-0.6c-4.2-6.9-8-12.5-11-19.2
				c-0.2,0.1-0.5-0.1-0.5-0.4c0-0.3,0-0.6,0-0.9c-1.3-3-2.4-6.2-3.3-9.8v0c0.1,1.3,0.3,2.6,0.6,4C90.7,282.8,93,286.5,94.4,290.8z"
				/>
			<path class="st10" d="M107.7,342c-3.1-2.2-6-3.8-7.7-7.8c-1.8-4.3-1.9-8.6-5.1-11.8c-2.7-2.7-5.2-4.9-6.5-9
				c-1.3-4.3-1-8.8-0.6-13.2c0.4-5.8-1.5-9.3-3.6-14.3c-0.4-0.9-0.7-1.8-1-2.8c-0.9,4.3-1.3,8.7-1.4,13.1c0,0.4-0.3,0.5-0.5,0.4
				c0,0.1,0,0.3,0,0.4c0,0.2,0,0.4,0,0.7c0,0.2,0,0.5,0,0.8s0,0.5,0,0.8c0,0.4,0,0.8,0,1.2c0,0.2,0,0.4,0,0.6c0,0.3,0,0.5,0,0.8
				c0,0.2,0,0.4,0,0.6c0,0.5,0,0.9,0,1.4c0,0.2,0,0.4,0,0.6c0,0.3,0,0.6,0,0.9c0,0.2,0,0.3,0,0.5c0,0.1,0,0.2,0,0.3
				c0.1-0.4,0.6-0.4,0.7,0c0.7,4.4,1.4,8.8,2.6,13c1,3.7,2.3,7.4,4.1,10.6c0.6,1.1,1.3,2.1,2,3c0.6,0.8,1.2,1.5,1.9,2.2l0.1,0.1
				c0.8,0.9,1.7,1.8,2.7,2.6l0.1,0.1c0.9,0.8,1.9,1.7,3,2.4c0.1,0,0.1,0.1,0.2,0.1c0.6,0.4,1.2,0.9,1.9,1.3
				c3.5,2.2,7.4,3.7,11.2,4.8C110.8,344.8,109.5,343.3,107.7,342z"/>
			<path class="st10" d="M81.3,307.5c0,0.2,0,0.3,0,0.5c0,0.3,0.1,0.6,0.1,0.9c0,0.1,0,0.3,0.1,0.4c0.1,0.6,0.1,1.1,0.2,1.7
				c0,0.1,0,0.3,0.1,0.4c0.1,0.3,0.1,0.7,0.2,1c0,0.1,0,0.2,0.1,0.3c0.1,0.6,0.2,1.2,0.3,1.8c0,0.1,0,0.2,0.1,0.3
				c0.1,0.3,0.1,0.7,0.2,1c0,0.1,0.1,0.2,0.1,0.3c0.2,0.7,0.3,1.3,0.5,2l0.1,0.2c0.1,0.3,0.2,0.7,0.3,1c0,0.1,0.1,0.2,0.1,0.2
				c0.2,0.7,0.5,1.4,0.7,2.1v0c0,0.1,0.1,0.2,0.1,0.2c-1.5-4.8-2.3-9.9-3.1-14.9C81.3,307.2,81.3,307.3,81.3,307.5z"/>
			<path class="st11" d="M92.9,268.8c-0.5,5.1-0.7,10.2-0.5,15.3c0,0.3,0,0.6,0,0.9c0,0.4,0.3,0.5,0.5,0.4c0.1-0.1,0.2-0.2,0.2-0.4
				c-0.6-10.9,0.6-21.9,3.5-32.3c0.1-0.3-0.1-0.5-0.3-0.5l0,0c-0.2,0-0.3,0.1-0.4,0.3l-0.1,0.2l0,0
				C94.5,257.8,93.5,263.3,92.9,268.8z"/>
			<path class="st11" d="M50.8,341.4c7.8,5.3,16.5,9.1,25.5,10.4c2.5,0.4,5,0.6,7.6,0.5c0.1,0,0.1,0,0.2-0.1
				c0.3-0.2,0.2-0.8-0.2-0.8c-8.9,0.2-17.8-2.5-26-6.8c-2.3-1.2-4.5-2.6-6.7-4c-0.2-0.1-0.3-0.1-0.4,0c-0.1,0.1-0.2,0.4-0.1,0.6
				C50.7,341.3,50.7,341.3,50.8,341.4z"/>
			<path class="st11" d="M110,315.5c-1.4-3.9-3.3-7.6-5.5-11c-0.2-0.3-0.4-0.2-0.6,0.1c-0.1,0.2-0.1,0.4,0,0.6
				c5.4,8.3,8.3,18.4,9.3,28.7l0,0.1c0.1,0.8,0.1,1.5,0.2,2.2c0.1,1.5,0.2,2.9,0.2,4.4c0,1.6,0,3.1,0,4.7c0,0.3,0.2,0.4,0.3,0.4
				c0.2,0,0.4-0.1,0.4-0.4c0.1-3.1,0-6.2-0.2-9.2c-0.1-0.8-0.1-1.6-0.2-2.3c1-10.3,4-20.3,9.3-28.6c0.1-0.1,0.1-0.2,0.1-0.4
				c-0.1-0.3-0.4-0.6-0.6-0.3c-4,6.1-6.7,13.2-8.2,20.6c-0.4,1.8-0.7,3.6-0.9,5.4C113,325.4,111.8,320.3,110,315.5z"/>
			<path class="st11" d="M81.7,296.2c0.1-4.4,0.6-8.8,1.4-13.1c1-5.2,2.6-10.2,4.7-15c0.1-0.2,0.1-0.3,0.2-0.5
				c0.2-0.5-0.4-1-0.6-0.5c-4,8.9-6.2,18.9-6.4,29c0,0.2,0.1,0.4,0.2,0.4l0,0C81.5,296.7,81.7,296.6,81.7,296.2z"/>
			<path class="st11" d="M114,348.2L114,348.2c3.5,1.7,7.2,2.5,10.9,3.2c1.9,0.3,3.9,0.6,5.9,0.8c0.2,0,0.3-0.1,0.3-0.2
				c0.1-0.3,0-0.7-0.3-0.7c-2-0.1-3.9-0.4-5.9-0.8c-3.2-0.6-6.5-1.3-9.5-2.6c0.5-0.1,1-0.3,1.6-0.5c6.1-1.9,12-4.7,16.9-9.5
				c1.8-1.7,3.4-3.7,4.8-5.9l0,0c0.2-0.3,0.3-0.5,0.5-0.8c2.7-1.1,5.1-2.7,7.4-4.6c0.1-0.1,0.2-0.2,0.2-0.2
				c6.8-6,11.6-15.3,14.7-24.4c0.4-1.1,0.7-2.1,1-3.2c0.8-3,1.5-6,2-9.1c0-0.1,0-0.2,0-0.2v0c0-0.2-0.2-0.3-0.3-0.3l0,0
				c-0.2-0.1-0.4,0-0.4,0.3c-1.2,7.1-3.3,14-6.2,20.3c-2.7,5.8-6.1,11.3-10.5,15.4c-2.1,2-4.5,3.6-7.1,4.8c1.8-3.1,3.2-6.6,4.3-10.2
				c1.3-4.2,2-8.5,2.6-12.9l0-0.1c0-0.3-0.1-0.5-0.3-0.6c-0.2,0-0.4,0-0.4,0.3c-1,7.2-2.5,14.2-5.6,20.5c-1.7,3.4-3.7,6.5-6.1,9.1
				c-2.6,2.7-5.5,4.9-8.6,6.6c-3.2,1.8-6.6,3.1-10,4.1c-0.6,0.2-1.3,0.4-1.9,0.5l-0.1,0c-0.7-0.2-1.4-0.4-2.1-0.6
				c-3.9-1.1-7.7-2.6-11.2-4.8l-0.1-0.1c-1.8-1.1-3.5-2.3-5.1-3.8c-1.6-1.4-3.1-3.1-4.5-4.9c-0.1-0.1-0.1-0.2-0.2-0.2
				c-0.7-1-1.4-2-2-3c-1.8-3.3-3.2-6.9-4.1-10.6c-1.1-4.3-1.9-8.7-2.6-13c-0.1-0.5-0.6-0.4-0.7,0l0,0c0,0.1,0,0.2,0,0.3
				c0,0.2,0.1,0.3,0.1,0.5v0c0.8,5,1.7,10.1,3.1,14.9l0,0.1c0.8,2.6,1.8,5.1,3,7.5c0.1,0.1,0.2,0.3,0.2,0.4
				c-10.4-4.8-17.3-17.1-20.8-29.2c-1.1-3.9-2-8-2.7-12.1c-0.1-0.4-0.4-0.4-0.6-0.2l0,0c-0.1,0.1-0.1,0.2-0.1,0.4
				c0,0.2,0.1,0.5,0.1,0.7v0c0.5,3.2,1.2,6.3,2,9.4c2.8,10.4,7.4,20.3,14.7,27c1.3,1.2,2.8,2.3,4.3,3.3l0,0c1.2,0.8,2.5,1.4,3.8,1.9
				c0.1,0.2,0.2,0.4,0.4,0.6c3.5,5.4,8.3,9.5,13.5,12.2c2.8,1.5,5.7,2.6,8.6,3.5c0.5,0.2,1,0.3,1.5,0.4c-2.8,1.3-5.9,2-8.8,2.6
				c-1.9,0.3-3.8,0.6-5.7,0.8c-0.3,0-0.4,0.3-0.3,0.6c0,0.2,0.1,0.3,0.3,0.3c2-0.2,3.9-0.5,5.9-0.8c3.3-0.6,6.8-1.4,9.9-3.1h0.1h0
				l0,0l0,0h0.1L114,348.2L114,348.2z"/>
			<path class="st11" d="M176.5,340.6c-7.8,5.3-16.4,9-25.2,10.3c-2.5,0.4-5,0.5-7.4,0.5c-0.4,0-0.5,0.7-0.2,0.8
				c0.1,0,0.1,0.1,0.2,0.1c9,0.2,18-2.5,26.2-6.8c2.3-1.2,4.6-2.6,6.8-4.1c0.1-0.1,0.1-0.1,0.1-0.2c0.1-0.1,0-0.3,0-0.4
				C176.9,340.6,176.7,340.5,176.5,340.6z"/>
			<path class="st11" d="M143.8,279.9c0.3,1.2,0.6,2.5,0.8,3.7c0.8,4.1,1.3,8.4,1.4,12.6c0,0.4,0.4,0.5,0.6,0.3
				c0.1-0.1,0.1-0.2,0.1-0.3c-0.2-10.1-2.5-20.1-6.4-29c-0.2-0.5-0.9-0.1-0.6,0.5c0,0.1,0.1,0.2,0.1,0.3c1.6,3.7,3,7.6,4,11.6
				C143.7,279.7,143.7,279.8,143.8,279.9z"/>
			<path class="st11" d="M132.7,251.3c2.2,7.5,4.1,15.2,5.4,23c0,0.2,0.1,0.3,0.2,0.3l0.1,0c0.2,0,0.5-0.2,0.4-0.6
				c0-0.3-0.1-0.5-0.1-0.8c-0.4-2.4-0.9-4.7-1.4-7.1c-1.1-5.1-2.4-10.2-3.9-15.1c0-0.1-0.1-0.2-0.2-0.2l0,0
				c-0.2-0.1-0.4-0.1-0.5,0.1l0,0C132.7,251.1,132.6,251.2,132.7,251.3z"/>
		</g>
		<path class="st0" d="M179.7,343.4c-2.3,1.6-4.7,3-7.1,4.3c-8.6,4.5-18,7.3-27.4,7.2c-0.1,0-0.1,0-0.2-0.1
			c-4.8,0.3-9.3,0.1-13.2-0.3c-0.1,0.1-0.2,0.2-0.3,0.2c-2.1-0.2-4.1-0.4-6.1-0.8c-3.8-0.7-7.7-1.6-11.3-3.3l0,0h0h-0.1
			c0.3,0.8,2.3,5.5,6.2,11.1c4.8,0,9.6,1.3,14.2,2.7c9.3,2.9,18.3,10.2,28.2,8c8.8-1.9,15.6-10,24.9-9.8c7.7,0.1,17.4,4.3,25.2,2.5
			c2.3-2.5,3.4-4.3,3.4-4.3s-12-4.4-36-17.6C179.8,343.3,179.8,343.4,179.7,343.4z"/>
		<path class="st1" d="M187.4,362.6c-9.3-0.2-16.1,7.9-24.9,9.8c-9.9,2.2-18.9-5-28.2-8c-4.6-1.4-9.4-2.8-14.2-2.7l0,0
			c0.2,0.3,0.4,0.6,0.6,0.9l0,0c0.2,0.3,0.4,0.6,0.6,0.9l0,0c0.7,0.9,1.4,1.8,2.1,2.7l0.1,0.1c0.2,0.2,0.4,0.5,0.6,0.8l0.2,0.2
			c0.2,0.2,0.5,0.5,0.7,0.8l0.1,0.1c0.5,0.6,1.1,1.2,1.7,1.8l0.1,0.2c0.2,0.2,0.5,0.5,0.7,0.7c0.1,0.1,0.2,0.2,0.2,0.2
			c0.2,0.2,0.4,0.4,0.7,0.6c0.1,0.1,0.2,0.2,0.3,0.2c0.2,0.2,0.5,0.4,0.7,0.7c0.1,0.1,0.1,0.1,0.2,0.2c0.6,0.6,1.3,1.1,2,1.7
			c0.1,0.1,0.2,0.2,0.3,0.2c0.2,0.2,0.5,0.4,0.7,0.6c0.1,0.1,0.2,0.2,0.4,0.3c0.2,0.2,0.5,0.3,0.7,0.5c0.1,0.1,0.2,0.2,0.4,0.3
			c0.3,0.2,0.5,0.4,0.8,0.6c0.1,0.1,0.2,0.1,0.3,0.2c0.4,0.2,0.7,0.5,1.1,0.7c0.1,0,0.1,0.1,0.2,0.1c0.3,0.2,0.6,0.4,0.9,0.6
			c0.1,0.1,0.3,0.2,0.4,0.2c0.3,0.2,0.5,0.3,0.8,0.4c0.2,0.1,0.3,0.2,0.5,0.2c0.3,0.1,0.5,0.3,0.8,0.4c0.1,0.1,0.3,0.2,0.4,0.2
			c0.3,0.2,0.6,0.3,1,0.5c0.1,0,0.2,0.1,0.3,0.1c0.4,0.2,0.9,0.4,1.3,0.6c0.1,0.1,0.2,0.1,0.3,0.1c0.3,0.1,0.6,0.3,1,0.4
			c0.2,0.1,0.3,0.1,0.5,0.2c0.3,0.1,0.6,0.2,0.9,0.3c0.2,0.1,0.3,0.1,0.5,0.2c0.3,0.1,0.6,0.2,0.9,0.3c0.2,0.1,0.3,0.1,0.5,0.2
			c0.4,0.1,0.8,0.2,1.2,0.3c0.1,0,0.2,0,0.2,0.1c0.5,0.1,1,0.2,1.5,0.3c0.1,0,0.3,0.1,0.4,0.1c0.3,0.1,0.7,0.2,1.1,0.2
			c0.2,0,0.4,0.1,0.6,0.1c0.3,0.1,0.7,0.1,1,0.2c0.2,0,0.4,0.1,0.6,0.1c0.4,0.1,0.7,0.1,1.1,0.1c0.2,0,0.3,0,0.5,0.1
			c0.5,0.1,1.1,0.1,1.6,0.1c0.9,0.1,1.7,0.1,2.6,0.1c0.2,0,0.4,0,0.6,0c0.8,0,1.6,0,2.4,0.1h0.1c0.8,0,1.6,0,2.4,0
			c0.2,0,0.4,0,0.6,0c0.7,0,1.5-0.1,2.2-0.1h0.1c0.8,0,1.5-0.1,2.3-0.2c0.2,0,0.4,0,0.6-0.1c0.7-0.1,1.4-0.1,2-0.2
			c0.1,0,0.1,0,0.2,0c0.7-0.1,1.4-0.2,2.1-0.3c0.2,0,0.4-0.1,0.5-0.1c0.6-0.1,1.3-0.2,1.9-0.3c0.1,0,0.1,0,0.2,0
			c0.7-0.1,1.3-0.3,2-0.4c0.2,0,0.3-0.1,0.5-0.1c0.6-0.1,1.1-0.3,1.7-0.4c0.1,0,0.2,0,0.2-0.1c0.6-0.2,1.2-0.3,1.8-0.5
			c0.2,0,0.3-0.1,0.5-0.1c0.5-0.2,1-0.3,1.6-0.5c0.1,0,0.2-0.1,0.3-0.1c0.6-0.2,1.1-0.4,1.7-0.6c0.2-0.1,0.3-0.1,0.5-0.2
			c0.5-0.2,1-0.4,1.4-0.5c0.1,0,0.2-0.1,0.3-0.1c0.5-0.2,1.1-0.4,1.6-0.7c0.1-0.1,0.3-0.1,0.4-0.2c0.4-0.2,0.9-0.4,1.3-0.6
			c0.1,0,0.2-0.1,0.3-0.1c0.5-0.2,1-0.5,1.4-0.7c0.1-0.1,0.2-0.1,0.4-0.2c0.4-0.2,0.8-0.4,1.2-0.6c0.1,0,0.2-0.1,0.2-0.1
			c0.5-0.2,0.9-0.5,1.3-0.8c0.1-0.1,0.2-0.1,0.3-0.2c0.4-0.2,0.7-0.4,1.1-0.7c0.1,0,0.1-0.1,0.2-0.1c0.4-0.2,0.8-0.5,1.2-0.8
			c0.1-0.1,0.2-0.1,0.3-0.2c0.3-0.2,0.7-0.4,1-0.7c0.1,0,0.1-0.1,0.2-0.1c0.4-0.3,0.7-0.5,1.1-0.8c0.1-0.1,0.2-0.1,0.2-0.2
			c0.3-0.2,0.6-0.5,0.9-0.7l0.2-0.1c0.3-0.3,0.7-0.5,1-0.8c0.1,0,0.1-0.1,0.2-0.1c0.3-0.2,0.6-0.5,0.9-0.7l0.1-0.1
			c0.3-0.3,0.6-0.5,0.9-0.8l0.1-0.1c0.3-0.2,0.5-0.5,0.8-0.7l0.1-0.1c0.3-0.3,0.5-0.5,0.8-0.8l0.1-0.1c0.2-0.2,0.5-0.5,0.7-0.7l0,0
			c0.2-0.2,0.5-0.5,0.7-0.7l0,0c0.2-0.2,0.4-0.4,0.6-0.6l0.1-0.1l0,0C204.7,366.8,195.1,362.7,187.4,362.6z"/>
		<path class="st1" d="M197.6,284.3c-0.8,0.7-1.7,1.4-2.5,2.2c-3.6,3.5-6.6,7.1-11.6,6.4c-4.7-0.6-9-1.7-13.4,1c-2,1.3-3.8,3-5.5,5
			c-0.3,1.1-0.7,2.3-1,3.4c-3.2,9.6-8.2,19.3-15.3,25.5c-0.1,0.1-0.2,0.2-0.3,0.2c-2.3,2-4.9,3.7-7.7,4.8c-0.2,0.3-0.3,0.6-0.5,0.8
			l0,0c-1.5,2.3-3.2,4.3-5.1,6.2c-5.2,5-11.3,8-17.7,9.9c4.3,1.3,8.7,1.5,13.2,0.3c5.1-1.3,9.3-4.6,14.1-6.7c4.5-2,8.8-2,13.6-2.3
			c4.7-0.3,8.7-2.1,11.9-6.4c2.9-3.9,4.5-9.1,7.8-12.6c6.5-6.8,16.3-6.6,22.8-13.9c3.9-4.4,6.2-10.2,10.6-14
			c2.2-1.9,4.4-3.9,6.7-5.6c0.9-0.7,1.9-1.2,2.9-1.6c0.2-0.4,0.3-0.8,0.5-1.2C221,285.8,211.3,283.9,197.6,284.3z"/>
		<path class="st2" d="M164.7,298.9c1.7-1.9,3.5-3.7,5.5-5c4.3-2.7,8.7-1.7,13.4-1c5,0.7,8-2.9,11.6-6.4c0.8-0.8,1.6-1.5,2.5-2.2
			l0,0h-0.1c-0.6,0-1.2,0-1.8,0.1c-0.2,0-0.4,0-0.6,0c-0.7,0-1.3,0.1-2,0.1c-0.1,0-0.2,0-0.3,0c-0.7,0-1.4,0.1-2,0.2
			c-0.1,0-0.3,0-0.4,0c-0.7,0.1-1.3,0.1-2,0.2c-0.1,0-0.3,0-0.4,0c-0.7,0.1-1.4,0.2-2.1,0.2c-0.1,0-0.2,0-0.3,0
			c-3.3,0.4-6.8,1-10.3,1.8l-0.1,0c-0.8,0.2-1.7,0.4-2.5,0.6c-0.1,0-0.1,0-0.2,0.1c-0.8,0.2-1.7,0.4-2.5,0.7l-0.1,0
			c-1,0.3-2,0.6-3.1,0.9c0,0.1,0,0.1,0,0.2C166.3,292.6,165.6,295.8,164.7,298.9z"/>
		<path class="st3" d="M210.9,294.1c-4.4,3.9-6.7,9.6-10.6,14c-6.5,7.3-16.2,7-22.8,13.9c-3.3,3.5-4.9,8.7-7.8,12.6
			c-3.2,4.3-7.1,6.1-11.9,6.4c-4.7,0.3-9.1,0.2-13.6,2.3c-4.8,2.2-9,5.4-14.1,6.7c-4.5,1.2-8.8,0.9-13.2-0.3
			c-0.5,0.2-1.1,0.3-1.6,0.5c3.2,1.4,6.6,2.2,9.9,2.8c2,0.4,4.1,0.7,6.1,0.8c0.3,0,0.4,0.4,0.3,0.7c3.9,0.5,8.4,0.7,13.2,0.3
			c-0.3-0.2-0.3-0.9,0.2-0.9c2.6,0.1,5.2-0.1,7.8-0.5c9.3-1.4,18.3-5.3,26.4-10.8c0.2-0.2,0.4,0,0.5,0.2
			c7.7-5.2,15.4-12.4,22.7-22.4l0.1-0.2c0.3-0.4,0.6-0.8,0.8-1.2c0.1-0.1,0.2-0.3,0.3-0.4c0.2-0.3,0.5-0.7,0.7-1
			c0.1-0.2,0.3-0.4,0.4-0.6c0.2-0.3,0.4-0.6,0.6-0.8c0.2-0.3,0.3-0.5,0.5-0.8c0.2-0.2,0.3-0.5,0.5-0.7c0.2-0.3,0.4-0.6,0.6-0.9
			c0.1-0.2,0.2-0.4,0.4-0.6c0.2-0.4,0.5-0.7,0.7-1.1c0.1-0.2,0.2-0.3,0.3-0.5c0.3-0.4,0.5-0.8,0.8-1.3c0.1-0.1,0.1-0.2,0.2-0.4
			c0.3-0.5,0.5-0.9,0.8-1.4c0.1-0.1,0.1-0.2,0.2-0.3c0.3-0.5,0.6-1,0.9-1.5l0.1-0.2c0.3-0.5,0.6-1.1,0.9-1.6l0.1-0.1
			c0.3-0.6,0.6-1.1,0.9-1.7l0-0.1c0.3-0.6,0.6-1.2,0.9-1.8l0,0c0.3-0.6,0.6-1.3,0.9-1.9l0,0c1.9-3.9,3.7-8,5.5-12.4l0,0
			c-1,0.4-1.9,0.9-2.9,1.6C215.3,290.2,213.1,292.1,210.9,294.1z"/>
		<path class="st0" d="M142.3,257.3c-0.9,3.1-2.3,5.5-4,7.6c0.5,2.5,1,4.9,1.4,7.4c0.4-1.8,0.8-3.6,1.1-5.6c0-0.1-0.1-0.2-0.1-0.3
			c-0.2-0.5,0.4-1,0.7-0.5c4.2,9.3,6.5,19.8,6.7,30.3c0,0.2-0.1,0.3-0.1,0.4c0.2,3.3,0.3,6.7,0.1,10.1c0.2,0.1,0.4,0.3,0.3,0.6
			l0,0.1c2-2.2,3.7-4.6,4.8-7.6c1.9-5.1,1.8-10.5,1.7-16c-0.1-7.4,4.9-10.5,7.6-16.4c2.2-4.8,2.1-10.5,1.7-15.8
			c-0.4-6.4-1.6-13-0.9-19.5c0.4-4.3,2.5-7.6,4.3-11.2c2.8,29.5,1.9,51.6-1.1,68l0,0c3.1-16.8,4-39.4,1-69.7c0,0-9.7,5.3-20.7,15.8
			c-0.8,2.4-1.4,4.9-1.8,7.5C144.1,247.4,143.7,252.5,142.3,257.3z"/>
		<path class="st2" d="M134.3,249.1c1.5,5.2,2.9,10.4,4,15.8c1.7-2.2,3.1-4.5,4-7.6c1.4-4.8,1.8-9.9,2.6-14.8c0.4-2.6,1-5.1,1.8-7.5
			l0,0l-0.1,0.1c-0.5,0.4-0.9,0.9-1.4,1.3c-0.1,0.1-0.2,0.2-0.2,0.2c-0.4,0.4-0.9,0.8-1.3,1.3c-0.1,0.1-0.2,0.2-0.3,0.3
			c-0.4,0.4-0.9,0.9-1.3,1.3c-0.1,0.1-0.2,0.2-0.3,0.3c-0.4,0.5-0.9,0.9-1.3,1.4c-0.1,0.1-0.2,0.2-0.2,0.3c-0.5,0.5-0.9,1-1.4,1.5
			c-0.1,0.1-0.1,0.1-0.2,0.2c-0.5,0.6-1,1.2-1.5,1.8l0,0c-1,1.3-2.1,2.6-3.1,3.9C134.2,248.9,134.3,249,134.3,249.1z"/>
		<path class="st4" d="M167.6,220.8c-1.7,3.6-3.8,6.9-4.3,11.2c-0.7,6.5,0.5,13.1,0.9,19.5c0.3,5.3,0.5,10.9-1.7,15.8
			c-2.6,5.9-7.6,9.1-7.6,16.4c0.1,5.4,0.2,10.9-1.7,16c-1.1,3-2.9,5.5-4.8,7.6c-0.7,4.6-1.5,9.1-2.8,13.5c-1.1,3.7-2.6,7.3-4.5,10.6
			c2.7-1.2,5.1-2.9,7.4-5c4.6-4.3,8.1-10,11-16.1c3.1-6.6,5.3-13.7,6.5-21.2c0.1-0.3,0.2-0.4,0.4-0.3
			C169.5,272.4,170.4,250.3,167.6,220.8z"/>
		<path class="st0" d="M103.4,353.8c-2,0.4-4.1,0.7-6.2,0.9c-0.2,0-0.3-0.1-0.4-0.3c-4.2,0.5-9,0.8-14.1,0.4c-0.1,0-0.1,0.1-0.2,0.1
			c-2.6,0.1-5.3-0.1-7.9-0.5c-9.4-1.4-18.4-5.3-26.6-10.9c-0.1,0-0.1-0.1-0.1-0.2c-24,13.1-36,17.6-36,17.6s1.1,1.7,3.4,4.3
			c7.8,1.8,17.5-2.4,25.2-2.5c9.3-0.2,16.1,7.9,24.9,9.8c9.9,2.2,18.9-5,28.2-8c4.6-1.4,9.4-2.8,14.2-2.7c3.9-5.7,5.8-10.3,6.2-11.1
			h-0.1C110.4,352.3,106.8,353.1,103.4,353.8z"/>
		<path class="st1" d="M65.3,372.4c-8.8-1.9-15.6-10-24.9-9.8c-7.7,0.1-17.4,4.3-25.2,2.5l0,0l0.1,0.1c0.2,0.2,0.4,0.4,0.6,0.6l0,0
			c0.2,0.2,0.5,0.5,0.7,0.7l0,0c0.2,0.2,0.5,0.5,0.7,0.7l0.1,0.1c0.3,0.2,0.5,0.5,0.8,0.8l0.1,0.1c0.3,0.2,0.5,0.5,0.8,0.7l0.1,0.1
			c0.3,0.3,0.6,0.5,0.9,0.8l0.1,0.1c0.3,0.2,0.6,0.5,0.9,0.7c0.1,0,0.1,0.1,0.2,0.1c0.3,0.3,0.7,0.5,1,0.8l0.2,0.1
			c0.3,0.2,0.6,0.5,0.9,0.7c0.1,0.1,0.2,0.1,0.2,0.2c0.4,0.3,0.7,0.5,1.1,0.8c0.1,0,0.1,0.1,0.2,0.1c0.3,0.2,0.7,0.4,1,0.7
			c0.1,0.1,0.2,0.1,0.3,0.2c0.4,0.3,0.8,0.5,1.2,0.8c0.1,0,0.1,0.1,0.2,0.1c0.4,0.2,0.7,0.4,1.1,0.7c0.1,0.1,0.2,0.1,0.3,0.2
			c0.4,0.2,0.9,0.5,1.3,0.8c0.1,0,0.2,0.1,0.2,0.1c0.4,0.2,0.8,0.4,1.2,0.6c0.1,0.1,0.2,0.1,0.4,0.2c0.5,0.2,1,0.5,1.4,0.7
			c0.1,0,0.2,0.1,0.3,0.1c0.4,0.2,0.9,0.4,1.3,0.6c0.1,0.1,0.3,0.1,0.4,0.2c0.5,0.2,1,0.4,1.6,0.7c0.1,0,0.2,0.1,0.3,0.1
			c0.5,0.2,0.9,0.4,1.4,0.5c0.2,0.1,0.3,0.1,0.5,0.2c0.6,0.2,1.1,0.4,1.7,0.6c0.1,0,0.2,0.1,0.3,0.1c0.5,0.2,1,0.3,1.6,0.5
			c0.2,0,0.3,0.1,0.5,0.1c0.6,0.2,1.2,0.3,1.8,0.5c0.1,0,0.2,0,0.2,0.1c0.6,0.1,1.1,0.3,1.7,0.4c0.2,0,0.3,0.1,0.5,0.1
			c0.6,0.1,1.3,0.3,2,0.4c0.1,0,0.1,0,0.2,0c0.6,0.1,1.2,0.2,1.9,0.3c0.2,0,0.4,0.1,0.5,0.1c0.7,0.1,1.4,0.2,2.1,0.3
			c0.1,0,0.1,0,0.2,0c0.7,0.1,1.4,0.2,2,0.2c0.2,0,0.4,0,0.6,0.1c0.7,0.1,1.5,0.1,2.3,0.2h0.1c0.7,0,1.5,0.1,2.2,0.1
			c0.2,0,0.4,0,0.6,0c0.8,0,1.6,0,2.4,0h0.1c0.8,0,1.6,0,2.4-0.1c0.2,0,0.4,0,0.6,0c0.9,0,1.7-0.1,2.6-0.1c0.5,0,1.1-0.1,1.6-0.1
			c0.2,0,0.3,0,0.5-0.1c0.4,0,0.7-0.1,1.1-0.1c0.2,0,0.4-0.1,0.6-0.1c0.3-0.1,0.7-0.1,1-0.2c0.2,0,0.4-0.1,0.6-0.1
			c0.4-0.1,0.7-0.1,1.1-0.2c0.1,0,0.3-0.1,0.4-0.1c0.5-0.1,1-0.2,1.5-0.3c0.1,0,0.2,0,0.2-0.1c0.4-0.1,0.8-0.2,1.2-0.3
			c0.2-0.1,0.3-0.1,0.5-0.2c0.3-0.1,0.6-0.2,0.9-0.3c0.2-0.1,0.3-0.1,0.5-0.2c0.3-0.1,0.6-0.2,0.9-0.3c0.2-0.1,0.3-0.1,0.5-0.2
			c0.3-0.1,0.7-0.3,1-0.4c0.1,0,0.2-0.1,0.3-0.1c0.4-0.2,0.9-0.4,1.3-0.6c0.1,0,0.2-0.1,0.3-0.1c0.3-0.2,0.6-0.3,1-0.5
			c0.1-0.1,0.3-0.2,0.4-0.2c0.3-0.1,0.5-0.3,0.8-0.4c0.2-0.1,0.3-0.2,0.5-0.2c0.3-0.2,0.5-0.3,0.8-0.4c0.1-0.1,0.3-0.2,0.4-0.2
			c0.3-0.2,0.6-0.4,1-0.6c0.1,0,0.1-0.1,0.2-0.1c0.4-0.2,0.8-0.5,1.1-0.7c0.1-0.1,0.2-0.1,0.3-0.2c0.3-0.2,0.5-0.4,0.8-0.6
			c0.1-0.1,0.2-0.2,0.4-0.3c0.2-0.2,0.5-0.3,0.7-0.5c0.1-0.1,0.2-0.2,0.4-0.3c0.2-0.2,0.5-0.4,0.7-0.6c0.1-0.1,0.2-0.2,0.3-0.2
			c0.7-0.5,1.3-1.1,2-1.7c0.1-0.1,0.1-0.1,0.2-0.2c0.2-0.2,0.5-0.4,0.7-0.7c0.1-0.1,0.2-0.2,0.3-0.2c0.2-0.2,0.5-0.4,0.7-0.6
			c0.1-0.1,0.2-0.2,0.2-0.2c0.2-0.2,0.5-0.5,0.7-0.7l0.1-0.1c0.6-0.6,1.1-1.2,1.7-1.8l0.1-0.1c0.2-0.3,0.5-0.5,0.7-0.8l0.1-0.2
			c0.2-0.2,0.4-0.5,0.6-0.8l0.1-0.1c0.8-0.9,1.5-1.8,2.1-2.7l0,0c0.2-0.3,0.4-0.6,0.6-0.9l0-0.1c0.2-0.3,0.4-0.6,0.6-0.9l0,0
			c-4.8,0-9.6,1.3-14.2,2.7C84.2,367.3,75.2,374.6,65.3,372.4z"/>
		<path class="st1" d="M17,294.1c4.4,3.9,6.7,9.6,10.6,14c6.5,7.3,16.2,7,22.8,13.9c3.3,3.5,4.9,8.7,7.8,12.6
			c3.2,4.3,7.1,6.1,11.9,6.4c4.7,0.3,9.1,0.2,13.6,2.3c4.8,2.2,9,5.4,14.1,6.7c4.4,1.1,8.7,0.9,13-0.3c-3.1-0.9-6.1-2.1-9-3.6
			c-5.4-2.8-10.5-7.1-14.1-12.7c-0.1-0.2-0.2-0.4-0.4-0.6c-1.4-0.6-2.7-1.2-3.9-2l0,0c-1.6-1-3.1-2.1-4.5-3.4
			c-7.6-7-12.4-17.3-15.3-28.2c-1.8-2-3.7-3.9-5.8-5.2c-4.3-2.7-8.7-1.7-13.4-1c-5,0.7-8-2.9-11.6-6.4c-0.8-0.8-1.6-1.5-2.5-2.2
			C16.7,283.9,7,285.8,7,285.8c0.2,0.4,0.3,0.8,0.5,1.2c1,0.4,1.9,0.9,2.9,1.6C12.7,290.2,14.9,292.1,17,294.1z"/>
		<path class="st2" d="M44.4,292.9c4.7-0.6,9-1.7,13.4,1c2.1,1.3,4,3.2,5.8,5.2c-0.9-3.3-1.6-6.6-2.1-9.9c-1.1-0.3-2.2-0.7-3.3-1
			l-0.1,0c-0.8-0.2-1.7-0.4-2.5-0.7c-0.1,0-0.1,0-0.2-0.1c-0.8-0.2-1.7-0.4-2.5-0.6l-0.1,0c-3.5-0.8-6.9-1.3-10.3-1.8
			c-0.1,0-0.2,0-0.3,0c-0.7-0.1-1.4-0.2-2.1-0.2c-0.1,0-0.3,0-0.4,0c-0.7-0.1-1.3-0.1-2-0.2c-0.1,0-0.3,0-0.4,0
			c-0.7-0.1-1.4-0.1-2-0.2c-0.1,0-0.2,0-0.3,0c-0.7,0-1.3-0.1-2-0.1c-0.2,0-0.4,0-0.6,0c-0.6,0-1.2,0-1.8-0.1h-0.1l0,0
			c0.8,0.7,1.7,1.4,2.5,2.2C36.4,290,39.4,293.5,44.4,292.9z"/>
		<path class="st12" d="M48.4,342.6c2.3,1.5,4.6,2.9,7,4.2c8.5,4.5,17.8,7.3,27.1,7.1c0.4,0,0.5,0.6,0.2,0.9
			c5.2,0.4,10,0.1,14.1-0.4c-0.1-0.3,0.1-0.6,0.4-0.6c2-0.2,4-0.5,5.9-0.8c3.1-0.6,6.3-1.3,9.2-2.7c-0.5-0.2-1.1-0.3-1.6-0.5
			c-4.3,1.2-8.6,1.4-13,0.3c-5.1-1.3-9.3-4.6-14.1-6.7c-4.5-2-8.8-2-13.6-2.3c-4.7-0.3-8.7-2.1-11.9-6.4c-2.9-3.9-4.5-9.1-7.8-12.6
			c-6.5-6.8-16.3-6.6-22.8-13.9c-3.9-4.4-6.2-10.2-10.6-14c-2.2-1.9-4.4-3.9-6.7-5.6c-0.9-0.7-1.9-1.2-2.9-1.6l0,0
			c2.3,5.8,4.8,11.2,7.4,16.1v0c0.3,0.6,0.6,1.2,1,1.8l0,0c0.3,0.6,0.6,1.2,0.9,1.7l0.1,0.1c0.3,0.5,0.6,1.1,0.9,1.6l0.1,0.2
			c0.3,0.5,0.6,1,0.9,1.5c0,0.1,0.1,0.2,0.1,0.2c0.3,0.5,0.6,0.9,0.8,1.4c0.1,0.1,0.1,0.2,0.2,0.3c0.3,0.4,0.5,0.9,0.8,1.3
			c0.1,0.1,0.2,0.3,0.3,0.4c0.2,0.4,0.5,0.8,0.7,1.1c0.1,0.2,0.2,0.3,0.3,0.5c0.2,0.3,0.4,0.7,0.6,1c0.1,0.2,0.3,0.4,0.4,0.6
			c0.2,0.3,0.4,0.5,0.6,0.8c0.2,0.3,0.4,0.5,0.5,0.8c0.2,0.2,0.3,0.4,0.5,0.6c0.2,0.3,0.4,0.6,0.7,0.9c0.1,0.2,0.2,0.3,0.3,0.4
			c0.3,0.4,0.5,0.7,0.8,1.1c0.1,0.1,0.1,0.2,0.2,0.2c0.3,0.4,0.6,0.8,1,1.3l0,0c6.6,8.5,13.5,14.9,20.4,19.6
			C48.1,342.5,48.2,342.5,48.4,342.6z"/>
		<path class="st0" d="M63.7,251.5c-0.3,5.3-0.5,10.9,1.7,15.8c2.6,5.9,7.6,9.1,7.6,16.4c-0.1,5.4-0.2,10.9,1.7,16
			c1.2,3.2,3,5.7,5.1,7.9l0-0.1c0-0.2-0.1-0.3-0.1-0.5c0-0.1,0-0.2,0-0.3c0-0.1,0-0.2,0-0.4c0-0.2,0-0.4,0-0.5c0-0.3,0-0.6,0-0.9
			c0-0.2,0-0.4,0-0.6c0-0.5,0-1,0-1.5c0-0.2,0-0.4,0-0.6c0-0.3,0-0.6,0-0.9c0-0.2,0-0.4,0-0.7c0-0.4,0-0.8,0-1.3c0-0.3,0-0.5,0-0.8
			c0-0.3,0-0.5,0-0.8c0-0.2,0-0.5,0-0.7c0-0.2,0-0.3,0-0.4c-0.1-0.1-0.2-0.2-0.2-0.4c0.3-10.6,2.6-21,6.7-30.3
			c0.2-0.5,0.9-0.1,0.7,0.5c-0.1,0.2-0.1,0.3-0.2,0.5c0.4,2.3,0.8,4.4,1.3,6.4v0c1,3.8,2.1,7.2,3.4,10.3c-0.2-5.3-0.1-10.7,0.5-15.9
			c-2.7-3-5-5.8-6.3-10.3c-1.4-4.8-1.8-9.9-2.6-14.8c-0.4-2.6-1-5.1-1.8-7.5c-11-10.5-20.7-15.8-20.7-15.8c-0.1,0.6-0.1,1.1-0.2,1.7
			c1.7,3.6,3.8,6.9,4.3,11.2C65.3,238.5,64.2,245.1,63.7,251.5z"/>
		<path class="st2" d="M85.6,257.3c1.3,4.5,3.6,7.3,6.3,10.3c0.6-5.8,1.7-11.4,3.2-16.9c-0.1-0.1-0.1-0.2-0.2-0.3l0,0
			c-0.3-0.4-0.6-0.8-0.9-1.2l0,0c-0.5-0.7-1-1.3-1.5-1.9c-0.2-0.2-0.3-0.4-0.5-0.6c-0.3-0.4-0.7-0.9-1.1-1.3
			c-0.2-0.2-0.4-0.4-0.6-0.7c-0.3-0.4-0.7-0.8-1-1.2c-0.2-0.2-0.4-0.4-0.6-0.7c-0.3-0.4-0.7-0.8-1-1.1c-0.2-0.2-0.4-0.4-0.6-0.6
			c-0.3-0.4-0.7-0.7-1-1.1c-0.2-0.2-0.4-0.4-0.5-0.6c-0.3-0.4-0.7-0.7-1-1.1c-0.2-0.2-0.3-0.3-0.5-0.5c-0.4-0.4-0.8-0.8-1.1-1.1
			c-0.1-0.1-0.3-0.3-0.4-0.4c-0.5-0.4-0.9-0.9-1.3-1.3l-0.2-0.1l0,0c0.8,2.4,1.4,4.9,1.8,7.5C83.9,247.4,84.2,252.5,85.6,257.3z"/>
		<path class="st4" d="M62,288.3c0.7,4.3,1.6,8.5,2.8,12.6c3.7,12.7,10.9,25.6,21.7,30.5c-0.1-0.2-0.2-0.3-0.2-0.4
			c-1.3-2.5-2.3-5.1-3.2-7.8l0-0.1c-1.5-4.9-2.4-10.1-3.2-15.2h0c0-0.1,0-0.2,0-0.3c-2.1-2.2-3.9-4.8-5.1-7.9
			c-1.9-5.1-1.8-10.5-1.7-16c0.1-7.4-4.9-10.5-7.6-16.4c-2.2-4.8-2.1-10.5-1.7-15.8c0.4-6.4,1.6-13,0.9-19.5
			c-0.4-4.3-2.5-7.6-4.3-11.2l0,0v0c-2.8,29-1.9,50.9,1,67.3C61.6,287.9,62,287.9,62,288.3z"/>
		<path class="st5" d="M106.1,253.6c0.4,5.5-1,9.7-2.9,14.5c-1.7,4.4-2.6,8.8-2,13.7c0.7,5,2.7,9.4,4.8,13.7
			c2.4,5.1,4.2,9.6,4.1,15.6c0,5.5,0.9,9.7,3.7,14.1l0.8,1.1c1.6-7.8,4.4-15.1,8.6-21.6c0.2-0.3,0.6-0.1,0.6,0.3
			c1.6-2.7,3.2-5.2,4.7-7.6c1.3-3.4,2.3-7,2.3-10.9c-0.1-5.6-2.1-10.4-4-15.4c-2.6-6.6,0.8-12,1.1-18.7c0.3-5.5-1.8-10.5-4-15.2
			c-2.6-5.6-6-11-7.6-17.2c-1.1-4.1-0.4-8.2-0.1-12.3c-0.2-0.5-0.5-0.9-0.7-1.4c0,0-6.9,9.7-13.3,24.7c0.1,2.6,0.5,5.2,1,7.8
			C104.2,243.8,105.7,248.6,106.1,253.6z"/>
		<path class="st4" d="M96,250.7c-3.1,10.8-4.3,22.3-3.7,33.8c0,0.2-0.1,0.4-0.2,0.4c3.1,7,7.1,12.9,11.5,20.1
			c0.1-0.2,0.4-0.4,0.6-0.1c2.3,3.5,4.2,7.4,5.7,11.5c1.8,5,3.1,10.3,3.8,15.7c0.3-1.9,0.6-3.8,1-5.7l-0.8-1.1
			c-2.8-4.4-3.7-8.6-3.7-14.1c0-5.9-1.8-10.5-4.1-15.6c-2.1-4.3-4.1-8.8-4.8-13.7c-0.7-4.9,0.3-9.3,2-13.7c1.8-4.9,3.3-9.1,2.9-14.5
			c-0.4-5-1.8-9.8-2.9-14.7c-0.5-2.6-0.9-5.2-1-7.8l0,0l-0.1,0.2c-0.3,0.6-0.5,1.2-0.8,1.9c-0.1,0.1-0.1,0.2-0.2,0.4
			c-0.2,0.6-0.5,1.2-0.7,1.8c-0.1,0.2-0.1,0.3-0.2,0.4c-0.2,0.6-0.5,1.2-0.7,1.8c-0.1,0.2-0.1,0.3-0.2,0.5c-0.2,0.6-0.5,1.3-0.7,1.9
			c-0.1,0.1-0.1,0.3-0.2,0.4c-0.2,0.7-0.5,1.3-0.7,2c0,0.1-0.1,0.2-0.1,0.3c-0.2,0.8-0.5,1.5-0.7,2.3l0,0.1c-0.5,1.7-1,3.4-1.5,5.1
			C95.9,250.2,96.1,250.4,96,250.7z"/>
		<path class="st2" d="M116.3,220.2c1.7,6.2,5,11.6,7.6,17.2c2.2,4.7,4.2,9.7,4,15.2c-0.3,6.7-3.8,12.1-1.1,18.7c2,4.9,4,9.8,4,15.4
			c0,3.9-1,7.5-2.3,10.9c4.5-7.4,8.4-14.2,10.9-23.8c-0.1,0-0.2-0.1-0.3-0.3c-1.4-8.1-3.3-16.2-5.6-24c-0.1-0.2,0-0.3,0.1-0.4
			c-3.9-12-9.5-25.7-17.3-41.1v0l0,0C115.9,212,115.2,216,116.3,220.2z"/>
		<path class="st6" d="M120.2,344.1c3.2-2.3,6.2-4,8-8.1c1.9-4.5,1.9-8.9,5.4-12.3c2.8-2.8,5.5-5.2,6.8-9.4c1.4-4.5,1-9.1,0.7-13.8
			c-0.5-6,1.6-9.7,3.7-14.9c0.4-1,0.8-2,1.1-3.1c0.1,0.2,0.1,0.4,0.2,0.7c-0.2-1.3-0.5-2.6-0.9-3.9c0-0.1-0.1-0.2-0.1-0.3
			c-1-4.2-2.4-8.3-4.1-12.1c-0.3,2-0.7,3.8-1.1,5.6c0.1,0.3,0.1,0.6,0.1,0.8c0.1,0.4-0.2,0.6-0.4,0.6c-0.1,1.2-0.3,2.5-0.6,3.7
			c-1,4.8-3.4,8.7-4.9,13.2c-2.7,8,0.1,17.3-4.7,24.4c-2,3-4.8,5.2-6.6,8.4c-1.7,3-2.7,6.5-4.2,9.6c-1,2.1-2.5,3.7-4.2,4.9
			c0.2,3.2,0.3,6.4,0.2,9.6c0,0.3-0.2,0.5-0.5,0.4c0,0.7-0.1,1.2-0.1,1.6c0.7-0.2,1.4-0.4,2-0.6
			C116.9,347.1,118.3,345.4,120.2,344.1z"/>
		<path class="st7" d="M114.1,335.4c0.1,0.8,0.1,1.6,0.2,2.4c1.7-1.2,3.2-2.8,4.2-4.9c1.5-3.1,2.5-6.6,4.2-9.6
			c1.8-3.2,4.6-5.4,6.6-8.4c4.7-7.1,1.9-16.4,4.7-24.4c1.5-4.5,3.9-8.4,4.9-13.2c0.3-1.2,0.4-2.5,0.6-3.7l-0.1,0
			c-2.5,9.7-6.3,16.5-10.9,23.8c-1.5,2.4-3,4.9-4.7,7.6c0,0.1,0,0.3-0.1,0.4C118.2,314.2,115.1,324.7,114.1,335.4z"/>
		<path class="st8" d="M148,296.6c-0.2,0.2-0.6,0.1-0.6-0.4c-0.1-4.4-0.6-8.9-1.4-13.2c-0.1-0.2-0.1-0.5-0.2-0.7
			c-0.3,1.1-0.7,2.1-1.1,3.1c-2.1,5.2-4.2,8.9-3.7,14.9c0.3,4.7,0.7,9.3-0.7,13.8c-1.3,4.2-4,6.6-6.8,9.4c-3.4,3.4-3.5,7.9-5.4,12.3
			c-1.8,4.2-4.8,5.9-8,8.1c-1.9,1.3-3.3,3-4.2,5c3.6-1,7.1-2.4,10.5-4.2c3.2-1.8,6.3-4.1,9-6.9c2.6-2.7,4.7-5.9,6.4-9.5
			c3.3-6.6,4.8-13.9,5.9-21.4c0-0.3,0.2-0.4,0.4-0.3C148.3,303.3,148.2,299.9,148,296.6z"/>
		<path class="st2" d="M113.7,347.5c0.1-1.6,0.1-3.3,0-4.9c0-1.5-0.1-3.1-0.2-4.6c-1.8-1.2-3.4-2.8-4.5-5c-1.5-3.1-2.5-6.6-4.2-9.6
			c-1.8-3.2-4.6-5.4-6.6-8.4c-4.7-7.1-1.9-16.4-4.7-24.4c-1.5-4.5-3.9-8.4-4.9-13.2c-0.3-1.4-0.5-2.8-0.6-4.1
			c-0.5-2-0.9-4.1-1.3-6.4c-2.2,5-3.8,10.2-4.9,15.6c0.3,1,0.6,2,1,2.9c2.1,5.2,4.2,8.9,3.7,14.9c-0.3,4.7-0.7,9.3,0.7,13.8
			c1.3,4.2,4,6.6,6.8,9.4c3.4,3.4,3.5,7.9,5.4,12.3c1.8,4.2,4.8,5.9,8,8.1c1.9,1.3,3.3,3,4.2,5c0.7,0.2,1.5,0.4,2.2,0.6l0.1,0
			c0-0.4,0.1-1,0.1-1.6C113.8,347.9,113.7,347.8,113.7,347.5z"/>
		<path class="st9" d="M93.6,290.6c2.7,8-0.1,17.3,4.7,24.4c2,3,4.8,5.2,6.6,8.4c1.7,3,2.7,6.5,4.2,9.6c1.1,2.2,2.7,3.8,4.5,5
			c-0.1-0.8-0.1-1.6-0.2-2.3l0-0.1c-1.1-10.8-4.1-21.4-9.7-30c-0.1-0.2-0.1-0.4,0-0.6c-4.3-7.2-8.3-13.1-11.5-20.1
			c-0.2,0.1-0.5-0.1-0.6-0.4c0-0.3,0-0.6,0-0.9c-1.3-3.1-2.5-6.5-3.4-10.3v0c0.1,1.4,0.3,2.8,0.6,4.1
			C89.7,282.2,92,286.1,93.6,290.6z"/>
		<path class="st10" d="M107.4,344c-3.2-2.3-6.2-4-8-8.1c-1.9-4.5-1.9-8.9-5.4-12.3c-2.8-2.8-5.5-5.2-6.8-9.4
			c-1.4-4.5-1-9.1-0.7-13.8c0.5-6-1.6-9.7-3.7-14.9c-0.4-0.9-0.7-1.9-1-2.9c-0.9,4.5-1.4,9.1-1.5,13.7c0,0.4-0.3,0.5-0.5,0.4
			c0,0.2,0,0.3,0,0.4c0,0.2,0,0.5,0,0.7c0,0.3,0,0.5,0,0.8c0,0.3,0,0.5,0,0.8c0,0.4,0,0.8,0,1.3c0,0.2,0,0.4,0,0.7
			c0,0.3,0,0.6,0,0.9c0,0.2,0,0.4,0,0.6c0,0.5,0,1,0,1.5c0,0.2,0,0.4,0,0.6c0,0.3,0,0.6,0,0.9c0,0.2,0,0.4,0,0.5c0,0.1,0,0.2,0,0.4
			c0.1-0.4,0.6-0.5,0.7,0c0.7,4.6,1.5,9.2,2.7,13.6c1,3.9,2.4,7.7,4.3,11.1c0.6,1.1,1.3,2.2,2.1,3.2c0.1,0.1,0.1,0.2,0.2,0.2
			c1.4,1.9,3,3.6,4.7,5.1c1.7,1.5,3.5,2.8,5.3,3.9l0.1,0.1c3.7,2.3,7.7,3.8,11.7,5C110.6,347,109.3,345.4,107.4,344z"/>
		<path class="st11" d="M91.5,283.5c0,0.3,0,0.6,0,0.9c0,0.4,0.3,0.5,0.6,0.4c0.1-0.1,0.2-0.2,0.2-0.4c-0.6-11.4,0.6-22.9,3.7-33.8
			c0.1-0.3-0.1-0.5-0.3-0.6l0,0c-0.2,0-0.4,0.1-0.4,0.3l-0.1,0.2l0,0c-1.5,5.5-2.6,11.2-3.2,16.9C91.4,272.9,91.2,278.2,91.5,283.5z
			"/>
		<path class="st11" d="M48,343.4c8.2,5.6,17.3,9.5,26.6,10.9c2.6,0.4,5.3,0.6,7.9,0.5c0.1,0,0.1,0,0.2-0.1c0.3-0.2,0.2-0.9-0.2-0.9
			c-9.3,0.2-18.6-2.6-27.1-7.1c-2.4-1.3-4.7-2.7-7-4.2c-0.2-0.1-0.3-0.1-0.4,0c-0.2,0.1-0.2,0.4-0.1,0.6
			C47.9,343.3,47.9,343.4,48,343.4z"/>
		<path class="st11" d="M103.6,305.6c5.6,8.6,8.6,19.2,9.7,30l0,0.1c0.1,0.8,0.1,1.6,0.2,2.3c0.1,1.5,0.2,3.1,0.2,4.6
			c0,1.6,0,3.3,0,4.9c0,0.3,0.2,0.4,0.3,0.4c0.2,0,0.4-0.1,0.5-0.4c0.1-3.2,0-6.4-0.2-9.6c-0.1-0.8-0.1-1.6-0.2-2.4
			c1-10.8,4.1-21.3,9.7-29.9c0.1-0.1,0.1-0.3,0.1-0.4c-0.1-0.3-0.4-0.6-0.6-0.3c-4.2,6.4-7,13.8-8.6,21.6c-0.4,1.9-0.7,3.8-1,5.7
			c-0.7-5.4-2-10.7-3.8-15.7c-1.5-4.1-3.4-8-5.7-11.5c-0.2-0.3-0.5-0.2-0.6,0.1C103.5,305.1,103.5,305.4,103.6,305.6z"/>
		<path class="st11" d="M80.3,296.2c0.1-4.6,0.6-9.2,1.5-13.7c1.1-5.4,2.7-10.7,4.9-15.6c0.1-0.2,0.1-0.3,0.2-0.5
			c0.2-0.5-0.4-1-0.7-0.5c-4.2,9.3-6.5,19.8-6.7,30.3c0,0.2,0.1,0.4,0.2,0.4l0,0C80,296.8,80.3,296.6,80.3,296.2z"/>
		<path class="st11" d="M114,350.5L114,350.5c3.6,1.8,7.5,2.7,11.3,3.3c2,0.3,4.1,0.7,6.1,0.8c0.2,0,0.3-0.1,0.3-0.2
			c0.1-0.3,0-0.7-0.3-0.7c-2-0.2-4.1-0.4-6.1-0.8c-3.4-0.6-6.7-1.4-9.9-2.8c0.6-0.2,1.1-0.3,1.6-0.5c6.4-1.9,12.5-4.9,17.7-9.9
			c1.9-1.8,3.6-3.9,5.1-6.2l0,0c0.2-0.3,0.3-0.6,0.5-0.8c2.8-1.1,5.4-2.8,7.7-4.8c0.1-0.1,0.2-0.2,0.3-0.2
			c7.1-6.2,12.1-15.9,15.3-25.5c0.4-1.1,0.7-2.2,1-3.4c0.9-3.1,1.6-6.3,2.1-9.5c0-0.1,0-0.2,0-0.2v0c0-0.2-0.2-0.3-0.3-0.3l0,0
			c-0.2-0.1-0.4,0-0.4,0.3c-1.2,7.4-3.4,14.6-6.5,21.2c-2.9,6-6.4,11.8-11,16.1c-2.2,2.1-4.7,3.8-7.4,5c1.9-3.3,3.4-6.9,4.5-10.6
			c1.3-4.4,2.1-8.9,2.8-13.5l0-0.1c0-0.3-0.1-0.5-0.3-0.6c-0.2,0-0.4,0-0.4,0.3c-1.1,7.5-2.6,14.8-5.9,21.4
			c-1.7,3.5-3.8,6.8-6.4,9.5c-2.7,2.8-5.7,5.1-9,6.9c-3.4,1.9-6.9,3.2-10.5,4.2c-0.7,0.2-1.4,0.4-2,0.6l-0.1,0
			c-0.7-0.2-1.5-0.4-2.2-0.6c-4-1.2-8-2.8-11.7-5l-0.1-0.1c-1.9-1.1-3.6-2.4-5.3-3.9c-1.7-1.5-3.3-3.2-4.7-5.1
			c-0.1-0.1-0.1-0.2-0.2-0.2c-0.7-1-1.4-2.1-2.1-3.2c-1.9-3.4-3.3-7.2-4.3-11.1c-1.2-4.5-1.9-9-2.7-13.6c-0.1-0.5-0.6-0.4-0.7,0l0,0
			c0,0.1,0,0.2,0,0.3c0,0.2,0.1,0.3,0.1,0.5v0c0,0.1,0,0.2,0.1,0.4c0.8,5.1,1.7,10.3,3.2,15.2l0,0.1c0.8,2.7,1.9,5.3,3.2,7.8
			c0.1,0.2,0.2,0.3,0.2,0.4c-10.9-5-18-17.8-21.7-30.5c-1.2-4.1-2.1-8.3-2.8-12.6c-0.1-0.4-0.4-0.4-0.6-0.2l0,0
			c-0.1,0.1-0.1,0.2-0.1,0.4c0,0.2,0.1,0.5,0.1,0.7v0c0.6,3.3,1.3,6.6,2.1,9.9c2.9,10.9,7.7,21.2,15.3,28.2c1.4,1.3,2.9,2.4,4.5,3.4
			l0,0c1.3,0.8,2.6,1.5,3.9,2c0.1,0.2,0.2,0.4,0.4,0.6c3.6,5.7,8.6,9.9,14.1,12.7c2.9,1.5,5.9,2.7,9,3.6c0.5,0.2,1.1,0.3,1.6,0.5
			c-2.9,1.4-6.1,2.1-9.2,2.7c-2,0.4-4,0.7-5.9,0.8c-0.3,0-0.4,0.4-0.4,0.6c0,0.2,0.2,0.3,0.4,0.3c2.1-0.2,4.1-0.5,6.2-0.9
			c3.5-0.7,7.1-1.5,10.3-3.2h0.1h0l0,0l0,0h0.1L114,350.5L114,350.5z"/>
		<path class="st11" d="M179.3,342.6c-8.1,5.5-17.1,9.4-26.4,10.8c-2.6,0.4-5.2,0.6-7.8,0.5c-0.4,0-0.5,0.7-0.2,0.9
			c0.1,0,0.1,0.1,0.2,0.1c9.4,0.2,18.8-2.6,27.4-7.2c2.4-1.3,4.8-2.7,7.1-4.3c0.1-0.1,0.1-0.1,0.2-0.2c0.1-0.1,0.1-0.3,0-0.4
			C179.7,342.6,179.5,342.5,179.3,342.6z"/>
		<path class="st11" d="M145.1,279.1c0.3,1.3,0.6,2.6,0.9,3.9c0.8,4.3,1.3,8.7,1.4,13.2c0,0.4,0.4,0.6,0.6,0.4
			c0.1-0.1,0.2-0.2,0.1-0.4c-0.3-10.6-2.6-21-6.7-30.3c-0.2-0.5-0.9-0.1-0.7,0.5c0.1,0.1,0.1,0.2,0.1,0.3c1.7,3.9,3.1,7.9,4.1,12.1
			C145.1,278.9,145.1,279,145.1,279.1z"/>
		<path class="st11" d="M133.5,249.4c2.3,7.8,4.3,15.9,5.6,24c0,0.2,0.1,0.3,0.3,0.3l0.1,0c0.2,0,0.5-0.2,0.4-0.6
			c-0.1-0.3-0.1-0.6-0.1-0.8c-0.4-2.5-0.9-4.9-1.4-7.4c-1.1-5.3-2.5-10.6-4-15.8c0-0.1-0.1-0.2-0.2-0.2l0,0
			c-0.2-0.1-0.4-0.1-0.5,0.1l0,0C133.5,249.1,133.5,249.2,133.5,249.4z"/>
	</g>
	<text transform="matrix(0.9286 0 0 1 231.5682 314.4468)" class="st13 st14 st15">Worthmn</text>
	<text transform="matrix(0.9286 0 0 1 238.5614 377.1187)" class="st16 st17">Understand • Heal • Grow</text>
</g>
</svg>
