<?xml version="1.0" encoding="utf-8"?>
<!-- Generator: Adobe Illustrator 24.3.0, SVG Export Plug-In . SVG Version: 6.00 Build 0)  -->
<svg version="1.1" id="Layer_1" xmlns="http://www.w3.org/2000/svg" xmlns:xlink="http://www.w3.org/1999/xlink" x="0px" y="0px"
	 viewBox="0 0 833 188" style="enable-background:new 0 0 833 188;" xml:space="preserve">
<style type="text/css">
	.st0{fill:#E681B4;}
	.st1{fill:#D870AB;}
	.st2{fill:#F391B9;}
	.st3{fill:#BA4C99;}
	.st4{fill:#D069A9;}
	.st5{fill:#F2A4C8;}
	.st6{fill:#F39FC5;}
	.st7{fill:#F7BAD5;}
	.st8{fill:#DC7EB3;}
	.st9{fill:#F6AACB;}
	.st10{fill:#C95DA3;}
	.st11{fill:#802369;}
	.st12{fill:none;}
	.st13{fill:#6B4874;}
	.st14{font-family:'Rockwell-ExtraBold';}
	.st15{font-size:116.6696px;}
	.st16{font-family:'ArialMT';}
	.st17{font-size:50.0012px;}
</style>
<g>
	<g>
		<g>
			<path class="st0" d="M190.02,164.18c-0.4,0.2-0.8,0.5-1.2,0.7C189.22,164.68,189.62,164.48,190.02,164.18z"/>
			<path class="st0" d="M171.72,172.18c-0.5,0.1-1.1,0.3-1.6,0.4C170.62,172.48,171.12,172.28,171.72,172.18z"/>
			<path class="st0" d="M173.72,171.68c-0.6,0.2-1.2,0.3-1.8,0.5C172.52,171.98,173.12,171.78,173.72,171.68z"/>
			<path class="st0" d="M185.82,166.68c-0.4,0.2-0.7,0.4-1.1,0.6C185.02,167.08,185.42,166.88,185.82,166.68z"/>
			<path class="st0" d="M184.32,167.48c-0.5,0.2-0.9,0.5-1.4,0.7C183.42,167.98,183.82,167.68,184.32,167.48z"/>
			<path class="st0" d="M175.62,171.08c-0.5,0.2-1,0.3-1.5,0.5C174.62,171.38,175.12,171.18,175.62,171.08z"/>
			<path class="st0" d="M181.02,168.98c-0.5,0.2-1,0.4-1.5,0.6C180.02,169.38,180.52,169.18,181.02,168.98z"/>
			<path class="st0" d="M182.72,168.28c-0.4,0.2-0.8,0.4-1.3,0.6C181.82,168.68,182.32,168.48,182.72,168.28z"/>
			<path class="st0" d="M177.52,170.38c-0.5,0.2-1.1,0.4-1.6,0.6C176.42,170.78,177.02,170.58,177.52,170.38z"/>
			<path class="st0" d="M179.32,169.68c-0.5,0.2-0.9,0.3-1.4,0.5C178.42,170.08,178.82,169.88,179.32,169.68z"/>
			<path class="st0" d="M187.32,165.88c-0.4,0.2-0.8,0.5-1.3,0.7C186.42,166.38,186.92,166.08,187.32,165.88z"/>
			<path class="st0" d="M129.82,168.88c-0.3-0.1-0.5-0.3-0.8-0.4C129.32,168.68,129.62,168.78,129.82,168.88z"/>
			<path class="st0" d="M123.12,164.38c-0.6-0.5-1.3-1.1-1.9-1.6C121.92,163.38,122.52,163.88,123.12,164.38z"/>
			<path class="st0" d="M188.62,165.08c-0.3,0.2-0.7,0.4-1,0.6C188.02,165.48,188.32,165.28,188.62,165.08z"/>
			<path class="st0" d="M121.02,162.58c-0.2-0.2-0.5-0.4-0.7-0.6C120.62,162.18,120.82,162.38,121.02,162.58z"/>
			<path class="st0" d="M119.22,160.88c-0.2-0.2-0.5-0.5-0.7-0.7C118.82,160.48,119.02,160.68,119.22,160.88z"/>
			<path class="st0" d="M120.12,161.78c-0.2-0.2-0.4-0.4-0.6-0.6C119.72,161.38,119.92,161.58,120.12,161.78z"/>
			<path class="st0" d="M115.22,156.48c-0.7-0.9-1.4-1.8-2-2.6C113.82,154.68,114.52,155.58,115.22,156.48z"/>
			<path class="st0" d="M116.72,158.18c-0.2-0.2-0.4-0.5-0.6-0.7C116.22,157.78,116.52,157.98,116.72,158.18z"/>
			<path class="st0" d="M118.42,160.08c-0.6-0.6-1.1-1.2-1.6-1.7C117.32,158.98,117.82,159.48,118.42,160.08z"/>
			<path class="st0" d="M115.92,157.28c-0.2-0.2-0.4-0.5-0.6-0.7C115.52,156.88,115.72,157.08,115.92,157.28z"/>
			<path class="st0" d="M113.12,153.88c-0.2-0.3-0.4-0.6-0.6-0.8C112.72,153.28,112.92,153.58,113.12,153.88z"/>
			<path class="st0" d="M127.62,167.58c-0.4-0.2-0.7-0.5-1.1-0.7C126.92,167.18,127.22,167.38,127.62,167.58z"/>
			<path class="st0" d="M191.22,163.38c-0.3,0.2-0.6,0.4-1,0.7C190.62,163.78,190.92,163.58,191.22,163.38z"/>
			<path class="st0" d="M128.72,168.28c-0.3-0.2-0.6-0.4-0.9-0.5C128.12,167.88,128.42,168.08,128.72,168.28z"/>
			<path class="st0" d="M126.32,166.68c-0.3-0.2-0.5-0.4-0.8-0.5C125.72,166.38,126.02,166.58,126.32,166.68z"/>
			<path class="st0" d="M124.12,165.18c-0.2-0.2-0.5-0.4-0.7-0.5C123.62,164.78,123.92,164.98,124.12,165.18z"/>
			<path class="st0" d="M125.12,165.88c-0.2-0.2-0.5-0.3-0.7-0.5C124.72,165.58,124.92,165.78,125.12,165.88z"/>
			<path class="st0" d="M169.02,134.68c-2.2,1.5-4.5,2.9-6.8,4.1c-8.2,4.3-17.2,7-26.2,6.8c-0.1,0-0.1,0-0.2-0.1
				c-4.6,0.3-8.9,0.1-12.6-0.3c-0.1,0.1-0.2,0.2-0.3,0.2c-2-0.1-3.9-0.4-5.9-0.8c-3.7-0.6-7.4-1.5-10.8-3.2l0,0l0,0h-0.1
				c0.3,0.8,2.4,5.7,6.5,11.5c-0.2-0.3-0.4-0.6-0.6-0.8c4.6,0,9.2,1.2,13.6,2.6c8.9,2.8,17.5,9.7,27,7.6c8.4-1.9,14.9-9.5,23.8-9.4
				c7.4,0.1,16.6,4.1,24.1,2.4c-0.2,0.2-0.4,0.4-0.6,0.7c2.6-2.8,3.8-4.8,3.8-4.8s-11.5-4.3-34.5-16.8
				C169.12,134.58,169.12,134.58,169.02,134.68z"/>
			<path class="st0" d="M158.12,174.28c-0.7,0-1.4,0.1-2.1,0.1C156.72,174.28,157.42,174.28,158.12,174.28z"/>
			<path class="st0" d="M155.42,174.38c-0.8,0-1.5,0-2.3,0C153.92,174.38,154.72,174.38,155.42,174.38z"/>
			<path class="st0" d="M194.72,160.78c-0.3,0.2-0.6,0.5-1,0.8C194.02,161.28,194.42,161.08,194.72,160.78z"/>
			<path class="st0" d="M199.12,156.78c-0.2,0.2-0.5,0.5-0.7,0.7C198.62,157.28,198.92,157.08,199.12,156.78z"/>
			<path class="st0" d="M153.02,174.38c-0.8,0-1.5,0-2.3-0.1C151.52,174.38,152.32,174.38,153.02,174.38z"/>
			<path class="st0" d="M197.52,158.38c-0.2,0.2-0.5,0.5-0.7,0.7C197.02,158.78,197.22,158.58,197.52,158.38z"/>
			<path class="st0" d="M198.32,157.58c-0.2,0.2-0.5,0.5-0.8,0.7C197.82,158.08,198.12,157.78,198.32,157.58z"/>
			<path class="st0" d="M150.12,174.28c-0.8,0-1.6-0.1-2.5-0.1C148.52,174.18,149.32,174.28,150.12,174.28z"/>
			<path class="st0" d="M196.62,159.18c-0.3,0.2-0.6,0.5-0.9,0.8C196.12,159.68,196.42,159.38,196.62,159.18z"/>
			<path class="st0" d="M195.72,159.98c-0.3,0.2-0.5,0.5-0.8,0.7C195.12,160.48,195.42,160.18,195.72,159.98z"/>
			<path class="st0" d="M147.72,174.18c-0.5,0-1-0.1-1.5-0.1C146.62,174.08,147.12,174.08,147.72,174.18z"/>
			<path class="st0" d="M136.52,171.88c-0.3-0.1-0.6-0.2-0.9-0.3C135.92,171.68,136.22,171.78,136.52,171.88z"/>
			<path class="st0" d="M137.92,172.38c-0.3-0.1-0.6-0.2-0.9-0.3C137.32,172.18,137.62,172.28,137.92,172.38z"/>
			<path class="st0" d="M192.52,162.48c-0.3,0.2-0.7,0.5-1.1,0.8C191.82,162.98,192.12,162.78,192.52,162.48z"/>
			<path class="st0" d="M142.52,173.48c-0.3-0.1-0.7-0.1-1-0.2C141.82,173.38,142.22,173.48,142.52,173.48z"/>
			<path class="st0" d="M145.62,173.98c-0.3,0-0.7-0.1-1-0.1C144.92,173.88,145.32,173.88,145.62,173.98z"/>
			<path class="st0" d="M144.02,173.78c-0.3-0.1-0.6-0.1-1-0.2C143.42,173.68,143.72,173.68,144.02,173.78z"/>
			<path class="st0" d="M141.12,173.18c-0.5-0.1-0.9-0.2-1.4-0.3C140.22,172.98,140.62,173.08,141.12,173.18z"/>
			<path class="st0" d="M133.92,170.88c-0.4-0.2-0.8-0.4-1.2-0.5C133.12,170.58,133.52,170.68,133.92,170.88z"/>
			<path class="st0" d="M193.62,161.68c-0.3,0.2-0.6,0.4-0.9,0.7C193.02,162.08,193.32,161.88,193.62,161.68z"/>
			<path class="st0" d="M169.62,172.68c-0.6,0.1-1.3,0.3-1.9,0.4C168.32,172.98,168.92,172.78,169.62,172.68z"/>
			<path class="st0" d="M135.22,171.38c-0.3-0.1-0.6-0.2-0.9-0.4C134.52,171.18,134.82,171.28,135.22,171.38z"/>
			<path class="st0" d="M131.02,169.58c-0.3-0.1-0.5-0.3-0.8-0.4C130.52,169.28,130.82,169.38,131.02,169.58z"/>
			<path class="st0" d="M199.82,156.08c-0.2,0.2-0.4,0.5-0.7,0.7C199.32,156.58,199.62,156.28,199.82,156.08z"/>
			<path class="st0" d="M167.42,173.08c-0.6,0.1-1.2,0.2-1.8,0.3C166.32,173.28,166.92,173.18,167.42,173.08z"/>
			<path class="st0" d="M132.42,170.18c-0.3-0.1-0.6-0.3-0.9-0.4C131.82,169.88,132.12,170.08,132.42,170.18z"/>
			<path class="st0" d="M139.52,172.78c-0.4-0.1-0.8-0.2-1.1-0.3C138.72,172.58,139.12,172.68,139.52,172.78z"/>
			<path class="st0" d="M162.92,173.78c-0.6,0.1-1.3,0.2-2,0.2C161.62,173.98,162.32,173.88,162.92,173.78z"/>
			<path class="st0" d="M165.12,173.48c-0.7,0.1-1.3,0.2-2,0.3C163.82,173.68,164.52,173.58,165.12,173.48z"/>
			<path class="st0" d="M160.42,174.08c-0.7,0.1-1.4,0.1-2.2,0.2C159.02,174.18,159.72,174.18,160.42,174.08z"/>
			<path class="st1" d="M201.02,96.08c-0.3,0.6-0.6,1.1-0.9,1.6C200.42,97.18,200.72,96.58,201.02,96.08z"/>
			<path class="st1" d="M196.22,104.58c-0.2,0.4-0.4,0.7-0.7,1.1C195.72,105.28,195.92,104.98,196.22,104.58z"/>
			<path class="st1" d="M201.92,94.28c-0.3,0.6-0.6,1.2-0.9,1.7C201.32,95.38,201.62,94.88,201.92,94.28z"/>
			<path class="st1" d="M208.12,80.58c-1.7,4.2-3.4,8.1-5.2,11.8C204.62,88.68,206.42,84.78,208.12,80.58z"/>
			<path class="st1" d="M202.82,92.38c-0.3,0.6-0.6,1.2-0.9,1.8C202.22,93.58,202.52,92.98,202.82,92.38z"/>
			<path class="st1" d="M197.22,102.98c-0.2,0.4-0.5,0.8-0.7,1.2C196.72,103.78,196.92,103.38,197.22,102.98z"/>
			<path class="st1" d="M199.12,99.58c-0.3,0.5-0.5,1-0.8,1.4C198.52,100.58,198.82,100.08,199.12,99.58z"/>
			<path class="st1" d="M198.12,101.28c-0.3,0.4-0.5,0.9-0.8,1.3C197.62,102.18,197.92,101.68,198.12,101.28z"/>
			<path class="st1" d="M200.02,97.88c-0.3,0.5-0.6,1-0.9,1.6C199.52,98.88,199.82,98.38,200.02,97.88z"/>
			<path class="st1" d="M162.32,81.18c0.8-0.2,1.6-0.4,2.4-0.6C163.82,80.78,163.02,80.98,162.32,81.18z"/>
			<path class="st1" d="M164.72,80.58c3.3-0.7,6.6-1.3,9.8-1.7C171.42,79.28,168.12,79.88,164.72,80.58z"/>
			<path class="st1" d="M159.72,81.88c0.8-0.2,1.6-0.4,2.4-0.6C161.32,81.38,160.52,81.68,159.72,81.88z"/>
			<path class="st1" d="M159.52,81.88c-1,0.3-1.9,0.6-2.9,0.9l0,0C157.62,82.48,158.62,82.18,159.52,81.88z"/>
			<path class="st1" d="M179.62,78.38c0.7-0.1,1.3-0.1,1.9-0.1C180.92,78.28,180.22,78.38,179.62,78.38z"/>
			<path class="st1" d="M174.92,78.88c0.7-0.1,1.4-0.2,2-0.2C176.22,78.68,175.52,78.78,174.92,78.88z"/>
			<path class="st1" d="M177.32,78.58c0.6-0.1,1.3-0.1,1.9-0.2C178.52,78.48,177.92,78.58,177.32,78.58z"/>
			<path class="st1" d="M192.02,110.88c-0.1,0.1-0.2,0.2-0.3,0.4C191.92,111.18,191.92,110.98,192.02,110.88z"/>
			<path class="st1" d="M193.12,109.38c-0.1,0.2-0.3,0.4-0.4,0.6C192.82,109.78,192.92,109.58,193.12,109.38z"/>
			<path class="st1" d="M195.12,106.18c-0.2,0.3-0.4,0.6-0.6,0.9C194.82,106.78,194.92,106.48,195.12,106.18z"/>
			<path class="st1" d="M194.12,107.78c-0.2,0.2-0.3,0.5-0.5,0.8C193.82,108.28,194.02,108.08,194.12,107.78z"/>
			<path class="st1" d="M190.92,112.38l-0.1,0.2L190.92,112.38z"/>
			<path class="st1" d="M183.82,80.18c-3.4,3.4-6.3,6.8-11.1,6.1c-4.4-0.6-8.7-1.6-12.8,1c-1.9,1.2-3.7,2.9-5.3,4.8
				c-0.3,1.1-0.6,2.2-1,3.2c-3.1,9.2-7.9,18.5-14.7,24.4c-0.9,0.8-1.9,1.6-2.8,2.3l0,0c-0.6,0.5-1.3,0.9-1.9,1.3l0,0
				c-0.3,0.2-0.6,0.4-1,0.6l0,0c-0.6,0.4-1.3,0.7-1.9,1h-0.1c-0.2,0.1-0.3,0.2-0.5,0.2c-1.4,2.2-3,4.2-4.8,5.9
				c-4.9,4.8-10.9,7.6-16.9,9.5c4.1,1.2,8.3,1.4,12.6,0.3c4.9-1.3,8.9-4.4,13.5-6.5c4.3-2,8.5-1.9,13-2.2c4.6-0.3,8.3-2,11.4-6.1
				c2.8-3.7,4.3-8.7,7.4-12.1c6.3-6.6,15.6-6.3,21.8-13.3c3.7-4.2,6-9.7,10.2-13.4c2.1-1.8,4.2-3.7,6.4-5.3c0.9-0.7,1.8-1.1,2.8-1.5
				c0.2-0.4,0.3-0.7,0.5-1.1c0,0-11.4-2.2-26.7-1.2c1.5-0.1,3-0.2,4.4-0.2C185.42,78.68,184.62,79.38,183.82,80.18z"/>
			<path class="st2" d="M156.62,82.98c-0.5,3.1-1.2,6.1-2,9.1c1.6-1.9,3.4-3.5,5.3-4.8c4.2-2.6,8.4-1.6,12.8-1
				c4.8,0.6,7.6-2.8,11.1-6.1c0.8-0.8,1.5-1.5,2.3-2.1c-1.4,0-2.9,0.1-4.4,0.2c-0.1,0-0.2,0-0.3,0c-0.6,0-1.3,0.1-1.9,0.1
				c-0.1,0-0.3,0-0.4,0c-0.6,0.1-1.3,0.1-1.9,0.2c-0.1,0-0.3,0-0.4,0c-0.7,0.1-1.3,0.1-2,0.2c-0.1,0-0.2,0-0.3,0
				c-3.2,0.4-6.5,0.9-9.8,1.7h-0.1c-0.8,0.2-1.6,0.4-2.4,0.6c-0.1,0-0.1,0-0.2,0.1c-0.8,0.2-1.6,0.4-2.4,0.6h-0.1
				c-1,0.3-1.9,0.6-2.9,0.9C156.62,82.78,156.62,82.88,156.62,82.98z"/>
			<path class="st3" d="M190.82,112.58l0.1-0.2c0.3-0.4,0.5-0.8,0.8-1.1c0.1-0.1,0.2-0.2,0.3-0.4c0.2-0.3,0.5-0.6,0.7-1
				c0.1-0.2,0.3-0.4,0.4-0.6c0.2-0.3,0.4-0.5,0.5-0.8c0.2-0.2,0.3-0.5,0.5-0.8c0.1-0.2,0.3-0.4,0.4-0.7c0.2-0.3,0.4-0.6,0.6-0.9
				c0.1-0.2,0.2-0.4,0.3-0.6c0.2-0.3,0.4-0.7,0.7-1.1c0.1-0.1,0.2-0.3,0.3-0.4c0.2-0.4,0.5-0.8,0.7-1.2c0.1-0.1,0.1-0.2,0.2-0.3
				c0.3-0.4,0.5-0.9,0.8-1.3c0.1-0.1,0.1-0.2,0.1-0.2c0.3-0.5,0.5-1,0.8-1.4l0.1-0.2c0.3-0.5,0.6-1,0.9-1.6l0.1-0.1
				c0.3-0.5,0.6-1.1,0.9-1.6v-0.1c0.3-0.6,0.6-1.2,0.9-1.7l0,0c0.3-0.6,0.6-1.2,0.9-1.8l0,0c1.8-3.7,3.5-7.6,5.2-11.8l0,0
				c-0.9,0.4-1.9,0.8-2.8,1.5c-2.2,1.6-4.3,3.5-6.4,5.3c-4.2,3.7-6.4,9.2-10.2,13.4c-6.2,7-15.5,6.7-21.8,13.3
				c-3.2,3.3-4.7,8.3-7.4,12.1c-3.1,4.1-6.8,5.8-11.4,6.1c-4.5,0.3-8.7,0.2-13,2.2c-4.6,2.1-8.6,5.2-13.5,6.5
				c-4.3,1.1-8.5,0.9-12.6-0.3c-0.5,0.2-1,0.3-1.6,0.5c3.1,1.3,6.3,2.1,9.5,2.6c1.9,0.3,3.9,0.6,5.9,0.8c0.3,0,0.4,0.4,0.3,0.7
				c3.8,0.4,8,0.6,12.6,0.3c-0.3-0.2-0.2-0.9,0.2-0.8c2.5,0.1,5-0.1,7.4-0.5c8.9-1.3,17.5-5.1,25.2-10.3c0.2-0.1,0.4,0,0.5,0.2
				C176.52,129.08,183.92,122.08,190.82,112.58z"/>
			<path class="st0" d="M157.62,19.98c2.4,26.9,1.5,47.1-1.3,62.4l0,0C159.12,67.18,160.02,46.88,157.62,19.98L157.62,19.98z"/>
			<path class="st0" d="M153.32,28.08c0.4-4.1,2.4-7.3,4-10.7v-0.1c-0.1-0.5-0.1-1-0.2-1.6c0,0-9.3,5.1-19.8,15.1
				c-0.8,2.3-1.3,4.7-1.7,7.2c-0.8,4.7-1.1,9.6-2.5,14.2c-0.9,3-2.2,5.3-3.8,7.3c0.5,2.4,1,4.7,1.4,7.1c0.4-1.7,0.8-3.5,1.1-5.4
				c0-0.1-0.1-0.2-0.1-0.3c-0.2-0.5,0.4-1,0.6-0.5c4,8.9,6.2,18.9,6.4,29c0,0.2-0.1,0.3-0.1,0.3c0.2,3.1,0.3,6.4,0.1,9.7
				c0.2,0,0.4,0.2,0.3,0.6v0.1c1.9-2.1,3.5-4.4,4.6-7.3c1.8-4.9,1.7-10.1,1.6-15.3c-0.1-7,4.7-10,7.2-15.7c2.1-4.6,2-10,1.6-15.1
				C153.82,40.58,152.72,34.18,153.32,28.08z"/>
			<path class="st0" d="M125.42,44.18L125.42,44.18c1-1.3,2-2.5,3-3.7C127.32,41.58,126.32,42.88,125.42,44.18z"/>
			<path class="st0" d="M135.92,73.18c0-0.1-0.1-0.2-0.1-0.3C135.82,72.98,135.82,73.08,135.92,73.18z"/>
			<path class="st0" d="M134.22,123.38c-0.3,0.2-0.6,0.4-1,0.6C133.62,123.78,133.92,123.58,134.22,123.38z"/>
			<path class="st0" d="M133.22,123.98c-0.6,0.4-1.3,0.7-1.9,1C132.02,124.68,132.62,124.38,133.22,123.98z"/>
			<path class="st0" d="M139.02,119.68c-0.1,0.1-0.2,0.2-0.2,0.2c-0.8,0.8-1.7,1.5-2.5,2.1
				C137.12,121.28,138.02,120.48,139.02,119.68z"/>
			<path class="st0" d="M136.12,122.08c-0.6,0.5-1.3,0.9-1.9,1.3C134.92,122.98,135.52,122.48,136.12,122.08z"/>
			<path class="st0" d="M130.82,125.28L130.82,125.28c0.1-0.1,0.3-0.1,0.5-0.2C131.12,125.18,131.02,125.18,130.82,125.28z"/>
			<path class="st2" d="M135.72,37.98c0.4-2.5,1-4.9,1.7-7.2c-4,3.8-8.1,8.2-12,13.4c0.1,0.1,0.1,0.1,0.2,0.2
				c1.5,4.9,2.8,10,3.9,15.1c1.6-2.1,2.9-4.3,3.8-7.3C134.62,47.68,134.92,42.78,135.72,37.98z"/>
			<path class="st4" d="M131.32,124.98c0.6-0.3,1.3-0.7,1.9-1l0,0c0.3-0.2,0.6-0.4,1-0.6l0,0c0.6-0.4,1.3-0.8,1.9-1.3l0,0
				c0.9-0.6,1.7-1.3,2.5-2.1c-2.2,1.9-4.7,3.5-7.4,4.6c-0.2,0.3-0.3,0.5-0.5,0.8C131.02,125.18,131.12,125.18,131.32,124.98
				L131.32,124.98z"/>
			<path class="st4" d="M157.42,17.28c-1.7,3.4-3.7,6.6-4.1,10.7c-0.6,6.2,0.5,12.5,0.9,18.7c0.3,5.1,0.4,10.5-1.6,15.1
				c-2.5,5.7-7.3,8.7-7.2,15.7c0.1,5.2,0.2,10.4-1.6,15.3c-1.1,2.9-2.7,5.2-4.6,7.3c-0.6,4.4-1.4,8.7-2.6,12.9
				c-1.1,3.6-2.5,7-4.3,10.2c2.5-1.2,4.9-2.8,7.1-4.8c4.4-4.1,7.8-9.6,10.5-15.4c3-6.3,5.1-13.2,6.2-20.3c0.1-0.3,0.2-0.4,0.4-0.3
				C159.22,66.68,160.12,45.48,157.42,17.28z"/>
			<path class="st0" d="M14.42,158.28c-0.3-0.2-0.5-0.5-0.8-0.7C13.82,157.78,14.12,158.08,14.42,158.28z"/>
			<path class="st0" d="M20.52,163.28c-0.4-0.2-0.7-0.5-1.1-0.8C19.82,162.78,20.12,162.98,20.52,163.28z"/>
			<path class="st0" d="M17.12,160.68c-0.3-0.2-0.6-0.5-0.8-0.7C16.52,160.18,16.82,160.48,17.12,160.68z"/>
			<path class="st0" d="M18.22,161.58c-0.3-0.2-0.6-0.5-1-0.8C17.62,161.08,17.92,161.28,18.22,161.58z"/>
			<path class="st0" d="M16.22,159.88c-0.3-0.2-0.6-0.5-0.9-0.8C15.62,159.38,15.92,159.68,16.22,159.88z"/>
			<path class="st0" d="M15.22,159.08c-0.3-0.2-0.5-0.5-0.7-0.7C14.72,158.58,14.92,158.78,15.22,159.08z"/>
			<path class="st0" d="M19.22,162.38c-0.3-0.2-0.6-0.4-0.9-0.7C18.62,161.88,18.92,162.08,19.22,162.38z"/>
			<path class="st0" d="M13.52,157.48c-0.2-0.2-0.5-0.5-0.7-0.7C13.12,157.08,13.32,157.28,13.52,157.48z"/>
			<path class="st0" d="M88.52,164.58c-0.2,0.2-0.5,0.4-0.7,0.6C88.12,164.98,88.32,164.78,88.52,164.58z"/>
			<path class="st0" d="M91.62,161.98c-0.2,0.2-0.5,0.4-0.7,0.6C91.12,162.38,91.42,162.18,91.62,161.98z"/>
			<path class="st0" d="M90.72,162.78c-0.6,0.5-1.2,1.1-1.9,1.6C89.42,163.88,90.12,163.38,90.72,162.78z"/>
			<path class="st0" d="M87.52,165.38c-0.2,0.2-0.5,0.3-0.7,0.5C87.02,165.78,87.32,165.58,87.52,165.38z"/>
			<path class="st0" d="M85.42,166.88c-0.3,0.2-0.7,0.5-1.1,0.7C84.72,167.38,85.02,167.18,85.42,166.88z"/>
			<path class="st0" d="M86.52,166.18c-0.3,0.2-0.5,0.4-0.8,0.5C85.92,166.58,86.22,166.38,86.52,166.18z"/>
			<path class="st0" d="M68.92,173.58c-0.3,0.1-0.6,0.1-1,0.2C68.22,173.68,68.52,173.68,68.92,173.58z"/>
			<path class="st0" d="M96.72,156.58c-0.2,0.2-0.4,0.5-0.6,0.7C96.22,157.08,96.42,156.88,96.72,156.58z"/>
			<path class="st0" d="M95.92,157.48c-0.2,0.2-0.4,0.5-0.6,0.7C95.52,157.98,95.72,157.78,95.92,157.48z"/>
			<path class="st0" d="M92.52,161.18c-0.2,0.2-0.4,0.4-0.6,0.6C92.02,161.58,92.32,161.38,92.52,161.18z"/>
			<path class="st0" d="M98.82,153.88c-0.6,0.9-1.3,1.7-2,2.6C97.52,155.58,98.22,154.68,98.82,153.88z"/>
			<path class="st0" d="M95.12,158.38c-0.5,0.6-1.1,1.2-1.6,1.7C94.12,159.48,94.62,158.98,95.12,158.38z"/>
			<path class="st0" d="M93.42,160.18c-0.2,0.2-0.5,0.5-0.7,0.7C92.92,160.68,93.22,160.48,93.42,160.18z"/>
			<path class="st0" d="M81.72,169.18c-0.3,0.1-0.5,0.3-0.8,0.4C81.12,169.38,81.42,169.28,81.72,169.18z"/>
			<path class="st0" d="M76.32,171.58c-0.3,0.1-0.6,0.2-0.9,0.3C75.72,171.78,76.02,171.68,76.32,171.58z"/>
			<path class="st0" d="M79.32,170.38c-0.4,0.2-0.8,0.4-1.2,0.5C78.42,170.68,78.92,170.58,79.32,170.38z"/>
			<path class="st0" d="M72.22,172.88c-0.5,0.1-0.9,0.2-1.4,0.3C71.32,173.08,71.82,172.98,72.22,172.88z"/>
			<path class="st0" d="M77.72,171.08c-0.3,0.1-0.6,0.2-0.9,0.4C77.12,171.28,77.42,171.18,77.72,171.08z"/>
			<path class="st0" d="M73.62,172.48c-0.4,0.1-0.8,0.2-1.1,0.3C72.82,172.68,73.22,172.58,73.62,172.48z"/>
			<path class="st0" d="M75.02,172.08c-0.3,0.1-0.6,0.2-0.9,0.3C74.42,172.28,74.72,172.18,75.02,172.08z"/>
			<path class="st0" d="M84.12,167.68c-0.3,0.2-0.6,0.4-0.9,0.6C83.52,168.08,83.82,167.88,84.12,167.68z"/>
			<path class="st0" d="M80.52,169.78c-0.3,0.2-0.6,0.3-0.9,0.4C79.92,170.08,80.22,169.88,80.52,169.78z"/>
			<path class="st0" d="M70.42,173.28c-0.3,0.1-0.7,0.1-1,0.2C69.72,173.48,70.12,173.38,70.42,173.28z"/>
			<path class="st0" d="M82.82,168.48c-0.3,0.1-0.5,0.3-0.8,0.4C82.32,168.78,82.62,168.68,82.82,168.48z"/>
			<path class="st0" d="M21.72,163.98c-0.3-0.2-0.6-0.4-1-0.7C21.02,163.58,21.32,163.78,21.72,163.98z"/>
			<path class="st0" d="M99.42,152.98c-0.2,0.3-0.4,0.6-0.6,0.8C99.02,153.58,99.22,153.28,99.42,152.98z"/>
			<path class="st0" d="M12.82,156.78c-0.2-0.2-0.5-0.5-0.7-0.7C12.42,156.28,12.62,156.58,12.82,156.78z"/>
			<path class="st0" d="M40.02,172.08c-0.6-0.2-1.2-0.3-1.8-0.5C38.82,171.78,39.42,171.98,40.02,172.08z"/>
			<path class="st0" d="M67.32,173.88c-0.3,0-0.7,0.1-1,0.1C66.72,173.88,67.02,173.88,67.32,173.88z"/>
			<path class="st0" d="M36.12,170.98c-0.6-0.2-1.1-0.4-1.6-0.6C35.02,170.58,35.52,170.78,36.12,170.98z"/>
			<path class="st0" d="M37.82,171.48c-0.5-0.2-1-0.3-1.5-0.5C36.82,171.18,37.32,171.38,37.82,171.48z"/>
			<path class="st0" d="M25.92,166.58c-0.4-0.2-0.9-0.5-1.3-0.7C25.12,166.08,25.52,166.38,25.92,166.58z"/>
			<path class="st0" d="M41.92,172.58c-0.6-0.1-1.1-0.2-1.6-0.4C40.82,172.28,41.32,172.48,41.92,172.58z"/>
			<path class="st0" d="M30.52,168.88c-0.4-0.2-0.8-0.4-1.3-0.6C29.72,168.48,30.12,168.68,30.52,168.88z"/>
			<path class="st0" d="M44.32,173.08c-0.6-0.1-1.3-0.2-1.9-0.4C43.02,172.78,43.62,172.98,44.32,173.08z"/>
			<path class="st0" d="M32.42,169.68c-0.5-0.2-1-0.4-1.5-0.6C31.42,169.18,31.92,169.38,32.42,169.68z"/>
			<path class="st0" d="M34.02,170.28c-0.5-0.2-0.9-0.3-1.4-0.5C33.12,169.88,33.62,170.08,34.02,170.28z"/>
			<path class="st0" d="M27.32,167.28c-0.4-0.2-0.8-0.4-1.1-0.6C26.52,166.88,26.92,167.08,27.32,167.28z"/>
			<path class="st0" d="M95.92,144.58c-1.9,0.4-3.9,0.7-5.9,0.8c-0.2,0-0.3-0.1-0.3-0.3c-4,0.5-8.6,0.7-13.5,0.4
				c-0.1,0-0.1,0.1-0.2,0.1c-2.5,0.1-5.1-0.1-7.6-0.5c-9-1.4-17.6-5.1-25.5-10.4c-0.1,0-0.1-0.1-0.1-0.2
				c-23,12.6-34.5,16.8-34.5,16.8s1.2,2,3.8,4.8c-0.2-0.2-0.4-0.5-0.6-0.7c7.5,1.7,16.7-2.3,24.1-2.4c8.9-0.1,15.4,7.5,23.8,9.4
				c9.5,2.1,18.1-4.8,27-7.6c4.4-1.4,9-2.7,13.6-2.6c-0.2,0.3-0.4,0.6-0.6,0.8c4.1-5.8,6.2-10.7,6.5-11.5h-0.1
				C102.72,143.18,99.32,143.98,95.92,144.58z"/>
			<path class="st0" d="M65.82,173.98c-0.5,0.1-1,0.1-1.5,0.1C64.82,174.08,65.32,174.08,65.82,173.98z"/>
			<path class="st0" d="M58.82,174.38c-0.8,0-1.5,0-2.3,0C57.32,174.38,58.02,174.38,58.82,174.38z"/>
			<path class="st0" d="M64.32,174.18c-0.8,0.1-1.7,0.1-2.5,0.1C62.62,174.28,63.42,174.18,64.32,174.18z"/>
			<path class="st0" d="M61.22,174.28c-0.8,0-1.6,0-2.3,0.1C59.62,174.38,60.42,174.38,61.22,174.28z"/>
			<path class="st0" d="M46.32,173.38c-0.6-0.1-1.2-0.2-1.8-0.3C45.12,173.18,45.72,173.28,46.32,173.38z"/>
			<path class="st0" d="M29.02,168.18c-0.5-0.2-0.9-0.4-1.4-0.7C28.12,167.68,28.52,167.98,29.02,168.18z"/>
			<path class="st0" d="M23.12,164.98c-0.4-0.2-0.8-0.5-1.2-0.7C22.32,164.48,22.72,164.68,23.12,164.98z"/>
			<path class="st0" d="M24.32,165.68c-0.4-0.2-0.7-0.4-1-0.6C23.62,165.28,24.02,165.48,24.32,165.68z"/>
			<path class="st0" d="M48.82,173.78c-0.7-0.1-1.4-0.2-2-0.3C47.42,173.58,48.12,173.68,48.82,173.78z"/>
			<path class="st0" d="M50.92,173.98c-0.7-0.1-1.3-0.1-2-0.2C49.62,173.88,50.32,173.98,50.92,173.98z"/>
			<path class="st0" d="M53.72,174.28c-0.7,0-1.5-0.1-2.2-0.2C52.22,174.18,52.92,174.18,53.72,174.28z"/>
			<path class="st0" d="M55.92,174.28c-0.7,0-1.4-0.1-2.1-0.1C54.52,174.28,55.22,174.28,55.92,174.28z"/>
			<path class="st1" d="M86.42,154.78c-8.9,2.8-17.5,9.7-27,7.6c-8.4-1.9-14.9-9.5-23.8-9.4c-7.4,0.1-16.6,4.1-24.1,2.4
				c0.2,0.2,0.4,0.4,0.6,0.7l0,0c0.2,0.2,0.4,0.5,0.7,0.7l0,0c0.2,0.2,0.5,0.5,0.7,0.7l0.1,0.1c0.2,0.2,0.5,0.5,0.8,0.7l0.1,0.1
				c0.2,0.2,0.5,0.5,0.7,0.7l0.1,0.1c0.3,0.2,0.6,0.5,0.9,0.8l0.1,0.1c0.3,0.2,0.5,0.5,0.8,0.7c0.1,0,0.1,0.1,0.2,0.1
				c0.3,0.2,0.6,0.5,1,0.8l0.1,0.1c0.3,0.2,0.6,0.4,0.9,0.7c0.1,0.1,0.1,0.1,0.2,0.2c0.3,0.2,0.7,0.5,1.1,0.8c0.1,0,0.1,0.1,0.2,0.1
				c0.3,0.2,0.6,0.4,1,0.7c0.1,0.1,0.2,0.1,0.3,0.2c0.4,0.2,0.8,0.5,1.2,0.7c0.1,0,0.1,0.1,0.2,0.1c0.3,0.2,0.7,0.4,1,0.6
				c0.1,0.1,0.2,0.1,0.3,0.2c0.4,0.2,0.8,0.5,1.3,0.7c0.1,0,0.2,0.1,0.2,0.1c0.4,0.2,0.7,0.4,1.1,0.6c0.1,0.1,0.2,0.1,0.3,0.2
				c0.5,0.2,0.9,0.5,1.4,0.7c0.1,0,0.2,0.1,0.2,0.1c0.4,0.2,0.8,0.4,1.3,0.6c0.1,0.1,0.3,0.1,0.4,0.2c0.5,0.2,1,0.4,1.5,0.6
				c0.1,0,0.2,0.1,0.3,0.1c0.5,0.2,0.9,0.3,1.4,0.5c0.1,0.1,0.3,0.1,0.4,0.2c0.5,0.2,1.1,0.4,1.6,0.6c0.1,0,0.2,0.1,0.2,0.1
				c0.5,0.2,1,0.3,1.5,0.5c0.2,0,0.3,0.1,0.5,0.1c0.6,0.2,1.2,0.3,1.8,0.5c0.1,0,0.2,0,0.2,0.1c0.5,0.1,1.1,0.3,1.6,0.4
				c0.2,0,0.3,0.1,0.5,0.1c0.6,0.1,1.3,0.3,1.9,0.4c0.1,0,0.1,0,0.2,0c0.6,0.1,1.2,0.2,1.8,0.3c0.2,0,0.3,0.1,0.5,0.1
				c0.7,0.1,1.3,0.2,2,0.3c0.1,0,0.1,0,0.2,0c0.6,0.1,1.3,0.2,2,0.2c0.2,0,0.4,0,0.6,0.1c0.7,0.1,1.4,0.1,2.2,0.2h0.1
				c0.7,0,1.4,0.1,2.1,0.1c0.2,0,0.4,0,0.6,0c0.8,0,1.5,0,2.3,0h0.1c0.8,0,1.5,0,2.3-0.1c0.2,0,0.4,0,0.6,0c0.8,0,1.6-0.1,2.5-0.1
				c0.5,0,1-0.1,1.5-0.1c0.2,0,0.3,0,0.5-0.1c0.3,0,0.7-0.1,1-0.1c0.2,0,0.4-0.1,0.6-0.1c0.3-0.1,0.6-0.1,1-0.2
				c0.2,0,0.3-0.1,0.5-0.1c0.3-0.1,0.7-0.1,1-0.2c0.1,0,0.3-0.1,0.4-0.1c0.5-0.1,0.9-0.2,1.4-0.3c0.1,0,0.1,0,0.2-0.1
				c0.4-0.1,0.8-0.2,1.1-0.3c0.2,0,0.3-0.1,0.5-0.1c0.3-0.1,0.6-0.2,0.9-0.3c0.2-0.1,0.3-0.1,0.5-0.2c0.3-0.1,0.6-0.2,0.9-0.3
				c0.2-0.1,0.3-0.1,0.5-0.2c0.3-0.1,0.6-0.2,0.9-0.4c0.1,0,0.2-0.1,0.3-0.1c0.4-0.2,0.8-0.4,1.2-0.5c0.1,0,0.2-0.1,0.3-0.1
				c0.3-0.2,0.6-0.3,0.9-0.4c0.1-0.1,0.3-0.1,0.4-0.2c0.3-0.1,0.5-0.3,0.8-0.4c0.1-0.1,0.3-0.2,0.4-0.2c0.3-0.1,0.5-0.3,0.8-0.4
				c0.1-0.1,0.3-0.1,0.4-0.2c0.3-0.2,0.6-0.4,0.9-0.6c0.1,0,0.1-0.1,0.2-0.1c0.4-0.2,0.7-0.5,1.1-0.7c0.1-0.1,0.2-0.1,0.3-0.2
				c0.3-0.2,0.5-0.4,0.8-0.5c0.1-0.1,0.2-0.2,0.3-0.2c0.2-0.2,0.5-0.3,0.7-0.5c0.1-0.1,0.2-0.2,0.3-0.2c0.2-0.2,0.5-0.4,0.7-0.6
				c0.1-0.1,0.2-0.1,0.3-0.2c0.6-0.5,1.3-1.1,1.9-1.6c0.1-0.1,0.1-0.1,0.2-0.2c0.2-0.2,0.5-0.4,0.7-0.6c0.1-0.1,0.2-0.2,0.2-0.2
				c0.2-0.2,0.4-0.4,0.6-0.6c0.1-0.1,0.2-0.2,0.2-0.2c0.2-0.2,0.5-0.5,0.7-0.7l0.1-0.1c0.6-0.6,1.1-1.2,1.6-1.7l0.1-0.1
				c0.2-0.2,0.4-0.5,0.6-0.7l0.1-0.2c0.2-0.2,0.4-0.5,0.6-0.7l0.1-0.1c0.7-0.9,1.4-1.8,2-2.6l0,0c0.2-0.3,0.4-0.6,0.6-0.8l0,0
				c0.2-0.3,0.4-0.6,0.6-0.8C95.42,152.08,90.82,153.38,86.42,154.78z"/>
			<path class="st1" d="M33.02,78.48c0.6,0.1,1.3,0.1,1.9,0.2C34.32,78.58,33.62,78.48,33.02,78.48z"/>
			<path class="st1" d="M30.72,78.28c0.6,0,1.3,0.1,1.9,0.1C31.92,78.38,31.32,78.28,30.72,78.28z"/>
			<path class="st1" d="M12.12,97.78c-0.3-0.6-0.6-1.1-0.9-1.7C11.52,96.58,11.82,97.18,12.12,97.78z"/>
			<path class="st1" d="M13.02,99.48c-0.3-0.5-0.6-1.1-0.9-1.6C12.42,98.38,12.72,98.88,13.02,99.48z"/>
			<path class="st1" d="M11.22,95.98c-2.5-4.7-4.8-9.8-7.1-15.4C6.42,86.18,8.72,91.28,11.22,95.98z"/>
			<path class="st1" d="M50.12,81.18c0.8,0.2,1.6,0.4,2.4,0.6C51.72,81.68,50.92,81.38,50.12,81.18z"/>
			<path class="st1" d="M47.62,80.58c0.8,0.2,1.6,0.4,2.4,0.6C49.12,80.98,48.42,80.78,47.62,80.58z"/>
			<path class="st1" d="M13.92,101.08c-0.3-0.5-0.6-1-0.9-1.6C13.32,100.08,13.62,100.58,13.92,101.08z"/>
			<path class="st1" d="M55.72,82.78c-1-0.3-2.1-0.6-3.1-0.9C53.72,82.18,54.72,82.48,55.72,82.78L55.72,82.78z"/>
			<path class="st1" d="M13.32,87.38c4.2,3.7,6.4,9.2,10.2,13.4c6.2,7,15.5,6.7,21.8,13.3c3.2,3.3,4.7,8.3,7.4,12.1
				c3.1,4.1,6.8,5.8,11.4,6.1c4.5,0.3,8.7,0.2,13,2.2c4.6,2.1,8.6,5.2,13.5,6.5c4.2,1.1,8.4,0.9,12.4-0.2c-2.9-0.9-5.8-2-8.6-3.5
				c-5.2-2.7-10-6.8-13.5-12.2h-0.1c-0.6-0.3-1.3-0.7-1.9-1l0,0c-0.3-0.2-0.6-0.4-1-0.6l0,0c-0.4-0.3-0.8-0.5-1.2-0.8
				c-1.5-0.9-2.9-2-4.3-3.3c-7.3-6.7-11.9-16.6-14.7-27c-1.7-2-3.5-3.7-5.5-5c-4.2-2.6-8.4-1.6-12.8-1c-4.8,0.6-7.6-2.8-11.1-6.1
				c-0.8-0.8-1.5-1.5-2.3-2.1c1.4,0,2.9,0.1,4.4,0.2c-15.3-0.9-26.7,1.2-26.7,1.2c0.1,0.4,0.3,0.7,0.5,1.1c0.9,0.4,1.9,0.8,2.8,1.5
				C9.12,83.68,11.22,85.58,13.32,87.38z"/>
			<path class="st1" d="M37.62,78.88c3.2,0.4,6.5,0.9,9.8,1.7C44.12,79.88,40.82,79.28,37.62,78.88z"/>
			<path class="st1" d="M35.32,78.68c0.7,0.1,1.3,0.1,2,0.2C36.72,78.78,36.02,78.68,35.32,78.68z"/>
			<path class="st1" d="M19.62,110.08c-0.2-0.3-0.4-0.5-0.5-0.8C19.22,109.48,19.42,109.78,19.62,110.08z"/>
			<path class="st1" d="M20.52,111.38c-0.1-0.2-0.3-0.4-0.4-0.6C20.22,110.98,20.32,111.18,20.52,111.38z"/>
			<path class="st1" d="M23.32,115.18L23.32,115.18L23.32,115.18z"/>
			<path class="st1" d="M14.92,102.68c-0.3-0.5-0.6-1-0.8-1.4C14.32,101.68,14.62,102.18,14.92,102.68z"/>
			<path class="st1" d="M22.42,113.98c-0.1-0.1-0.1-0.2-0.2-0.2C22.32,113.78,22.32,113.88,22.42,113.98z"/>
			<path class="st1" d="M21.42,112.68c-0.1-0.1-0.2-0.3-0.3-0.4C21.22,112.38,21.32,112.58,21.42,112.68z"/>
			<path class="st1" d="M16.72,105.78c-0.3-0.4-0.5-0.8-0.8-1.2C16.22,104.98,16.52,105.38,16.72,105.78z"/>
			<path class="st1" d="M15.82,104.18c-0.3-0.4-0.5-0.9-0.8-1.3C15.32,103.38,15.52,103.78,15.82,104.18z"/>
			<path class="st1" d="M18.62,108.68c-0.2-0.3-0.4-0.6-0.6-0.9C18.22,107.98,18.42,108.28,18.62,108.68z"/>
			<path class="st1" d="M17.72,107.18c-0.2-0.4-0.5-0.7-0.7-1.1C17.22,106.48,17.42,106.88,17.72,107.18z"/>
			<path class="st1" d="M90.52,133.78c-1.1-0.8-2.1-1.6-3-2.4l-0.1-0.1c-0.9-0.8-1.8-1.7-2.7-2.6l-0.1-0.1c-0.6-0.7-1.2-1.3-1.7-2
				c1.4,1.8,2.9,3.4,4.5,4.9c1.6,1.4,3.3,2.7,5.1,3.8c-0.6-0.4-1.2-0.8-1.8-1.2C90.62,133.88,90.62,133.88,90.52,133.78z"/>
			<path class="st2" d="M28.42,80.18c3.4,3.4,6.3,6.8,11.1,6.1c4.4-0.6,8.7-1.6,12.8,1c2,1.3,3.8,3,5.5,5c-0.8-3.1-1.5-6.3-2-9.4
				c-1-0.3-2.1-0.7-3.1-0.9h-0.1c-0.8-0.2-1.6-0.4-2.4-0.6c-0.1,0-0.1,0-0.2-0.1c-0.8-0.2-1.6-0.4-2.4-0.6h-0.1
				c-3.3-0.7-6.6-1.3-9.8-1.7c-0.1,0-0.2,0-0.3,0c-0.7-0.1-1.4-0.2-2-0.2c-0.1,0-0.3,0-0.4,0c-0.6-0.1-1.3-0.1-1.9-0.2
				c-0.1,0-0.3,0-0.4,0c-0.7-0.1-1.3-0.1-1.9-0.1c-0.1,0-0.2,0-0.3,0c-1.5-0.1-3-0.2-4.4-0.2C26.82,78.68,27.62,79.38,28.42,80.18z"
				/>
			<path class="st3" d="M43.32,133.88c2.2,1.5,4.4,2.8,6.7,4c8.1,4.3,17.1,7,26,6.8c0.4,0,0.5,0.6,0.2,0.8c5,0.3,9.6,0.1,13.5-0.4
				c-0.1-0.2,0.1-0.6,0.3-0.6c1.9-0.2,3.8-0.5,5.7-0.8c3-0.6,6-1.2,8.8-2.6c-0.5-0.1-1-0.3-1.5-0.4c-4.1,1.2-8.2,1.3-12.4,0.2
				c-4.9-1.3-8.9-4.4-13.5-6.5c-4.3-2-8.5-1.9-13-2.2c-4.6-0.3-8.3-2-11.4-6.1c-2.8-3.7-4.3-8.7-7.4-12.1
				c-6.3-6.6-15.6-6.3-21.8-13.3c-3.7-4.2-6-9.7-10.2-13.4c-2.1-1.8-4.2-3.7-6.4-5.3c-0.9-0.7-1.8-1.1-2.8-1.5l0,0
				c2.2,5.6,4.6,10.7,7.1,15.4l0,0c0.3,0.6,0.6,1.2,0.9,1.7l0,0c0.3,0.6,0.6,1.1,0.9,1.6l0.1,0.1c0.3,0.5,0.6,1,0.9,1.6l0.1,0.2
				c0.3,0.5,0.6,1,0.8,1.4c0,0.1,0.1,0.1,0.1,0.2c0.3,0.5,0.5,0.9,0.8,1.3c0.1,0.1,0.1,0.2,0.2,0.3c0.3,0.4,0.5,0.8,0.8,1.2
				c0.1,0.1,0.2,0.2,0.2,0.4c0.2,0.4,0.5,0.7,0.7,1.1c0.1,0.2,0.2,0.3,0.3,0.5c0.2,0.3,0.4,0.6,0.6,0.9c0.1,0.2,0.3,0.4,0.4,0.6
				c0.2,0.3,0.4,0.5,0.5,0.8c0.2,0.2,0.3,0.5,0.5,0.7c0.1,0.2,0.3,0.4,0.4,0.6c0.2,0.3,0.4,0.6,0.6,0.9c0.1,0.1,0.2,0.3,0.3,0.4
				c0.3,0.3,0.5,0.7,0.8,1c0.1,0.1,0.1,0.2,0.2,0.2c0.3,0.4,0.6,0.8,0.9,1.2l0,0c6.3,8.1,12.9,14.2,19.6,18.7
				C43.02,133.78,43.12,133.78,43.32,133.88z"/>
			<path class="st0" d="M58.02,46.68c-0.3,5.1-0.4,10.5,1.6,15.1c2.5,5.7,7.3,8.7,7.2,15.7c-0.1,5.2-0.2,10.4,1.6,15.3
				c1.1,3,2.9,5.4,4.9,7.6v-0.1c0-0.2-0.1-0.3-0.1-0.5c0-0.1,0-0.2,0-0.3c0-0.1,0-0.2,0-0.3c0-0.2,0-0.3,0-0.5c0-0.3,0-0.6,0-0.9
				c0-0.2,0-0.4,0-0.6c0-0.5,0-0.9,0-1.4c0-0.2,0-0.4,0-0.6c0-0.3,0-0.6,0-0.8c0-0.2,0-0.4,0-0.6c0-0.4,0-0.8,0-1.2
				c0-0.2,0-0.5,0-0.8s0-0.5,0-0.8c0-0.2,0-0.5,0-0.7c0-0.1,0-0.3,0-0.4c-0.1-0.1-0.2-0.2-0.2-0.4c0.2-10.1,2.5-20.1,6.4-29
				c0.2-0.5,0.9-0.1,0.6,0.5c-0.1,0.2-0.1,0.3-0.2,0.5c0.4,2.2,0.8,4.2,1.3,6.1l0,0c0.9,3.6,2,6.9,3.3,9.8
				c-0.2-5.1-0.1-10.2,0.5-15.3c-2.6-2.8-4.8-5.6-6-9.9c-1.4-4.6-1.7-9.5-2.5-14.2c-0.4-2.5-1-4.9-1.7-7.2c4.3,4.1,8.9,9,13.1,14.8
				c-14.5-19.8-32.9-29.9-32.9-29.9c-0.1,0.5-0.1,1.1-0.2,1.6c1.7,3.4,3.7,6.6,4.1,10.7C59.52,34.18,58.42,40.58,58.02,46.68z"/>
			<path class="st0" d="M54.82,17.28c-2.6,27.8-1.9,48.7,0.9,64.4l0,0C52.92,65.98,52.12,45.08,54.82,17.28z"/>
			<path class="st0" d="M88.12,45.88c-0.1-0.1-0.1-0.2-0.2-0.3C88.02,45.68,88.02,45.78,88.12,45.88L88.12,45.88z"/>
			<path class="st0" d="M76.82,122.58L76.82,122.58c0.4,0.3,0.8,0.5,1.2,0.8C77.62,123.08,77.22,122.78,76.82,122.58z"/>
			<path class="st0" d="M80.82,124.98c-0.6-0.3-1.3-0.7-1.9-1C79.62,124.38,80.22,124.68,80.82,124.98z"/>
			<path class="st0" d="M78.92,123.98c-0.3-0.2-0.6-0.4-1-0.6C78.32,123.58,78.62,123.78,78.92,123.98z"/>
			<path class="st2" d="M74.82,30.78c0.8,2.3,1.3,4.7,1.7,7.2c0.8,4.7,1.1,9.6,2.5,14.2c1.3,4.3,3.4,7,6,9.9
				c0.6-5.5,1.6-10.9,3.1-16.2c-0.1-0.1-0.1-0.2-0.2-0.3l0,0C83.72,39.78,79.12,34.88,74.82,30.78z"/>
			<path class="st4" d="M78.02,123.38c0.3,0.2,0.6,0.4,1,0.6l0,0c0.6,0.4,1.3,0.7,1.9,1h0.1c-0.1-0.2-0.2-0.4-0.4-0.6
				c-1.3-0.5-2.6-1.2-3.8-1.9C77.22,122.78,77.62,123.08,78.02,123.38L78.02,123.38z"/>
			<path class="st4" d="M55.72,81.68c0.2-0.2,0.6-0.2,0.6,0.2c0.7,4.1,1.5,8.1,2.7,12.1c3.5,12.2,10.4,24.5,20.8,29.2
				c-0.1-0.1-0.2-0.3-0.2-0.4c-1.3-2.4-2.2-4.9-3-7.5c0-0.1-0.1-0.2-0.1-0.3l0,0c-0.3-0.7-0.5-1.4-0.7-2.1c0-0.1-0.1-0.2-0.1-0.2
				c-0.1-0.3-0.2-0.7-0.3-1l-0.1-0.2c-0.2-0.7-0.3-1.3-0.5-2c0-0.1-0.1-0.2-0.1-0.3c-0.1-0.3-0.2-0.7-0.2-1c0-0.1,0-0.2-0.1-0.3
				c-0.1-0.6-0.2-1.2-0.3-1.8c0-0.1,0-0.2-0.1-0.3c-0.1-0.3-0.1-0.7-0.2-1c0-0.1,0-0.3-0.1-0.4c-0.1-0.6-0.2-1.1-0.2-1.7
				c0-0.1,0-0.3-0.1-0.4c0-0.3-0.1-0.6-0.1-0.9c0-0.2,0-0.3,0-0.5c0-0.1,0-0.2,0-0.4c-2-2.1-3.7-4.5-4.9-7.6
				c-1.8-4.9-1.7-10.1-1.6-15.3c0.1-7-4.7-10-7.2-15.7c-2.1-4.6-2-10-1.6-15.1c0.4-6.2,1.5-12.5,0.9-18.7c-0.4-4.1-2.4-7.3-4.1-10.7
				l0,0l0,0C52.12,45.08,52.92,65.98,55.72,81.68z"/>
			<path class="st5" d="M124.92,44.28c-3.7-11.5-9.1-24.6-16.6-39.3C115.82,19.68,121.12,32.68,124.92,44.28L124.92,44.28z"/>
			<path class="st5" d="M94.82,27.18c0.1,2.5,0.5,5,1,7.4c1,4.7,2.4,9.3,2.7,14.1c0.4,5.2-1,9.3-2.7,13.9c-1.6,4.2-2.5,8.4-1.9,13.1
				c0.6,4.8,2.6,9,4.6,13.2c2.3,4.9,4,9.2,4,14.9c0,5.3,0.8,9.3,3.5,13.5l0.8,1.1c1.6-7.4,4.2-14.5,8.2-20.6
				c0.2-0.3,0.6-0.1,0.6,0.3c1.5-2.6,3-4.9,4.4-7.3c1.3-3.3,2.2-6.7,2.2-10.4c-0.1-5.3-2-10-3.9-14.7c-2.5-6.4,0.8-11.5,1.1-17.9
				c0.3-5.3-1.7-10.1-3.8-14.6c-2.5-5.4-5.7-10.6-7.3-16.5c-1.1-4-0.4-7.8-0.1-11.8c-0.2-0.5-0.5-0.9-0.7-1.4c0,0-12.6,17.5-19,41.8
				l0,0C90.32,38.68,92.62,32.58,94.82,27.18z"/>
			<path class="st4" d="M96.12,97.88c0.1-0.2,0.4-0.4,0.6-0.1c2.2,3.4,4,7.1,5.5,11c1.8,4.8,3,9.8,3.7,15c0.2-1.8,0.6-3.6,0.9-5.4
				l-0.8-1.1c-2.7-4.3-3.6-8.3-3.5-13.5c0-5.7-1.7-10.1-4-14.9c-2-4.2-3.9-8.4-4.6-13.2c-0.6-4.7,0.3-8.9,1.9-13.1
				c1.8-4.7,3.1-8.7,2.7-13.9c-0.4-4.8-1.8-9.4-2.7-14.1c-0.5-2.5-0.9-4.9-1-7.4c-2.3,5.4-4.5,11.6-6.3,18.2c0.2,0,0.4,0.2,0.3,0.5
				c-2.8,10.4-4,21.4-3.4,32.4c0,0.2-0.1,0.4-0.2,0.4C88.12,85.28,91.92,90.98,96.12,97.88z"/>
			<path class="st2" d="M108.32,16.68c1.6,5.9,4.8,11.1,7.3,16.5c2.1,4.5,4,9.3,3.8,14.6c-0.3,6.4-3.6,11.5-1.1,17.9
				c1.9,4.7,3.8,9.4,3.9,14.7c0,3.7-0.9,7.1-2.2,10.4c4.3-7.1,8-13.6,10.4-22.8c-0.1,0-0.2-0.1-0.2-0.3c-1.3-7.8-3.1-15.5-5.4-23
				c-0.1-0.2,0-0.3,0.1-0.4c-3.7-11.5-9.1-24.6-16.6-39.4l0,0l0,0C108.02,8.88,107.32,12.68,108.32,16.68z"/>
			<path class="st6" d="M136.52,76.18L136.52,76.18L136.52,76.18c-0.2-1-0.4-2.1-0.7-3.1c0-0.1-0.1-0.2-0.1-0.3c-1-4-2.3-7.9-4-11.6
				c-0.3,1.9-0.7,3.7-1.1,5.4c0,0.3,0.1,0.5,0.1,0.8c0.1,0.3-0.2,0.6-0.4,0.6c-0.1,1.2-0.3,2.4-0.5,3.6c-1,4.6-3.3,8.3-4.7,12.6
				c-2.6,7.6,0.1,16.5-4.5,23.3c-1.9,2.9-4.6,5-6.3,8c-1.7,2.9-2.6,6.2-4,9.2c-1,2-2.4,3.5-4.1,4.7c0.2,3.1,0.3,6.2,0.2,9.2
				c0,0.3-0.2,0.4-0.4,0.4c0,0.7-0.1,1.2-0.1,1.6c0.6-0.2,1.3-0.3,1.9-0.5c0.9-1.9,2.2-3.5,4-4.8c3.1-2.2,6-3.8,7.7-7.8
				c1.8-4.3,1.9-8.6,5.1-11.8c2.7-2.7,5.2-4.9,6.5-9c1.3-4.3,1-8.8,0.6-13.2c-0.4-5.8,1.5-9.3,3.6-14.3
				C135.92,78.18,136.22,77.18,136.52,76.18z"/>
			<path class="st7" d="M115.52,98.38c-5.4,8.3-8.3,18.3-9.3,28.6c0.1,0.8,0.1,1.6,0.2,2.3c1.7-1.1,3.1-2.6,4.1-4.7
				c1.5-3,2.3-6.3,4-9.2c1.8-3,4.4-5.2,6.3-8c4.5-6.8,1.9-15.7,4.5-23.3c1.5-4.3,3.7-8,4.7-12.6c0.3-1.2,0.4-2.4,0.5-3.6h-0.1
				c-2.4,9.3-6.1,15.8-10.4,22.8c-1.4,2.3-2.9,4.7-4.4,7.3C115.62,98.18,115.62,98.28,115.52,98.38z"/>
			<path class="st8" d="M138.62,89.88c-0.2,0.2-0.6,0.1-0.6-0.3c-0.1-4.3-0.6-8.5-1.4-12.6c-0.1-0.2-0.1-0.4-0.2-0.7
				c-0.3,1-0.6,2-1,3c-2,5-4,8.5-3.6,14.3c0.3,4.5,0.7,8.9-0.6,13.2c-1.3,4.1-3.8,6.3-6.5,9c-3.3,3.3-3.3,7.6-5.1,11.8
				c-1.7,4-4.6,5.6-7.7,7.8c-1.8,1.3-3.1,2.9-4,4.8c3.4-1,6.8-2.3,10-4.1c3.1-1.7,6-3.9,8.6-6.6c2.5-2.6,4.5-5.7,6.1-9.1
				c3.1-6.3,4.6-13.3,5.6-20.5c0-0.3,0.2-0.4,0.4-0.3C138.92,96.18,138.92,92.98,138.62,89.88z"/>
			<path class="st2" d="M84.72,128.58c0.8,0.9,1.7,1.8,2.7,2.6C86.42,130.38,85.52,129.48,84.72,128.58z"/>
			<path class="st2" d="M82.72,126.28c0.1,0.1,0.1,0.2,0.2,0.2c0.5,0.7,1.1,1.3,1.7,2C83.92,127.78,83.32,126.98,82.72,126.28z"/>
			<path class="st2" d="M87.52,131.38c0.9,0.8,1.9,1.7,3,2.4C89.42,132.98,88.42,132.18,87.52,131.38z"/>
			<path class="st2" d="M92.42,135.18l0.1,0.1c-0.6-0.4-1.3-0.8-1.9-1.3C91.22,134.38,91.82,134.78,92.42,135.18z"/>
			<path class="st2" d="M73.32,89.88c0,0.1,0,0.3,0,0.4C73.32,90.18,73.32,90.08,73.32,89.88L73.32,89.88z"/>
			<path class="st2" d="M73.32,99.58L73.32,99.58c0-0.1,0-0.2,0-0.3C73.32,99.28,73.32,99.38,73.32,99.58z"/>
			<path class="st2" d="M73.22,95.18c0-0.3,0-0.6,0-0.8C73.22,94.68,73.22,94.88,73.22,95.18z"/>
			<path class="st2" d="M73.22,93.78c0-0.4,0-0.8,0-1.2C73.22,92.88,73.22,93.28,73.22,93.78z"/>
			<path class="st2" d="M73.22,91.78c0-0.3,0-0.5,0-0.8C73.32,91.28,73.22,91.48,73.22,91.78z"/>
			<path class="st2" d="M73.32,98.68c0-0.3,0-0.6,0-0.9C73.22,98.08,73.22,98.38,73.32,98.68z"/>
			<path class="st2" d="M73.22,97.18c0-0.5,0-0.9,0-1.4C73.22,96.28,73.22,96.78,73.22,97.18z"/>
			<path class="st2" d="M75.32,111.38c-0.2-0.7-0.3-1.3-0.5-2C74.92,110.08,75.12,110.78,75.32,111.38z"/>
			<path class="st2" d="M75.62,112.58c-0.1-0.3-0.2-0.7-0.3-1C75.42,111.88,75.52,112.28,75.62,112.58z"/>
			<path class="st2" d="M76.52,115.28v-0.1c0-0.1-0.1-0.2-0.1-0.2C76.52,115.08,76.52,115.18,76.52,115.28z"/>
			<path class="st2" d="M76.42,114.98c-0.3-0.7-0.5-1.4-0.7-2.1C75.92,113.58,76.22,114.28,76.42,114.98z"/>
			<path class="st2" d="M74.72,109.18c-0.1-0.3-0.2-0.7-0.2-1C74.52,108.48,74.62,108.78,74.72,109.18z"/>
			<path class="st2" d="M74.42,107.88c-0.1-0.6-0.2-1.2-0.3-1.8C74.22,106.68,74.32,107.28,74.42,107.88z"/>
			<path class="st2" d="M73.42,100.78c0-0.2,0-0.3,0-0.5l0,0v0.1C73.42,100.48,73.42,100.68,73.42,100.78z"/>
			<path class="st2" d="M73.52,102.18c0-0.3-0.1-0.6-0.1-0.9C73.52,101.58,73.52,101.88,73.52,102.18z"/>
			<path class="st2" d="M73.82,104.28c-0.1-0.6-0.2-1.1-0.2-1.7C73.62,103.18,73.72,103.78,73.82,104.28z"/>
			<path class="st2" d="M74.02,105.68c-0.1-0.3-0.1-0.7-0.2-1C73.92,105.08,74.02,105.38,74.02,105.68z"/>
			<path class="st2" d="M105.82,138.58c0.1-1.6,0.1-3.1,0-4.7c0-1.5-0.1-2.9-0.2-4.4c-1.8-1.2-3.3-2.7-4.3-4.8c-1.5-3-2.3-6.3-4-9.2
				c-1.8-3-4.4-5.2-6.3-8c-4.5-6.8-1.9-15.7-4.5-23.3c-1.5-4.3-3.7-8-4.7-12.6c-0.3-1.3-0.5-2.6-0.6-4c-0.5-1.9-0.9-3.9-1.3-6.1
				c-2.1,4.8-3.6,9.8-4.7,15c0.3,1,0.6,1.9,1,2.8c2,5,4,8.5,3.6,14.3c-0.3,4.5-0.7,8.9,0.6,13.2c1.3,4.1,3.8,6.3,6.5,9
				c3.3,3.3,3.3,7.6,5.1,11.8c1.7,4,4.6,5.6,7.7,7.8c1.8,1.3,3.1,2.9,4,4.8c0.7,0.2,1.4,0.4,2.1,0.6h0.1c0-0.4,0.1-0.9,0.1-1.6
				C105.92,138.98,105.82,138.88,105.82,138.58z"/>
			<path class="st9" d="M86.52,84.08c2.6,7.6-0.1,16.5,4.5,23.3c1.9,2.9,4.6,5,6.3,8c1.7,2.9,2.6,6.2,4,9.2c1,2.1,2.5,3.7,4.3,4.8
				c-0.1-0.8-0.1-1.5-0.2-2.2v-0.1c-1-10.3-3.9-20.4-9.3-28.7c-0.1-0.2-0.1-0.4,0-0.6c-4.2-6.9-8-12.5-11-19.2
				c-0.2,0.1-0.5-0.1-0.5-0.4s0-0.6,0-0.9c-1.3-3-2.4-6.2-3.3-9.8l0,0c0.1,1.3,0.3,2.6,0.6,4C82.82,76.08,85.12,79.78,86.52,84.08z"
				/>
			<path class="st10" d="M99.82,135.28c-3.1-2.2-6-3.8-7.7-7.8c-1.8-4.3-1.9-8.6-5.1-11.8c-2.7-2.7-5.2-4.9-6.5-9
				c-1.3-4.3-1-8.8-0.6-13.2c0.4-5.8-1.5-9.3-3.6-14.3c-0.4-0.9-0.7-1.8-1-2.8c-0.9,4.3-1.3,8.7-1.4,13.1c0,0.4-0.3,0.5-0.5,0.4
				c0,0.1,0,0.3,0,0.4c0,0.2,0,0.4,0,0.7c0,0.2,0,0.5,0,0.8s0,0.5,0,0.8c0,0.4,0,0.8,0,1.2c0,0.2,0,0.4,0,0.6c0,0.3,0,0.5,0,0.8
				c0,0.2,0,0.4,0,0.6c0,0.5,0,0.9,0,1.4c0,0.2,0,0.4,0,0.6c0,0.3,0,0.6,0,0.9c0,0.2,0,0.3,0,0.5c0,0.1,0,0.2,0,0.3
				c0.1-0.4,0.6-0.4,0.7,0c0.7,4.4,1.4,8.8,2.6,13c1,3.7,2.3,7.4,4.1,10.6c0.6,1.1,1.3,2.1,2,3c0.6,0.8,1.2,1.5,1.9,2.2l0.1,0.1
				c0.8,0.9,1.7,1.8,2.7,2.6l0.1,0.1c0.9,0.8,1.9,1.7,3,2.4c0.1,0,0.1,0.1,0.2,0.1c0.6,0.4,1.2,0.9,1.9,1.3
				c3.5,2.2,7.4,3.7,11.2,4.8C102.92,138.08,101.62,136.58,99.82,135.28z"/>
			<path class="st10" d="M73.42,100.78c0,0.2,0,0.3,0,0.5c0,0.3,0.1,0.6,0.1,0.9c0,0.1,0,0.3,0.1,0.4c0.1,0.6,0.1,1.1,0.2,1.7
				c0,0.1,0,0.3,0.1,0.4c0.1,0.3,0.1,0.7,0.2,1c0,0.1,0,0.2,0.1,0.3c0.1,0.6,0.2,1.2,0.3,1.8c0,0.1,0,0.2,0.1,0.3
				c0.1,0.3,0.1,0.7,0.2,1c0,0.1,0.1,0.2,0.1,0.3c0.2,0.7,0.3,1.3,0.5,2l0.1,0.2c0.1,0.3,0.2,0.7,0.3,1c0,0.1,0.1,0.2,0.1,0.2
				c0.2,0.7,0.5,1.4,0.7,2.1l0,0c0,0.1,0.1,0.2,0.1,0.2c-1.5-4.8-2.3-9.9-3.1-14.9C73.42,100.48,73.42,100.58,73.42,100.78z"/>
			<path class="st11" d="M85.02,62.08c-0.5,5.1-0.7,10.2-0.5,15.3c0,0.3,0,0.6,0,0.9c0,0.4,0.3,0.5,0.5,0.4c0.1-0.1,0.2-0.2,0.2-0.4
				c-0.6-10.9,0.6-21.9,3.5-32.3c0.1-0.3-0.1-0.5-0.3-0.5l0,0c-0.2,0-0.3,0.1-0.4,0.3l-0.1,0.2l0,0
				C86.62,51.08,85.62,56.58,85.02,62.08z"/>
			<path class="st11" d="M42.92,134.68c7.8,5.3,16.5,9.1,25.5,10.4c2.5,0.4,5,0.6,7.6,0.5c0.1,0,0.1,0,0.2-0.1
				c0.3-0.2,0.2-0.8-0.2-0.8c-8.9,0.2-17.8-2.5-26-6.8c-2.3-1.2-4.5-2.6-6.7-4c-0.2-0.1-0.3-0.1-0.4,0c-0.1,0.1-0.2,0.4-0.1,0.6
				C42.82,134.58,42.82,134.58,42.92,134.68z"/>
			<path class="st11" d="M102.12,108.78c-1.4-3.9-3.3-7.6-5.5-11c-0.2-0.3-0.4-0.2-0.6,0.1c-0.1,0.2-0.1,0.4,0,0.6
				c5.4,8.3,8.3,18.4,9.3,28.7v0.1c0.1,0.8,0.1,1.5,0.2,2.2c0.1,1.5,0.2,2.9,0.2,4.4c0,1.6,0,3.1,0,4.7c0,0.3,0.2,0.4,0.3,0.4
				c0.2,0,0.4-0.1,0.4-0.4c0.1-3.1,0-6.2-0.2-9.2c-0.1-0.8-0.1-1.6-0.2-2.3c1-10.3,4-20.3,9.3-28.6c0.1-0.1,0.1-0.2,0.1-0.4
				c-0.1-0.3-0.4-0.6-0.6-0.3c-4,6.1-6.7,13.2-8.2,20.6c-0.4,1.8-0.7,3.6-0.9,5.4C105.12,118.68,103.92,113.58,102.12,108.78z"/>
			<path class="st11" d="M73.82,89.48c0.1-4.4,0.6-8.8,1.4-13.1c1-5.2,2.6-10.2,4.7-15c0.1-0.2,0.1-0.3,0.2-0.5
				c0.2-0.5-0.4-1-0.6-0.5c-4,8.9-6.2,18.9-6.4,29c0,0.2,0.1,0.4,0.2,0.4l0,0C73.62,89.98,73.82,89.88,73.82,89.48z"/>
			<path class="st11" d="M106.12,141.48L106.12,141.48c3.5,1.7,7.2,2.5,10.9,3.2c1.9,0.3,3.9,0.6,5.9,0.8c0.2,0,0.3-0.1,0.3-0.2
				c0.1-0.3,0-0.7-0.3-0.7c-2-0.1-3.9-0.4-5.9-0.8c-3.2-0.6-6.5-1.3-9.5-2.6c0.5-0.1,1-0.3,1.6-0.5c6.1-1.9,12-4.7,16.9-9.5
				c1.8-1.7,3.4-3.7,4.8-5.9l0,0c0.2-0.3,0.3-0.5,0.5-0.8c2.7-1.1,5.1-2.7,7.4-4.6c0.1-0.1,0.2-0.2,0.2-0.2
				c6.8-6,11.6-15.3,14.7-24.4c0.4-1.1,0.7-2.1,1-3.2c0.8-3,1.5-6,2-9.1c0-0.1,0-0.2,0-0.2l0,0c0-0.2-0.2-0.3-0.3-0.3l0,0
				c-0.2-0.1-0.4,0-0.4,0.3c-1.2,7.1-3.3,14-6.2,20.3c-2.7,5.8-6.1,11.3-10.5,15.4c-2.1,2-4.5,3.6-7.1,4.8c1.8-3.1,3.2-6.6,4.3-10.2
				c1.3-4.2,2-8.5,2.6-12.9v-0.1c0-0.3-0.1-0.5-0.3-0.6c-0.2,0-0.4,0-0.4,0.3c-1,7.2-2.5,14.2-5.6,20.5c-1.7,3.4-3.7,6.5-6.1,9.1
				c-2.6,2.7-5.5,4.9-8.6,6.6c-3.2,1.8-6.6,3.1-10,4.1c-0.6,0.2-1.3,0.4-1.9,0.5h-0.1c-0.7-0.2-1.4-0.4-2.1-0.6
				c-3.9-1.1-7.7-2.6-11.2-4.8l-0.1-0.1c-1.8-1.1-3.5-2.3-5.1-3.8c-1.6-1.4-3.1-3.1-4.5-4.9c-0.1-0.1-0.1-0.2-0.2-0.2
				c-0.7-1-1.4-2-2-3c-1.8-3.3-3.2-6.9-4.1-10.6c-1.1-4.3-1.9-8.7-2.6-13c-0.1-0.5-0.6-0.4-0.7,0l0,0c0,0.1,0,0.2,0,0.3
				c0,0.2,0.1,0.3,0.1,0.5l0,0c0.8,5,1.7,10.1,3.1,14.9v0.1c0.8,2.6,1.8,5.1,3,7.5c0.1,0.1,0.2,0.3,0.2,0.4
				c-10.4-4.8-17.3-17.1-20.8-29.2c-1.1-3.9-2-8-2.7-12.1c-0.1-0.4-0.4-0.4-0.6-0.2l0,0c-0.1,0.1-0.1,0.2-0.1,0.4
				c0,0.2,0.1,0.5,0.1,0.7l0,0c0.5,3.2,1.2,6.3,2,9.4c2.8,10.4,7.4,20.3,14.7,27c1.3,1.2,2.8,2.3,4.3,3.3l0,0
				c1.2,0.8,2.5,1.4,3.8,1.9c0.1,0.2,0.2,0.4,0.4,0.6c3.5,5.4,8.3,9.5,13.5,12.2c2.8,1.5,5.7,2.6,8.6,3.5c0.5,0.2,1,0.3,1.5,0.4
				c-2.8,1.3-5.9,2-8.8,2.6c-1.9,0.3-3.8,0.6-5.7,0.8c-0.3,0-0.4,0.3-0.3,0.6c0,0.2,0.1,0.3,0.3,0.3c2-0.2,3.9-0.5,5.9-0.8
				c3.3-0.6,6.8-1.4,9.9-3.1h0.1l0,0l0,0l0,0h0.1L106.12,141.48L106.12,141.48z"/>
			<path class="st11" d="M168.62,133.88c-7.8,5.3-16.4,9-25.2,10.3c-2.5,0.4-5,0.5-7.4,0.5c-0.4,0-0.5,0.7-0.2,0.8
				c0.1,0,0.1,0.1,0.2,0.1c9,0.2,18-2.5,26.2-6.8c2.3-1.2,4.6-2.6,6.8-4.1c0.1-0.1,0.1-0.1,0.1-0.2c0.1-0.1,0-0.3,0-0.4
				C169.02,133.88,168.82,133.78,168.62,133.88z"/>
			<path class="st11" d="M135.92,73.18c0.3,1.2,0.6,2.5,0.8,3.7c0.8,4.1,1.3,8.4,1.4,12.6c0,0.4,0.4,0.5,0.6,0.3
				c0.1-0.1,0.1-0.2,0.1-0.3c-0.2-10.1-2.5-20.1-6.4-29c-0.2-0.5-0.9-0.1-0.6,0.5c0,0.1,0.1,0.2,0.1,0.3c1.6,3.7,3,7.6,4,11.6
				C135.82,72.98,135.82,73.08,135.92,73.18z"/>
			<path class="st11" d="M124.82,44.58c2.2,7.5,4.1,15.2,5.4,23c0,0.2,0.1,0.3,0.2,0.3h0.1c0.2,0,0.5-0.2,0.4-0.6
				c0-0.3-0.1-0.5-0.1-0.8c-0.4-2.4-0.9-4.7-1.4-7.1c-1.1-5.1-2.4-10.2-3.9-15.1c0-0.1-0.1-0.2-0.2-0.2l0,0
				c-0.2-0.1-0.4-0.1-0.5,0.1l0,0C124.82,44.38,124.72,44.48,124.82,44.58z"/>
		</g>
		<path class="st0" d="M171.82,136.68c-2.3,1.6-4.7,3-7.1,4.3c-8.6,4.5-18,7.3-27.4,7.2c-0.1,0-0.1,0-0.2-0.1
			c-4.8,0.3-9.3,0.1-13.2-0.3c-0.1,0.1-0.2,0.2-0.3,0.2c-2.1-0.2-4.1-0.4-6.1-0.8c-3.8-0.7-7.7-1.6-11.3-3.3l0,0l0,0h-0.1
			c0.3,0.8,2.3,5.5,6.2,11.1c4.8,0,9.6,1.3,14.2,2.7c9.3,2.9,18.3,10.2,28.2,8c8.8-1.9,15.6-10,24.9-9.8c7.7,0.1,17.4,4.3,25.2,2.5
			c2.3-2.5,3.4-4.3,3.4-4.3s-12-4.4-36-17.6C171.92,136.58,171.92,136.68,171.82,136.68z"/>
		<path class="st1" d="M179.52,155.88c-9.3-0.2-16.1,7.9-24.9,9.8c-9.9,2.2-18.9-5-28.2-8c-4.6-1.4-9.4-2.8-14.2-2.7l0,0
			c0.2,0.3,0.4,0.6,0.6,0.9l0,0c0.2,0.3,0.4,0.6,0.6,0.9l0,0c0.7,0.9,1.4,1.8,2.1,2.7l0.1,0.1c0.2,0.2,0.4,0.5,0.6,0.8l0.2,0.2
			c0.2,0.2,0.5,0.5,0.7,0.8l0.1,0.1c0.5,0.6,1.1,1.2,1.7,1.8l0.1,0.2c0.2,0.2,0.5,0.5,0.7,0.7c0.1,0.1,0.2,0.2,0.2,0.2
			c0.2,0.2,0.4,0.4,0.7,0.6c0.1,0.1,0.2,0.2,0.3,0.2c0.2,0.2,0.5,0.4,0.7,0.7c0.1,0.1,0.1,0.1,0.2,0.2c0.6,0.6,1.3,1.1,2,1.7
			c0.1,0.1,0.2,0.2,0.3,0.2c0.2,0.2,0.5,0.4,0.7,0.6c0.1,0.1,0.2,0.2,0.4,0.3c0.2,0.2,0.5,0.3,0.7,0.5c0.1,0.1,0.2,0.2,0.4,0.3
			c0.3,0.2,0.5,0.4,0.8,0.6c0.1,0.1,0.2,0.1,0.3,0.2c0.4,0.2,0.7,0.5,1.1,0.7c0.1,0,0.1,0.1,0.2,0.1c0.3,0.2,0.6,0.4,0.9,0.6
			c0.1,0.1,0.3,0.2,0.4,0.2c0.3,0.2,0.5,0.3,0.8,0.4c0.2,0.1,0.3,0.2,0.5,0.2c0.3,0.1,0.5,0.3,0.8,0.4c0.1,0.1,0.3,0.2,0.4,0.2
			c0.3,0.2,0.6,0.3,1,0.5c0.1,0,0.2,0.1,0.3,0.1c0.4,0.2,0.9,0.4,1.3,0.6c0.1,0.1,0.2,0.1,0.3,0.1c0.3,0.1,0.6,0.3,1,0.4
			c0.2,0.1,0.3,0.1,0.5,0.2c0.3,0.1,0.6,0.2,0.9,0.3c0.2,0.1,0.3,0.1,0.5,0.2c0.3,0.1,0.6,0.2,0.9,0.3c0.2,0.1,0.3,0.1,0.5,0.2
			c0.4,0.1,0.8,0.2,1.2,0.3c0.1,0,0.2,0,0.2,0.1c0.5,0.1,1,0.2,1.5,0.3c0.1,0,0.3,0.1,0.4,0.1c0.3,0.1,0.7,0.2,1.1,0.2
			c0.2,0,0.4,0.1,0.6,0.1c0.3,0.1,0.7,0.1,1,0.2c0.2,0,0.4,0.1,0.6,0.1c0.4,0.1,0.7,0.1,1.1,0.1c0.2,0,0.3,0,0.5,0.1
			c0.5,0.1,1.1,0.1,1.6,0.1c0.9,0.1,1.7,0.1,2.6,0.1c0.2,0,0.4,0,0.6,0c0.8,0,1.6,0,2.4,0.1h0.1c0.8,0,1.6,0,2.4,0
			c0.2,0,0.4,0,0.6,0c0.7,0,1.5-0.1,2.2-0.1h0.1c0.8,0,1.5-0.1,2.3-0.2c0.2,0,0.4,0,0.6-0.1c0.7-0.1,1.4-0.1,2-0.2
			c0.1,0,0.1,0,0.2,0c0.7-0.1,1.4-0.2,2.1-0.3c0.2,0,0.4-0.1,0.5-0.1c0.6-0.1,1.3-0.2,1.9-0.3c0.1,0,0.1,0,0.2,0
			c0.7-0.1,1.3-0.3,2-0.4c0.2,0,0.3-0.1,0.5-0.1c0.6-0.1,1.1-0.3,1.7-0.4c0.1,0,0.2,0,0.2-0.1c0.6-0.2,1.2-0.3,1.8-0.5
			c0.2,0,0.3-0.1,0.5-0.1c0.5-0.2,1-0.3,1.6-0.5c0.1,0,0.2-0.1,0.3-0.1c0.6-0.2,1.1-0.4,1.7-0.6c0.2-0.1,0.3-0.1,0.5-0.2
			c0.5-0.2,1-0.4,1.4-0.5c0.1,0,0.2-0.1,0.3-0.1c0.5-0.2,1.1-0.4,1.6-0.7c0.1-0.1,0.3-0.1,0.4-0.2c0.4-0.2,0.9-0.4,1.3-0.6
			c0.1,0,0.2-0.1,0.3-0.1c0.5-0.2,1-0.5,1.4-0.7c0.1-0.1,0.2-0.1,0.4-0.2c0.4-0.2,0.8-0.4,1.2-0.6c0.1,0,0.2-0.1,0.2-0.1
			c0.5-0.2,0.9-0.5,1.3-0.8c0.1-0.1,0.2-0.1,0.3-0.2c0.4-0.2,0.7-0.4,1.1-0.7c0.1,0,0.1-0.1,0.2-0.1c0.4-0.2,0.8-0.5,1.2-0.8
			c0.1-0.1,0.2-0.1,0.3-0.2c0.3-0.2,0.7-0.4,1-0.7c0.1,0,0.1-0.1,0.2-0.1c0.4-0.3,0.7-0.5,1.1-0.8c0.1-0.1,0.2-0.1,0.2-0.2
			c0.3-0.2,0.6-0.5,0.9-0.7l0.2-0.1c0.3-0.3,0.7-0.5,1-0.8c0.1,0,0.1-0.1,0.2-0.1c0.3-0.2,0.6-0.5,0.9-0.7l0.1-0.1
			c0.3-0.3,0.6-0.5,0.9-0.8l0.1-0.1c0.3-0.2,0.5-0.5,0.8-0.7l0.1-0.1c0.3-0.3,0.5-0.5,0.8-0.8l0.1-0.1c0.2-0.2,0.5-0.5,0.7-0.7l0,0
			c0.2-0.2,0.5-0.5,0.7-0.7l0,0c0.2-0.2,0.4-0.4,0.6-0.6l0.1-0.1l0,0C196.82,160.08,187.22,155.98,179.52,155.88z"/>
		<path class="st1" d="M189.72,77.58c-0.8,0.7-1.7,1.4-2.5,2.2c-3.6,3.5-6.6,7.1-11.6,6.4c-4.7-0.6-9-1.7-13.4,1c-2,1.3-3.8,3-5.5,5
			c-0.3,1.1-0.7,2.3-1,3.4c-3.2,9.6-8.2,19.3-15.3,25.5c-0.1,0.1-0.2,0.2-0.3,0.2c-2.3,2-4.9,3.7-7.7,4.8c-0.2,0.3-0.3,0.6-0.5,0.8
			l0,0c-1.5,2.3-3.2,4.3-5.1,6.2c-5.2,5-11.3,8-17.7,9.9c4.3,1.3,8.7,1.5,13.2,0.3c5.1-1.3,9.3-4.6,14.1-6.7c4.5-2,8.8-2,13.6-2.3
			c4.7-0.3,8.7-2.1,11.9-6.4c2.9-3.9,4.5-9.1,7.8-12.6c6.5-6.8,16.3-6.6,22.8-13.9c3.9-4.4,6.2-10.2,10.6-14
			c2.2-1.9,4.4-3.9,6.7-5.6c0.9-0.7,1.9-1.2,2.9-1.6c0.2-0.4,0.3-0.8,0.5-1.2C213.12,79.08,203.42,77.18,189.72,77.58z"/>
		<path class="st2" d="M156.82,92.18c1.7-1.9,3.5-3.7,5.5-5c4.3-2.7,8.7-1.7,13.4-1c5,0.7,8-2.9,11.6-6.4c0.8-0.8,1.6-1.5,2.5-2.2
			l0,0h-0.1c-0.6,0-1.2,0-1.8,0.1c-0.2,0-0.4,0-0.6,0c-0.7,0-1.3,0.1-2,0.1c-0.1,0-0.2,0-0.3,0c-0.7,0-1.4,0.1-2,0.2
			c-0.1,0-0.3,0-0.4,0c-0.7,0.1-1.3,0.1-2,0.2c-0.1,0-0.3,0-0.4,0c-0.7,0.1-1.4,0.2-2.1,0.2c-0.1,0-0.2,0-0.3,0
			c-3.3,0.4-6.8,1-10.3,1.8h-0.1c-0.8,0.2-1.7,0.4-2.5,0.6c-0.1,0-0.1,0-0.2,0.1c-0.8,0.2-1.7,0.4-2.5,0.7h-0.1
			c-1,0.3-2,0.6-3.1,0.9c0,0.1,0,0.1,0,0.2C158.42,85.88,157.72,89.08,156.82,92.18z"/>
		<path class="st3" d="M203.02,87.38c-4.4,3.9-6.7,9.6-10.6,14c-6.5,7.3-16.2,7-22.8,13.9c-3.3,3.5-4.9,8.7-7.8,12.6
			c-3.2,4.3-7.1,6.1-11.9,6.4c-4.7,0.3-9.1,0.2-13.6,2.3c-4.8,2.2-9,5.4-14.1,6.7c-4.5,1.2-8.8,0.9-13.2-0.3
			c-0.5,0.2-1.1,0.3-1.6,0.5c3.2,1.4,6.6,2.2,9.9,2.8c2,0.4,4.1,0.7,6.1,0.8c0.3,0,0.4,0.4,0.3,0.7c3.9,0.5,8.4,0.7,13.2,0.3
			c-0.3-0.2-0.3-0.9,0.2-0.9c2.6,0.1,5.2-0.1,7.8-0.5c9.3-1.4,18.3-5.3,26.4-10.8c0.2-0.2,0.4,0,0.5,0.2
			c7.7-5.2,15.4-12.4,22.7-22.4l0.1-0.2c0.3-0.4,0.6-0.8,0.8-1.2c0.1-0.1,0.2-0.3,0.3-0.4c0.2-0.3,0.5-0.7,0.7-1
			c0.1-0.2,0.3-0.4,0.4-0.6c0.2-0.3,0.4-0.6,0.6-0.8c0.2-0.3,0.3-0.5,0.5-0.8c0.2-0.2,0.3-0.5,0.5-0.7c0.2-0.3,0.4-0.6,0.6-0.9
			c0.1-0.2,0.2-0.4,0.4-0.6c0.2-0.4,0.5-0.7,0.7-1.1c0.1-0.2,0.2-0.3,0.3-0.5c0.3-0.4,0.5-0.8,0.8-1.3c0.1-0.1,0.1-0.2,0.2-0.4
			c0.3-0.5,0.5-0.9,0.8-1.4c0.1-0.1,0.1-0.2,0.2-0.3c0.3-0.5,0.6-1,0.9-1.5l0.1-0.2c0.3-0.5,0.6-1.1,0.9-1.6l0.1-0.1
			c0.3-0.6,0.6-1.1,0.9-1.7v-0.1c0.3-0.6,0.6-1.2,0.9-1.8l0,0c0.3-0.6,0.6-1.3,0.9-1.9l0,0c1.9-3.9,3.7-8,5.5-12.4l0,0
			c-1,0.4-1.9,0.9-2.9,1.6C207.42,83.48,205.22,85.38,203.02,87.38z"/>
		<path class="st0" d="M134.42,50.58c-0.9,3.1-2.3,5.5-4,7.6c0.5,2.5,1,4.9,1.4,7.4c0.4-1.8,0.8-3.6,1.1-5.6c0-0.1-0.1-0.2-0.1-0.3
			c-0.2-0.5,0.4-1,0.7-0.5c4.2,9.3,6.5,19.8,6.7,30.3c0,0.2-0.1,0.3-0.1,0.4c0.2,3.3,0.3,6.7,0.1,10.1c0.2,0.1,0.4,0.3,0.3,0.6v0.1
			c2-2.2,3.7-4.6,4.8-7.6c1.9-5.1,1.8-10.5,1.7-16c-0.1-7.4,4.9-10.5,7.6-16.4c2.2-4.8,2.1-10.5,1.7-15.8c-0.4-6.4-1.6-13-0.9-19.5
			c0.4-4.3,2.5-7.6,4.3-11.2c2.8,29.5,1.9,51.6-1.1,68l0,0c3.1-16.8,4-39.4,1-69.7c0,0-9.7,5.3-20.7,15.8c-0.8,2.4-1.4,4.9-1.8,7.5
			C136.22,40.68,135.82,45.78,134.42,50.58z"/>
		<path class="st2" d="M126.42,42.38c1.5,5.2,2.9,10.4,4,15.8c1.7-2.2,3.1-4.5,4-7.6c1.4-4.8,1.8-9.9,2.6-14.8
			c0.4-2.6,1-5.1,1.8-7.5l0,0l-0.1,0.1c-0.5,0.4-0.9,0.9-1.4,1.3c-0.1,0.1-0.2,0.2-0.2,0.2c-0.4,0.4-0.9,0.8-1.3,1.3
			c-0.1,0.1-0.2,0.2-0.3,0.3c-0.4,0.4-0.9,0.9-1.3,1.3c-0.1,0.1-0.2,0.2-0.3,0.3c-0.4,0.5-0.9,0.9-1.3,1.4c-0.1,0.1-0.2,0.2-0.2,0.3
			c-0.5,0.5-0.9,1-1.4,1.5c-0.1,0.1-0.1,0.1-0.2,0.2c-0.5,0.6-1,1.2-1.5,1.8l0,0c-1,1.3-2.1,2.6-3.1,3.9
			C126.32,42.18,126.42,42.28,126.42,42.38z"/>
		<path class="st4" d="M159.72,14.08c-1.7,3.6-3.8,6.9-4.3,11.2c-0.7,6.5,0.5,13.1,0.9,19.5c0.3,5.3,0.5,10.9-1.7,15.8
			c-2.6,5.9-7.6,9.1-7.6,16.4c0.1,5.4,0.2,10.9-1.7,16c-1.1,3-2.9,5.5-4.8,7.6c-0.7,4.6-1.5,9.1-2.8,13.5c-1.1,3.7-2.6,7.3-4.5,10.6
			c2.7-1.2,5.1-2.9,7.4-5c4.6-4.3,8.1-10,11-16.1c3.1-6.6,5.3-13.7,6.5-21.2c0.1-0.3,0.2-0.4,0.4-0.3
			C161.62,65.68,162.52,43.58,159.72,14.08z"/>
		<path class="st0" d="M95.52,147.08c-2,0.4-4.1,0.7-6.2,0.9c-0.2,0-0.3-0.1-0.4-0.3c-4.2,0.5-9,0.8-14.1,0.4
			c-0.1,0-0.1,0.1-0.2,0.1c-2.6,0.1-5.3-0.1-7.9-0.5c-9.4-1.4-18.4-5.3-26.6-10.9c-0.1,0-0.1-0.1-0.1-0.2c-24,13.1-36,17.6-36,17.6
			s1.1,1.7,3.4,4.3c7.8,1.8,17.5-2.4,25.2-2.5c9.3-0.2,16.1,7.9,24.9,9.8c9.9,2.2,18.9-5,28.2-8c4.6-1.4,9.4-2.8,14.2-2.7
			c3.9-5.7,5.8-10.3,6.2-11.1h-0.1C102.52,145.58,98.92,146.38,95.52,147.08z"/>
		<path class="st1" d="M57.42,165.68c-8.8-1.9-15.6-10-24.9-9.8c-7.7,0.1-17.4,4.3-25.2,2.5l0,0l0.1,0.1c0.2,0.2,0.4,0.4,0.6,0.6
			l0,0c0.2,0.2,0.5,0.5,0.7,0.7l0,0c0.2,0.2,0.5,0.5,0.7,0.7l0.1,0.1c0.3,0.2,0.5,0.5,0.8,0.8l0.1,0.1c0.3,0.2,0.5,0.5,0.8,0.7
			l0.1,0.1c0.3,0.3,0.6,0.5,0.9,0.8l0.1,0.1c0.3,0.2,0.6,0.5,0.9,0.7c0.1,0,0.1,0.1,0.2,0.1c0.3,0.3,0.7,0.5,1,0.8l0.2,0.1
			c0.3,0.2,0.6,0.5,0.9,0.7c0.1,0.1,0.2,0.1,0.2,0.2c0.4,0.3,0.7,0.5,1.1,0.8c0.1,0,0.1,0.1,0.2,0.1c0.3,0.2,0.7,0.4,1,0.7
			c0.1,0.1,0.2,0.1,0.3,0.2c0.4,0.3,0.8,0.5,1.2,0.8c0.1,0,0.1,0.1,0.2,0.1c0.4,0.2,0.7,0.4,1.1,0.7c0.1,0.1,0.2,0.1,0.3,0.2
			c0.4,0.2,0.9,0.5,1.3,0.8c0.1,0,0.2,0.1,0.2,0.1c0.4,0.2,0.8,0.4,1.2,0.6c0.1,0.1,0.2,0.1,0.4,0.2c0.5,0.2,1,0.5,1.4,0.7
			c0.1,0,0.2,0.1,0.3,0.1c0.4,0.2,0.9,0.4,1.3,0.6c0.1,0.1,0.3,0.1,0.4,0.2c0.5,0.2,1,0.4,1.6,0.7c0.1,0,0.2,0.1,0.3,0.1
			c0.5,0.2,0.9,0.4,1.4,0.5c0.2,0.1,0.3,0.1,0.5,0.2c0.6,0.2,1.1,0.4,1.7,0.6c0.1,0,0.2,0.1,0.3,0.1c0.5,0.2,1,0.3,1.6,0.5
			c0.2,0,0.3,0.1,0.5,0.1c0.6,0.2,1.2,0.3,1.8,0.5c0.1,0,0.2,0,0.2,0.1c0.6,0.1,1.1,0.3,1.7,0.4c0.2,0,0.3,0.1,0.5,0.1
			c0.6,0.1,1.3,0.3,2,0.4c0.1,0,0.1,0,0.2,0c0.6,0.1,1.2,0.2,1.9,0.3c0.2,0,0.4,0.1,0.5,0.1c0.7,0.1,1.4,0.2,2.1,0.3
			c0.1,0,0.1,0,0.2,0c0.7,0.1,1.4,0.2,2,0.2c0.2,0,0.4,0,0.6,0.1c0.7,0.1,1.5,0.1,2.3,0.2h0.1c0.7,0,1.5,0.1,2.2,0.1
			c0.2,0,0.4,0,0.6,0c0.8,0,1.6,0,2.4,0h0.1c0.8,0,1.6,0,2.4-0.1c0.2,0,0.4,0,0.6,0c0.9,0,1.7-0.1,2.6-0.1c0.5,0,1.1-0.1,1.6-0.1
			c0.2,0,0.3,0,0.5-0.1c0.4,0,0.7-0.1,1.1-0.1c0.2,0,0.4-0.1,0.6-0.1c0.3-0.1,0.7-0.1,1-0.2c0.2,0,0.4-0.1,0.6-0.1
			c0.4-0.1,0.7-0.1,1.1-0.2c0.1,0,0.3-0.1,0.4-0.1c0.5-0.1,1-0.2,1.5-0.3c0.1,0,0.2,0,0.2-0.1c0.4-0.1,0.8-0.2,1.2-0.3
			c0.2-0.1,0.3-0.1,0.5-0.2c0.3-0.1,0.6-0.2,0.9-0.3c0.2-0.1,0.3-0.1,0.5-0.2c0.3-0.1,0.6-0.2,0.9-0.3c0.2-0.1,0.3-0.1,0.5-0.2
			c0.3-0.1,0.7-0.3,1-0.4c0.1,0,0.2-0.1,0.3-0.1c0.4-0.2,0.9-0.4,1.3-0.6c0.1,0,0.2-0.1,0.3-0.1c0.3-0.2,0.6-0.3,1-0.5
			c0.1-0.1,0.3-0.2,0.4-0.2c0.3-0.1,0.5-0.3,0.8-0.4c0.2-0.1,0.3-0.2,0.5-0.2c0.3-0.2,0.5-0.3,0.8-0.4c0.1-0.1,0.3-0.2,0.4-0.2
			c0.3-0.2,0.6-0.4,1-0.6c0.1,0,0.1-0.1,0.2-0.1c0.4-0.2,0.8-0.5,1.1-0.7c0.1-0.1,0.2-0.1,0.3-0.2c0.3-0.2,0.5-0.4,0.8-0.6
			c0.1-0.1,0.2-0.2,0.4-0.3c0.2-0.2,0.5-0.3,0.7-0.5c0.1-0.1,0.2-0.2,0.4-0.3c0.2-0.2,0.5-0.4,0.7-0.6c0.1-0.1,0.2-0.2,0.3-0.2
			c0.7-0.5,1.3-1.1,2-1.7c0.1-0.1,0.1-0.1,0.2-0.2c0.2-0.2,0.5-0.4,0.7-0.7c0.1-0.1,0.2-0.2,0.3-0.2c0.2-0.2,0.5-0.4,0.7-0.6
			c0.1-0.1,0.2-0.2,0.2-0.2c0.2-0.2,0.5-0.5,0.7-0.7l0.1-0.1c0.6-0.6,1.1-1.2,1.7-1.8l0.1-0.1c0.2-0.3,0.5-0.5,0.7-0.8l0.1-0.2
			c0.2-0.2,0.4-0.5,0.6-0.8l0.1-0.1c0.8-0.9,1.5-1.8,2.1-2.7l0,0c0.2-0.3,0.4-0.6,0.6-0.9v-0.1c0.2-0.3,0.4-0.6,0.6-0.9l0,0
			c-4.8,0-9.6,1.3-14.2,2.7C76.32,160.58,67.32,167.88,57.42,165.68z"/>
		<path class="st1" d="M9.12,87.38c4.4,3.9,6.7,9.6,10.6,14c6.5,7.3,16.2,7,22.8,13.9c3.3,3.5,4.9,8.7,7.8,12.6
			c3.2,4.3,7.1,6.1,11.9,6.4c4.7,0.3,9.1,0.2,13.6,2.3c4.8,2.2,9,5.4,14.1,6.7c4.4,1.1,8.7,0.9,13-0.3c-3.1-0.9-6.1-2.1-9-3.6
			c-5.4-2.8-10.5-7.1-14.1-12.7c-0.1-0.2-0.2-0.4-0.4-0.6c-1.4-0.6-2.7-1.2-3.9-2l0,0c-1.6-1-3.1-2.1-4.5-3.4
			c-7.6-7-12.4-17.3-15.3-28.2c-1.8-2-3.7-3.9-5.8-5.2c-4.3-2.7-8.7-1.7-13.4-1c-5,0.7-8-2.9-11.6-6.4c-0.8-0.8-1.6-1.5-2.5-2.2
			c-13.6-0.5-23.3,1.4-23.3,1.4c0.2,0.4,0.3,0.8,0.5,1.2c1,0.4,1.9,0.9,2.9,1.6C4.82,83.48,7.02,85.38,9.12,87.38z"/>
		<path class="st2" d="M36.52,86.18c4.7-0.6,9-1.7,13.4,1c2.1,1.3,4,3.2,5.8,5.2c-0.9-3.3-1.6-6.6-2.1-9.9c-1.1-0.3-2.2-0.7-3.3-1
			h-0.1c-0.8-0.2-1.7-0.4-2.5-0.7c-0.1,0-0.1,0-0.2-0.1c-0.8-0.2-1.7-0.4-2.5-0.6h-0.1c-3.5-0.8-6.9-1.3-10.3-1.8
			c-0.1,0-0.2,0-0.3,0c-0.7-0.1-1.4-0.2-2.1-0.2c-0.1,0-0.3,0-0.4,0c-0.7-0.1-1.3-0.1-2-0.2c-0.1,0-0.3,0-0.4,0
			c-0.7-0.1-1.4-0.1-2-0.2c-0.1,0-0.2,0-0.3,0c-0.7,0-1.3-0.1-2-0.1c-0.2,0-0.4,0-0.6,0c-0.6,0-1.2,0-1.8-0.1h-0.1l0,0
			c0.8,0.7,1.7,1.4,2.5,2.2C28.52,83.28,31.52,86.78,36.52,86.18z"/>
		<path class="st12" d="M40.52,135.88c2.3,1.5,4.6,2.9,7,4.2c8.5,4.5,17.8,7.3,27.1,7.1c0.4,0,0.5,0.6,0.2,0.9
			c5.2,0.4,10,0.1,14.1-0.4c-0.1-0.3,0.1-0.6,0.4-0.6c2-0.2,4-0.5,5.9-0.8c3.1-0.6,6.3-1.3,9.2-2.7c-0.5-0.2-1.1-0.3-1.6-0.5
			c-4.3,1.2-8.6,1.4-13,0.3c-5.1-1.3-9.3-4.6-14.1-6.7c-4.5-2-8.8-2-13.6-2.3c-4.7-0.3-8.7-2.1-11.9-6.4c-2.9-3.9-4.5-9.1-7.8-12.6
			c-6.5-6.8-16.3-6.6-22.8-13.9c-3.9-4.4-6.2-10.2-10.6-14c-2.2-1.9-4.4-3.9-6.7-5.6c-0.9-0.7-1.9-1.2-2.9-1.6l0,0
			c2.3,5.8,4.8,11.2,7.4,16.1l0,0c0.3,0.6,0.6,1.2,1,1.8l0,0c0.3,0.6,0.6,1.2,0.9,1.7l0.1,0.1c0.3,0.5,0.6,1.1,0.9,1.6l0.1,0.2
			c0.3,0.5,0.6,1,0.9,1.5c0,0.1,0.1,0.2,0.1,0.2c0.3,0.5,0.6,0.9,0.8,1.4c0.1,0.1,0.1,0.2,0.2,0.3c0.3,0.4,0.5,0.9,0.8,1.3
			c0.1,0.1,0.2,0.3,0.3,0.4c0.2,0.4,0.5,0.8,0.7,1.1c0.1,0.2,0.2,0.3,0.3,0.5c0.2,0.3,0.4,0.7,0.6,1c0.1,0.2,0.3,0.4,0.4,0.6
			c0.2,0.3,0.4,0.5,0.6,0.8s0.4,0.5,0.5,0.8c0.2,0.2,0.3,0.4,0.5,0.6c0.2,0.3,0.4,0.6,0.7,0.9c0.1,0.2,0.2,0.3,0.3,0.4
			c0.3,0.4,0.5,0.7,0.8,1.1c0.1,0.1,0.1,0.2,0.2,0.2c0.3,0.4,0.6,0.8,1,1.3l0,0c6.6,8.5,13.5,14.9,20.4,19.6
			C40.22,135.78,40.32,135.78,40.52,135.88z"/>
		<path class="st0" d="M55.82,44.78c-0.3,5.3-0.5,10.9,1.7,15.8c2.6,5.9,7.6,9.1,7.6,16.4c-0.1,5.4-0.2,10.9,1.7,16
			c1.2,3.2,3,5.7,5.1,7.9v-0.1c0-0.2-0.1-0.3-0.1-0.5c0-0.1,0-0.2,0-0.3c0-0.1,0-0.2,0-0.4c0-0.2,0-0.4,0-0.5c0-0.3,0-0.6,0-0.9
			c0-0.2,0-0.4,0-0.6c0-0.5,0-1,0-1.5c0-0.2,0-0.4,0-0.6c0-0.3,0-0.6,0-0.9c0-0.2,0-0.4,0-0.7c0-0.4,0-0.8,0-1.3c0-0.3,0-0.5,0-0.8
			s0-0.5,0-0.8c0-0.2,0-0.5,0-0.7s0-0.3,0-0.4c-0.1-0.1-0.2-0.2-0.2-0.4c0.3-10.6,2.6-21,6.7-30.3c0.2-0.5,0.9-0.1,0.7,0.5
			c-0.1,0.2-0.1,0.3-0.2,0.5c0.4,2.3,0.8,4.4,1.3,6.4l0,0c1,3.8,2.1,7.2,3.4,10.3c-0.2-5.3-0.1-10.7,0.5-15.9c-2.7-3-5-5.8-6.3-10.3
			c-1.4-4.8-1.8-9.9-2.6-14.8c-0.4-2.6-1-5.1-1.8-7.5c-11-10.5-20.7-15.8-20.7-15.8c-0.1,0.6-0.1,1.1-0.2,1.7
			c1.7,3.6,3.8,6.9,4.3,11.2C57.42,31.78,56.32,38.38,55.82,44.78z"/>
		<path class="st2" d="M77.72,50.58c1.3,4.5,3.6,7.3,6.3,10.3c0.6-5.8,1.7-11.4,3.2-16.9c-0.1-0.1-0.1-0.2-0.2-0.3l0,0
			c-0.3-0.4-0.6-0.8-0.9-1.2l0,0c-0.5-0.7-1-1.3-1.5-1.9c-0.2-0.2-0.3-0.4-0.5-0.6c-0.3-0.4-0.7-0.9-1.1-1.3
			c-0.2-0.2-0.4-0.4-0.6-0.7c-0.3-0.4-0.7-0.8-1-1.2c-0.2-0.2-0.4-0.4-0.6-0.7c-0.3-0.4-0.7-0.8-1-1.1c-0.2-0.2-0.4-0.4-0.6-0.6
			c-0.3-0.4-0.7-0.7-1-1.1c-0.2-0.2-0.4-0.4-0.5-0.6c-0.3-0.4-0.7-0.7-1-1.1c-0.2-0.2-0.3-0.3-0.5-0.5c-0.4-0.4-0.8-0.8-1.1-1.1
			c-0.1-0.1-0.3-0.3-0.4-0.4c-0.5-0.4-0.9-0.9-1.3-1.3l-0.2-0.1l0,0c0.8,2.4,1.4,4.9,1.8,7.5C76.02,40.68,76.32,45.78,77.72,50.58z"
			/>
		<path class="st4" d="M54.12,81.58c0.7,4.3,1.6,8.5,2.8,12.6c3.7,12.7,10.9,25.6,21.7,30.5c-0.1-0.2-0.2-0.3-0.2-0.4
			c-1.3-2.5-2.3-5.1-3.2-7.8v-0.1c-1.5-4.9-2.4-10.1-3.2-15.2l0,0c0-0.1,0-0.2,0-0.3c-2.1-2.2-3.9-4.8-5.1-7.9
			c-1.9-5.1-1.8-10.5-1.7-16c0.1-7.4-4.9-10.5-7.6-16.4c-2.2-4.8-2.1-10.5-1.7-15.8c0.4-6.4,1.6-13,0.9-19.5
			c-0.4-4.3-2.5-7.6-4.3-11.2l0,0l0,0c-2.8,29-1.9,50.9,1,67.3C53.72,81.18,54.12,81.18,54.12,81.58z"/>
		<path class="st5" d="M98.22,46.88c0.4,5.5-1,9.7-2.9,14.5c-1.7,4.4-2.6,8.8-2,13.7c0.7,5,2.7,9.4,4.8,13.7
			c2.4,5.1,4.2,9.6,4.1,15.6c0,5.5,0.9,9.7,3.7,14.1l0.8,1.1c1.6-7.8,4.4-15.1,8.6-21.6c0.2-0.3,0.6-0.1,0.6,0.3
			c1.6-2.7,3.2-5.2,4.7-7.6c1.3-3.4,2.3-7,2.3-10.9c-0.1-5.6-2.1-10.4-4-15.4c-2.6-6.6,0.8-12,1.1-18.7c0.3-5.5-1.8-10.5-4-15.2
			c-2.6-5.6-6-11-7.6-17.2c-1.1-4.1-0.4-8.2-0.1-12.3c-0.2-0.5-0.5-0.9-0.7-1.4c0,0-6.9,9.7-13.3,24.7c0.1,2.6,0.5,5.2,1,7.8
			C96.32,37.08,97.82,41.88,98.22,46.88z"/>
		<path class="st4" d="M88.12,43.98c-3.1,10.8-4.3,22.3-3.7,33.8c0,0.2-0.1,0.4-0.2,0.4c3.1,7,7.1,12.9,11.5,20.1
			c0.1-0.2,0.4-0.4,0.6-0.1c2.3,3.5,4.2,7.4,5.7,11.5c1.8,5,3.1,10.3,3.8,15.7c0.3-1.9,0.6-3.8,1-5.7l-0.8-1.1
			c-2.8-4.4-3.7-8.6-3.7-14.1c0-5.9-1.8-10.5-4.1-15.6c-2.1-4.3-4.1-8.8-4.8-13.7c-0.7-4.9,0.3-9.3,2-13.7c1.8-4.9,3.3-9.1,2.9-14.5
			c-0.4-5-1.8-9.8-2.9-14.7c-0.5-2.6-0.9-5.2-1-7.8l0,0l-0.1,0.2c-0.3,0.6-0.5,1.2-0.8,1.9c-0.1,0.1-0.1,0.2-0.2,0.4
			c-0.2,0.6-0.5,1.2-0.7,1.8c-0.1,0.2-0.1,0.3-0.2,0.4c-0.2,0.6-0.5,1.2-0.7,1.8c-0.1,0.2-0.1,0.3-0.2,0.5c-0.2,0.6-0.5,1.3-0.7,1.9
			c-0.1,0.1-0.1,0.3-0.2,0.4c-0.2,0.7-0.5,1.3-0.7,2c0,0.1-0.1,0.2-0.1,0.3c-0.2,0.8-0.5,1.5-0.7,2.3v0.1c-0.5,1.7-1,3.4-1.5,5.1
			C88.02,43.48,88.22,43.68,88.12,43.98z"/>
		<path class="st2" d="M108.42,13.48c1.7,6.2,5,11.6,7.6,17.2c2.2,4.7,4.2,9.7,4,15.2c-0.3,6.7-3.8,12.1-1.1,18.7
			c2,4.9,4,9.8,4,15.4c0,3.9-1,7.5-2.3,10.9c4.5-7.4,8.4-14.2,10.9-23.8c-0.1,0-0.2-0.1-0.3-0.3c-1.4-8.1-3.3-16.2-5.6-24
			c-0.1-0.2,0-0.3,0.1-0.4c-3.9-12-9.5-25.7-17.3-41.1l0,0l0,0C108.02,5.28,107.32,9.28,108.42,13.48z"/>
		<path class="st6" d="M112.32,137.38c3.2-2.3,6.2-4,8-8.1c1.9-4.5,1.9-8.9,5.4-12.3c2.8-2.8,5.5-5.2,6.8-9.4
			c1.4-4.5,1-9.1,0.7-13.8c-0.5-6,1.6-9.7,3.7-14.9c0.4-1,0.8-2,1.1-3.1c0.1,0.2,0.1,0.4,0.2,0.7c-0.2-1.3-0.5-2.6-0.9-3.9
			c0-0.1-0.1-0.2-0.1-0.3c-1-4.2-2.4-8.3-4.1-12.1c-0.3,2-0.7,3.8-1.1,5.6c0.1,0.3,0.1,0.6,0.1,0.8c0.1,0.4-0.2,0.6-0.4,0.6
			c-0.1,1.2-0.3,2.5-0.6,3.7c-1,4.8-3.4,8.7-4.9,13.2c-2.7,8,0.1,17.3-4.7,24.4c-2,3-4.8,5.2-6.6,8.4c-1.7,3-2.7,6.5-4.2,9.6
			c-1,2.1-2.5,3.7-4.2,4.9c0.2,3.2,0.3,6.4,0.2,9.6c0,0.3-0.2,0.5-0.5,0.4c0,0.7-0.1,1.2-0.1,1.6c0.7-0.2,1.4-0.4,2-0.6
			C109.02,140.38,110.42,138.68,112.32,137.38z"/>
		<path class="st7" d="M106.22,128.68c0.1,0.8,0.1,1.6,0.2,2.4c1.7-1.2,3.2-2.8,4.2-4.9c1.5-3.1,2.5-6.6,4.2-9.6
			c1.8-3.2,4.6-5.4,6.6-8.4c4.7-7.1,1.9-16.4,4.7-24.4c1.5-4.5,3.9-8.4,4.9-13.2c0.3-1.2,0.4-2.5,0.6-3.7h-0.1
			c-2.5,9.7-6.3,16.5-10.9,23.8c-1.5,2.4-3,4.9-4.7,7.6c0,0.1,0,0.3-0.1,0.4C110.32,107.48,107.22,117.98,106.22,128.68z"/>
		<path class="st8" d="M140.12,89.88c-0.2,0.2-0.6,0.1-0.6-0.4c-0.1-4.4-0.6-8.9-1.4-13.2c-0.1-0.2-0.1-0.5-0.2-0.7
			c-0.3,1.1-0.7,2.1-1.1,3.1c-2.1,5.2-4.2,8.9-3.7,14.9c0.3,4.7,0.7,9.3-0.7,13.8c-1.3,4.2-4,6.6-6.8,9.4c-3.4,3.4-3.5,7.9-5.4,12.3
			c-1.8,4.2-4.8,5.9-8,8.1c-1.9,1.3-3.3,3-4.2,5c3.6-1,7.1-2.4,10.5-4.2c3.2-1.8,6.3-4.1,9-6.9c2.6-2.7,4.7-5.9,6.4-9.5
			c3.3-6.6,4.8-13.9,5.9-21.4c0-0.3,0.2-0.4,0.4-0.3C140.42,96.58,140.32,93.18,140.12,89.88z"/>
		<path class="st2" d="M105.82,140.78c0.1-1.6,0.1-3.3,0-4.9c0-1.5-0.1-3.1-0.2-4.6c-1.8-1.2-3.4-2.8-4.5-5
			c-1.5-3.1-2.5-6.6-4.2-9.6c-1.8-3.2-4.6-5.4-6.6-8.4c-4.7-7.1-1.9-16.4-4.7-24.4c-1.5-4.5-3.9-8.4-4.9-13.2
			c-0.3-1.4-0.5-2.8-0.6-4.1c-0.5-2-0.9-4.1-1.3-6.4c-2.2,5-3.8,10.2-4.9,15.6c0.3,1,0.6,2,1,2.9c2.1,5.2,4.2,8.9,3.7,14.9
			c-0.3,4.7-0.7,9.3,0.7,13.8c1.3,4.2,4,6.6,6.8,9.4c3.4,3.4,3.5,7.9,5.4,12.3c1.8,4.2,4.8,5.9,8,8.1c1.9,1.3,3.3,3,4.2,5
			c0.7,0.2,1.5,0.4,2.2,0.6h0.1c0-0.4,0.1-1,0.1-1.6C105.92,141.18,105.82,141.08,105.82,140.78z"/>
		<path class="st9" d="M85.72,83.88c2.7,8-0.1,17.3,4.7,24.4c2,3,4.8,5.2,6.6,8.4c1.7,3,2.7,6.5,4.2,9.6c1.1,2.2,2.7,3.8,4.5,5
			c-0.1-0.8-0.1-1.6-0.2-2.3v-0.1c-1.1-10.8-4.1-21.4-9.7-30c-0.1-0.2-0.1-0.4,0-0.6c-4.3-7.2-8.3-13.1-11.5-20.1
			c-0.2,0.1-0.5-0.1-0.6-0.4c0-0.3,0-0.6,0-0.9c-1.3-3.1-2.5-6.5-3.4-10.3l0,0c0.1,1.4,0.3,2.8,0.6,4.1
			C81.82,75.48,84.12,79.38,85.72,83.88z"/>
		<path class="st10" d="M99.52,137.28c-3.2-2.3-6.2-4-8-8.1c-1.9-4.5-1.9-8.9-5.4-12.3c-2.8-2.8-5.5-5.2-6.8-9.4
			c-1.4-4.5-1-9.1-0.7-13.8c0.5-6-1.6-9.7-3.7-14.9c-0.4-0.9-0.7-1.9-1-2.9c-0.9,4.5-1.4,9.1-1.5,13.7c0,0.4-0.3,0.5-0.5,0.4
			c0,0.2,0,0.3,0,0.4c0,0.2,0,0.5,0,0.7c0,0.3,0,0.5,0,0.8s0,0.5,0,0.8c0,0.4,0,0.8,0,1.3c0,0.2,0,0.4,0,0.7c0,0.3,0,0.6,0,0.9
			c0,0.2,0,0.4,0,0.6c0,0.5,0,1,0,1.5c0,0.2,0,0.4,0,0.6c0,0.3,0,0.6,0,0.9c0,0.2,0,0.4,0,0.5s0,0.2,0,0.4c0.1-0.4,0.6-0.5,0.7,0
			c0.7,4.6,1.5,9.2,2.7,13.6c1,3.9,2.4,7.7,4.3,11.1c0.6,1.1,1.3,2.2,2.1,3.2c0.1,0.1,0.1,0.2,0.2,0.2c1.4,1.9,3,3.6,4.7,5.1
			s3.5,2.8,5.3,3.9l0.1,0.1c3.7,2.3,7.7,3.8,11.7,5C102.72,140.28,101.42,138.68,99.52,137.28z"/>
		<path class="st11" d="M83.62,76.78c0,0.3,0,0.6,0,0.9c0,0.4,0.3,0.5,0.6,0.4c0.1-0.1,0.2-0.2,0.2-0.4c-0.6-11.4,0.6-22.9,3.7-33.8
			c0.1-0.3-0.1-0.5-0.3-0.6l0,0c-0.2,0-0.4,0.1-0.4,0.3l-0.1,0.2l0,0c-1.5,5.5-2.6,11.2-3.2,16.9
			C83.52,66.18,83.32,71.48,83.62,76.78z"/>
		<path class="st11" d="M40.12,136.68c8.2,5.6,17.3,9.5,26.6,10.9c2.6,0.4,5.3,0.6,7.9,0.5c0.1,0,0.1,0,0.2-0.1
			c0.3-0.2,0.2-0.9-0.2-0.9c-9.3,0.2-18.6-2.6-27.1-7.1c-2.4-1.3-4.7-2.7-7-4.2c-0.2-0.1-0.3-0.1-0.4,0c-0.2,0.1-0.2,0.4-0.1,0.6
			C40.02,136.58,40.02,136.68,40.12,136.68z"/>
		<path class="st11" d="M95.72,98.88c5.6,8.6,8.6,19.2,9.7,30v0.1c0.1,0.8,0.1,1.6,0.2,2.3c0.1,1.5,0.2,3.1,0.2,4.6
			c0,1.6,0,3.3,0,4.9c0,0.3,0.2,0.4,0.3,0.4c0.2,0,0.4-0.1,0.5-0.4c0.1-3.2,0-6.4-0.2-9.6c-0.1-0.8-0.1-1.6-0.2-2.4
			c1-10.8,4.1-21.3,9.7-29.9c0.1-0.1,0.1-0.3,0.1-0.4c-0.1-0.3-0.4-0.6-0.6-0.3c-4.2,6.4-7,13.8-8.6,21.6c-0.4,1.9-0.7,3.8-1,5.7
			c-0.7-5.4-2-10.7-3.8-15.7c-1.5-4.1-3.4-8-5.7-11.5c-0.2-0.3-0.5-0.2-0.6,0.1C95.62,98.38,95.62,98.68,95.72,98.88z"/>
		<path class="st11" d="M72.42,89.48c0.1-4.6,0.6-9.2,1.5-13.7c1.1-5.4,2.7-10.7,4.9-15.6c0.1-0.2,0.1-0.3,0.2-0.5
			c0.2-0.5-0.4-1-0.7-0.5c-4.2,9.3-6.5,19.8-6.7,30.3c0,0.2,0.1,0.4,0.2,0.4l0,0C72.12,90.08,72.42,89.88,72.42,89.48z"/>
		<path class="st11" d="M106.12,143.78L106.12,143.78c3.6,1.8,7.5,2.7,11.3,3.3c2,0.3,4.1,0.7,6.1,0.8c0.2,0,0.3-0.1,0.3-0.2
			c0.1-0.3,0-0.7-0.3-0.7c-2-0.2-4.1-0.4-6.1-0.8c-3.4-0.6-6.7-1.4-9.9-2.8c0.6-0.2,1.1-0.3,1.6-0.5c6.4-1.9,12.5-4.9,17.7-9.9
			c1.9-1.8,3.6-3.9,5.1-6.2l0,0c0.2-0.3,0.3-0.6,0.5-0.8c2.8-1.1,5.4-2.8,7.7-4.8c0.1-0.1,0.2-0.2,0.3-0.2
			c7.1-6.2,12.1-15.9,15.3-25.5c0.4-1.1,0.7-2.2,1-3.4c0.9-3.1,1.6-6.3,2.1-9.5c0-0.1,0-0.2,0-0.2l0,0c0-0.2-0.2-0.3-0.3-0.3l0,0
			c-0.2-0.1-0.4,0-0.4,0.3c-1.2,7.4-3.4,14.6-6.5,21.2c-2.9,6-6.4,11.8-11,16.1c-2.2,2.1-4.7,3.8-7.4,5c1.9-3.3,3.4-6.9,4.5-10.6
			c1.3-4.4,2.1-8.9,2.8-13.5v-0.1c0-0.3-0.1-0.5-0.3-0.6c-0.2,0-0.4,0-0.4,0.3c-1.1,7.5-2.6,14.8-5.9,21.4c-1.7,3.5-3.8,6.8-6.4,9.5
			c-2.7,2.8-5.7,5.1-9,6.9c-3.4,1.9-6.9,3.2-10.5,4.2c-0.7,0.2-1.4,0.4-2,0.6h-0.1c-0.7-0.2-1.5-0.4-2.2-0.6c-4-1.2-8-2.8-11.7-5
			l-0.1-0.1c-1.9-1.1-3.6-2.4-5.3-3.9c-1.7-1.5-3.3-3.2-4.7-5.1c-0.1-0.1-0.1-0.2-0.2-0.2c-0.7-1-1.4-2.1-2.1-3.2
			c-1.9-3.4-3.3-7.2-4.3-11.1c-1.2-4.5-1.9-9-2.7-13.6c-0.1-0.5-0.6-0.4-0.7,0l0,0c0,0.1,0,0.2,0,0.3c0,0.2,0.1,0.3,0.1,0.5l0,0
			c0,0.1,0,0.2,0.1,0.4c0.8,5.1,1.7,10.3,3.2,15.2v0.1c0.8,2.7,1.9,5.3,3.2,7.8c0.1,0.2,0.2,0.3,0.2,0.4c-10.9-5-18-17.8-21.7-30.5
			c-1.2-4.1-2.1-8.3-2.8-12.6c-0.1-0.4-0.4-0.4-0.6-0.2l0,0c-0.1,0.1-0.1,0.2-0.1,0.4c0,0.2,0.1,0.5,0.1,0.7l0,0
			c0.6,3.3,1.3,6.6,2.1,9.9c2.9,10.9,7.7,21.2,15.3,28.2c1.4,1.3,2.9,2.4,4.5,3.4l0,0c1.3,0.8,2.6,1.5,3.9,2
			c0.1,0.2,0.2,0.4,0.4,0.6c3.6,5.7,8.6,9.9,14.1,12.7c2.9,1.5,5.9,2.7,9,3.6c0.5,0.2,1.1,0.3,1.6,0.5c-2.9,1.4-6.1,2.1-9.2,2.7
			c-2,0.4-4,0.7-5.9,0.8c-0.3,0-0.4,0.4-0.4,0.6s0.2,0.3,0.4,0.3c2.1-0.2,4.1-0.5,6.2-0.9c3.5-0.7,7.1-1.5,10.3-3.2h0.1l0,0l0,0l0,0
			h0.1L106.12,143.78L106.12,143.78z"/>
		<path class="st11" d="M171.42,135.88c-8.1,5.5-17.1,9.4-26.4,10.8c-2.6,0.4-5.2,0.6-7.8,0.5c-0.4,0-0.5,0.7-0.2,0.9
			c0.1,0,0.1,0.1,0.2,0.1c9.4,0.2,18.8-2.6,27.4-7.2c2.4-1.3,4.8-2.7,7.1-4.3c0.1-0.1,0.1-0.1,0.2-0.2c0.1-0.1,0.1-0.3,0-0.4
			C171.82,135.88,171.62,135.78,171.42,135.88z"/>
		<path class="st11" d="M137.22,72.38c0.3,1.3,0.6,2.6,0.9,3.9c0.8,4.3,1.3,8.7,1.4,13.2c0,0.4,0.4,0.6,0.6,0.4
			c0.1-0.1,0.2-0.2,0.1-0.4c-0.3-10.6-2.6-21-6.7-30.3c-0.2-0.5-0.9-0.1-0.7,0.5c0.1,0.1,0.1,0.2,0.1,0.3c1.7,3.9,3.1,7.9,4.1,12.1
			C137.22,72.18,137.22,72.28,137.22,72.38z"/>
		<path class="st11" d="M125.62,42.68c2.3,7.8,4.3,15.9,5.6,24c0,0.2,0.1,0.3,0.3,0.3h0.1c0.2,0,0.5-0.2,0.4-0.6
			c-0.1-0.3-0.1-0.6-0.1-0.8c-0.4-2.5-0.9-4.9-1.4-7.4c-1.1-5.3-2.5-10.6-4-15.8c0-0.1-0.1-0.2-0.2-0.2l0,0
			c-0.2-0.1-0.4-0.1-0.5,0.1l0,0C125.62,42.38,125.62,42.48,125.62,42.68z"/>
	</g>
	<text transform="matrix(0.9286 0 0 1 223.6872 107.7256)" class="st13 st14 st15">Worthmn</text>
	<text transform="matrix(0.9286 0 0 1 230.6804 170.3974)" class="st16 st17">Understand • Heal • Grow</text>
</g>
</svg>
