<?xml version="1.0" encoding="utf-8"?>
<!-- Generator: Adobe Illustrator 24.3.0, SVG Export Plug-In . SVG Version: 6.00 Build 0)  -->
<svg version="1.1" id="Layer_1" xmlns="http://www.w3.org/2000/svg" xmlns:xlink="http://www.w3.org/1999/xlink" x="0px" y="0px"
	 viewBox="0 0 841.89 595.28" style="enable-background:new 0 0 841.89 595.28;" xml:space="preserve">
<style type="text/css">
	.st0{fill:#C8C2CB;}
	.st1{fill:#B9B3BD;}
	.st2{fill:#2F1549;}
	.st3{fill:#0B2733;}
	.st4{fill:#FCCDA4;}
	.st5{fill:#EEBC92;}
	.st6{fill:#113547;}
	.st7{fill:#F89F7F;}
	.st8{fill:#3A215B;}
	.st9{fill:#3B215C;}
</style>
<g>
	<path id="XMLID_51_" class="st0" d="M449.45,406.08c-12.82-2.9-38.76-6.81-63.72,1.44c-13.93,4.6-18.23,18.94-9.86,46.4
		c23.5,77.12,24.54,141.63,24.54,141.63h144.85c0,0,48.69-169.51,24.3-188.03c-8.34-6.34-86.16,3.09-86.16,3.09
		S457.78,407.97,449.45,406.08z"/>
	<path id="XMLID_69_" class="st1" d="M394.11,415.26c0,0,13.69,11.53,13.69,48.53c0,28.33,0,66.88,0,66.88
		c4.2,1.36,33.1-23.01,36.16-29.12c0,0-14.75-33.42,0-37.76c0,0,4.05-14.77,11.61-14.77c7.56,0,26.98,14.82,28.09,31.91
		c1.1,17.08-10.86,67.89-20.53,82.86c-5.9,9.13-20.66,31.94-58.02,31.62c-37.36-0.32-21.54-149.11-21.54-149.11
		S385,420.76,394.11,415.26z"/>
	<path id="XMLID_81_" class="st1" d="M563.29,413.03c0,0-11.02,7.41-14.29,31c-3.28,23.59-7.21,92.99-7.21,92.99
		s-35.4-21.19-36.87-31.69c0,0,13.39-13.23,12.29-33.63c-1.1-20.41-12.29-4.08-12.29-4.08s1.47-19.96-12.05-18.6
		c-13.52,1.36-23.35,38.74-23.84,58.38c-0.49,19.64,16.72,86.85,68.34,88.17c0,0,48.18-68.98,48.18-85.31
		C585.54,493.93,563.29,413.03,563.29,413.03z"/>
	<path id="XMLID_1985_" class="st2" d="M407.81,343.99c0,0-3.54,72.82,108.8,54.5c58.64-9.56,114.17-36.57,154.97-22.61
		c63.14,21.61,112.64-21.08,112.09-59.35c-0.55-38.26-114.53-87.9-114.53-87.9l-120.18-10.91l-88.66,52.1
		C460.3,269.83,410.03,292.01,407.81,343.99z"/>
	<path id="XMLID_63_" class="st3" d="M444.44,271.65c0,0-50.04,86.33-7.33,114.31c53.54,35.08,149.41-38.01,207.42-26.66
		c58.01,11.35,184.41-15.24,160.81-105.43c-14.92-57.04-216.36-59.04-265.53-50.27C490.66,212.38,444.44,271.65,444.44,271.65z"/>
	<path id="XMLID_89_" class="st0" d="M567.77,406.68c-15.82,8.41-27.09,24.79-50.88,44c-31.47,25.4-77.38,11.49-96.39-21.17
		c-6.88-11.83-19.1-18.81-31.87-22.89c24.05-7.05,48.5-3.33,60.83-0.54c8.33,1.88,33.94,4.53,33.94,4.53
		S553.51,402.12,567.77,406.68z"/>
	<path id="XMLID_1982_" class="st4" d="M457.16,387.98c0,0-4.48,23.09-2.56,37.61c0.53,4,6.88,13.61,22.95,13.61
		c16.38,0,22.5-7.17,23.31-14.21c0.87-7.55-3.48-40.94-3.48-40.94S459.72,373.05,457.16,387.98z"/>
	<path id="XMLID_93_" class="st5" d="M500.55,426.74c-1.58,6.43-7.98,12.46-22.99,12.46c-15.04,0-21.57-8.41-22.78-12.77
		C464.76,433.29,481.43,439.72,500.55,426.74z"/>
	<path id="XMLID_1984_" class="st2" d="M463.61,181.69c0,0-128.07,16.48-60.21,122.48c57.4,89.67,87.26-91.79,87.26-91.79
		S488.4,173.86,463.61,181.69z"/>
	<path id="XMLID_61_" class="st3" d="M448.9,221.6c0,0-17.73-17.54-45.64,5.6c-16.39,13.59-14.79,52.93,1.16,64.12
		C420.35,302.5,453.27,232.47,448.9,221.6z"/>
	<path id="XMLID_79_" class="st5" d="M498.8,395.67c-10.89,5.84-35.56,7.33-42.32,3.1c-0.32-0.21-0.63-0.43-0.91-0.67
		c0.79-5.93,1.6-10.12,1.6-10.12c2.56-14.92,40.23-3.94,40.23-3.94S498.05,389.07,498.8,395.67z"/>
	<path id="XMLID_1642_" class="st4" d="M411.34,256.59c0,0-27.53,87.65,19.01,119.1c46.54,31.45,102.26,9.68,118.65-32.66
		c16.39-42.34,8.12-91.95-17.7-110.08C501.15,211.78,427.73,206.94,411.34,256.59z"/>
	<path id="XMLID_75_" class="st5" d="M444.67,221.71c0,0-2.19,26.17,7.31,48.13c8.25,19.07,49,57.67,108.82,21.16L444.67,221.71z"/>
	<path id="XMLID_95_" class="st2" d="M877.53,97.47c-10.1-28.23-28.88-54.57-57.24-69.52c-8.78-4.63-18.41-8.3-28.54-8.94
		c-12.9-0.81-25.61,3.35-36.99,8.91c-19.1,9.34-35.82,22.95-46.94,39.83c-6.29,9.55-10.79,20.07-17.99,29.07
		c-7.2,9.01-18.09,16.63-30.37,16.58c-17.58-0.06-29.75-17.87-47.12-20.15c-54.89-7.21-58.28,56.81-118.24,55.34
		c-35.45-0.87-57.34,36.95-46.75,81.65c6.9,29.14,23.7,97.63,113.46,60.74c0.02,0.02,47.64-24.56,132.45,49.32
		c29.84,26,113.08-0.89,141.38-24.05C905.55,258.26,896.43,150.26,877.53,97.47z"/>
	<path id="XMLID_1986_" class="st6" d="M473.14,315.59c0,0,0.21,0.75,0.49,2.06c0.13,0.65,0.31,1.45,0.45,2.36
		c0.14,0.93,0.39,1.88,0.37,3.21c0,1.26-0.24,2.63-0.76,4.02c-0.52,1.39-1.36,2.79-2.52,4.04c-0.58,0.63-1.24,1.22-1.97,1.74
		c-0.36,0.27-0.75,0.51-1.14,0.75c-0.28,0.18-0.69,0.4-0.96,0.58c-1.14,0.72-2.31,1.57-3,2.4c-0.34,0.4-0.55,0.78-0.61,1.02
		c-0.05,0.25-0.08,0.39,0.09,0.71c0.01,0.07,0.08,0.16,0.14,0.24c0.07,0.09,0.1,0.17,0.19,0.27l0.26,0.28l0.06,0.07l0.03,0.04
		l0.02,0.02l0.01,0.01c0.08,0.06-0.1-0.08-0.07-0.06l0.22,0.18c0.57,0.48,1.17,1.01,1.63,1.32c0.95,0.75,2.17,1.43,3.26,2.01
		c1.14,0.55,2.26,1.07,3.35,1.45c2.16,0.81,4.1,1.31,5.48,1.64c1.38,0.32,2.2,0.47,2.2,0.47s-0.2,0.06-0.58,0.15
		c-0.38,0.07-0.95,0.21-1.67,0.29c-0.73,0.09-1.62,0.17-2.65,0.2c-1.03,0.01-2.2-0.03-3.48-0.19c-1.28-0.14-2.65-0.44-4.1-0.86
		c-1.44-0.48-2.88-1-4.39-1.91c-0.82-0.44-1.38-0.88-2.01-1.31l-0.23-0.17l-0.36-0.31l-0.56-0.51c-0.18-0.18-0.35-0.41-0.52-0.61
		c-0.17-0.21-0.34-0.42-0.47-0.7c-0.62-0.96-0.92-2.38-0.62-3.59c0.26-1.22,0.88-2.18,1.53-2.96c1.35-1.52,2.82-2.48,4.36-3.34
		c0.4-0.22,0.69-0.36,1.08-0.57c0.28-0.15,0.57-0.28,0.83-0.45c0.54-0.31,1.03-0.69,1.51-1.07c0.93-0.79,1.71-1.7,2.31-2.66
		c0.6-0.96,1.05-1.98,1.32-2.94c0.28-0.9,0.41-2.01,0.57-2.91c0.14-0.91,0.32-1.71,0.45-2.36
		C472.93,316.33,473.14,315.59,473.14,315.59z"/>
	<path id="XMLID_53_" class="st6" d="M500.87,313.99c0,0,14.37,5.06,24.69-1.06c0,0,1.23,9.07-12.34,9.07
		C503.06,322,500.87,313.99,500.87,313.99z"/>
	<path id="XMLID_74_" class="st6" d="M449.48,313.99c0,0-14.37,5.06-24.69-1.06c0,0-1.23,9.07,12.34,9.07
		C447.28,322,449.48,313.99,449.48,313.99z"/>
	<g id="XMLID_54_">
		<path id="XMLID_59_" class="st4" d="M404.63,292.11c0,0-17.44-6.84-21.38,12.05c-3.93,18.9,16.05,32.04,24.89,26.54
			C416.99,325.22,404.63,292.11,404.63,292.11z"/>
		<path id="XMLID_66_" class="st5" d="M389,302.8c0,0,15.23-8.77,15.39,6.78c0,0-8.51-1.04-8.68,4.4c-0.18,6.04,9.4,7.26,9.4,7.26
			s-13.5,3.33-13.33-8.32c0,0,1.15-6.96,8.85-6.05C400.63,306.89,399.64,301.59,389,302.8z"/>
	</g>
	<g id="XMLID_70_">
		<path id="XMLID_72_" class="st4" d="M555.7,292.11c0,0,17.44-6.84,21.38,12.05c3.93,18.9-16.05,32.04-24.89,26.54
			C543.34,325.22,555.7,292.11,555.7,292.11z"/>
		<path id="XMLID_71_" class="st5" d="M571.33,302.8c0,0-15.23-8.77-15.39,6.78c0,0,8.51-1.04,8.68,4.4c0.18,6.04-9.4,7.26-9.4,7.26
			s13.5,3.33,13.33-8.32c0,0-1.15-6.96-8.85-6.05C559.71,306.89,560.69,301.59,571.33,302.8z"/>
	</g>
	<path id="XMLID_73_" class="st5" d="M473.52,523.67c-11.02,2.86-24.27-7.23-24.27-7.23l3.56-12.54c0,0-14.77-17.41-11.35-32.28
		c3.42-14.88,10.59,11.84,10.59,11.84s6.35-49.14,12.72-45.59c6.36,3.55,1.48,33.13,1.48,33.13s6.98-33.18,12.35-31.37
		c5.37,1.81-2.1,37.54-2.1,37.54s8.21-35.72,13.43-32.91c5.23,2.81-6.02,40.24-6.02,40.24s8.76-27.87,15.46-22.76
		C506.06,466.85,478.79,522.3,473.52,523.67z"/>
	<path id="XMLID_76_" class="st0" d="M385.73,407.52c0,0-40.27,11.1-33.39,70.07c4.72,40.51,11.83,117.79,48.07,117.98
		c53.72,0.27,73.11-71.9,73.11-71.9s-12.87-19.62-21.89-15.61c-5.93,2.63-51.03,40.3-51.03,40.3
		C398.63,548.35,414.9,416.9,385.73,407.52z"/>
	<path id="XMLID_83_" class="st7" d="M478.88,523.03c0,0-9.51-4.28-19.44-32.05c-7.87-22-4.33-30.21-2.36-31.21
		c2.85-1.45,6.79,4.02,6.79,4.02c-2.95-8.85-2.83-22.63,3.5-21.11c0,0,13.37,45.35,16.36,51.48
		C486.72,500.28,486.24,519.66,478.88,523.03z"/>
	<path id="XMLID_82_" class="st7" d="M474.97,442.68c0,0-2.88,9.62-0.97,22.95c1.91,13.33,7.32,23.08,7.32,23.08l4.13-21.09
		L474.97,442.68z"/>
	<path id="XMLID_77_" class="st7" d="M487.28,446.53c0,0-5.59,8.83,0,25.62c5.59,16.78,6.82-6.46,6.82-6.46l-2.97-19.16H487.28z"/>
	<path id="XMLID_80_" class="st4" d="M478.88,523.03c10.91,3.2,24.52-6.47,24.52-6.47l-3.1-12.64c0,0,15.4-16.94,12.52-31.91
		c-2.88-14.97-11.02,11.5-11.02,11.5s-4.55-49.31-11.04-45.96c-6.49,3.35-1.31,37.79-1.31,37.79s-7.14-38.1-12.57-36.46
		c-5.43,1.64,3.7,41.66,3.7,41.66s-9.88-40.03-15.2-37.38c-5.32,2.65,4.55,40.4,4.55,40.4s-7.74-28.13-14.62-23.22
		C448.43,465.24,473.66,521.5,478.88,523.03z"/>
	<path id="XMLID_78_" class="st0" d="M569.55,407.52c0,0,40.27,11.1,33.39,70.07c-4.73,40.51-21.47,116.92-57.69,117.95
		c-52.38,1.5-70.05-75.54-70.05-75.54s20.96-17.4,26.59-10.05c10.5,13.72,41.94,37.83,41.94,37.83
		C545.69,547.79,545.72,415.26,569.55,407.52z"/>
	<path id="XMLID_85_" class="st6" d="M454.13,285.49c0,0-12.91-11.37-31.07-4.76c0,0,3.71-6.81,16.24-6.35
		C451.59,274.83,458.16,280.05,454.13,285.49z"/>
	<path id="XMLID_86_" class="st7" d="M442.71,340.03c0,6.06-5.49,10.97-12.26,10.97c-6.77,0-12.26-4.91-12.26-10.97
		c0-6.06,5.49-10.97,12.26-10.97C437.21,329.06,442.71,333.97,442.71,340.03z"/>
	<path id="XMLID_87_" class="st7" d="M529.89,340.03c0,6.06-5.49,10.97-12.26,10.97c-6.77,0-12.26-4.91-12.26-10.97
		c0-6.06,5.49-10.97,12.26-10.97C524.4,329.06,529.89,333.97,529.89,340.03z"/>
	<path id="XMLID_88_" class="st5" d="M463.91,366.35c0,0,3.9,7.67,13.28,7.52c9.38-0.15,12.28-9.21,12.28-9.21s-9.34,5.9-15.46,4.61
		C467.88,367.97,463.91,366.35,463.91,366.35z"/>
	<path id="XMLID_1983_" class="st7" d="M458.65,359.31c0,0,0.54,0.36,1.48,0.99c0.94,0.61,2.26,1.46,3.85,2.36
		c1.6,0.89,3.46,1.86,5.49,2.58c0.5,0.19,1.03,0.34,1.54,0.51c0.53,0.12,1.05,0.29,1.59,0.38c1.07,0.23,2.15,0.33,3.23,0.35
		c0.54-0.01,1.08,0.01,1.62-0.06c0.54-0.03,1.07-0.12,1.6-0.21c0.53-0.08,1.04-0.25,1.57-0.35c0.52-0.17,1.03-0.33,1.53-0.49
		c0.49-0.2,0.98-0.4,1.47-0.59c0.47-0.22,0.93-0.45,1.4-0.66c0.46-0.22,0.88-0.48,1.31-0.7c0.44-0.21,0.83-0.47,1.22-0.71
		c0.4-0.24,0.78-0.46,1.14-0.67c0.35-0.23,0.69-0.46,1-0.66c0.64-0.41,1.23-0.77,1.67-1.09c0.92-0.63,1.5-0.97,1.5-0.97
		s-0.24,0.58-0.76,1.55c-0.25,0.5-0.59,1.08-1.03,1.71c-0.22,0.32-0.46,0.66-0.71,1.02c-0.29,0.34-0.59,0.69-0.9,1.07
		c-0.62,0.76-1.43,1.48-2.29,2.24c-0.46,0.36-0.95,0.71-1.44,1.09c-0.52,0.34-1.09,0.66-1.65,1c-0.59,0.3-1.22,0.58-1.86,0.86
		c-0.67,0.22-1.33,0.5-2.04,0.65c-1.41,0.37-2.91,0.54-4.41,0.53c-1.49-0.05-2.99-0.22-4.37-0.64c-1.39-0.37-2.68-0.91-3.83-1.53
		c-2.33-1.23-4.11-2.78-5.44-4.21c-1.33-1.44-2.2-2.79-2.73-3.76C458.84,359.91,458.65,359.31,458.65,359.31z"/>
	<path id="XMLID_254_" class="st8" d="M573.62,234.58c0.12,5.12-1.47,9.58-3.88,14.14c-2.39,4.51-8.4,7.21-13.64,7.21
		c-5.96,0-10.3-2.93-13.63-7.21c-5.26-6.77-5.3-14.59-6.25-22.59c0-0.02-0.42-3.07-0.42-3.22c-0.13-0.85-0.27-1.69-0.41-2.53
		c-0.53-3.08-1.13-6.16-1.82-9.23c-1.31-5.82-2.89-11.59-4.82-17.27c-1.73-5.1-4.1-10.98-5.7-14.27
		c-5.65-11.51-12.54-21.86-20.99-31.2c11.63-0.91,20.96-4.48,29-9.39c7.63,8.03,14.19,16.97,19.71,26.52
		c6.95,11.99,12.41,24.86,16.35,37.96c1.89,6.28,3.43,12.64,4.67,19.05C572.56,226.5,573.52,230.57,573.62,234.58z"/>
	<path id="XMLID_246_" class="st9" d="M669.64,165.85c-0.23,4.68-0.65,8.95-2.9,13.26c-1.55,2.99-3.65,5.48-5.87,8.08
		c-4.33,5.05-14.53,3.36-17.49-2.08c-1.63-3.02-3.08-5.54-4.19-8.58c-0.78-2.1-1.07-4.07-1.34-6.29c-0.03-0.34-0.33-2.6-0.3-2.6
		c-0.5-3.22-1.09-6.43-1.41-9.68c-0.12-1.3-0.25-2.6-0.43-3.9c-0.06-0.26-0.4-2.25-0.46-2.57c-2.02-10.84-5.43-21.42-9.3-31.81
		c-3.37-9.04-6.88-18.5-12.52-26.25c15.22,2.59,26.52,16.83,41.31,19.54c4.84,10.5,9.27,21.19,12.14,32.31
		C668.62,152.03,669.98,158.9,669.64,165.85z"/>
	<path id="XMLID_234_" class="st9" d="M673.42,214.16c-2.46-4.25-5.95-7.41-11.34-8.13c-4.95-0.66-10.62,1.19-13.57,5.05
		c-4.48,5.85-5.34,13.77-6.72,20.7c-1.56,7.8,5.31,16.4,13.91,17.19c9.15,0.84,16.96-4.48,18.63-12.83
		C675.64,229.49,677.02,220.38,673.42,214.16z"/>
</g>
</svg>
