<?xml version="1.0" encoding="utf-8"?>
<!-- Generator: Adobe Illustrator 27.5.0, SVG Export Plug-In . SVG Version: 6.00 Build 0)  -->
<svg version="1.1" id="Capa_1" xmlns="http://www.w3.org/2000/svg" xmlns:xlink="http://www.w3.org/1999/xlink" x="0px" y="0px"
	 viewBox="0 0 2075 2169" style="enable-background:new 0 0 2075 2169;" xml:space="preserve">
<path style="fill:#ED97B8;" d="M372.698,1879.539c1.398,1.849,2.808,3.678,4.228,5.485l0.224,0.284
	c0.686,0.871,1.375,1.737,2.066,2.598l0.084,0.104c0.659,0.82,1.321,1.635,1.985,2.446l0.267,0.326
	c0.666,0.81,1.333,1.615,2.003,2.417l0.323,0.385c0.687,0.819,1.376,1.635,2.067,2.444l0.023,0.026l1.176,1.366l0.165,0.19
	l1.138,1.308l0.148,0.168l1.183,1.344l0.004,0.004c1.627,1.835,3.267,3.643,4.921,5.423l0.338,0.364l0.924,0.986l0.513,0.545
	l0.852,0.898l0.533,0.558l0.928,0.966l0.336,0.346l1.074,1.104l0.06,0.062c0.767,0.783,1.537,1.561,2.31,2.333l0.323,0.323
	l0.821,0.813l0.611,0.603l0.798,0.78l0.686,0.667l0.766,0.738l0.681,0.653l0.758,0.721l0.719,0.679l0.773,0.726l0.727,0.676
	l0.729,0.676c0.467,0.431,0.936,0.858,1.405,1.285l0.591,0.533l0.93,0.837l0.603,0.537l0.905,0.802l0.634,0.557l0.884,0.771
	l0.666,0.577l0.802,0.689l0.762,0.65l0.778,0.657l0.708,0.595l1.218,1.012l0.286,0.237c4.475,3.686,9.14,7.309,13.99,10.87
	c0.485,0.356,0.972,0.712,1.461,1.067c0.977,0.709,1.961,1.416,2.954,2.121c0.496,0.352,0.994,0.704,1.493,1.055
	c0.999,0.702,2.005,1.402,3.018,2.098c8.108,5.576,16.675,10.989,25.672,16.239c15.091,8.807,31.389,17.153,48.754,25.031
	c0.668,0.303,1.337,0.605,2.008,0.907c3.9,1.753,7.854,3.483,11.858,5.189c8.009,3.412,16.224,6.731,24.632,9.955
	c2.802,1.075,5.626,2.139,8.472,3.192c2.844,1.054,5.711,2.096,8.596,3.129c4.329,1.549,8.705,3.074,13.125,4.575
	c11.406,3.873,23.109,7.588,35.082,11.142c2.394,0.711,4.799,1.415,7.215,2.113c0.805,0.233,1.611,0.465,2.419,0.696
	c1.615,0.463,3.235,0.922,4.859,1.379c0.812,0.228,1.626,0.456,2.44,0.683c3.258,0.908,6.534,1.804,9.828,2.689
	c12.352,3.318,24.952,6.474,37.776,9.467c4.274,0.998,8.573,1.978,12.895,2.939c0.865,0.192,1.73,0.384,2.596,0.574
	c5.199,1.145,10.43,2.264,15.695,3.357c1.756,0.364,3.513,0.725,5.274,1.083c1.762,0.359,3.527,0.714,5.296,1.067
	c0.884,0.176,1.77,0.351,2.655,0.526c2.659,0.524,5.323,1.042,7.997,1.553c2.673,0.511,5.354,1.016,8.041,1.513
	c2.688,0.498,5.383,0.989,8.085,1.474c0.9,0.161,1.802,0.322,2.704,0.482c1.804,0.32,3.612,0.638,5.422,0.952
	c0.905,0.157,1.811,0.313,2.718,0.469c4.08,0.7,8.175,1.386,12.285,2.056c4.109,0.671,8.233,1.326,12.37,1.966
	c2.758,0.427,5.523,0.847,8.293,1.261c2.77,0.414,5.546,0.821,8.328,1.221c3.708,0.533,7.426,1.055,11.155,1.565
	c6.524,0.892,13.076,1.747,19.655,2.566c1.88,0.234,3.761,0.465,5.645,0.692c5.652,0.684,11.321,1.341,17.008,1.97
	c6.398,0.708,12.817,1.382,19.256,2.021c2.145,0.213,4.294,0.423,6.444,0.628c3.822,0.365,7.651,0.719,11.485,1.06
	c0.959,0.086,1.918,0.17,2.877,0.253c2.878,0.251,5.759,0.496,8.643,0.733c1.922,0.158,3.847,0.313,5.772,0.466
	c1.925,0.152,3.851,0.301,5.779,0.447c1.929,0.146,3.858,0.289,5.787,0.429c0.965,0.07,1.93,0.139,2.896,0.208
	c2.897,0.206,5.796,0.404,8.698,0.596c1.935,0.128,3.87,0.253,5.806,0.375c1.937,0.122,3.874,0.24,5.812,0.356
	c0.969,0.058,1.939,0.114,2.908,0.171c1.939,0.112,3.878,0.221,5.819,0.328c2.911,0.16,5.823,0.312,8.737,0.458
	c1.943,0.097,3.886,0.191,5.829,0.282c0.973,0.045,1.945,0.09,2.917,0.134c5.834,0.264,11.673,0.499,17.516,0.707
	c1.947,0.07,3.895,0.136,5.843,0.199c1.947,0.063,3.896,0.123,5.845,0.18c1.949,0.057,3.898,0.11,5.846,0.161
	c1.949,0.051,3.899,0.099,5.848,0.143c1.951,0.044,3.899,0.086,5.849,0.124c2.924,0.057,5.849,0.108,8.772,0.151
	c0.975,0.015,1.95,0.028,2.925,0.041c3.899,0.051,7.798,0.09,11.696,0.117c2.924,0.02,5.847,0.033,8.769,0.039
	c0.975,0.001,1.949,0.002,2.923,0.003c1.948,0.001,3.895-0.002,5.843-0.007c1.948-0.006,3.894-0.014,5.84-0.026
	c1.946-0.012,3.893-0.027,5.838-0.045c2.918-0.027,5.835-0.061,8.751-0.103c1.944-0.028,3.886-0.058,5.829-0.092
	c2.914-0.051,5.825-0.109,8.735-0.174c4.851-0.108,9.696-0.236,14.536-0.384c2.903-0.089,5.805-0.185,8.704-0.288
	c2.899-0.103,5.797-0.213,8.691-0.331c1.93-0.079,3.858-0.16,5.786-0.244c1.926-0.084,3.853-0.172,5.778-0.263
	c3.849-0.182,7.693-0.377,11.532-0.584c1.919-0.104,3.837-0.211,5.753-0.321c1.916-0.11,3.832-0.223,5.745-0.34
	c4.784-0.291,9.559-0.602,14.322-0.934c4.765-0.332,9.518-0.683,14.259-1.054c2.845-0.223,5.686-0.453,8.522-0.691
	c2.837-0.237,5.668-0.482,8.496-0.734c1.885-0.168,3.768-0.339,5.649-0.514c1.881-0.175,3.76-0.352,5.636-0.533
	c5.629-0.543,11.239-1.115,16.828-1.716c2.794-0.301,5.583-0.609,8.367-0.924c0.928-0.106,1.855-0.211,2.781-0.318
	c2.78-0.32,5.554-0.647,8.322-0.982c0.923-0.111,1.845-0.224,2.767-0.337c1.842-0.227,3.683-0.456,5.521-0.689
	c2.756-0.349,5.507-0.706,8.25-1.071c1.829-0.243,3.656-0.489,5.479-0.738c1.824-0.249,3.644-0.502,5.463-0.758
	c2.727-0.384,5.446-0.775,8.16-1.174c4.523-0.664,9.026-1.349,13.51-2.054c6.277-0.988,12.515-2.015,18.711-3.083
	c1.771-0.306,3.538-0.614,5.302-0.926c1.763-0.312,3.524-0.627,5.28-0.945c1.757-0.319,3.51-0.641,5.259-0.966
	c1.75-0.325,3.496-0.654,5.238-0.986c0.871-0.166,1.741-0.333,2.61-0.5c3.478-0.67,6.94-1.354,10.386-2.051
	c0.862-0.174,1.723-0.349,2.582-0.525c1.719-0.351,3.436-0.706,5.146-1.065c0.856-0.179,1.711-0.359,2.565-0.54
	c5.977-1.266,11.906-2.573,17.784-3.92c1.679-0.385,3.355-0.773,5.025-1.165c0.836-0.196,1.669-0.393,2.503-0.591
	c1.666-0.395,3.329-0.793,4.986-1.195c2.487-0.603,4.965-1.213,7.432-1.831c3.29-0.824,6.561-1.661,9.815-2.512
	c2.44-0.638,4.87-1.284,7.29-1.937c2.419-0.654,4.828-1.314,7.226-1.983c2.398-0.669,4.785-1.344,7.162-2.028
	c1.585-0.456,3.164-0.915,4.738-1.377c1.575-0.463,3.144-0.929,4.709-1.398c2.347-0.704,4.683-1.416,7.007-2.135
	c4.649-1.439,9.251-2.907,13.806-4.407c0.76-0.25,1.517-0.501,2.274-0.752c2.269-0.755,4.527-1.518,6.773-2.288
	c2.245-0.77,4.478-1.548,6.699-2.334c2.22-0.786,4.429-1.579,6.625-2.38c1.464-0.534,2.923-1.072,4.374-1.613
	c0.727-0.27,1.452-0.542,2.175-0.814c2.17-0.817,4.328-1.641,6.472-2.473c0.715-0.277,1.429-0.555,2.141-0.835
	c1.424-0.558,2.842-1.12,4.254-1.685c2.824-1.13,5.625-2.274,8.401-3.432c2.083-0.868,4.151-1.745,6.206-2.628
	c1.37-0.589,2.734-1.181,4.091-1.778c2.037-0.894,4.059-1.796,6.068-2.706c2.009-0.91,4.002-1.828,5.982-2.753
	c1.32-0.617,2.634-1.237,3.941-1.861c1.96-0.936,3.906-1.88,5.838-2.831c2.575-1.269,5.125-2.55,7.647-3.847
	c1.261-0.648,2.515-1.3,3.763-1.955c2.495-1.31,4.965-2.635,7.406-3.973c1.831-1.004,3.646-2.015,5.445-3.035
	c2.4-1.359,4.772-2.732,7.115-4.12c6.445-3.815,12.673-7.736,18.678-11.765c1.091-0.732,2.175-1.468,3.253-2.208
	c0.538-0.37,1.075-0.74,1.609-1.111c1.07-0.743,2.13-1.49,3.185-2.24c2.635-1.875,5.222-3.772,7.761-5.692
	c1.015-0.768,2.023-1.539,3.024-2.314c0.499-0.388,0.997-0.776,1.493-1.165c0.993-0.778,1.976-1.561,2.953-2.346
	c1.953-1.571,3.873-3.156,5.762-4.756c0.944-0.8,1.881-1.603,2.808-2.41c4.176-3.631,8.188-7.335,12.028-11.11
	c10.59-10.411,20.742-21.973,30.457-34.594c0.925-1.202,1.846-2.414,2.764-3.635c0.458-0.61,0.916-1.223,1.373-1.838
	c0.913-1.231,1.822-2.471,2.728-3.72c0.453-0.624,0.905-1.251,1.356-1.881c0.901-1.259,1.798-2.527,2.692-3.804
	c0.893-1.277,1.782-2.564,2.668-3.86c0.886-1.296,1.767-2.601,2.644-3.915c1.755-2.628,3.495-5.292,5.218-7.993
	c0.862-1.35,1.719-2.709,2.573-4.077c2.134-3.42,4.244-6.896,6.329-10.425c0.834-1.412,1.664-2.832,2.49-4.261
	c0.826-1.429,1.648-2.866,2.466-4.313c0.409-0.723,0.818-1.448,1.224-2.175c2.035-3.636,4.046-7.325,6.031-11.066
	c0.397-0.748,0.793-1.498,1.189-2.25c0.791-1.505,1.577-3.017,2.358-4.538c0.783-1.521,1.562-3.05,2.337-4.586
	c0.387-0.768,0.773-1.539,1.158-2.312c1.926-3.862,3.828-7.775,5.705-11.736c0.751-1.584,1.497-3.177,2.241-4.777
	c0.743-1.6,1.481-3.207,2.216-4.823c0.735-1.615,1.466-3.238,2.193-4.868c0.727-1.63,1.45-3.269,2.168-4.914
	c1.079-2.469,2.149-4.953,3.21-7.455c1.06-2.501,2.113-5.02,3.156-7.555c0.347-0.845,0.694-1.691,1.04-2.54
	c0.691-1.697,1.379-3.401,2.062-5.112c0.684-1.711,1.363-3.429,2.039-5.154c0.675-1.725,1.347-3.458,2.015-5.197
	c0.668-1.739,1.331-3.485,1.991-5.238c2.308-6.136,4.569-12.356,6.782-18.656c0.316-0.9,0.631-1.802,0.945-2.705
	c0.627-1.807,1.251-3.62,1.871-5.439c0.31-0.91,0.62-1.822,0.928-2.734c0.617-1.826,1.228-3.658,1.837-5.497
	c0.609-1.839,1.213-3.684,1.813-5.535c0.3-0.925,0.599-1.853,0.898-2.782c0.894-2.786,1.781-5.587,2.657-8.401
	c0.584-1.876,1.164-3.758,1.741-5.646c1.731-5.665,3.425-11.383,5.084-17.153c0.829-2.885,1.65-5.783,2.462-8.694
	c0.812-2.911,1.614-5.835,2.409-8.771c0.793-2.936,1.579-5.884,2.354-8.844c0.518-1.974,1.031-3.953,1.54-5.937
	c1.529-5.953,3.022-11.954,4.479-18c0.486-2.016,0.968-4.036,1.446-6.062c0.478-2.026,0.952-4.056,1.422-6.092
	c0.235-1.017,0.469-2.037,0.702-3.057c0.466-2.04,0.927-4.086,1.386-6.135c0.229-1.025,0.458-2.052,0.685-3.079
	c0.681-3.082,1.354-6.175,2.017-9.278c0.221-1.034,0.441-2.07,0.661-3.107c0.439-2.073,0.873-4.151,1.304-6.233
	c0.215-1.042,0.43-2.084,0.643-3.127c0.64-3.13,1.271-6.271,1.893-9.421c0.208-1.05,0.414-2.101,0.62-3.154
	c0.616-3.157,1.223-6.323,1.823-9.499c0.399-2.117,0.794-4.239,1.185-6.364c0.391-2.126,0.778-4.255,1.162-6.388
	c0.191-1.067,0.382-2.135,0.571-3.203c0.569-3.206,1.13-6.422,1.681-9.645c0.184-1.075,0.367-2.15,0.548-3.227
	c0.364-2.153,0.724-4.309,1.079-6.47c0.178-1.08,0.354-2.161,0.53-3.244c0.351-2.164,0.7-4.332,1.044-6.504
	c0.171-1.086,0.343-2.172,0.513-3.26c0.34-2.175,0.676-4.354,1.008-6.536c0.332-2.182,0.661-4.367,0.984-6.556
	c0.162-1.095,0.323-2.19,0.483-3.286c0.32-2.193,0.637-4.389,0.949-6.587c0.313-2.199,0.621-4.401,0.925-6.607
	c0.152-1.103,0.304-2.206,0.454-3.311c0.301-2.209,0.597-4.421,0.89-6.635c0.439-3.323,0.869-6.652,1.29-9.988
	c0.141-1.112,0.28-2.224,0.418-3.338c0.278-2.227,0.55-4.457,0.82-6.69c0.538-4.465,1.059-8.942,1.566-13.429
	c0.38-3.366,0.751-6.737,1.114-10.114c0.362-3.378,0.716-6.76,1.06-10.149c0.344-3.388,0.681-6.782,1.007-10.181
	c0.11-1.133,0.217-2.267,0.324-3.401c0.214-2.268,0.425-4.539,0.63-6.811c0.207-2.273,0.408-4.548,0.606-6.825
	c0.199-2.277,0.392-4.555,0.583-6.836c0.095-1.141,0.19-2.282,0.283-3.424c0.187-2.283,0.369-4.568,0.548-6.855
	c0.625-8.004,1.202-16.031,1.73-24.078c0.151-2.299,0.299-4.6,0.442-6.902c0.071-1.151,0.142-2.303,0.212-3.455
	c0.139-2.304,0.274-4.609,0.406-6.916c0.131-2.307,0.259-4.615,0.383-6.924c0.061-1.155,0.122-2.31,0.182-3.465
	c0.18-3.466,0.35-6.935,0.512-10.407c0.108-2.315,0.212-4.63,0.312-6.946c0.151-3.475,0.291-6.952,0.423-10.432
	c0.044-1.159,0.087-2.319,0.13-3.48c0.084-2.321,0.164-4.643,0.241-6.964c0.076-2.323,0.149-4.646,0.217-6.969
	c0.069-2.324,0.133-4.649,0.194-6.974c0.121-4.65,0.226-9.304,0.316-13.959c0.045-2.328,0.086-4.656,0.123-6.985
	c0.037-2.328,0.07-4.657,0.099-6.987c0.015-1.165,0.029-2.329,0.041-3.494c0.025-2.33,0.046-4.66,0.064-6.99
	c0.035-4.66,0.054-9.321,0.057-13.983c0.003-3.496-0.003-6.992-0.019-10.488c-0.01-2.331-0.023-4.661-0.041-6.992
	c-0.019-2.331-0.04-4.661-0.065-6.991c-0.025-2.33-0.056-4.66-0.089-6.99c-0.034-2.33-0.071-4.659-0.112-6.988
	c-0.041-2.329-0.086-4.657-0.136-6.985c-0.049-2.328-0.102-4.655-0.159-6.983c-0.143-5.817-0.31-11.631-0.501-17.441
	c-0.077-2.323-0.158-4.647-0.242-6.968c-0.085-2.322-0.173-4.644-0.265-6.964c-0.185-4.641-0.385-9.278-0.601-13.911
	c-0.108-2.317-0.219-4.631-0.335-6.946c-0.116-2.314-0.236-4.627-0.36-6.939c-0.742-13.87-1.625-27.696-2.649-41.459
	c-0.17-2.294-0.345-4.586-0.523-6.876c-0.089-1.145-0.18-2.29-0.271-3.434c-0.365-4.577-0.745-9.146-1.141-13.708
	c-0.594-6.842-1.224-13.666-1.888-20.469c-0.221-2.268-0.447-4.533-0.676-6.797c-0.229-2.263-0.463-4.524-0.7-6.783
	c-0.355-3.387-0.72-6.77-1.094-10.147c-0.248-2.25-0.501-4.499-0.758-6.745c-0.642-5.614-1.308-11.213-1.999-16.793
	c-0.276-2.232-0.557-4.461-0.841-6.688c-0.426-3.339-0.86-6.673-1.304-9.999c-1.035-7.761-2.119-15.485-3.25-23.168
	c-0.324-2.195-0.65-4.387-0.981-6.576c-0.497-3.283-1.002-6.557-1.516-9.825c-0.343-2.178-0.69-4.352-1.04-6.523
	c-0.701-4.342-1.417-8.669-2.15-12.982c-0.366-2.157-0.736-4.309-1.11-6.457c-0.561-3.223-1.131-6.437-1.709-9.642
	c-0.386-2.137-0.775-4.27-1.169-6.398c-0.983-5.322-1.992-10.619-3.024-15.888c-0.414-2.108-0.83-4.212-1.251-6.311
	c-0.42-2.099-0.845-4.194-1.274-6.285c-1.5-7.317-3.048-14.58-4.644-21.785c-0.456-2.059-0.916-4.113-1.379-6.161
	c-0.928-4.098-1.871-8.177-2.829-12.237c-0.479-2.029-0.962-4.054-1.45-6.074c-0.488-2.02-0.979-4.034-1.473-6.044
	c-0.495-2.01-0.994-4.014-1.497-6.013c-3.267-12.995-6.699-25.769-10.296-38.302c-0.554-1.928-1.11-3.851-1.672-5.768
	c-3.367-11.5-6.874-22.79-10.521-33.854c-0.607-1.844-1.22-3.682-1.835-5.513c-4.002-11.904-8.168-23.538-12.499-34.879
	c-0.666-1.745-1.336-3.483-2.01-5.214c-1.011-2.596-2.031-5.177-3.059-7.742c-1.029-2.565-2.066-5.114-3.112-7.646
	c-27.197-65.846-60.31-120.687-99.313-159.691c-0.553-0.553-1.112-1.105-1.673-1.655l-0.399-0.39
	c-0.5-0.489-1.003-0.977-1.509-1.463l-0.222-0.215c-0.567-0.544-1.137-1.086-1.712-1.626l-0.38-0.357
	c-0.514-0.484-1.031-0.965-1.552-1.446l-0.233-0.216c-0.594-0.547-1.193-1.094-1.794-1.638l-0.338-0.305
	c-0.52-0.469-1.042-0.937-1.567-1.403l-0.331-0.294c-0.619-0.548-1.241-1.096-1.869-1.641l-0.168-0.146
	c-0.579-0.504-1.163-1.006-1.749-1.508l-0.322-0.276c-1.295-1.104-2.606-2.203-3.933-3.297l-0.249-0.204
	c-1.356-1.115-2.729-2.224-4.118-3.328l-0.163-0.129c-0.458-0.364-0.918-0.726-1.38-1.088
	c-58.631-45.987-145.909-81.8-247.513-106.68c-2.918-10.279-6.835-20.149-11.64-29.496c-0.297-0.579-0.599-1.157-0.904-1.732
	c-0.609-1.151-1.232-2.294-1.868-3.428c-0.637-1.134-1.286-2.26-1.948-3.378c-0.994-1.676-2.017-3.333-3.069-4.97
	c-0.351-0.545-0.704-1.089-1.061-1.63c-1.428-2.165-2.907-4.293-4.434-6.384c-1.527-2.091-3.104-4.144-4.728-6.157
	c-0.812-1.007-1.636-2.004-2.471-2.99c-1.671-1.974-3.387-3.908-5.149-5.799c-1.762-1.891-3.567-3.741-5.417-5.547
	c-10.169-9.931-21.636-18.539-34.114-25.536c-1.134-0.636-2.277-1.259-3.428-1.868c-1.151-0.609-2.31-1.205-3.477-1.787
	c-2.917-1.455-5.884-2.825-8.896-4.104c-1.205-0.512-2.418-1.01-3.638-1.493c-0.609-0.242-1.222-0.48-1.835-0.714
	c-1.227-0.469-2.461-0.923-3.702-1.362c-2.481-0.878-4.99-1.698-7.524-2.456c-1.901-0.569-3.817-1.103-5.746-1.602
	c-5.144-1.332-10.385-2.415-15.711-3.234c-1.332-0.205-2.668-0.393-4.009-0.565c-2.683-0.344-5.387-0.621-8.108-0.83
	c-1.361-0.104-2.727-0.191-4.096-0.261c-2.74-0.14-5.496-0.211-8.269-0.211h0c-0.754,0-1.503-0.026-2.244-0.077l-0.738-0.059
	c-0.614-0.056-1.223-0.13-1.826-0.22c-0.604-0.09-1.202-0.197-1.794-0.32c-0.947-0.197-1.88-0.436-2.796-0.715l-1.36-0.447
	c-1.124-0.398-2.218-0.856-3.282-1.372l-1.261-0.646l-0.619-0.343l-1.213-0.725l-1.179-0.776c-1.356-0.935-2.64-1.972-3.842-3.101
	l-1.01-0.99l-0.969-1.033c-0.473-0.527-0.931-1.071-1.371-1.629c-1.029-1.303-1.964-2.686-2.798-4.142
	c-0.357-0.624-0.696-1.261-1.015-1.911l-0.313-0.653l-0.585-1.331c-0.186-0.449-0.363-0.903-0.53-1.362
	c-0.671-1.836-1.194-3.751-1.553-5.729c-0.121-0.661-0.246-1.32-0.375-1.979l-0.122-0.618c-0.092-0.461-0.187-0.922-0.283-1.382
	l-0.141-0.671c-0.118-0.551-0.239-1.101-0.362-1.65l-0.066-0.297c-0.147-0.648-0.3-1.294-0.456-1.939l-0.137-0.561
	c-0.116-0.472-0.234-0.943-0.353-1.413l-0.167-0.646c-0.131-0.504-0.265-1.008-0.401-1.51l-0.111-0.413
	c-0.176-0.64-0.354-1.278-0.539-1.914l-0.136-0.464c-0.144-0.494-0.29-0.988-0.44-1.481l-0.182-0.596
	c-0.143-0.467-0.289-0.933-0.437-1.399l-0.172-0.543c-0.203-0.628-0.408-1.255-0.618-1.879l-0.094-0.274
	c-0.182-0.538-0.367-1.074-0.554-1.609l-0.194-0.548c-0.169-0.475-0.34-0.95-0.513-1.423l-0.18-0.491
	c-0.23-0.622-0.463-1.242-0.701-1.859l-0.063-0.161c-0.219-0.566-0.441-1.13-0.666-1.693l-0.212-0.523
	c-0.188-0.465-0.378-0.929-0.57-1.391l-0.201-0.48c-0.518-1.233-1.051-2.458-1.601-3.674l-0.185-0.408
	c-0.218-0.479-0.439-0.957-0.661-1.433l-0.22-0.47c-0.269-0.571-0.541-1.14-0.817-1.707l-0.03-0.062
	c-0.302-0.62-0.609-1.237-0.919-1.853l-0.137-0.27c-0.263-0.519-0.529-1.035-0.798-1.551l-0.181-0.347
	c-0.283-0.538-0.567-1.074-0.856-1.608l-0.097-0.183c-0.334-0.615-0.671-1.228-1.012-1.838l-0.028-0.051
	c-0.32-0.571-0.643-1.139-0.97-1.705l-0.16-0.277c-0.32-0.552-0.643-1.103-0.97-1.65l-0.057-0.095
	c-0.711-1.191-1.439-2.372-2.182-3.542l-0.147-0.232c-0.334-0.524-0.672-1.047-1.011-1.567l-0.112-0.172
	c-0.763-1.162-1.54-2.313-2.334-3.452l-0.102-0.146c-0.367-0.527-0.738-1.052-1.112-1.574l-0.107-0.149
	c-0.822-1.145-1.659-2.277-2.511-3.398l-0.003-0.004c-0.417-0.548-0.837-1.092-1.261-1.634l-0.087-0.112
	c-0.654-0.835-1.317-1.663-1.987-2.483c-0.671-0.821-1.35-1.635-2.038-2.441l-0.025-0.029c-0.42-0.493-0.845-0.982-1.271-1.47
	l-0.392-0.444l-0.868-0.978l-0.535-0.591l-0.78-0.856l-0.543-0.587l-0.748-0.8l-0.624-0.658l-0.684-0.712l-0.669-0.69l-0.673-0.682
	l-0.681-0.686l-0.662-0.654l-0.72-0.708l-0.643-0.618c-0.457-0.439-0.916-0.875-1.378-1.309l-0.679-0.635l-0.782-0.717l-0.626-0.571
	l-0.807-0.723l-0.623-0.553l-0.801-0.7l-0.644-0.558l-0.828-0.706l-0.599-0.506l-0.887-0.739l-0.564-0.463l-0.903-0.736
	l-0.557-0.445l-0.963-0.765l-0.213-0.165c-1.294-1.011-2.604-2.003-3.929-2.973l-0.254-0.186l-1.169-0.843l-0.365-0.26l-1.141-0.802
	l-0.409-0.284l-1.133-0.777l-0.417-0.282l-1.173-0.782l-0.346-0.228l-1.237-0.805l-0.248-0.159c-2.438-1.561-4.923-3.055-7.451-4.48
	l-0.213-0.12l-1.361-0.754l-0.281-0.154c-0.458-0.249-0.918-0.497-1.379-0.743l-0.123-0.066l0.001,0.002
	c-21.43-11.374-45.875-17.821-71.828-17.821c-75.326,0-137.977,54.28-150.968,125.859c-2.873,15.825-16.213,27.581-32.297,27.581
	c-69.693,0-129.432,44.791-151.853,107.008c-123.585,27.468-225.258,73.614-278.768,139.834
	C209.074,747.196,150.006,1584.866,372.69,1879.528L372.698,1879.539z M978.144,188.314c3.989-24.323,23.606-43.942,47.929-47.934
	c40.169-6.593,74.407,27.644,67.816,67.814c-3.99,24.324-23.608,43.942-47.932,47.931
	C1005.791,262.714,971.556,228.48,978.144,188.314z"/>
<path style="fill:#FDE9E3;" d="M1595.212,1181.655c-0.008-2.013-0.015-4.025-0.023-6.037s-0.018-4.023-0.029-6.034
	c-0.01-2.011-0.021-4.021-0.034-6.03c-0.018-3.015-0.038-6.027-0.06-9.038c-0.013-2.007-0.029-4.013-0.045-6.019
	c-0.016-2.005-0.033-4.01-0.051-6.013c-0.018-2.003-0.037-4.005-0.056-6.006c-0.058-6.003-0.124-11.996-0.198-17.975
	c-0.024-1.993-0.051-3.985-0.077-5.975c-0.131-9.95-0.283-19.861-0.455-29.72c-0.035-1.972-0.07-3.942-0.106-5.909
	c-0.182-9.838-0.384-19.621-0.608-29.337c-0.045-1.943-0.09-3.884-0.137-5.821c-0.14-5.813-0.287-11.601-0.442-17.362
	c-0.05-1.894-0.102-3.785-0.154-5.673c-0.028-0.983-0.055-1.965-0.084-2.946c-0.595-21.016-1.294-41.64-2.097-61.736
	c-0.146-3.654-0.295-7.29-0.448-10.908c-0.191-4.523-0.387-9.017-0.589-13.481c-0.081-1.786-0.163-3.567-0.245-5.343
	c-0.412-8.88-0.847-17.636-1.303-26.257c-0.091-1.724-0.183-3.442-0.276-5.156c-0.557-10.28-1.147-20.36-1.767-30.22
	c-0.104-1.643-0.208-3.281-0.313-4.911c-1.104-17.125-2.306-33.563-3.605-49.196c-0.124-1.489-0.248-2.97-0.373-4.445
	c-2.385-28.009-5.089-53.348-8.12-75.32c-0.16-1.156-0.32-2.303-0.481-3.441c-0.322-2.275-0.649-4.513-0.979-6.712
	c-0.578-3.848-1.166-7.579-1.766-11.187c-0.17-1.031-0.342-2.052-0.516-3.063c-0.173-1.011-0.347-2.012-0.522-3.003
	c-0.087-0.495-0.175-0.988-0.263-1.478c-0.352-1.961-0.708-3.88-1.066-5.759c-0.09-0.469-0.18-0.936-0.27-1.401
	c-0.992-5.107-2.012-9.897-3.059-14.353l-0.287-1.207c-0.382-1.598-0.769-3.152-1.159-4.66l-0.292-1.123
	c-2.548-9.658-5.252-17.399-8.112-22.998l-0.021-0.039l-0.363-0.673l-0.122-0.216l-0.335-0.564l-0.096-0.158l-0.456-0.702
	l-0.112-0.164l-0.398-0.565l-0.132-0.182l-0.538-0.706l-0.026-0.032l-0.551-0.673l-0.137-0.161l-0.571-0.652l-0.04-0.045
	l-0.682-0.73l-0.069-0.071l-0.664-0.669l-0.069-0.069c-0.504-0.492-1.032-0.98-1.585-1.464l-0.025-0.022l-0.657-0.563l-0.161-0.134
	l-0.563-0.461l-0.124-0.101c-0.486-0.391-0.989-0.778-1.507-1.163l-0.036-0.026c-24.767-18.387-85.751-31.229-165.725-40.072
	c-95.743-10.587-218.698-15.445-339.299-17.228h-7.327c-162.925,2.409-330.146,10.428-428.766,30.606
	c-28.018,5.733-50.5,12.446-65.772,20.292c-4.934,2.534-9.114,5.187-12.487,7.963c-3.648,3.002-6.352,6.149-8.036,9.446
	c-14.615,28.608-25.123,113.098-31.77,223.784c-16.125,268.508-9.523,691.171,16.305,844.185c1.598,9.469,3.27,17.903,5.014,25.206
	l0.012,0.05c0.205,0.859,0.412,1.703,0.62,2.53l0.006,0.024l0.287,1.129l0.048,0.188c0.302,1.173,0.605,2.313,0.912,3.419
	l0.048,0.171l0.252,0.896l0.061,0.216l0.302,1.049l0.002,0.008c0.279,0.952,0.559,1.875,0.842,2.772l0.056,0.179l0.19,0.597
	l0.034,0.106l0.194,0.595l0.049,0.15c0.198,0.601,0.398,1.188,0.598,1.762l0.055,0.159l0.147,0.415l0.115,0.32l0.141,0.389
	l0.112,0.305l0.141,0.38l0.114,0.302l0.271,0.707l0.104,0.268l0.136,0.343l0.126,0.316l0.123,0.301l0.15,0.364l0.114,0.274
	l0.166,0.391l0.092,0.216l0.257,0.583l0.102,0.226l0.155,0.339l0.122,0.265l0.154,0.327l0.118,0.247l0.139,0.288l0.129,0.263
	l0.252,0.498l0.093,0.18l0.167,0.319l0.134,0.249l0.138,0.255l0.125,0.224l0.166,0.293l0.102,0.177l0.267,0.451l0.057,0.093
	l0.211,0.342l0.118,0.184l0.162,0.251l0.106,0.161l0.197,0.292l0.079,0.115l0.241,0.339l0.038,0.053
	c3.683,5.044,11.23,9.848,22.116,14.391c2.241,0.935,4.624,1.86,7.143,2.773c0.72,0.261,1.451,0.521,2.193,0.78
	c5.938,2.072,12.582,4.086,19.88,6.038c2.736,0.733,5.565,1.456,8.483,2.171c0.486,0.119,0.974,0.238,1.466,0.357
	c2.947,0.712,5.982,1.415,9.103,2.11c2.601,0.579,5.261,1.152,7.98,1.718c3.261,0.68,6.606,1.351,10.03,2.013
	c1.713,0.331,3.446,0.659,5.198,0.986c2.92,0.544,5.895,1.082,8.923,1.613c0.605,0.107,1.213,0.212,1.823,0.318
	c2.439,0.423,4.912,0.842,7.418,1.257s5.045,0.826,7.616,1.233c3.213,0.509,6.477,1.01,9.788,1.506
	c2.65,0.396,5.33,0.789,8.04,1.177c2.033,0.291,4.083,0.58,6.149,0.866c2.754,0.382,5.539,0.76,8.352,1.132
	c1.407,0.187,2.821,0.372,4.242,0.557c1.42,0.184,2.848,0.368,4.282,0.55c1.434,0.183,2.876,0.364,4.324,0.544
	c1.449,0.181,2.903,0.359,4.365,0.538c2.924,0.356,5.874,0.708,8.851,1.055c2.976,0.347,5.979,0.69,9.007,1.029
	c3.784,0.423,7.607,0.84,11.469,1.249c0.772,0.082,1.547,0.164,2.321,0.245c2.326,0.244,4.664,0.486,7.017,0.725
	c2.352,0.239,4.717,0.475,7.095,0.709s4.768,0.466,7.171,0.695c0.801,0.076,1.604,0.152,2.407,0.228
	c2.411,0.227,4.834,0.452,7.269,0.674c3.247,0.296,6.515,0.589,9.802,0.875c1.644,0.144,3.292,0.286,4.947,0.427
	c1.654,0.141,3.312,0.281,4.976,0.421c1.664,0.139,3.333,0.277,5.006,0.414c0.836,0.068,1.674,0.137,2.514,0.204
	c2.517,0.203,5.043,0.404,7.581,0.603c1.691,0.132,3.388,0.263,5.088,0.393c5.102,0.389,10.242,0.768,15.42,1.136
	c0.862,0.061,1.727,0.122,2.591,0.183c1.73,0.121,3.464,0.242,5.201,0.361c0.869,0.06,1.739,0.119,2.61,0.178
	c1.742,0.118,3.487,0.235,5.236,0.35c1.75,0.116,3.503,0.23,5.259,0.344c1.757,0.113,3.517,0.225,5.281,0.336
	c2.646,0.166,5.3,0.33,7.961,0.491c0.888,0.054,1.776,0.107,2.664,0.16c1.778,0.106,3.559,0.211,5.343,0.315
	c3.568,0.207,7.149,0.41,10.742,0.607c2.695,0.148,5.396,0.294,8.104,0.437c1.806,0.095,3.614,0.189,5.424,0.282
	c1.811,0.093,3.625,0.184,5.441,0.274c0.908,0.045,1.817,0.09,2.726,0.134c1.819,0.089,3.64,0.177,5.464,0.264
	c2.736,0.13,5.477,0.257,8.223,0.381c1.831,0.083,3.664,0.165,5.5,0.245c3.67,0.161,7.35,0.316,11.038,0.467
	c0.922,0.038,1.844,0.075,2.767,0.112c4.615,0.186,9.241,0.363,13.877,0.532c1.855,0.067,3.711,0.134,5.569,0.199
	c3.715,0.131,7.437,0.256,11.164,0.376c1.863,0.06,3.728,0.119,5.594,0.177c15.862,0.49,31.811,0.886,47.782,1.188
	c12.213,0.231,24.44,0.406,36.649,0.524h7.326c64.805-0.628,130.079-2.854,191.405-6.514c4.444-0.265,8.867-0.538,13.268-0.818
	c0.88-0.056,1.76-0.113,2.637-0.169c1.757-0.114,3.51-0.228,5.259-0.344c1.75-0.116,3.496-0.232,5.237-0.35
	c2.613-0.177,5.216-0.357,7.811-0.539c6.055-0.425,12.06-0.865,18.012-1.319c1.7-0.13,3.396-0.261,5.088-0.393
	c5.075-0.396,10.109-0.803,15.1-1.221c3.327-0.278,6.635-0.561,9.923-0.848c5.754-0.502,11.445-1.019,17.071-1.55
	c0.804-0.076,1.606-0.152,2.406-0.228c2.403-0.229,4.794-0.461,7.171-0.695c2.378-0.234,4.743-0.471,7.095-0.709
	c2.352-0.239,4.691-0.481,7.016-0.725c4.651-0.488,9.25-0.986,13.791-1.495c3.028-0.339,6.03-0.682,9.006-1.029
	c2.976-0.347,5.927-0.699,8.851-1.055c1.461-0.178,2.917-0.357,4.365-0.538c1.448-0.18,2.889-0.361,4.324-0.544
	c1.434-0.182,2.862-0.366,4.283-0.55c1.421-0.185,2.834-0.37,4.24-0.557c2.813-0.373,5.597-0.751,8.353-1.132
	c2.066-0.286,4.115-0.575,6.148-0.866c1.355-0.194,2.703-0.389,4.043-0.585c1.34-0.196,2.672-0.394,3.997-0.592
	c1.324-0.198,2.642-0.397,3.951-0.598c1.964-0.3,3.91-0.603,5.838-0.908c1.285-0.203,2.563-0.408,3.832-0.613
	c1.27-0.205,2.53-0.412,3.784-0.62c2.397-0.397,4.765-0.798,7.101-1.203c0.716-0.124,1.43-0.248,2.14-0.373
	c3.028-0.531,6.003-1.07,8.924-1.613c1.752-0.327,3.484-0.655,5.196-0.986c3.426-0.662,6.771-1.333,10.032-2.013
	c2.717-0.566,5.377-1.139,7.978-1.718c2.996-0.667,5.913-1.342,8.749-2.025c0.611-0.147,1.219-0.294,1.821-0.442
	c2.918-0.715,5.746-1.438,8.483-2.171c7.14-1.91,13.653-3.879,19.492-5.904l0.777-0.271c0.608-0.214,1.21-0.428,1.804-0.643
	c2.37-0.859,4.618-1.729,6.743-2.608l0.682-0.284c8.822-3.706,15.427-7.583,19.526-11.624c0.888-0.875,1.658-1.758,2.307-2.648
	c14.926-20.449,25.929-113.515,32.671-238.184l0.014-0.26c1.181-21.873,2.231-44.718,3.15-68.313
	c0.072-1.852,0.143-3.708,0.213-5.568c0.137-3.622,0.271-7.261,0.402-10.916c0.066-1.844,0.131-3.693,0.195-5.545
	c0.064-1.822,0.126-3.648,0.188-5.478l0.006-0.182c0.25-7.413,0.487-14.888,0.712-22.42c0.029-0.972,0.058-1.945,0.086-2.919
	c0.305-10.391,0.587-20.887,0.843-31.472c0.047-1.93,0.093-3.862,0.138-5.797c0.045-1.935,0.089-3.873,0.133-5.814
	c0.065-2.891,0.128-5.788,0.19-8.69c0.021-0.995,0.042-1.99,0.063-2.986c0.101-4.878,0.197-9.773,0.288-14.681
	c0.019-0.981,0.036-1.964,0.054-2.947c0.036-1.948,0.07-3.899,0.104-5.852c0.017-1.002,0.035-2.004,0.052-3.007
	c0.099-5.901,0.191-11.822,0.276-17.758c0.014-1.006,0.028-2.013,0.042-3.02c0.068-4.963,0.132-9.938,0.191-14.921
	c0.023-1.993,0.046-3.988,0.068-5.984c0.021-1.996,0.042-3.993,0.062-5.992c0.02-1.999,0.04-3.999,0.059-6
	c0.009-1.001,0.018-2.002,0.026-3.003c0.018-2.003,0.034-4.005,0.051-6.01c0.025-3.007,0.047-6.016,0.067-9.026
	c0.006-1.01,0.014-2.02,0.02-3.03c0.012-2.002,0.025-4.005,0.036-6.008c0.011-2.01,0.021-4.019,0.031-6.03
	c0.009-2.011,0.018-4.022,0.025-6.035c0.032-8.048,0.049-16.104,0.055-24.161c0.002-2.014,0.003-4.029,0.002-6.043
	C1595.255,1197.764,1595.24,1189.706,1595.212,1181.655z"/>
<path style="fill:#FABA58;" d="M290.956,1855.942c-0.661-0.933-0.821-2.132-0.427-3.205l7.822-21.322
	c0.992-2.704-1.548-5.371-4.297-4.514l-21.682,6.761c-1.092,0.341-2.281,0.121-3.18-0.585l-17.862-14.028
	c-2.265-1.779-5.586-0.188-5.621,2.692l-0.27,22.71c-0.013,1.144-0.589,2.208-1.538,2.844l-18.861,12.653
	c-2.392,1.604-1.906,5.255,0.822,6.177l21.515,7.274c1.083,0.366,1.917,1.242,2.23,2.342l6.204,21.848
	c0.787,2.771,4.409,3.436,6.129,1.126l13.568-18.214c0.683-0.917,1.773-1.439,2.917-1.397l22.696,0.85
	c2.878,0.108,4.63-3.131,2.965-5.481L290.956,1855.942z"/>
<path style="fill:#FABA58;" d="M210.805,1709.327l-13.814-6.979c-0.696-0.351-1.174-1.023-1.278-1.795l-2.083-15.336
	c-0.264-1.944-2.643-2.742-4.026-1.35l-10.907,10.981c-0.549,0.553-1.335,0.8-2.102,0.661l-15.229-2.759
	c-1.931-0.349-3.425,1.667-2.528,3.412l7.073,13.766c0.357,0.694,0.349,1.517-0.02,2.204l-7.33,13.631
	c-0.929,1.728,0.526,3.772,2.464,3.459l15.278-2.473c0.769-0.124,1.551,0.137,2.089,0.7l10.698,11.184
	c1.357,1.418,3.75,0.665,4.051-1.274l2.369-15.295c0.119-0.77,0.61-1.432,1.312-1.77l13.942-6.719
	C212.533,1712.721,212.557,1710.212,210.805,1709.327z"/>
<path style="fill:#FABA58;" d="M1674.723,391.144l38.274,10.212c2.901,0.774,5.236,2.926,6.243,5.755l13.286,37.318
	c2.535,7.122,12.138,8.246,16.249,1.9l21.539-33.245c1.633-2.52,4.401-4.075,7.402-4.159l39.597-1.104
	c7.559-0.211,11.594-8.996,6.829-14.867l-24.961-30.759c-1.892-2.331-2.516-5.444-1.668-8.325l11.187-38
	c2.135-7.253-4.974-13.806-12.029-11.089l-36.967,14.235c-2.802,1.079-5.955,0.71-8.433-0.986l-32.683-22.382
	c-6.239-4.272-14.668,0.464-14.264,8.014l2.115,39.557c0.16,2.998-1.165,5.883-3.543,7.715l-31.386,24.168
	C1665.518,379.715,1667.418,389.195,1674.723,391.144z"/>
<path style="fill:#FABA58;" d="M1916.072,459.282c1.279-1.488,0.297-3.797-1.661-3.908l-15.453-0.874
	c-0.778-0.044-1.484-0.468-1.889-1.134l-8.04-13.225c-1.019-1.677-3.52-1.457-4.23,0.372l-5.607,14.426
	c-0.282,0.726-0.904,1.267-1.662,1.446l-15.062,3.56c-1.91,0.451-2.473,2.897-0.953,4.138l11.987,9.79
	c0.603,0.493,0.926,1.251,0.863,2.028l-1.269,15.425c-0.161,1.956,1.99,3.247,3.64,2.185l13.015-8.375
	c0.655-0.422,1.477-0.494,2.195-0.193l14.278,5.974c1.81,0.757,3.703-0.89,3.203-2.788l-3.944-14.966
	c-0.198-0.753-0.013-1.557,0.495-2.147L1916.072,459.282z"/>
<path style="fill:#ECABC4;" d="M1322.797,482.268c-1.23,0.366-2.472,0.704-3.726,1.012l-0.972,0.232
	c-0.973,0.226-1.953,0.434-2.94,0.625l-0.988,0.184c-0.991,0.178-1.987,0.338-2.99,0.48c-0.669,0.094-1.339,0.18-2.012,0.257
	c-3.03,0.349-6.109,0.529-9.229,0.529H772.095c-0.542,0-1.082-0.007-1.622-0.018l-0.265-0.005c-0.52-0.012-1.038-0.03-1.555-0.052
	l-0.268-0.012c-0.527-0.025-1.054-0.053-1.579-0.087l-0.159-0.011c-0.538-0.037-1.076-0.077-1.611-0.124l-0.054-0.005
	c-0.546-0.048-1.09-0.103-1.633-0.162l-0.18-0.019c-0.534-0.06-1.067-0.124-1.598-0.194l-0.151-0.02
	c-39.366-5.264-69.987-39.205-69.987-79.952v-6.918c0-19.032,3.343-37.32,9.466-54.311
	c-123.585,27.468-225.258,73.614-278.768,139.834c-129.189,159.875-201.709,530.761-189.178,863.694
	c58.057,139.753,145.722,266.38,268.874,369.146c-25.828-153.014-32.43-575.677-16.305-844.185
	c6.647-110.685,17.155-195.176,31.77-223.784c1.684-3.297,4.389-6.444,8.036-9.446c3.373-2.776,7.553-5.428,12.487-7.963
	c15.272-7.846,37.754-14.56,65.772-20.292c98.62-20.177,265.841-28.197,428.766-30.606h7.327
	c120.602,1.783,243.556,6.641,339.299,17.228C1360.953,558.511,1342.378,520.019,1322.797,482.268z"/>
<path style="fill:#FABA58;" d="M1847.927,572.404l-15.453-0.875c-0.778-0.044-1.484-0.468-1.889-1.134l-8.04-13.225
	c-1.02-1.677-3.519-1.457-4.23,0.372l-5.607,14.425c-0.282,0.726-0.904,1.268-1.663,1.447l-15.061,3.559
	c-1.911,0.451-2.473,2.897-0.953,4.139l11.987,9.79c0.603,0.493,0.926,1.251,0.862,2.028l-1.27,15.425
	c-0.161,1.956,1.991,3.247,3.641,2.186l13.015-8.375c0.656-0.422,1.477-0.494,2.196-0.193l14.278,5.974
	c1.81,0.757,3.703-0.89,3.203-2.788L1839,590.193c-0.198-0.754-0.013-1.557,0.495-2.147l10.093-11.733
	C1850.868,574.825,1849.886,572.515,1847.927,572.404z"/>
<path style="fill:#ECABC4;" d="M838.285,1827.832c-2.661-0.161-5.315-0.324-7.961-0.491c-1.763-0.111-3.524-0.223-5.281-0.336
	c-1.756-0.114-3.51-0.228-5.259-0.344c-1.75-0.116-3.494-0.232-5.236-0.35c-0.871-0.059-1.741-0.118-2.61-0.178
	c-1.737-0.119-3.471-0.239-5.201-0.361c-0.864-0.061-1.729-0.122-2.591-0.183c-5.178-0.368-10.318-0.747-15.42-1.136
	c-1.701-0.13-3.398-0.261-5.088-0.393c-2.538-0.199-5.064-0.399-7.581-0.603c-0.84-0.068-1.678-0.136-2.514-0.204
	c-1.673-0.137-3.342-0.274-5.006-0.414c-1.663-0.139-3.322-0.279-4.976-0.421c-1.654-0.141-3.303-0.284-4.947-0.427
	c-3.288-0.287-6.555-0.579-9.802-0.875c-2.435-0.222-4.858-0.447-7.269-0.674c-0.803-0.076-1.606-0.152-2.407-0.228
	c-2.402-0.229-4.793-0.461-7.171-0.695s-4.743-0.471-7.095-0.709c-2.352-0.239-4.691-0.481-7.017-0.725
	c-0.775-0.081-1.549-0.163-2.321-0.245c-3.861-0.41-7.685-0.826-11.469-1.249c-3.027-0.339-6.03-0.682-9.007-1.029
	c-2.977-0.347-5.927-0.699-8.851-1.055c-1.462-0.178-2.916-0.357-4.365-0.538c-1.449-0.18-2.89-0.361-4.324-0.544
	c-1.435-0.183-2.862-0.366-4.282-0.55c-1.421-0.185-2.835-0.37-4.242-0.557c-2.813-0.373-5.597-0.751-8.352-1.132
	c-2.066-0.286-4.116-0.575-6.149-0.866c-2.71-0.388-5.39-0.78-8.04-1.177c-2.523-0.377-5.016-0.759-7.483-1.144
	c67.567,29.526,138.811,34.383,205.626,20.211c-1.216-0.071-2.432-0.143-3.647-0.215
	C840.061,1827.939,839.173,1827.886,838.285,1827.832z"/>
<path style="fill:#F1BDD6;" d="M525.329,638.954c-19.936-12.832-45.337-19.891-72.619-15.213
	c-11.956,2.05-24.142,6.188-36.197,12.705c-36.58,19.774-60.634,54.039-66.124,87.645c-6.864,42.024,7.585,90.58,43.381,121.605
	c17.059,14.785,40.478,25.535,66.269,27.573c8.669,0.685,17.22,0.274,25.484-1.085c6.647-110.685,17.155-195.176,31.77-223.784
	C518.977,645.103,521.681,641.956,525.329,638.954z"/>
<path style="fill:#F1BDD6;" d="M609.77,498.532c-12.404-18.871-38.18-34.231-67.214-29.252c-7.816,1.34-15.78,4.044-23.659,8.304
	c-23.909,12.924-39.63,35.32-43.218,57.284c-4.487,27.467,4.957,59.203,28.353,79.481c9.007,7.806,20.726,13.889,33.783,16.642
	c15.272-7.846,37.754-14.56,65.772-20.292C634.082,579.185,630.822,530.562,609.77,498.532z"/>
<path style="fill:#FBD7CD;" d="M1430.221,1600.332c-27.723,37.981-274.629,62.297-515.062,64.63h-7.327
	c-156.754-1.521-316.239-12.387-415.961-30.292c4.761,52.271,10.615,92.979,17.519,116.577l0.002,0.008
	c0.279,0.952,0.559,1.875,0.842,2.772l0.056,0.179l0.19,0.597l0.034,0.106l0.194,0.595l0.049,0.15
	c0.198,0.601,0.398,1.188,0.598,1.762l0.055,0.159l0.147,0.415l0.115,0.32l0.141,0.389l0.112,0.305l0.141,0.38l0.114,0.302
	l0.271,0.707l0.104,0.268l0.136,0.343l0.126,0.316l0.123,0.301l0.15,0.364l0.114,0.274l0.166,0.391l0.092,0.216l0.257,0.583
	l0.102,0.226l0.155,0.339l0.122,0.265l0.154,0.327l0.118,0.247l0.139,0.288l0.129,0.263l0.252,0.498l0.093,0.18l0.167,0.319
	l0.134,0.249l0.138,0.255l0.125,0.224l0.166,0.293l0.102,0.177l0.267,0.451l0.057,0.093l0.211,0.342l0.118,0.184l0.162,0.251
	l0.106,0.161l0.197,0.292l0.079,0.115l0.241,0.339l0.038,0.053c3.683,5.044,11.23,9.848,22.116,14.391
	c2.241,0.935,4.624,1.86,7.143,2.773c0.72,0.261,1.451,0.521,2.193,0.78c5.938,2.072,12.582,4.086,19.88,6.038
	c2.736,0.733,5.565,1.456,8.483,2.171c0.486,0.119,0.974,0.238,1.466,0.357c2.947,0.712,5.982,1.415,9.103,2.11
	c2.601,0.579,5.261,1.152,7.98,1.718c3.261,0.68,6.606,1.351,10.03,2.013c1.713,0.331,3.446,0.659,5.198,0.986
	c2.92,0.544,5.895,1.082,8.923,1.613c0.605,0.107,1.213,0.212,1.823,0.318c2.439,0.423,4.912,0.842,7.418,1.257
	s5.045,0.826,7.616,1.233c3.213,0.509,6.477,1.01,9.788,1.506c2.65,0.396,5.33,0.789,8.04,1.177c2.033,0.291,4.083,0.58,6.149,0.866
	c2.754,0.382,5.539,0.76,8.352,1.132c1.407,0.187,2.821,0.372,4.242,0.557c1.42,0.184,2.848,0.368,4.282,0.55
	c1.434,0.183,2.876,0.364,4.324,0.544c1.449,0.181,2.903,0.359,4.365,0.538c2.924,0.356,5.874,0.708,8.851,1.055
	c2.976,0.347,5.979,0.69,9.007,1.029c3.784,0.423,7.607,0.84,11.469,1.249c0.772,0.082,1.547,0.164,2.321,0.245
	c2.326,0.244,4.664,0.486,7.017,0.725c2.352,0.239,4.717,0.475,7.095,0.709s4.768,0.466,7.171,0.695
	c0.801,0.076,1.604,0.152,2.407,0.228c2.411,0.227,4.834,0.452,7.269,0.674c3.247,0.296,6.515,0.589,9.802,0.875
	c1.644,0.144,3.292,0.286,4.947,0.427c1.654,0.141,3.312,0.281,4.976,0.421c1.664,0.139,3.333,0.277,5.006,0.414
	c0.836,0.068,1.674,0.137,2.514,0.204c2.517,0.203,5.043,0.404,7.581,0.603c1.691,0.132,3.388,0.263,5.088,0.393
	c5.102,0.389,10.242,0.768,15.42,1.136c0.862,0.061,1.727,0.122,2.591,0.183c1.73,0.121,3.464,0.242,5.201,0.361
	c0.869,0.06,1.739,0.119,2.61,0.178c1.742,0.118,3.487,0.235,5.236,0.35c1.75,0.116,3.503,0.23,5.259,0.344
	c1.757,0.113,3.517,0.225,5.281,0.336c2.646,0.166,5.3,0.33,7.961,0.491c0.888,0.054,1.776,0.107,2.664,0.16
	c1.778,0.106,3.559,0.211,5.343,0.315c3.568,0.207,7.149,0.41,10.742,0.607c2.695,0.148,5.396,0.294,8.104,0.437
	c1.806,0.095,3.614,0.189,5.424,0.282c1.811,0.093,3.625,0.184,5.441,0.274c0.908,0.045,1.817,0.09,2.726,0.134
	c1.819,0.089,3.64,0.177,5.464,0.264c2.736,0.13,5.477,0.257,8.223,0.381c1.831,0.083,3.664,0.165,5.5,0.245
	c3.67,0.161,7.35,0.316,11.038,0.467c0.922,0.038,1.844,0.075,2.767,0.112c4.615,0.186,9.241,0.363,13.877,0.532
	c1.855,0.067,3.711,0.134,5.569,0.199c3.715,0.131,7.437,0.256,11.164,0.376c1.863,0.06,3.728,0.119,5.594,0.177
	c15.862,0.49,31.811,0.886,47.782,1.188c12.213,0.231,24.44,0.406,36.649,0.524h7.326c64.805-0.628,130.079-2.854,191.405-6.514
	c4.444-0.265,8.867-0.538,13.268-0.818c0.88-0.056,1.76-0.113,2.637-0.169c1.757-0.114,3.51-0.228,5.259-0.344
	c1.75-0.116,3.496-0.232,5.237-0.35c2.613-0.177,5.216-0.357,7.811-0.539c6.055-0.425,12.06-0.865,18.012-1.319
	c1.7-0.13,3.396-0.261,5.088-0.393c5.075-0.396,10.109-0.803,15.1-1.221c3.327-0.278,6.635-0.561,9.923-0.848
	c5.754-0.502,11.445-1.019,17.071-1.55c0.804-0.076,1.606-0.152,2.406-0.228c2.403-0.229,4.794-0.461,7.171-0.695
	c2.378-0.234,4.743-0.471,7.095-0.709c2.352-0.239,4.691-0.481,7.016-0.725c4.651-0.488,9.25-0.986,13.791-1.495
	c3.028-0.339,6.03-0.682,9.006-1.029c2.976-0.347,5.927-0.699,8.851-1.055c1.461-0.178,2.917-0.357,4.365-0.538
	c1.448-0.18,2.889-0.361,4.324-0.544c1.434-0.182,2.862-0.366,4.283-0.55c1.421-0.185,2.834-0.37,4.24-0.557
	c2.813-0.373,5.597-0.751,8.353-1.132c2.066-0.286,4.115-0.575,6.148-0.866c1.355-0.194,2.703-0.389,4.043-0.585
	c1.34-0.196,2.672-0.394,3.997-0.592c1.324-0.198,2.642-0.397,3.951-0.598c1.964-0.3,3.91-0.603,5.838-0.908
	c1.285-0.203,2.563-0.408,3.832-0.613c1.27-0.205,2.53-0.412,3.784-0.62c2.397-0.397,4.765-0.798,7.101-1.203
	c0.716-0.124,1.43-0.248,2.14-0.373c3.028-0.531,6.003-1.07,8.924-1.613c1.752-0.327,3.484-0.655,5.196-0.986
	c3.426-0.662,6.771-1.333,10.032-2.013c2.717-0.566,5.377-1.139,7.978-1.718c2.996-0.667,5.913-1.342,8.749-2.025
	c0.611-0.147,1.219-0.294,1.821-0.442c2.918-0.715,5.746-1.438,8.483-2.171c7.14-1.91,13.653-3.879,19.492-5.904l0.777-0.271
	c0.608-0.214,1.21-0.428,1.804-0.643c2.37-0.859,4.618-1.729,6.743-2.608l0.682-0.284c8.822-3.706,15.427-7.583,19.526-11.624
	c0.888-0.875,1.658-1.758,2.307-2.648c14.926-20.449,25.929-113.515,32.671-238.184l0.014-0.26
	c1.181-21.873,2.231-44.718,3.15-68.313c0.072-1.852,0.143-3.708,0.213-5.568c0.137-3.622,0.271-7.261,0.402-10.916
	c0.066-1.844,0.131-3.693,0.195-5.545c0.064-1.822,0.126-3.648,0.188-5.478l0.006-0.182c0.25-7.413,0.487-14.888,0.712-22.42
	c0.029-0.972,0.058-1.945,0.086-2.919c0.305-10.391,0.587-20.887,0.843-31.472c0.047-1.93,0.093-3.862,0.138-5.797
	c0.045-1.935,0.089-3.873,0.133-5.814c0.065-2.891,0.128-5.788,0.19-8.69c0.021-0.995,0.042-1.99,0.063-2.986
	c0.101-4.878,0.197-9.773,0.288-14.681c0.019-0.981,0.036-1.964,0.054-2.947c0.036-1.948,0.07-3.899,0.104-5.852
	c0.017-1.002,0.035-2.004,0.052-3.007c0.099-5.901,0.191-11.822,0.276-17.758c0.014-1.006,0.028-2.013,0.042-3.02
	c0.068-4.963,0.132-9.938,0.191-14.921c0.023-1.993,0.046-3.988,0.068-5.984c0.021-1.996,0.042-3.993,0.062-5.992
	c0.02-1.999,0.04-3.999,0.059-6c0.009-1.001,0.018-2.002,0.026-3.003c0.018-2.003,0.034-4.005,0.051-6.01
	c0.025-3.007,0.047-6.016,0.067-9.026c0.006-1.01,0.014-2.02,0.02-3.03c0.012-2.002,0.025-4.005,0.036-6.008
	c0.011-2.01,0.021-4.019,0.031-6.03c0.009-2.011,0.018-4.022,0.025-6.035c0.032-8.048,0.049-16.104,0.055-24.161
	c0.002-2.014,0.003-4.029,0.002-6.043c-0.002-8.058-0.017-16.116-0.044-24.167c-0.008-2.013-0.015-4.025-0.023-6.037
	s-0.018-4.023-0.029-6.034c-0.01-2.011-0.021-4.021-0.034-6.03c-0.018-3.015-0.038-6.027-0.06-9.038
	c-0.013-2.007-0.029-4.013-0.045-6.019c-0.016-2.005-0.033-4.01-0.051-6.013c-0.018-2.003-0.037-4.005-0.056-6.006
	c-0.058-6.003-0.124-11.996-0.198-17.975c-0.024-1.993-0.051-3.985-0.077-5.975c-0.131-9.95-0.283-19.861-0.455-29.72
	c-0.035-1.972-0.07-3.942-0.106-5.909c-0.182-9.838-0.384-19.621-0.608-29.337c-0.045-1.943-0.09-3.884-0.137-5.821
	c-0.14-5.813-0.287-11.601-0.442-17.362c-0.05-1.894-0.102-3.785-0.154-5.673c-0.028-0.983-0.055-1.965-0.084-2.946
	c-0.595-21.016-1.294-41.64-2.097-61.736c-0.146-3.654-0.295-7.29-0.448-10.908c-0.191-4.523-0.387-9.017-0.589-13.481
	c-0.081-1.786-0.163-3.567-0.245-5.343c-0.412-8.88-0.847-17.636-1.303-26.257c-0.091-1.724-0.183-3.442-0.276-5.156
	c-0.557-10.28-1.147-20.36-1.767-30.22c-0.104-1.643-0.208-3.281-0.313-4.911c-1.104-17.125-2.306-33.563-3.605-49.196
	c-0.124-1.489-0.248-2.97-0.373-4.445c-2.385-28.009-5.089-53.348-8.12-75.32c-0.16-1.156-0.32-2.303-0.481-3.441
	c-0.322-2.275-0.649-4.513-0.979-6.712c-0.578-3.848-1.166-7.579-1.766-11.187c-0.17-1.031-0.342-2.052-0.516-3.063
	c-0.173-1.011-0.347-2.012-0.522-3.003c-0.087-0.495-0.175-0.988-0.263-1.478c-0.352-1.961-0.708-3.88-1.066-5.759
	c-0.09-0.469-0.18-0.936-0.27-1.401c-0.992-5.107-2.012-9.897-3.059-14.353l-0.287-1.207c-0.382-1.598-0.769-3.152-1.159-4.66
	l-0.292-1.123c-2.548-9.658-5.252-17.399-8.112-22.998l-0.021-0.039l-0.363-0.673l-0.122-0.216l-0.335-0.564l-0.096-0.158
	l-0.456-0.702l-0.112-0.164l-0.398-0.565l-0.132-0.182l-0.538-0.706l-0.026-0.032l-0.551-0.673l-0.137-0.161l-0.571-0.652
	l-0.04-0.045l-0.682-0.73l-0.069-0.071l-0.664-0.669l-0.069-0.069c-0.504-0.492-1.032-0.98-1.585-1.464l-0.025-0.022
	c-15.024-13.148-48-23.569-93.077-31.794C1483.372,897.828,1472.631,1542.226,1430.221,1600.332z"/>
<path style="fill:#9B7CB7;" d="M1376.452,361.689c-0.151-0.649-0.306-1.297-0.465-1.943c-0.452-1.842-0.938-3.672-1.453-5.489
	l-0.01-0.033c-2.918-10.279-6.835-20.149-11.64-29.496c-0.297-0.579-0.599-1.157-0.904-1.732c-0.609-1.151-1.232-2.294-1.868-3.428
	c-0.637-1.134-1.286-2.26-1.948-3.378c-0.994-1.676-2.017-3.333-3.069-4.97c-0.351-0.545-0.704-1.089-1.061-1.63
	c-1.428-2.165-2.907-4.293-4.434-6.384c-1.527-2.091-3.104-4.144-4.728-6.157c-0.812-1.007-1.636-2.004-2.471-2.99
	c-1.671-1.974-3.387-3.908-5.149-5.799c-1.762-1.891-3.567-3.741-5.417-5.547c-10.169-9.931-21.636-18.539-34.114-25.536
	c-1.134-0.636-2.277-1.259-3.428-1.868c-1.151-0.609-2.31-1.205-3.477-1.787c-2.917-1.455-5.884-2.825-8.896-4.104
	c-1.205-0.512-2.418-1.01-3.638-1.493c-0.609-0.242-1.222-0.48-1.835-0.714c-1.227-0.469-2.461-0.923-3.702-1.362
	c-2.481-0.878-4.99-1.698-7.524-2.456c-1.901-0.569-3.817-1.103-5.746-1.602c-5.144-1.332-10.385-2.415-15.711-3.234
	c-1.332-0.205-2.668-0.393-4.009-0.565c-2.683-0.344-5.387-0.621-8.108-0.83c-1.361-0.104-2.727-0.191-4.096-0.261
	c-2.74-0.14-5.496-0.211-8.269-0.211h-0.002c-1.005,0-1.999-0.047-2.981-0.136c-1.227-0.112-2.435-0.293-3.619-0.54
	c-0.947-0.197-1.88-0.436-2.796-0.715l-1.36-0.447c-1.124-0.398-2.218-0.856-3.282-1.372l-1.261-0.646l-0.619-0.343l-1.213-0.725
	l-1.179-0.776c-1.356-0.935-2.64-1.972-3.842-3.101l-1.01-0.99l-0.969-1.033c-0.473-0.527-0.931-1.071-1.371-1.629
	c-1.029-1.303-1.964-2.686-2.798-4.142c-0.357-0.624-0.696-1.261-1.015-1.911l-0.313-0.653l-0.585-1.331
	c-0.186-0.449-0.363-0.903-0.53-1.362c-0.671-1.836-1.194-3.751-1.553-5.729c-0.121-0.661-0.246-1.32-0.375-1.979l-0.122-0.618
	c-0.092-0.461-0.187-0.922-0.283-1.382l-0.141-0.671c-0.118-0.551-0.239-1.101-0.362-1.65l-0.066-0.297
	c-0.147-0.648-0.3-1.294-0.456-1.939l-0.137-0.561c-0.116-0.472-0.234-0.943-0.353-1.413l-0.167-0.646
	c-0.131-0.504-0.265-1.008-0.401-1.51l-0.111-0.413c-0.176-0.64-0.354-1.278-0.539-1.914l-0.136-0.464
	c-0.144-0.494-0.29-0.988-0.44-1.481l-0.182-0.596c-0.143-0.467-0.289-0.933-0.437-1.399l-0.172-0.543
	c-0.203-0.628-0.408-1.255-0.618-1.879l-0.094-0.274c-0.182-0.538-0.367-1.074-0.554-1.609l-0.194-0.548
	c-0.169-0.475-0.34-0.95-0.513-1.423l-0.18-0.491c-0.23-0.622-0.463-1.242-0.701-1.859l-0.063-0.161
	c-0.219-0.566-0.441-1.13-0.666-1.693l-0.212-0.523c-0.188-0.465-0.378-0.929-0.57-1.391l-0.201-0.48
	c-0.518-1.233-1.051-2.458-1.601-3.674l-0.185-0.408c-0.218-0.479-0.439-0.957-0.661-1.433l-0.22-0.47
	c-0.269-0.571-0.541-1.14-0.817-1.707l-0.03-0.062c-0.302-0.62-0.609-1.237-0.919-1.853l-0.137-0.27
	c-0.263-0.519-0.529-1.035-0.798-1.551l-0.181-0.347c-0.283-0.538-0.567-1.074-0.856-1.608l-0.097-0.183
	c-0.334-0.615-0.671-1.228-1.012-1.838l-0.028-0.051c-0.32-0.571-0.643-1.139-0.97-1.705l-0.16-0.277
	c-0.32-0.552-0.643-1.103-0.97-1.65l-0.057-0.095c-0.711-1.191-1.439-2.372-2.182-3.542l-0.147-0.232
	c-0.334-0.524-0.672-1.047-1.011-1.567l-0.112-0.172c-0.763-1.162-1.54-2.313-2.334-3.452l-0.102-0.146
	c-0.367-0.527-0.738-1.052-1.112-1.574l-0.107-0.149c-0.822-1.145-1.659-2.277-2.511-3.398l-0.003-0.004
	c-0.417-0.548-0.837-1.092-1.261-1.634l-0.087-0.112c-1.308-1.669-2.65-3.312-4.025-4.925l-0.025-0.029
	c-0.42-0.493-0.845-0.982-1.271-1.47l-0.392-0.444l-0.868-0.978l-0.535-0.591l-0.78-0.856l-0.543-0.587l-0.748-0.8l-0.624-0.658
	l-0.684-0.712l-0.669-0.69l-0.673-0.682l-0.681-0.686l-0.662-0.654l-0.72-0.708l-0.643-0.618c-0.457-0.439-0.916-0.875-1.378-1.309
	l-0.679-0.635l-0.782-0.717l-0.626-0.571l-0.807-0.723l-0.623-0.553l-0.801-0.7l-0.644-0.558l-0.828-0.706l-0.599-0.506
	l-0.887-0.739l-0.564-0.463l-0.903-0.736l-0.557-0.445l-0.963-0.765l-0.213-0.165c-1.294-1.011-2.604-2.003-3.929-2.973
	l-0.254-0.186l-1.169-0.843l-0.365-0.26l-1.141-0.802l-0.409-0.284l-1.133-0.777l-0.417-0.282l-1.173-0.782l-0.346-0.228
	l-1.237-0.805l-0.248-0.159c-2.438-1.561-4.923-3.055-7.451-4.48l-0.213-0.12l-1.361-0.754l-0.281-0.154
	c-0.458-0.249-0.918-0.497-1.379-0.743l-0.123-0.066l0.001,0.002c-21.43-11.374-45.875-17.821-71.828-17.821
	c-75.326,0-137.977,54.28-150.968,125.859c-2.873,15.825-16.213,27.581-32.297,27.581c-69.693,0-129.432,44.791-151.853,107.008
	c-6.123,16.991-9.466,35.279-9.466,54.311v6.918c0,39.635,28.972,72.828,66.784,79.456l0.155,0.027
	c0.469,0.082,0.94,0.159,1.411,0.232l0.193,0.03c0.48,0.073,0.961,0.143,1.444,0.208l0.151,0.02c0.531,0.07,1.064,0.135,1.598,0.194
	l0.18,0.019c0.543,0.059,1.087,0.114,1.633,0.162l0.054,0.005c0.535,0.047,1.073,0.088,1.611,0.124l0.159,0.011
	c0.525,0.034,1.051,0.062,1.579,0.087l0.268,0.012c0.517,0.022,1.035,0.04,1.555,0.052l0.265,0.005
	c0.54,0.011,1.08,0.018,1.622,0.018h527.846c3.119,0,6.199-0.18,9.229-0.529c0.673-0.077,1.343-0.163,2.012-0.257
	c1.003-0.141,1.999-0.302,2.99-0.48l0.988-0.184c0.987-0.191,1.967-0.399,2.94-0.625l0.972-0.232
	c1.938-0.476,3.849-1.022,5.731-1.637c0.627-0.204,1.251-0.417,1.871-0.637c3.102-1.098,6.119-2.381,9.036-3.837
	c0.584-0.291,1.163-0.589,1.738-0.894c0.575-0.305,1.147-0.616,1.714-0.934c1.134-0.636,2.252-1.299,3.352-1.988
	c0.55-0.344,1.096-0.695,1.637-1.052c1.082-0.714,2.146-1.454,3.192-2.218c0.523-0.382,1.041-0.77,1.554-1.164
	c0.513-0.394,1.021-0.794,1.525-1.2l1.156-0.952l1.076-0.914c1.221-1.058,2.41-2.153,3.565-3.282
	c2.081-2.031,4.052-4.173,5.905-6.417l0.614-0.751c1.623-2.014,3.153-4.106,4.581-6.271c0.356-0.542,0.707-1.087,1.052-1.637
	c1.289-2.061,2.488-4.184,3.592-6.363l0.365-0.731c1.974-3.997,3.628-8.177,4.923-12.509c0.215-0.718,0.419-1.44,0.614-2.166
	c1.785-6.643,2.739-13.618,2.739-20.804v-6.92C1380.602,385.528,1379.166,373.371,1376.452,361.689z M978.144,188.314
	c3.989-24.323,23.606-43.942,47.929-47.934c40.169-6.593,74.407,27.644,67.816,67.814c-3.99,24.324-23.608,43.942-47.932,47.931
	C1005.791,262.714,971.556,228.48,978.144,188.314z"/>
<path style="fill:#9470AF;" d="M1107.845,101.066c9.436,15.65,13.959,33.554,13.959,48.141
	c5.299,90.08,42.391,153.667,121.874,196.058c21.196,15.897,0,58.288-26.494,79.483c-47.69,42.391-116.575,42.391-158.965,21.195
	c-90.081-42.391-174.862-37.092-259.645-5.299c-39.609,11.65-76.137,2.797-105.095-17.974c7.378,32.497,34.478,57.726,67.941,62.205
	l0.151,0.02c0.531,0.07,1.064,0.135,1.598,0.194l0.18,0.019c0.543,0.059,1.087,0.114,1.633,0.162l0.054,0.005
	c0.535,0.047,1.073,0.088,1.611,0.124l0.159,0.011c0.525,0.034,1.051,0.062,1.579,0.087l0.268,0.012
	c0.517,0.022,1.035,0.04,1.555,0.052l0.265,0.005c0.54,0.011,1.08,0.018,1.622,0.018h0.001h527.845c3.119,0,6.199-0.18,9.229-0.529
	c0.673-0.077,1.343-0.163,2.012-0.257c1.003-0.141,1.999-0.302,2.99-0.48l0.988-0.184c0.987-0.191,1.967-0.399,2.94-0.625
	l0.972-0.232c1.938-0.476,3.849-1.022,5.731-1.637c0.627-0.204,1.251-0.417,1.871-0.637c3.102-1.098,6.119-2.381,9.036-3.837
	c0.584-0.291,1.163-0.589,1.738-0.894c0.575-0.305,1.147-0.616,1.714-0.934c1.134-0.636,2.252-1.299,3.352-1.988
	c0.55-0.344,1.096-0.695,1.637-1.052c1.082-0.714,2.146-1.454,3.192-2.218c0.523-0.382,1.041-0.77,1.554-1.164
	c0.513-0.394,1.021-0.794,1.525-1.2l1.156-0.952l1.076-0.914c1.221-1.058,2.41-2.153,3.565-3.282
	c2.081-2.031,4.052-4.173,5.905-6.417l0.614-0.751c1.623-2.014,3.153-4.106,4.581-6.271c0.356-0.542,0.707-1.087,1.052-1.637
	c1.289-2.061,2.488-4.184,3.592-6.363l0.365-0.731c1.974-3.997,3.628-8.177,4.923-12.509c0.215-0.718,0.419-1.44,0.614-2.166
	c1.785-6.643,2.739-13.618,2.739-20.804v-6.92c0-12.477-1.436-24.635-4.15-36.317c-0.151-0.649-0.306-1.297-0.465-1.943
	c-0.452-1.842-0.938-3.672-1.453-5.489l-0.01-0.033c-2.918-10.279-6.835-20.149-11.64-29.496c-0.297-0.579-0.599-1.157-0.904-1.732
	c-0.609-1.151-1.232-2.294-1.868-3.428c-0.637-1.134-1.286-2.26-1.948-3.378c-0.994-1.676-2.017-3.333-3.069-4.97
	c-0.351-0.545-0.704-1.089-1.061-1.63c-1.428-2.165-2.907-4.293-4.434-6.384c-1.527-2.091-3.104-4.144-4.728-6.157
	c-0.812-1.007-1.636-2.004-2.471-2.99c-1.671-1.974-3.387-3.908-5.149-5.799c-1.762-1.891-3.567-3.741-5.417-5.547
	c-10.169-9.931-21.636-18.539-34.114-25.536c-1.134-0.636-2.277-1.259-3.428-1.868c-1.151-0.609-2.31-1.205-3.477-1.787
	c-2.917-1.455-5.884-2.825-8.896-4.104c-1.205-0.512-2.418-1.01-3.638-1.493c-0.609-0.242-1.222-0.48-1.835-0.714
	c-1.227-0.469-2.461-0.923-3.702-1.362c-2.481-0.878-4.99-1.698-7.524-2.456c-1.901-0.569-3.817-1.103-5.746-1.602
	c-5.144-1.332-10.385-2.415-15.711-3.234c-1.332-0.205-2.668-0.393-4.009-0.565c-2.683-0.344-5.387-0.621-8.108-0.83
	c-1.361-0.104-2.727-0.191-4.096-0.261c-2.74-0.14-5.496-0.211-8.269-0.211h-0.002c-1.005,0-1.999-0.047-2.981-0.136
	c-1.227-0.112-2.435-0.293-3.619-0.54c-0.947-0.197-1.88-0.436-2.796-0.715l-1.36-0.447c-1.124-0.398-2.218-0.856-3.282-1.372
	l-1.261-0.646l-0.619-0.343l-1.213-0.725l-1.179-0.776c-1.356-0.935-2.64-1.972-3.842-3.101l-1.01-0.99l-0.969-1.033
	c-0.473-0.527-0.931-1.071-1.371-1.629c-1.029-1.303-1.964-2.686-2.798-4.142c-0.357-0.624-0.696-1.261-1.015-1.911l-0.313-0.653
	l-0.585-1.331c-0.186-0.449-0.363-0.903-0.53-1.362c-0.671-1.836-1.194-3.751-1.553-5.729c-0.121-0.661-0.246-1.32-0.375-1.979
	l-0.122-0.618c-0.092-0.461-0.187-0.922-0.283-1.382l-0.141-0.671c-0.118-0.551-0.239-1.101-0.362-1.65l-0.066-0.297
	c-0.147-0.648-0.3-1.294-0.456-1.939l-0.137-0.561c-0.116-0.472-0.234-0.943-0.353-1.413l-0.167-0.646
	c-0.131-0.504-0.265-1.008-0.401-1.51l-0.111-0.413c-0.176-0.64-0.354-1.278-0.539-1.914l-0.136-0.464
	c-0.144-0.494-0.29-0.988-0.44-1.481l-0.182-0.596c-0.143-0.467-0.289-0.933-0.437-1.399l-0.172-0.543
	c-0.203-0.628-0.408-1.255-0.618-1.879l-0.094-0.274c-0.182-0.538-0.367-1.074-0.554-1.609l-0.194-0.548
	c-0.169-0.475-0.34-0.95-0.513-1.423l-0.18-0.491c-0.23-0.622-0.463-1.242-0.701-1.859l-0.063-0.161
	c-0.219-0.566-0.441-1.13-0.666-1.693l-0.212-0.523c-0.188-0.465-0.378-0.929-0.57-1.391l-0.201-0.48
	c-0.518-1.233-1.051-2.458-1.601-3.674l-0.185-0.408c-0.218-0.479-0.439-0.957-0.661-1.433l-0.22-0.47
	c-0.269-0.571-0.541-1.14-0.817-1.707l-0.03-0.062c-0.302-0.62-0.609-1.237-0.919-1.853l-0.137-0.27
	c-0.263-0.519-0.529-1.035-0.798-1.551l-0.181-0.347c-0.283-0.538-0.567-1.074-0.856-1.608l-0.097-0.183
	c-0.334-0.615-0.671-1.228-1.012-1.838l-0.028-0.051c-0.32-0.571-0.643-1.139-0.97-1.705l-0.16-0.277
	c-0.32-0.552-0.643-1.103-0.97-1.65l-0.057-0.095c-0.711-1.191-1.439-2.372-2.182-3.542l-0.147-0.232
	c-0.334-0.524-0.672-1.047-1.011-1.567l-0.112-0.172c-0.763-1.162-1.54-2.313-2.334-3.452l-0.102-0.146
	c-0.367-0.527-0.738-1.052-1.112-1.574l-0.107-0.149c-0.822-1.145-1.659-2.277-2.511-3.398l-0.003-0.004
	c-0.417-0.548-0.837-1.092-1.261-1.634l-0.087-0.112c-1.308-1.669-2.65-3.312-4.025-4.925l-0.025-0.029
	C1140.293,122.492,1125.04,110.192,1107.845,101.066z"/>
<path style="fill:#9B7CB7;" d="M648.205,836.959v2.827c0,19.998,16.363,36.361,36.36,36.361h628.722
	c19.999,0,36.361-16.362,36.361-36.361v-2.827c0-19.999-16.362-36.361-36.361-36.361H684.565
	C664.567,800.599,648.205,816.96,648.205,836.959z"/>
<path style="fill:#9B7CB7;" d="M1138.424,985.062H684.565c-19.997,0-36.36,16.363-36.36,36.361v2.827
	c0,19.999,16.363,36.361,36.36,36.361h453.859c19.999,0,36.361-16.362,36.361-36.361v-2.827
	C1174.785,1001.425,1158.423,985.062,1138.424,985.062z"/>
<path style="fill:#9B7CB7;" d="M1387.471,1169.526H684.565c-19.997,0-36.36,16.362-36.36,36.361v2.827
	c0,19.998,16.363,36.361,36.36,36.361h702.906c19.998,0,36.361-16.363,36.361-36.361v-2.827
	C1423.831,1185.888,1407.469,1169.526,1387.471,1169.526z"/>
<path style="fill:#9B7CB7;" d="M684.565,1429.538h296.888c19.997,0,36.36-16.362,36.36-36.361v-2.827
	c0-19.998-16.363-36.361-36.36-36.361H684.565c-19.997,0-36.36,16.362-36.36,36.361v2.827
	C648.205,1413.176,664.567,1429.538,684.565,1429.538z"/>
<path style="fill:#9B7CB7;" d="M1387.471,1538.454H684.565c-19.997,0-36.36,16.362-36.36,36.361v2.827
	c0,19.998,16.363,36.361,36.36,36.361h702.906c19.998,0,36.361-16.362,36.361-36.361v-2.827
	C1423.831,1554.816,1407.469,1538.454,1387.471,1538.454z"/>
</svg>
